<svg width="24" height="24" viewBox="0 0 24 24" fill="none" xmlns="http://www.w3.org/2000/svg">
<path d="M17.2499 13H12.9999V17.2501C12.9999 17.8021 12.552 18.25 11.9999 18.25C11.4479 18.25 11 17.8021 11 17.2501V13H6.74994C6.19788 13 5.75 12.5521 5.75 12.0001C5.75 11.448 6.19788 11.0001 6.74994 11.0001H11V6.75006C11 6.198 11.4479 5.75012 11.9999 5.75012C12.552 5.75012 12.9999 6.198 12.9999 6.75006V11.0001H17.2499C17.802 11.0001 18.2499 11.448 18.2499 12.0001C18.2499 12.5521 17.802 13 17.2499 13V13Z" fill="#18AB41"/>
</svg>
