<svg width="16" height="16" viewBox="0 0 16 16" fill="none" xmlns="http://www.w3.org/2000/svg">
<rect x="3.19995" y="4.7998" width="9.6" height="6.4" fill="white"/>
<path d="M7.99986 0C3.58924 0 0 3.58854 0 7.99972C0 12.4109 3.58901 16 7.99986 16C12.4115 16 15.9997 12.4111 15.9997 7.99972C15.9997 3.58854 12.4117 0 7.99986 0ZM11.4622 6.36066L7.27238 10.5505C7.14658 10.6761 6.98079 10.7396 6.81654 10.7396C6.65103 10.7396 6.48679 10.6762 6.36056 10.5505L4.53838 8.72827C4.28645 8.47611 4.28645 8.06825 4.53838 7.81637C4.79027 7.56448 5.19813 7.56448 5.45006 7.81637L6.81654 9.18332L10.5511 5.44861C10.8024 5.19701 11.2103 5.19701 11.4622 5.44861C11.7141 5.70091 11.7141 6.10877 11.4622 6.36066Z" fill="#FAC32D"/>
</svg>
