<svg width="19" height="15" viewBox="0 0 19 25" fill="none" xmlns="http://www.w3.org/2000/svg">
<path d="M9.375 0C6.88945 0.00279153 4.50651 0.991408 2.74896 2.74896C0.991408 4.50651 0.00279153 6.88945 0 9.375C0 15.9805 8.28568 24.3422 8.63841 24.6949C8.83506 24.8878 9.09953 24.9959 9.375 24.9959C9.65047 24.9959 9.91494 24.8878 10.1116 24.6949C10.4643 24.3422 18.75 15.9805 18.75 9.375C18.7472 6.88945 17.7586 4.50651 16.001 2.74896C14.2435 0.991408 11.8605 0.00279153 9.375 0V0ZM9.375 15.625C8.13887 15.625 6.93049 15.2584 5.90269 14.5717C4.87488 13.8849 4.0738 12.9088 3.60075 11.7668C3.12771 10.6247 3.00393 9.36807 3.24509 8.15569C3.48625 6.9433 4.0815 5.82966 4.95558 4.95558C5.82966 4.0815 6.9433 3.48625 8.15569 3.24509C9.36807 3.00393 10.6247 3.12771 11.7668 3.60075C12.9088 4.0738 13.8849 4.87488 14.5717 5.90269C15.2584 6.93049 15.625 8.13887 15.625 9.375C15.625 11.0326 14.9665 12.6223 13.7944 13.7944C12.6223 14.9665 11.0326 15.625 9.375 15.625Z" fill="#446CCF"/>
<path d="M13.7748 7.86782L9.60814 5.78449C9.53581 5.74832 9.45606 5.72949 9.37519 5.72949C9.29433 5.72949 9.21458 5.74832 9.14225 5.78449L4.97559 7.86782L5.44147 8.79959L6.77103 8.13475V11.4587C6.77103 11.5968 6.8259 11.7293 6.92358 11.827C7.02125 11.9247 7.15373 11.9795 7.29186 11.9795H11.4585C11.5967 11.9795 11.7291 11.9247 11.8268 11.827C11.9245 11.7293 11.9794 11.5968 11.9794 11.4587V8.13475L13.3089 8.79959L13.7748 7.86782Z" fill="#446CCF"/>
</svg>
