<svg width="20" height="20" viewBox="0 0 20 20" fill="none" xmlns="http://www.w3.org/2000/svg">
<rect width="20" height="20" fill="white"/>
<path d="M5.68125 8.35735C5.68125 9.85236 6.89749 11.0686 8.3925 11.0686C8.74494 11.0686 9.03046 11.3542 9.03046 11.7066C9.03046 12.059 8.74494 12.3445 8.3925 12.3445C6.19399 12.3445 4.40534 10.5559 4.40534 8.35735C4.40534 6.15871 6.19399 4.37006 8.3925 4.37006C10.5911 4.37006 12.3798 6.15871 12.3798 8.35735C12.3798 8.70966 12.0941 8.99531 11.7418 8.99531C11.3895 8.99531 11.1039 8.70966 11.1039 8.35735C11.1039 6.86234 9.88752 5.64597 8.3925 5.64597C6.89749 5.64597 5.68125 6.86234 5.68125 8.35735ZM6.1825 14C4.54542 12.2073 3.13168 10.659 3.12943 8.35111C3.1328 5.45246 5.49386 3.09415 8.3925 3.09415C11.2913 3.09415 13.6522 5.45246 13.6556 8.35111C13.6561 8.70329 13.9416 8.98844 14.2935 8.98831H14.2943C14.6466 8.98794 14.932 8.70192 14.9315 8.34961C14.9295 6.60453 14.2485 4.96432 13.0138 3.73098C11.779 2.49752 10.1378 1.81824 8.3925 1.81824C6.6473 1.81824 5.00609 2.49752 3.77125 3.73098C2.53667 4.96432 1.85551 6.60453 1.85352 8.35098C1.85476 9.62228 2.20782 10.815 2.93305 11.9974C3.56089 13.0213 4.37663 13.9146 5.2403 14.8604C6.087 15.7877 6.96266 16.7465 7.66191 17.8529C7.78326 18.0449 7.99013 18.15 8.20174 18.15C8.31835 18.15 8.4362 18.1182 8.54207 18.0513C8.83982 17.863 8.92871 17.469 8.74045 17.1711C7.98089 15.9695 7.06665 14.9682 6.1825 14ZM18.018 14.3061C17.8922 14.4438 17.7199 14.5136 17.5471 14.5136C17.3933 14.5136 17.2391 14.4584 17.1168 14.3465L17.0369 14.2735V16.3845C17.0369 17.3756 16.2311 18.1819 15.2409 18.1819H11.6558C10.6656 18.1819 9.8598 17.3756 9.8598 16.3845V14.3027L9.81186 14.3465C9.55181 14.5844 9.14831 14.5662 8.91048 14.3062C8.67278 14.0461 8.69088 13.6425 8.95093 13.4048L12.2437 10.3943C12.9396 9.75823 13.989 9.75823 14.6848 10.3943L16.7945 12.3233C16.8179 12.3418 16.8399 12.3619 16.8603 12.3833L17.9777 13.4048C18.2378 13.6425 18.2559 14.0461 18.018 14.3061ZM15.761 13.1069L13.8239 11.336C13.6189 11.1486 13.3098 11.1486 13.1048 11.336L11.1357 13.136V16.3845C11.1357 16.672 11.3691 16.906 11.6559 16.906H15.2409C15.5276 16.906 15.761 16.672 15.761 16.3845V13.1069Z" fill="#ec9900"/>
</svg>
