<svg xmlns="http://www.w3.org/2000/svg"  viewBox="0 0 50 50" width="50px" height="50px"><path d="M 9 4 C 6.2504839 4 4 6.2504839 4 9 L 4 41 C 4 43.749516 6.2504839 46 9 46 L 41 46 C 43.749516 46 46 43.749516 46 41 L 46 9 C 46 6.2504839 43.749516 4 41 4 L 9 4 z M 9 6 L 41 6 C 42.668484 6 44 7.3315161 44 9 L 44 41 C 44 42.668484 42.668484 44 41 44 L 9 44 C 7.3315161 44 6 42.668484 6 41 L 6 9 C 6 7.3315161 7.3315161 6 9 6 z M 18 13 C 15.250484 13 13 15.250484 13 18 A 1.0001 1.0001 0 0 0 14 19 L 28 19 C 30.983172 19 33.352744 21.58144 32.957031 24.662109 C 32.636353 27.162239 30.362045 29 27.791016 29 L 24 29 C 22.35503 29 21 30.35503 21 32 L 21 34 A 1.0001 1.0001 0 0 0 22 35 L 27.646484 35 C 33.469395 35 38.583039 30.60701 38.974609 24.75 C 39.402338 18.364786 34.305594 13 28 13 L 18 13 z M 18 15 L 28 15 C 33.176406 15 37.330787 19.358401 36.978516 24.617188 C 36.660086 29.380177 32.465574 33 27.646484 33 L 23 33 L 23 32 C 23 31.43497 23.43497 31 24 31 L 27.791016 31 C 31.317987 31 34.486084 28.465886 34.941406 24.916016 C 35.485693 20.678685 32.152828 17 28 17 L 15.412109 17 C 15.849197 15.887535 16.724148 15 18 15 z M 18 21 C 15.250484 21 13 23.250484 13 26 L 13 34 C 13 36.749516 15.250484 39 18 39 A 1.0001 1.0001 0 0 0 19 38 L 19 28 C 19 27.43497 19.43497 27 20 27 L 28 27 C 29.64497 27 31 25.64497 31 24 C 31 22.35503 29.64497 21 28 21 L 18 21 z M 18 23 L 28 23 C 28.56503 23 29 23.43497 29 24 C 29 24.56503 28.56503 25 28 25 L 20 25 C 18.35503 25 17 26.35503 17 28 L 17 36.587891 C 15.887535 36.150803 15 35.275852 15 34 L 15 26 C 15 24.331516 16.331516 23 18 23 z"/></svg>