<svg width="20" height="20" viewBox="0 0 20 20" fill="none" xmlns="http://www.w3.org/2000/svg">
<path d="M17.2371 6.5625H3.49457L13.252 1.875C13.3757 2.13279 13.5642 2.35412 13.7989 2.51739C14.0337 2.68067 14.3067 2.78033 14.5914 2.80664L15.4723 2.88867L15.743 3.45196L15.45 4.28594L16.284 4.57852L16.5547 5.14179L16.2621 5.97578L17.0961 6.26875L17.2371 6.5625Z" fill="#FFA100"/>
<path d="M17.5 18.125C17.5 17.8391 17.574 17.558 17.7149 17.3092C17.8558 17.0604 18.0587 16.8523 18.3039 16.7052L19.0625 16.25V15.625L18.4375 15L19.0625 14.375V13.75L18.4375 13.125L19.0625 12.5V11.875L18.4375 11.25L19.0625 10.625V10L18.4375 9.375L19.0625 8.75V8.125L18.3039 7.66984C18.0587 7.52273 17.8558 7.31463 17.7149 7.06581C17.574 6.81699 17.5 6.53593 17.5 6.25H2.5C2.5 6.53593 2.42596 6.81699 2.28508 7.06581C2.1442 7.31463 1.94129 7.52273 1.6961 7.66984L0.9375 8.125V8.75L1.5625 9.375L0.9375 10V10.625L1.5625 11.25L0.9375 11.875V12.5L1.5625 13.125L0.9375 13.75V14.375L1.5625 15L0.9375 15.625V16.25L1.6961 16.7052C1.94129 16.8523 2.1442 17.0604 2.28508 17.3092C2.42596 17.558 2.5 17.8391 2.5 18.125H17.5Z" fill="#FFC431"/>
<path d="M15.9375 8.125H4.0625C3.71732 8.125 3.4375 8.40482 3.4375 8.75V15.625C3.4375 15.9702 3.71732 16.25 4.0625 16.25H15.9375C16.2827 16.25 16.5625 15.9702 16.5625 15.625V8.75C16.5625 8.40482 16.2827 8.125 15.9375 8.125Z" fill="#FFE28F"/>
<path d="M6.25 8.125H6.875V16.25H6.25V8.125Z" fill="#FFD873"/>
<path d="M4.375 9.375H5.625V10H4.375V9.375Z" fill="#FFCC4D"/>
<path d="M4.375 10.625H5.625V11.25H4.375V10.625Z" fill="#FFCC4D"/>
<path d="M4.375 11.875H5.625V12.5H4.375V11.875Z" fill="#FFCC4D"/>
<path d="M4.375 13.125H5.625V13.75H4.375V13.125Z" fill="#FFCC4D"/>
<path d="M4.375 14.375H5.625V15H4.375V14.375Z" fill="#FFCC4D"/>
<path d="M7.8125 9.0625H8.4375V9.6875H7.8125V9.0625Z" fill="#FFCC4D"/>
<path d="M9.0625 9.0625H11.5625V9.6875H9.0625V9.0625Z" fill="#FFCC4D"/>
<path d="M12.1875 9.0625H13.4375V9.6875H12.1875V9.0625Z" fill="#FFCC4D"/>
<path d="M7.8125 10.3125H10V10.9375H7.8125V10.3125Z" fill="#FFCC4D"/>
<path d="M10.625 10.3125H11.25V10.9375H10.625V10.3125Z" fill="#FFCC4D"/>
<path d="M7.8125 11.5625H10.9375V12.1875H7.8125V11.5625Z" fill="#FFCC4D"/>
<path d="M11.5625 11.5625H12.1875V12.1875H11.5625V11.5625Z" fill="#FFCC4D"/>
<path d="M12.5 13.75H13.125V14.375H12.5V13.75Z" fill="#FFCC4D"/>
<path d="M13.75 13.75H15.625V14.375H13.75V13.75Z" fill="#FFCC4D"/>
<path d="M11.5625 15H14.0625V15.625H11.5625V15Z" fill="#FFCC4D"/>
<path d="M14.6875 15H15.625V15.625H14.6875V15Z" fill="#FFCC4D"/>
</svg>
