<svg width="34" height="34" viewBox="0 0 34 34" fill="none" xmlns="http://www.w3.org/2000/svg">
<path d="M17 34C26.3888 34 34 26.3888 34 17C34 7.61115 26.3888 0 17 0C7.61116 0 0 7.61115 0 17C0 26.3888 7.61116 34 17 34Z" fill="#FFD93B"/>
<path d="M33.9978 17C33.9978 26.3925 26.385 34 16.9978 34C11.6535 34 6.88284 31.535 3.7644 27.6728C6.68096 30.0316 10.3944 31.4394 14.4372 31.4394C23.8244 31.4394 31.4372 23.8319 31.4372 14.4394C31.4372 10.3966 30.0294 6.68316 27.6706 3.7666C31.5275 6.88503 33.9978 11.6557 33.9978 17Z" fill="#F4C534"/>
<path d="M21.6909 25.9622C21.6909 25.9622 22.3348 22.4857 20.7718 22.4199C19.9495 22.3848 19.3715 24.3579 18.8731 27.0864C18.3036 30.2069 19.873 31.9707 21.2404 32.9705C23.2443 34.4357 25.3576 34.1711 27.371 33.2106C29.8679 32.0196 31.9355 27.42 31.9674 26.2906C32.0152 24.5427 30.601 24.5087 28.6864 28.6217C28.6864 28.6217 28.4346 29.3973 28.6864 28.6217C28.9382 27.8461 30.8879 24.3568 31.2895 23.5397C31.7092 22.6844 30.5266 21.556 29.7085 22.6334C28.8904 23.7108 26.5072 27.0864 26.3298 27.913C26.3298 27.913 26.1704 28.5537 26.3298 27.913C26.4891 27.2734 29.7861 21.9991 29.938 21.1034C30.1186 20.0335 28.6163 19.7636 28.1095 20.5244C27.7397 21.079 24.2462 26.8728 24.2462 26.8728C24.2462 26.8728 27.1181 22.0915 26.9747 21.1608C26.8557 20.3894 25.8697 20.2449 25.399 20.7337C24.8763 21.2745 21.6909 25.9622 21.6909 25.9622Z" fill="white"/>
<path d="M19.3093 30.7797C19.8013 31.7572 20.5461 32.4627 21.2399 32.9706C23.2438 34.4358 25.3571 34.1712 27.3705 33.2107C29.8674 32.0196 31.9361 27.4201 31.9669 26.2896C31.9669 26.2896 27.6393 37.0017 19.3093 30.7797Z" fill="#DEE4E9"/>
<path d="M12.3056 25.9622C12.3056 25.9622 11.6617 22.4857 13.2246 22.4199C14.047 22.3848 14.625 24.3579 15.1233 27.0864C15.6928 30.2069 14.1235 31.9707 12.7561 32.9705C10.7522 34.4357 8.63887 34.1711 6.62544 33.2106C4.12857 32.0196 2.06094 27.42 2.02907 26.2906C1.98126 24.5427 3.39544 24.5087 5.31007 28.6217C5.31007 28.6217 5.56188 29.3973 5.31007 28.6217C5.05825 27.8461 3.10857 24.3568 2.70694 23.5397C2.28619 22.6844 3.46876 21.556 4.28794 22.6334C5.10713 23.7108 7.48925 27.0864 7.66669 27.913C7.66669 27.913 7.82606 28.5537 7.66669 27.913C7.50731 27.2734 4.21038 21.9991 4.05844 21.1034C3.87782 20.0335 5.38019 19.7636 5.887 20.5244C6.25675 21.079 9.75025 26.8728 9.75025 26.8728C9.75025 26.8728 6.87831 22.0915 7.02175 21.1608C7.14075 20.3894 8.12675 20.2449 8.59744 20.7337C9.12019 21.2745 12.3056 25.9622 12.3056 25.9622Z" fill="white"/>
<path d="M14.6862 30.7797C14.1943 31.7572 13.4495 32.4627 12.7557 32.9706C10.7518 34.4358 8.63849 34.1712 6.62506 33.2107C4.12818 32.0196 2.06056 27.4201 2.02869 26.2896C2.02975 26.2896 6.35731 37.0017 14.6862 30.7797Z" fill="#DEE4E9"/>
<path d="M23.3345 14.9851C24.0974 15.1562 22.6928 20.7301 16.9988 20.7343C11.3038 20.7301 9.89921 15.1562 10.6631 14.9851C11.221 14.6866 13.3693 17.3651 16.9988 17.3651C20.6974 17.3651 22.7767 14.6866 23.3345 14.9851Z" fill="#3E4347"/>
<path d="M14.2274 12.3694C13.8205 12.3694 13.473 12.0591 13.4348 11.6458C13.3126 10.3187 12.3011 9.31787 11.0824 9.31787C9.86373 9.31787 8.85224 10.3187 8.73005 11.6458C8.68967 12.0836 8.29867 12.4098 7.86411 12.3662C7.4253 12.3258 7.10336 11.938 7.14374 11.5003C7.34243 9.34762 9.03499 7.72412 11.0835 7.72412C13.1309 7.72412 14.8245 9.34762 15.0222 11.5003C15.0625 11.938 14.7395 12.3269 14.3018 12.3662C14.2763 12.3683 14.2519 12.3694 14.2274 12.3694Z" fill="#3E4347"/>
<path d="M26.0596 12.3694C25.6527 12.3694 25.3052 12.0591 25.267 11.6458C25.1448 10.3187 24.1333 9.31787 22.9146 9.31787C21.6959 9.31787 20.6844 10.3187 20.5622 11.6458C20.5229 12.0836 20.1351 12.4098 19.6963 12.3662C19.2575 12.3258 18.9355 11.938 18.9759 11.5003C19.1735 9.34762 20.8671 7.72412 22.9146 7.72412C24.962 7.72412 26.6557 9.34762 26.8533 11.5003C26.8937 11.938 26.5707 12.3269 26.1329 12.3662C26.1085 12.3683 26.084 12.3694 26.0596 12.3694Z" fill="#3E4347"/>
</svg>
