<svg width="14" height="20" viewBox="0 0 14 20" fill="none" xmlns="http://www.w3.org/2000/svg">
<path d="M6.02372 10.0002L13.203 3.21961C13.2844 3.1423 13.3316 3.0357 13.3332 2.92258C13.3349 2.81027 13.2909 2.70203 13.2111 2.62227L10.7112 0.122299C10.5509 -0.0388324 10.2913 -0.040473 10.1285 0.115775L0.128592 9.69898C0.0464057 9.77793 0 9.88617 0 10.0001C0 10.114 0.0464057 10.2223 0.128592 10.3012L10.1285 19.8844C10.2091 19.9617 10.3124 19.9999 10.4166 19.9999C10.5232 19.9999 10.6298 19.9592 10.7112 19.8778L13.2111 17.3779C13.2909 17.2981 13.3349 17.1899 13.3332 17.0776C13.3316 16.9644 13.2844 16.8578 13.203 16.7805L6.02372 10.0002Z" fill="#ffffff"/>
</svg>
