<svg width="14" height="13" viewBox="0 0 14 13" fill="none" xmlns="http://www.w3.org/2000/svg">
<path d="M7.00025 9.24038C8.23737 9.24038 9.24025 8.23749 9.24025 7.00038C9.24025 5.76326 8.23737 4.76038 7.00025 4.76038C5.76314 4.76038 4.76025 5.76326 4.76025 7.00038C4.76025 8.23749 5.76314 9.24038 7.00025 9.24038Z" fill="#444444"/>
<path d="M4.9 0L3.619 1.4H1.4C0.63 1.4 0 2.03 0 2.8V11.2C0 11.97 0.63 12.6 1.4 12.6H12.6C13.37 12.6 14 11.97 14 11.2V2.8C14 2.03 13.37 1.4 12.6 1.4H10.381L9.1 0H4.9ZM7 10.5C5.068 10.5 3.5 8.932 3.5 7C3.5 5.068 5.068 3.5 7 3.5C8.932 3.5 10.5 5.068 10.5 7C10.5 8.932 8.932 10.5 7 10.5Z" fill="#444444"/>
</svg>
