<svg width="20" height="20" viewBox="0 0 20 20" fill="none" xmlns="http://www.w3.org/2000/svg">
<path d="M18.5361 1.8182H3.63635C3.59148 1.8182 3.55053 1.83507 3.50847 1.84773L3.14225 0.644276C3.02578 0.261563 2.67277 0 2.27271 0H0.45456C0.203523 0 0 0.203523 0 0.45456V1.36364C0 1.61467 0.203523 1.8182 0.45456 1.8182H1.59938L4.43941 11.151L3.37871 12.3885C2.95948 12.8776 2.7707 13.5514 2.96365 14.166C3.21043 14.952 3.90414 15.4545 4.70395 15.4545H17.7273C17.9783 15.4545 18.1818 15.251 18.1818 15V14.0909C18.1818 13.8399 17.9783 13.6363 17.7273 13.6363H4.70391L6.14481 11.9553C6.18103 11.913 6.20766 11.8653 6.23515 11.8181H15.0435C15.7481 11.8181 16.3892 11.4113 16.6892 10.7738L19.8611 4.0336C19.9521 3.83962 20 3.62433 20 3.4108V3.28206C20 2.47364 19.3446 1.8182 18.5361 1.8182Z" fill="#D24649"/>
<path d="M5.45443 19.9997C6.4586 19.9997 7.27263 19.1856 7.27263 18.1815C7.27263 17.1773 6.4586 16.3633 5.45443 16.3633C4.45027 16.3633 3.63623 17.1773 3.63623 18.1815C3.63623 19.1856 4.45027 19.9997 5.45443 19.9997Z" fill="#D24649"/>
<path d="M16.3651 19.9997C17.3692 19.9997 18.1833 19.1856 18.1833 18.1815C18.1833 17.1773 17.3692 16.3633 16.3651 16.3633C15.3609 16.3633 14.5469 17.1773 14.5469 18.1815C14.5469 19.1856 15.3609 19.9997 16.3651 19.9997Z" fill="#D24649"/>
</svg>
