<svg width="19" height="25" viewBox="0 0 19 25" fill="none" xmlns="http://www.w3.org/2000/svg">
<path d="M18.2292 9.375H16.6667V7.29165C16.6667 3.271 13.3957 0 9.375 0C5.3543 0 2.08335 3.271 2.08335 7.29165V9.375H0.52085C0.232959 9.375 0 9.60796 0 9.89585V22.9167C0 24.0657 0.934326 25 2.08335 25H16.6667C17.8157 25 18.75 24.0657 18.75 22.9167V9.89585C18.75 9.60796 18.517 9.375 18.2292 9.375ZM10.9345 20.255C10.9507 20.402 10.9035 20.5495 10.8048 20.6599C10.7061 20.7703 10.5647 20.8333 10.4167 20.8333H8.33335C8.18535 20.8333 8.04395 20.7703 7.94526 20.6599C7.84658 20.5496 7.79927 20.4021 7.81558 20.255L8.14414 17.3004C7.6106 16.9124 7.2917 16.2984 7.2917 15.625C7.2917 14.476 8.22603 13.5417 9.37505 13.5417C10.5241 13.5417 11.4584 14.476 11.4584 15.625C11.4584 16.2984 11.1395 16.9124 10.606 17.3004L10.9345 20.255ZM13.5417 9.375H5.20835V7.29165C5.20835 4.99419 7.07754 3.125 9.375 3.125C11.6725 3.125 13.5417 4.99419 13.5417 7.29165V9.375V9.375Z" fill="#D24649"/>
</svg>
