<svg width="50" height="50" viewBox="0 0 63 63" fill="none" xmlns="http://www.w3.org/2000/svg">
<path d="M31.5 63C48.897 63 63 48.897 63 31.5C63 14.103 48.897 0 31.5 0C14.103 0 0 14.103 0 31.5C0 48.897 14.103 63 31.5 63Z" fill="#FDD54D"/>
<path d="M16.4721 44.184C16.0721 44.184 15.6621 44.1699 15.2541 44.1399C14.8998 44.115 14.5635 43.974 14.2974 43.7388C14.0312 43.5036 13.85 43.1872 13.7817 42.8386C13.7134 42.4901 13.7618 42.1287 13.9195 41.8104C14.0772 41.4922 14.3353 41.2348 14.6541 41.078C15.7467 40.5543 16.714 39.8015 17.4901 38.871C12.6601 36.44 9.63306 32.1179 9.63306 27.4509C9.63306 20.0349 17.0951 14 26.2661 14C35.4371 14 42.8961 20.0359 42.8961 27.4509C42.8961 34.8659 35.4371 40.9039 26.2661 40.9039C26.0771 40.9039 25.8891 40.904 25.7021 40.891C23.1405 43.0977 19.849 44.2716 16.4691 44.184H16.4721ZM26.2721 17.2319C18.8821 17.2319 12.8721 21.8159 12.8721 27.4509C12.8721 31.3099 15.8341 34.911 20.4201 36.626C20.6315 36.705 20.824 36.8275 20.9852 36.9855C21.1464 37.1435 21.2728 37.3335 21.3561 37.5433C21.4394 37.7531 21.4778 37.9781 21.4688 38.2036C21.4599 38.4292 21.4037 38.6504 21.3041 38.8529L21.2251 39.0179C21.1381 39.2049 21.0471 39.3909 20.9421 39.5719C20.7931 39.8209 20.6351 40.062 20.4681 40.297C21.7754 39.8474 22.9608 39.1008 23.9311 38.116C24.0953 37.9513 24.2921 37.8225 24.5089 37.7382C24.7257 37.6538 24.9577 37.6156 25.1901 37.626C25.5491 37.648 25.9091 37.6709 26.2731 37.6709C33.6611 37.6709 39.6731 33.087 39.6731 27.45C39.6731 21.813 33.6631 17.231 26.2731 17.231L26.2721 17.2319Z" fill="#4F453C"/>
<path d="M44.9301 49.0619C42.9083 49.0871 40.9239 48.5167 39.2241 47.4219C39.1241 47.4429 39.0241 47.4629 38.9241 47.4799C32.6331 48.6289 26.4751 45.7659 24.2921 40.6979C24.2029 40.502 24.1537 40.2904 24.1474 40.0753C24.1411 39.8602 24.1778 39.6461 24.2553 39.4453C24.3329 39.2446 24.4497 39.0613 24.599 38.9063C24.7482 38.7512 24.9269 38.6275 25.1246 38.5425C25.3223 38.4574 25.5349 38.4127 25.7501 38.4109C25.9653 38.4091 26.1787 38.4503 26.3778 38.532C26.5768 38.6137 26.7576 38.7344 26.9094 38.8868C27.0613 39.0393 27.1812 39.2205 27.2621 39.4199C28.8541 43.1199 33.5241 45.176 38.3621 44.299C38.6421 44.251 38.9131 44.1829 39.1811 44.1149C39.4218 44.0535 39.6734 44.0487 39.9163 44.1007C40.1592 44.1528 40.3867 44.2603 40.5811 44.4149C41.197 44.898 41.8967 45.2635 42.6451 45.4929L42.6371 45.4849C42.5141 45.3269 42.4171 45.178 42.3201 45.028C42.0624 44.647 41.9617 44.1813 42.0391 43.7279C42.1137 43.2849 42.3607 42.8894 42.7261 42.6279C46.0471 40.5669 47.8661 37.1589 47.3621 33.9469C47.1116 32.5958 46.5099 31.3344 45.6175 30.2894C44.725 29.2445 43.5734 28.4528 42.2781 27.9939C42.0798 27.9152 41.8991 27.798 41.7464 27.649C41.5937 27.5001 41.472 27.3223 41.3884 27.1261C41.3047 26.9299 41.2608 26.719 41.2591 26.5057C41.2574 26.2924 41.2979 26.081 41.3784 25.8834C41.459 25.6859 41.5778 25.5062 41.7281 25.3549C41.8784 25.2035 42.0573 25.0834 42.2542 25.0016C42.4512 24.9197 42.6625 24.8777 42.8758 24.8779C43.0891 24.8782 43.3003 24.9206 43.4971 25.0029C45.3045 25.6783 46.9055 26.8115 48.1431 28.2917C49.3807 29.772 50.2126 31.5484 50.5571 33.4469C50.8052 35.5 50.5101 37.5822 49.7013 39.4855C48.8925 41.3888 47.5983 43.0465 45.9481 44.293C46.6057 44.8615 47.3737 45.2877 48.2041 45.5449C48.5363 45.6523 48.8248 45.8645 49.0265 46.1495C49.2281 46.4346 49.3319 46.7773 49.3225 47.1263C49.313 47.4754 49.1908 47.8119 48.974 48.0857C48.7573 48.3594 48.4577 48.5557 48.1201 48.6449C47.0819 48.917 46.0134 49.0565 44.9401 49.0599L44.9301 49.0619Z" fill="#4F453C"/>
</svg>
