<svg width="20" height="20" viewBox="0 0 20 20" fill="none" xmlns="http://www.w3.org/2000/svg">
<rect width="20" height="20" fill="white"/>
<path d="M11.0709 12.7481L11.0694 12.7474C10.947 12.6862 10.8368 12.631 10.7436 12.5732C9.75478 11.9451 8.85447 11.1257 7.98917 10.0626C7.59124 9.55954 7.31976 9.13512 7.12066 8.71085C7.3527 8.49561 7.57081 8.27428 7.78145 8.06052C7.80566 8.03595 7.82977 8.01149 7.85379 7.98714C7.9013 7.93963 7.94875 7.89134 7.99583 7.84341L7.99602 7.84322C8.04335 7.79504 8.09032 7.74724 8.13723 7.70033C8.50736 7.3302 8.69838 6.89885 8.69838 6.46119C8.69838 6.02354 8.50736 5.59219 8.13723 5.22206L7.21532 4.30016C7.11043 4.19526 7.00353 4.08835 6.90351 3.98166L6.90352 3.98166L6.90242 3.98052C6.69995 3.7713 6.48601 3.55392 6.26479 3.34964C5.92123 3.01017 5.50551 2.82554 5.06441 2.82554C4.62306 2.82554 4.20059 3.01037 3.847 3.34981L3.84699 3.34979L3.84554 3.35124L3.83879 3.35799L3.83879 3.35799L3.83848 3.3583L2.69063 4.51628C2.69058 4.51633 2.69053 4.51639 2.69047 4.51644C2.24173 4.96525 1.98503 5.51391 1.92893 6.14846H1.92893L1.92888 6.14908C1.84597 7.15787 2.143 8.09352 2.36703 8.69772C2.91872 10.1859 3.74234 11.5633 4.96727 13.0359L4.96749 13.0361C6.45547 14.8129 8.24633 16.2165 10.2923 17.2055L10.293 17.2058C11.0721 17.575 12.123 18.0177 13.3011 18.0933L13.3028 18.0933C13.3734 18.0967 13.45 18.1002 13.5203 18.1002C14.3272 18.1002 15.0093 17.809 15.5423 17.2305L15.5519 17.2201L15.553 17.2179C15.5538 17.217 15.5547 17.216 15.5556 17.215C15.558 17.2121 15.5607 17.2087 15.5635 17.2045C15.7214 17.014 15.9018 16.8396 16.0965 16.6512C16.1118 16.6365 16.1271 16.6216 16.1426 16.6067C16.2882 16.4679 16.4378 16.3216 16.5843 16.1683C16.9337 15.8048 17.1222 15.3756 17.1222 14.9306C17.1222 14.4816 16.9298 14.0551 16.5727 13.7014C16.5726 13.7013 16.5725 13.7013 16.5725 13.7012L14.7197 11.8416C14.3762 11.4844 13.9563 11.2881 13.5068 11.2881C13.0607 11.2881 12.6378 11.4809 12.2811 11.8375L11.2664 12.849C11.2293 12.8296 11.1922 12.8106 11.156 12.792C11.127 12.7771 11.0985 12.7625 11.0709 12.7481ZM15.9221 15.3951C15.9024 15.4188 15.8812 15.4425 15.8584 15.4662L15.8571 15.4649V15.369C15.8654 15.3692 15.8747 15.3704 15.8846 15.3735C15.897 15.3774 15.9103 15.3843 15.9221 15.3951ZM15.453 15.7322C15.4277 15.7569 15.4019 15.7819 15.3757 15.8075C15.1563 16.0168 14.931 16.2385 14.7187 16.4883C14.3977 16.8307 14.0231 16.9918 13.5237 16.9918C13.4723 16.9918 13.4217 16.9918 13.375 16.9886L13.3747 16.9886C12.3919 16.9258 11.4744 16.5413 10.7776 16.2081C8.87943 15.2891 7.21245 13.9845 5.82677 12.3305C4.68096 10.9494 3.91753 9.6759 3.41232 8.31082L3.41222 8.31054C3.10134 7.47819 2.99094 6.8384 3.03997 6.23989C3.07177 5.86829 3.21353 5.56284 3.47705 5.29932L4.62745 4.14892C4.78109 4.00505 4.93301 3.93731 5.07117 3.93731C5.24379 3.93731 5.39165 4.04256 5.49349 4.14441L5.5642 4.0737L5.49349 4.14441L5.50362 4.15454L5.50358 4.15458L5.50606 4.15689C5.71012 4.34758 5.90454 4.54531 6.11034 4.75786L6.11036 4.75788C6.16303 4.81225 6.2165 4.86656 6.27006 4.92097L6.27129 4.92222C6.32454 4.97631 6.37789 5.0305 6.4312 5.08548L6.43119 5.08549L6.43228 5.08657L7.35419 6.00848C7.52366 6.17795 7.59336 6.3262 7.59336 6.46119C7.59336 6.59618 7.52366 6.74443 7.35419 6.91391C7.32051 6.94758 7.28768 6.9808 7.25522 7.01364C7.19159 7.07802 7.12938 7.14096 7.06502 7.2031L7.06499 7.20307L7.06294 7.20516C6.77967 7.49518 6.51137 7.76342 6.22011 8.02455L6.22001 8.02444L6.21722 8.02724L6.21588 8.02835L6.21208 8.03153C6.20828 8.03478 6.20053 8.04154 6.19259 8.05192C6.03706 8.21004 5.96883 8.37167 5.95115 8.5244C5.93353 8.6766 5.96716 8.81168 5.99902 8.91257L5.99901 8.91258L5.99951 8.91408L6.00458 8.92928L6.00964 8.94448L6.00941 8.94455L6.01208 8.95101C6.25636 9.5428 6.59963 10.0978 7.1167 10.7544L7.11615 10.7548L7.12428 10.7629C8.0611 11.9163 9.05064 12.8176 10.1438 13.5089C10.2866 13.5994 10.4322 13.6722 10.5662 13.7392L10.568 13.7401C10.6907 13.8015 10.8011 13.8568 10.8943 13.9146L10.8941 13.915L10.9023 13.9191C10.9041 13.92 10.9067 13.9216 10.9143 13.9263C10.9202 13.93 10.9311 13.9369 10.9429 13.9428C11.0697 14.0062 11.1929 14.0377 11.3219 14.0377C11.6436 14.0377 11.8442 13.8371 11.9048 13.7766L11.9059 13.7754L13.0608 12.6205C13.1712 12.5102 13.3288 12.3965 13.5 12.3965C13.6677 12.3965 13.8151 12.5037 13.9124 12.6104L13.9123 12.6105L13.9156 12.6138L13.919 12.6171L13.9223 12.6205L15.783 14.4812L15.7834 14.4816C15.9457 14.6423 16.0147 14.7931 16.015 14.9342C16.0154 15.0732 15.9491 15.2247 15.7936 15.3892C15.7874 15.394 15.781 15.4001 15.7752 15.4078C15.7743 15.409 15.7733 15.4104 15.7722 15.4119C15.6697 15.5216 15.5651 15.6232 15.453 15.7322ZM6.21759 8.02693L6.21736 8.02715L6.21759 8.02693Z" fill="#ec9900" stroke="#ec9900" stroke-width="0.2"/>
<path d="M14.7279 9.81583L14.7279 9.8159L14.7315 9.81531C15.0375 9.76569 15.2381 9.4766 15.189 9.17379L15.1889 9.17301C15.003 8.08189 14.4867 7.08717 13.6988 6.29934C12.911 5.51151 11.9163 4.99512 10.8252 4.80926L10.8252 4.80925L10.8244 4.80913C10.5209 4.75991 10.2367 4.96116 10.1831 5.26177C10.1299 5.56094 10.3263 5.85482 10.6334 5.90477C11.4971 6.04988 12.2819 6.4586 12.909 7.08576C13.536 7.71274 13.9416 8.49758 14.0901 9.36179C14.1356 9.63434 14.3711 9.82336 14.6378 9.82336C14.6688 9.82336 14.6967 9.8198 14.7199 9.81685C14.7226 9.8165 14.7253 9.81616 14.7279 9.81583Z" fill="#ec9900" stroke="#ec9900" stroke-width="0.2"/>
<path d="M10.3115 2.36113L10.3114 2.36112L10.3112 2.36265C10.2619 2.66657 10.4637 2.95059 10.7674 3.00395L10.768 3.00405C12.3209 3.26731 13.7373 4.00368 14.8643 5.12731C15.9912 6.25414 16.7242 7.67047 16.9875 9.22341C17.033 9.496 17.2685 9.68505 17.5353 9.68505C17.5663 9.68505 17.5941 9.6815 17.6173 9.67854C17.62 9.67819 17.6227 9.67785 17.6253 9.67752L17.6253 9.67756L17.6278 9.67718C17.9302 9.63162 18.1362 9.34267 18.083 9.04144C17.7789 7.2581 16.9384 5.63526 15.6473 4.34424C14.3564 3.05331 12.7337 2.21279 10.9505 1.90868C10.6477 1.85496 10.3647 2.06242 10.3115 2.36113Z" fill="#ec9900" stroke="#ec9900" stroke-width="0.2"/>
</svg>
