<svg width="90" height="68" viewBox="0 0 90 68" fill="none" xmlns="http://www.w3.org/2000/svg">
<path d="M76.227 20.9854H60.6135C59.175 20.9854 58.0113 22.1497 58.0113 23.5885C58.0113 25.0246 56.845 26.1915 55.4092 26.1915C53.9733 26.1915 52.807 25.0249 52.807 23.5885C52.807 22.1497 51.6431 20.9854 50.2049 20.9854H3.36387C1.92539 20.9854 0.761719 22.1497 0.761719 23.5885V34C0.761719 35.4388 1.92568 36.603 3.36387 36.603C7.66875 36.603 11.1706 40.1058 11.1706 44.4118C11.1706 48.7179 7.66875 52.2206 3.36387 52.2206C1.92539 52.2206 0.761719 53.3849 0.761719 54.8236V65.2352C0.761719 66.6739 1.92568 67.8382 3.36387 67.8382H50.2043C51.6428 67.8382 52.8064 66.6739 52.8064 65.2352C52.8064 63.799 53.9728 62.6321 55.4086 62.6321C56.8444 62.6321 58.0107 63.7987 58.0107 65.2352C58.0107 66.6739 59.1747 67.8382 60.6129 67.8382H76.2264C77.6648 67.8382 78.8285 66.6739 78.8285 65.2352V23.5885C78.8294 22.1497 77.6654 20.9854 76.227 20.9854ZM29.3865 36.603C30.8235 36.603 31.9887 37.7682 31.9887 39.2061C31.9887 40.6434 30.8235 41.8091 29.3865 41.8091C27.9495 41.8091 26.7844 40.6437 26.7844 39.2061C26.7844 37.7682 27.9495 36.603 29.3865 36.603ZM27.5467 51.4577C26.5301 50.4411 26.5301 48.7938 27.5467 47.7771L37.9556 37.3656C38.9722 36.3487 40.6189 36.3487 41.6353 37.3656C42.6519 38.3822 42.6519 40.0296 41.6353 41.0462L31.2264 51.4577C30.2098 52.4746 28.5633 52.4746 27.5467 51.4577ZM39.7954 52.2203C38.3584 52.2203 37.1933 51.0549 37.1933 49.6173C37.1933 48.1797 38.3584 47.0143 39.7954 47.0143C41.2324 47.0143 42.3976 48.1794 42.3976 49.6173C42.3979 51.0549 41.2327 52.2203 39.7954 52.2203ZM58.0113 49.6176C58.0113 51.0564 56.8474 52.2206 55.4092 52.2206C53.9707 52.2206 52.807 51.0564 52.807 49.6176V39.2061C52.807 37.7673 53.971 36.603 55.4092 36.603C56.8477 36.603 58.0113 37.7673 58.0113 39.2061V49.6176ZM86.6361 0.162109H71.0227C69.5842 0.162109 68.4205 1.32637 68.4205 2.76514C68.4205 4.20127 67.2542 5.36817 65.8184 5.36817C64.3825 5.36817 63.2162 4.20127 63.2162 2.76514C63.2162 1.32637 62.0522 0.162109 60.6141 0.162109H13.773C12.3346 0.162109 11.1709 1.32637 11.1709 2.76514V13.177C11.1709 14.6157 12.3349 15.78 13.773 15.78H50.2046C52.2021 15.78 54.0267 16.535 55.4092 17.7728C56.7917 16.535 58.6163 15.78 60.6138 15.78H76.2272C80.5321 15.78 84.034 19.2827 84.034 23.5888V47.0151H86.6361C88.0746 47.0151 89.2383 45.8509 89.2383 44.4121V2.76514C89.2383 1.32637 88.0743 0.162109 86.6361 0.162109Z" fill="#161616"/>
</svg>
