<svg width="105" height="130" viewBox="0 0 105 130" fill="none" xmlns="http://www.w3.org/2000/svg">
<mask id="path-1-inside-1" fill="white">
<path fill-rule="evenodd" clip-rule="evenodd" d="M52.5 8C56.6421 8 60 4.64214 60 0.5C60 0.331986 59.9945 0.165262 59.9836 0H95C100.523 0 105 4.47715 105 10V79.1C104.677 79.0344 104.342 79 104 79C101.239 79 99 81.2386 99 84C99 86.7614 101.239 89 104 89C104.342 89 104.677 88.9656 105 88.9V120C105 125.523 100.523 130 95 130H59.9836C59.9945 129.835 60 129.668 60 129.5C60 125.358 56.6421 122 52.5 122C48.3579 122 45 125.358 45 129.5C45 129.668 45.0055 129.835 45.0164 130H10C4.47715 130 0 125.523 0 120V88.584C0.612462 88.8515 1.2889 89 2 89C4.76142 89 7 86.7614 7 84C7 81.2386 4.76142 79 2 79C1.2889 79 0.612462 79.1485 0 79.416V10C0 4.47715 4.47715 0 10 0H45.0164C45.0055 0.165262 45 0.331986 45 0.5C45 4.64214 48.3579 8 52.5 8Z"/>
</mask>
<path fill-rule="evenodd" clip-rule="evenodd" d="M52.5 8C56.6421 8 60 4.64214 60 0.5C60 0.331986 59.9945 0.165262 59.9836 0H95C100.523 0 105 4.47715 105 10V79.1C104.677 79.0344 104.342 79 104 79C101.239 79 99 81.2386 99 84C99 86.7614 101.239 89 104 89C104.342 89 104.677 88.9656 105 88.9V120C105 125.523 100.523 130 95 130H59.9836C59.9945 129.835 60 129.668 60 129.5C60 125.358 56.6421 122 52.5 122C48.3579 122 45 125.358 45 129.5C45 129.668 45.0055 129.835 45.0164 130H10C4.47715 130 0 125.523 0 120V88.584C0.612462 88.8515 1.2889 89 2 89C4.76142 89 7 86.7614 7 84C7 81.2386 4.76142 79 2 79C1.2889 79 0.612462 79.1485 0 79.416V10C0 4.47715 4.47715 0 10 0H45.0164C45.0055 0.165262 45 0.331986 45 0.5C45 4.64214 48.3579 8 52.5 8Z" fill="white"/>
<path d="M59.9836 0V-1H58.9156L58.9858 0.0656669L59.9836 0ZM105 79.1L104.801 80.08L106 80.3234V79.1H105ZM105 88.9H106V87.6766L104.801 87.92L105 88.9ZM59.9836 130L58.9858 129.934L58.9156 131H59.9836V130ZM45.0164 130V131H46.0844L46.0142 129.934L45.0164 130ZM0 88.584L0.400368 87.6676L-1 87.0558V88.584H0ZM0 79.416H-1V80.9442L0.400368 80.3324L0 79.416ZM45.0164 0L46.0142 0.0656669L46.0844 -1H45.0164V0ZM59 0.5C59 4.08985 56.0899 7 52.5 7V9C57.1944 9 61 5.19442 61 0.5H59ZM58.9858 0.0656669C58.9952 0.209102 59 0.353925 59 0.5H61C61 0.310047 60.9938 0.121422 60.9814 -0.0656669L58.9858 0.0656669ZM95 -1H59.9836V1H95V-1ZM106 10C106 3.92487 101.075 -1 95 -1V1C99.9706 1 104 5.02944 104 10H106ZM106 79.1V10H104V79.1H106ZM104 80C104.275 80 104.543 80.0277 104.801 80.08L105.199 78.12C104.811 78.0412 104.41 78 104 78V80ZM100 84C100 81.7909 101.791 80 104 80V78C100.686 78 98 80.6863 98 84H100ZM104 88C101.791 88 100 86.2091 100 84H98C98 87.3137 100.686 90 104 90V88ZM104.801 87.92C104.543 87.9723 104.275 88 104 88V90C104.41 90 104.811 89.9588 105.199 89.88L104.801 87.92ZM106 120V88.9H104V120H106ZM95 131C101.075 131 106 126.075 106 120H104C104 124.971 99.9706 129 95 129V131ZM59.9836 131H95V129H59.9836V131ZM59 129.5C59 129.646 58.9952 129.791 58.9858 129.934L60.9814 130.066C60.9938 129.879 61 129.69 61 129.5H59ZM52.5 123C56.0899 123 59 125.91 59 129.5H61C61 124.806 57.1944 121 52.5 121V123ZM46 129.5C46 125.91 48.9101 123 52.5 123V121C47.8056 121 44 124.806 44 129.5H46ZM46.0142 129.934C46.0048 129.791 46 129.646 46 129.5H44C44 129.69 44.0062 129.879 44.0186 130.066L46.0142 129.934ZM10 131H45.0164V129H10V131ZM-1 120C-1 126.075 3.92487 131 10 131V129C5.02944 129 1 124.971 1 120H-1ZM-1 88.584V120H1V88.584H-1ZM2 88C1.42928 88 0.888956 87.8811 0.400368 87.6676L-0.400368 89.5003C0.335969 89.822 1.14851 90 2 90V88ZM6 84C6 86.2091 4.20914 88 2 88V90C5.31371 90 8 87.3137 8 84H6ZM2 80C4.20914 80 6 81.7909 6 84H8C8 80.6863 5.31371 78 2 78V80ZM0.400368 80.3324C0.888956 80.1189 1.42928 80 2 80V78C1.14851 78 0.335969 78.178 -0.400368 78.4997L0.400368 80.3324ZM-1 10V79.416H1V10H-1ZM10 -1C3.92487 -1 -1 3.92487 -1 10H1C1 5.02944 5.02944 1 10 1V-1ZM45.0164 -1H10V1H45.0164V-1ZM46 0.5C46 0.353925 46.0048 0.209102 46.0142 0.0656669L44.0186 -0.0656669C44.0062 0.121422 44 0.310047 44 0.5H46ZM52.5 7C48.9101 7 46 4.08985 46 0.5H44C44 5.19442 47.8056 9 52.5 9V7Z" fill="#27AE60" mask="url(#path-1-inside-1)"/>
<path d="M47.2625 48.3625L45.75 59.75L52 56L58.25 59.75L56.7375 48.35" fill="#27AE60"/>
<path d="M47.2625 48.3625L45.75 59.75L52 56L58.25 59.75L56.7375 48.35" stroke="#27AE60" stroke-width="2" stroke-linecap="round" stroke-linejoin="round"/>
<path d="M52 49.75C56.8325 49.75 60.75 45.8325 60.75 41C60.75 36.1675 56.8325 32.25 52 32.25C47.1675 32.25 43.25 36.1675 43.25 41C43.25 45.8325 47.1675 49.75 52 49.75Z" fill="white" stroke="#27AE60" stroke-width="2" stroke-linecap="round" stroke-linejoin="round"/>
<path d="M13.0849 19.9817C13.3617 19.0799 14.6383 19.0799 14.9151 19.9817V19.9817C15.0384 20.3836 15.4097 20.658 15.8301 20.658L15.9417 20.658C16.8556 20.6581 17.2496 21.8165 16.5253 22.3738L16.3426 22.5143C16.0262 22.7577 15.8941 23.172 16.0112 23.5537L16.0655 23.7307C16.3369 24.6151 15.3122 25.3258 14.5789 24.7618V24.7618C14.2376 24.4992 13.7624 24.4992 13.4211 24.7618V24.7618C12.6878 25.3258 11.6631 24.6151 11.9345 23.7307L11.9888 23.5537C12.1059 23.172 11.9738 22.7577 11.6574 22.5143L11.4747 22.3738C10.7504 21.8165 11.1444 20.6581 12.0583 20.658L12.1699 20.658C12.5903 20.658 12.9616 20.3836 13.0849 19.9817V19.9817Z" fill="#E0FFED"/>
<path d="M88.0849 49.9817C88.3617 49.0799 89.6383 49.0799 89.9151 49.9817V49.9817C90.0384 50.3836 90.4097 50.658 90.8301 50.658L90.9417 50.658C91.8556 50.6581 92.2496 51.8165 91.5253 52.3738L91.3426 52.5143C91.0262 52.7577 90.8941 53.172 91.0112 53.5537L91.0655 53.7307C91.3369 54.6151 90.3122 55.3258 89.5789 54.7618V54.7618C89.2376 54.4992 88.7624 54.4992 88.4211 54.7618V54.7618C87.6878 55.3258 86.6631 54.6151 86.9345 53.7307L86.9888 53.5537C87.1059 53.172 86.9738 52.7577 86.6574 52.5143L86.4747 52.3738C85.7504 51.8165 86.1444 50.6581 87.0583 50.658L87.1699 50.658C87.5903 50.658 87.9616 50.3836 88.0849 49.9817V49.9817Z" fill="#E0FFED"/>
<path d="M78.0849 91.9817C78.3617 91.0799 79.6383 91.0799 79.9151 91.9817V91.9817C80.0384 92.3836 80.4097 92.658 80.8301 92.658L80.9417 92.658C81.8556 92.6581 82.2496 93.8165 81.5253 94.3738L81.3426 94.5143C81.0262 94.7577 80.8941 95.172 81.0112 95.5537L81.0655 95.7307C81.3369 96.6151 80.3122 97.3258 79.5789 96.7618V96.7618C79.2376 96.4992 78.7624 96.4992 78.4211 96.7618V96.7618C77.6878 97.3258 76.6631 96.6151 76.9345 95.7307L76.9888 95.5537C77.1059 95.172 76.9738 94.7577 76.6574 94.5143L76.4747 94.3738C75.7504 93.8165 76.1444 92.6581 77.0583 92.658L77.1699 92.658C77.5903 92.658 77.9616 92.3836 78.0849 91.9817V91.9817Z" fill="#E0FFED"/>
<path d="M28.0849 90.9817C28.3617 90.0799 29.6383 90.0799 29.9151 90.9817V90.9817C30.0384 91.3836 30.4097 91.658 30.8301 91.658L30.9417 91.658C31.8556 91.6581 32.2496 92.8165 31.5253 93.3738L31.3426 93.5143C31.0262 93.7577 30.8941 94.172 31.0112 94.5537L31.0655 94.7307C31.3369 95.6151 30.3122 96.3258 29.5789 95.7618V95.7618C29.2376 95.4992 28.7624 95.4992 28.4211 95.7618V95.7618C27.6878 96.3258 26.6631 95.6151 26.9345 94.7307L26.9888 94.5537C27.1059 94.172 26.9738 93.7577 26.6574 93.5143L26.4747 93.3738C25.7504 92.8165 26.1444 91.6581 27.0583 91.658L27.1699 91.658C27.5903 91.658 27.9616 91.3836 28.0849 90.9817V90.9817Z" fill="#E0FFED"/>
<path d="M33.0849 40.9817C33.3617 40.0799 34.6383 40.0799 34.9151 40.9817V40.9817C35.0384 41.3836 35.4097 41.658 35.8301 41.658L35.9417 41.658C36.8556 41.6581 37.2496 42.8165 36.5253 43.3738L36.3426 43.5143C36.0262 43.7577 35.8941 44.172 36.0112 44.5537L36.0655 44.7307C36.3369 45.6151 35.3122 46.3258 34.5789 45.7618V45.7618C34.2376 45.4992 33.7624 45.4992 33.4211 45.7618V45.7618C32.6878 46.3258 31.6631 45.6151 31.9345 44.7307L31.9888 44.5537C32.1059 44.172 31.9738 43.7577 31.6574 43.5143L31.4747 43.3738C30.7504 42.8165 31.1444 41.6581 32.0583 41.658L32.1699 41.658C32.5903 41.658 32.9616 41.3836 33.0849 40.9817V40.9817Z" fill="#E0FFED"/>
<path d="M53.0849 61.9817C53.3617 61.0799 54.6383 61.0799 54.9151 61.9817V61.9817C55.0384 62.3836 55.4097 62.658 55.8301 62.658L55.9417 62.658C56.8556 62.6581 57.2496 63.8165 56.5253 64.3738L56.3426 64.5143C56.0262 64.7577 55.8941 65.172 56.0112 65.5537L56.0655 65.7307C56.3369 66.6151 55.3122 67.3258 54.5789 66.7618V66.7618C54.2376 66.4992 53.7624 66.4992 53.4211 66.7618V66.7618C52.6878 67.3258 51.6631 66.6151 51.9345 65.7307L51.9888 65.5537C52.1059 65.172 51.9738 64.7577 51.6574 64.5143L51.4747 64.3738C50.7504 63.8165 51.1444 62.6581 52.0583 62.658L52.1699 62.658C52.5903 62.658 52.9616 62.3836 53.0849 61.9817V61.9817Z" fill="#E0FFED"/>
<path d="M39.0849 8.98166C39.3617 8.07991 40.6383 8.07991 40.9151 8.98166V8.98166C41.0384 9.38358 41.4097 9.65801 41.8301 9.65803L41.9417 9.65803C42.8556 9.65807 43.2496 10.8165 42.5253 11.3738L42.3426 11.5143C42.0262 11.7577 41.8941 12.172 42.0112 12.5537L42.0655 12.7307C42.3369 13.6151 41.3122 14.3258 40.5789 13.7618V13.7618C40.2376 13.4992 39.7624 13.4992 39.4211 13.7618V13.7618C38.6878 14.3258 37.6631 13.6151 37.9345 12.7307L37.9888 12.5537C38.1059 12.172 37.9738 11.7577 37.6574 11.5143L37.4747 11.3738C36.7504 10.8165 37.1444 9.65807 38.0583 9.65803L38.1699 9.65803C38.5903 9.65801 38.9616 9.38358 39.0849 8.98166V8.98166Z" fill="#E0FFED"/>
<path d="M9.08491 57.9817C9.36166 57.0799 10.6383 57.0799 10.9151 57.9817V57.9817C11.0384 58.3836 11.4097 58.658 11.8301 58.658L11.9417 58.658C12.8556 58.6581 13.2496 59.8165 12.5253 60.3738L12.3426 60.5143C12.0262 60.7577 11.8941 61.172 12.0112 61.5537L12.0655 61.7307C12.3369 62.6151 11.3122 63.3258 10.5789 62.7618V62.7618C10.2376 62.4992 9.76238 62.4992 9.42109 62.7618V62.7618C8.68784 63.3258 7.6631 62.6151 7.93446 61.7307L7.98877 61.5537C8.10587 61.172 7.97378 60.7577 7.65736 60.5143L7.47471 60.3738C6.7504 59.8165 7.14444 58.6581 8.0583 58.658L8.16991 58.658C8.59034 58.658 8.96155 58.3836 9.08491 57.9817V57.9817Z" fill="#E0FFED"/>
<path d="M49.0849 115.982C49.3617 115.08 50.6383 115.08 50.9151 115.982V115.982C51.0384 116.384 51.4097 116.658 51.8301 116.658L51.9417 116.658C52.8556 116.658 53.2496 117.817 52.5253 118.374L52.3426 118.514C52.0262 118.758 51.8941 119.172 52.0112 119.554L52.0655 119.731C52.3369 120.615 51.3122 121.326 50.5789 120.762V120.762C50.2376 120.499 49.7624 120.499 49.4211 120.762V120.762C48.6878 121.326 47.6631 120.615 47.9345 119.731L47.9888 119.554C48.1059 119.172 47.9738 118.758 47.6574 118.514L47.4747 118.374C46.7504 117.817 47.1444 116.658 48.0583 116.658L48.1699 116.658C48.5903 116.658 48.9616 116.384 49.0849 115.982V115.982Z" fill="#EAFFF3"/>
<path d="M18.0849 104.982C18.3617 104.08 19.6383 104.08 19.9151 104.982V104.982C20.0384 105.384 20.4097 105.658 20.8301 105.658L20.9417 105.658C21.8556 105.658 22.2496 106.817 21.5253 107.374L21.3426 107.514C21.0262 107.758 20.8941 108.172 21.0112 108.554L21.0655 108.731C21.3369 109.615 20.3122 110.326 19.5789 109.762V109.762C19.2376 109.499 18.7624 109.499 18.4211 109.762V109.762C17.6878 110.326 16.6631 109.615 16.9345 108.731L16.9888 108.554C17.1059 108.172 16.9738 107.758 16.6574 107.514L16.4747 107.374C15.7504 106.817 16.1444 105.658 17.0583 105.658L17.1699 105.658C17.5903 105.658 17.9616 105.384 18.0849 104.982V104.982Z" fill="#EAFFF3"/>
<path d="M78.0849 14.9817C78.3617 14.0799 79.6383 14.0799 79.9151 14.9817V14.9817C80.0384 15.3836 80.4097 15.658 80.8301 15.658L80.9417 15.658C81.8556 15.6581 82.2496 16.8165 81.5253 17.3738L81.3426 17.5143C81.0262 17.7577 80.8941 18.172 81.0112 18.5537L81.0655 18.7307C81.3369 19.6151 80.3122 20.3258 79.5789 19.7618V19.7618C79.2376 19.4992 78.7624 19.4992 78.4211 19.7618V19.7618C77.6878 20.3258 76.6631 19.6151 76.9345 18.7307L76.9888 18.5537C77.1059 18.172 76.9738 17.7577 76.6574 17.5143L76.4747 17.3738C75.7504 16.8165 76.1444 15.6581 77.0583 15.658L77.1699 15.658C77.5903 15.658 77.9616 15.3836 78.0849 14.9817V14.9817Z" fill="#E0FFED"/>
</svg>
