<svg width="16" height="16" viewBox="0 0 16 16" fill="none" xmlns="http://www.w3.org/2000/svg">
<path d="M8 16C12.4183 16 16 12.4183 16 8C16 3.58172 12.4183 0 8 0C3.58172 0 0 3.58172 0 8C0 12.4183 3.58172 16 8 16Z" fill="#C03A2B"/>
<path d="M9.66841 4.548H6.33203V3.2605C6.33226 3.10856 6.39274 2.96291 6.5002 2.8555C6.60767 2.74808 6.75334 2.68767 6.90528 2.6875H9.09503C9.24703 2.68767 9.39275 2.74811 9.50024 2.85558C9.60773 2.96304 9.66821 3.10875 9.66841 3.26075V4.548ZM6.81541 4.06462H9.18503V3.26075C9.18496 3.23691 9.17546 3.21407 9.15859 3.19723C9.14172 3.18038 9.11887 3.17091 9.09503 3.17088H6.90528C6.88146 3.17091 6.85861 3.18039 6.84177 3.19724C6.82492 3.21408 6.81544 3.23692 6.81541 3.26075V4.06462Z" fill="white"/>
<path d="M11.5502 4.68903V12.5743C11.5502 12.7699 11.4725 12.9576 11.3342 13.096C11.1959 13.2345 11.0084 13.3123 10.8127 13.3125H5.18832C4.99255 13.3125 4.8048 13.2347 4.66638 13.0963C4.52796 12.9578 4.4502 12.77 4.4502 12.5743V4.68903H11.5502Z" fill="white"/>
<path d="M4.6167 4.04456H11.3837C11.5439 4.04462 11.6975 4.10831 11.8108 4.22162C11.9241 4.33494 11.9877 4.48859 11.9877 4.64881V5.53506H4.0127V4.64881C4.0127 4.48859 4.07632 4.33494 4.18959 4.22162C4.30285 4.10831 4.45648 4.04462 4.6167 4.04456V4.04456Z" fill="white"/>
<path d="M10.2356 7.09738C10.2356 6.94722 10.1139 6.8255 9.96377 6.8255C9.81362 6.8255 9.69189 6.94722 9.69189 7.09738V12.1528C9.69189 12.3029 9.81362 12.4246 9.96377 12.4246C10.1139 12.4246 10.2356 12.3029 10.2356 12.1528V7.09738Z" fill="#C03A2B"/>
<path d="M8.27225 7.09738C8.27225 6.94722 8.15053 6.8255 8.00038 6.8255C7.85023 6.8255 7.72852 6.94722 7.72852 7.09738V12.1528C7.72852 12.3029 7.85023 12.4246 8.00038 12.4246C8.15053 12.4246 8.27225 12.3029 8.27225 12.1528V7.09738Z" fill="#C03A2B"/>
<path d="M6.30889 7.09738C6.30889 6.94722 6.18716 6.8255 6.03701 6.8255C5.88686 6.8255 5.76514 6.94722 5.76514 7.09738V12.1528C5.76514 12.3029 5.88686 12.4246 6.03701 12.4246C6.18716 12.4246 6.30889 12.3029 6.30889 12.1528V7.09738Z" fill="#C03A2B"/>
<path d="M4.4502 5.53491H11.5503V5.93779H4.4502V5.53491Z" fill="#C03A2B"/>
</svg>
