<svg width="18" height="18" viewBox="0 0 18 18" fill="none" xmlns="http://www.w3.org/2000/svg">
<g clip-path="url(#clip0)">
<path d="M15.9843 0.0282593H10.2715V0.462199H6.35206V0.0282593H0.676934C0.303077 0.0282593 0 0.331336 0 0.705194V16.0245C0 16.3776 0.286241 16.6638 0.6393 16.6638H15.6412C16.1838 16.6638 16.6236 16.224 16.6236 15.6814V0.667559C16.6236 0.314501 16.3374 0.0282593 15.9843 0.0282593Z" fill="#FFC107"/>
<path d="M15.7358 0.0282593H10.2715V0.462199H8.31843V4.00933H8.31177V16.6638H16.0165C16.3518 16.6638 16.6236 16.3919 16.6236 16.0563V0.707789C16.5855 0.613544 16.4384 0.0282593 15.7358 0.0282593Z" fill="#FC9B28"/>
<path d="M15.9468 0.0282593H10.2715V0.462199H6.35206V0.0282593H0.623727C0.279262 0.0282593 0 0.307696 0 0.652442V4.00933H16.6236V0.705579C16.6236 0.331512 16.3206 0.0282593 15.9468 0.0282593Z" fill="#E4810A"/>
<path d="M15.9861 0.0282593H10.2715V0.462199H8.31177V4.00933H16.6236V0.666226C16.6236 0.313869 16.3381 0.0282593 15.9861 0.0282593Z" fill="#E4810A"/>
<path d="M6.72464 14.8423H1.61891C1.42555 14.8423 1.2688 14.6856 1.2688 14.4922V11.7178C1.2688 11.5245 1.42555 11.3677 1.61891 11.3677H6.72464C6.91801 11.3677 7.07476 11.5245 7.07476 11.7178V14.4922C7.07476 14.6856 6.91801 14.8423 6.72464 14.8423Z" fill="#FFD147"/>
<path d="M10.0405 6.7801H6.58312C6.45549 6.7801 6.35205 6.67663 6.35205 6.54903V0.0282593H10.2716V6.54903C10.2715 6.67667 10.1681 6.7801 10.0405 6.7801Z" fill="#FFC107"/>
<path d="M8.31177 0.042289V6.76607C8.31177 6.77382 8.31805 6.7801 8.3258 6.7801H10.0729C10.1826 6.7801 10.2715 6.69119 10.2715 6.58151V0.042289C10.2715 0.0345376 10.2652 0.0282593 10.2575 0.0282593H8.3258C8.31805 0.0282593 8.31177 0.0345376 8.31177 0.042289Z" fill="#FC9B28"/>
<path d="M11.4013 10.2963C11.1958 10.0908 10.8627 10.0909 10.6573 10.2963C10.4518 10.5018 10.4518 10.8349 10.6573 11.0403L11.251 11.634C11.3537 11.7368 11.4884 11.7881 11.623 11.7881C11.7576 11.7881 11.8923 11.7368 11.995 11.6341C12.2005 11.4286 12.2005 11.0955 11.995 10.89L11.4013 10.2963Z" fill="#646D73"/>
<path d="M14.7806 8.49432H13.0452C12.7546 8.49432 12.519 8.72988 12.519 9.02044C12.519 9.31099 12.7546 9.54655 13.0452 9.54655H13.3817V10.3896C13.3817 10.6802 13.6173 10.9157 13.9078 10.9157C14.1984 10.9157 14.4339 10.6802 14.4339 10.3896V9.54655H14.7806C15.0712 9.54655 15.3067 9.31099 15.3067 9.02044C15.3067 8.72988 15.0712 8.49432 14.7806 8.49432Z" fill="#646D73"/>
<path d="M6.64595 10.138H1.69749C1.40424 10.138 1.1665 9.8941 1.1665 9.59324C1.1665 9.29237 1.40424 9.04846 1.69749 9.04846H6.64595C6.93921 9.04846 7.17694 9.29237 7.17694 9.59324C7.17694 9.8941 6.93921 10.138 6.64595 10.138Z" fill="#FC9B28"/>
<path d="M13.946 17.4456C15.8944 17.4456 17.474 15.866 17.474 13.9176C17.474 11.9691 15.8944 10.3896 13.946 10.3896C11.9975 10.3896 10.418 11.9691 10.418 13.9176C10.418 15.866 11.9975 17.4456 13.946 17.4456Z" fill="#CCFFFF"/>
<path d="M13.9459 10.3896C13.9349 10.3896 13.9239 10.3899 13.9128 10.39V17.4452C13.9239 17.4453 13.9349 17.4456 13.9459 17.4456C15.8944 17.4456 17.4739 15.8661 17.4739 13.9176C17.4739 11.9691 15.8944 10.3896 13.9459 10.3896Z" fill="#DAEAEC"/>
<path d="M14.4339 10.3896V9.54655H14.7806C15.0711 9.54655 15.3067 9.31099 15.3067 9.02044C15.3067 8.72988 15.0711 8.49432 14.7806 8.49432H13.9128V10.9155C14.201 10.9127 14.4339 10.6785 14.4339 10.3896Z" fill="#32393F"/>
<path d="M13.9107 12.4161V13.9176H12.4081C12.3223 13.9176 12.2542 13.9914 12.2624 14.0768C12.3449 14.9419 13.093 15.6128 13.9888 15.5716C14.8389 15.5325 15.5256 14.8458 15.5647 13.9957C15.6059 13.1004 14.9355 12.3525 14.071 12.2694C13.985 12.2611 13.9107 12.3296 13.9107 12.4161Z" fill="#FFC107"/>
<path d="M14.0712 12.2696C13.9915 12.2619 13.9227 12.3203 13.9128 12.3976V15.5734C13.9381 15.5734 13.9635 15.573 13.989 15.5718C14.8391 15.5327 15.5258 14.846 15.5649 13.9959C15.606 13.1005 14.9357 12.3527 14.0712 12.2696Z" fill="#FC9B28"/>
<path d="M13.946 17.9717C11.7105 17.9717 9.89185 16.153 9.89185 13.9176C9.89185 11.6821 11.7105 9.86346 13.946 9.86346C16.1814 9.86346 18.0001 11.6821 18.0001 13.9176C18.0001 16.153 16.1814 17.9717 13.946 17.9717ZM13.946 10.9157C12.2907 10.9157 10.9441 12.2623 10.9441 13.9176C10.9441 15.5728 12.2907 16.9195 13.946 16.9195C15.6012 16.9195 16.9478 15.5728 16.9478 13.9176C16.9478 12.2623 15.6012 10.9157 13.946 10.9157Z" fill="#646D73"/>
<path d="M13.9459 9.86346C13.9349 9.86346 13.9239 9.86378 13.9128 9.86389V10.9165C13.9239 10.9164 13.9348 10.9157 13.9459 10.9157C15.6011 10.9157 16.9478 12.2623 16.9478 13.9176C16.9478 15.5728 15.6011 16.9195 13.9459 16.9195C13.9348 16.9195 13.9239 16.9187 13.9128 16.9186V17.9713C13.9239 17.9714 13.9349 17.9717 13.9459 17.9717C16.1813 17.9717 18 16.153 18 13.9176C18 11.6821 16.1813 9.86346 13.9459 9.86346Z" fill="#32393F"/>
</g>
<defs>
<clipPath id="clip0">
<rect width="18" height="18" fill="white"/>
</clipPath>
</defs>
</svg>
