<svg width="34" height="34" viewBox="0 0 34 34" fill="none" xmlns="http://www.w3.org/2000/svg">
<path d="M17 34C26.3888 34 34 26.3888 34 17C34 7.61115 26.3888 0 17 0C7.61116 0 0 7.61115 0 17C0 26.3888 7.61116 34 17 34Z" fill="#FFD93B"/>
<path d="M33.998 17C33.998 26.3925 26.3852 33.9999 16.9981 33.9999C11.6537 33.9999 6.88308 31.5349 3.76465 27.6728C6.68121 30.0315 10.3946 31.4393 14.4374 31.4393C23.8246 31.4393 31.4374 23.8318 31.4374 14.4393C31.4374 10.3965 30.0296 6.68311 27.6709 3.76655C31.5277 6.88498 33.998 11.6556 33.998 17Z" fill="#F4C534"/>
<path d="M21.6906 25.9622C21.6906 25.9622 22.3345 22.4857 20.7716 22.4198C19.9492 22.3847 19.3712 24.3578 18.8729 27.0863C18.3034 30.2069 19.8727 31.9706 21.2401 32.9704C23.244 34.4356 25.3573 34.1711 27.3708 33.2106C29.8676 32.0195 31.9353 27.4199 31.9671 26.2905C32.015 24.5427 30.6008 24.5087 28.6861 28.6216C28.6861 28.6216 28.4343 29.3972 28.6861 28.6216C28.938 27.846 30.8876 24.3567 31.2893 23.5397C31.709 22.6844 30.5264 21.556 29.7083 22.6334C28.8901 23.7107 26.507 27.0863 26.3295 27.9129C26.3295 27.9129 26.1701 28.5536 26.3295 27.9129C26.4889 27.2733 29.7858 21.999 29.9378 21.1034C30.1184 20.0334 28.616 19.7635 28.1092 20.5243C27.7395 21.0789 24.246 26.8727 24.246 26.8727C24.246 26.8727 27.1179 22.0915 26.9745 21.1607C26.8555 20.3894 25.8695 20.2449 25.3988 20.7336C24.876 21.2744 21.6906 25.9622 21.6906 25.9622Z" fill="white"/>
<path d="M19.3096 30.7795C19.8015 31.757 20.5463 32.4625 21.2401 32.9704C23.244 34.4356 25.3573 34.1711 27.3707 33.2105C29.8676 32.0195 31.9363 27.4199 31.9671 26.2894C31.9671 26.2894 27.6396 37.0016 19.3096 30.7795Z" fill="#DEE4E9"/>
<path d="M12.3055 25.9622C12.3055 25.9622 11.6616 22.4857 13.2246 22.4198C14.0469 22.3847 14.6249 24.3578 15.1232 27.0863C15.6927 30.2069 14.1234 31.9706 12.756 32.9704C10.7521 34.4356 8.63881 34.1711 6.62538 33.2106C4.12851 32.0195 2.06088 27.4199 2.02901 26.2905C1.9812 24.5427 3.39538 24.5087 5.31 28.6216C5.31 28.6216 5.56182 29.3972 5.31 28.6216C5.05819 27.846 3.10851 24.3567 2.70688 23.5397C2.28613 22.6844 3.46869 21.556 4.28788 22.6334C5.10707 23.7107 7.48919 27.0863 7.66663 27.9129C7.66663 27.9129 7.826 28.5536 7.66663 27.9129C7.50725 27.2733 4.21032 21.999 4.05838 21.1034C3.87776 20.0334 5.38013 19.7635 5.88694 20.5243C6.25669 21.0789 9.75019 26.8727 9.75019 26.8727C9.75019 26.8727 6.87825 22.0915 7.02169 21.1607C7.14069 20.3894 8.12669 20.2449 8.59738 20.7336C9.12012 21.2744 12.3055 25.9622 12.3055 25.9622Z" fill="white"/>
<path d="M14.6864 30.7795C14.1944 31.757 13.4496 32.4625 12.7558 32.9704C10.7519 34.4356 8.63861 34.1711 6.62518 33.2105C4.12831 32.0195 2.06068 27.4199 2.02881 26.2894C2.02987 26.2894 6.35743 37.0016 14.6864 30.7795Z" fill="#DEE4E9"/>
<path d="M23.3346 14.9855C24.0974 15.1565 22.6928 20.7304 16.9989 20.7346C11.3039 20.7304 9.89927 15.1565 10.6632 14.9855C11.221 14.6869 13.3694 17.3655 16.9989 17.3655C20.6974 17.3655 22.7768 14.6869 23.3346 14.9855Z" fill="#3E4347"/>
<path d="M14.2272 12.3696C13.8203 12.3696 13.4729 12.0594 13.4346 11.6461C13.3124 10.319 12.3009 9.31811 11.0822 9.31811C9.86355 9.31811 8.85205 10.319 8.72987 11.6461C8.68949 12.0838 8.29849 12.41 7.86393 12.3664C7.42512 12.3261 7.10318 11.9382 7.14355 11.5005C7.34224 9.34786 9.0348 7.72436 11.0833 7.72436C13.1307 7.72436 14.8244 9.34786 15.022 11.5005C15.0624 11.9382 14.7394 12.3271 14.3016 12.3664C14.2761 12.3686 14.2517 12.3696 14.2272 12.3696Z" fill="#3E4347"/>
<path d="M26.0593 12.3696C25.6523 12.3696 25.3049 12.0594 25.2667 11.6461C25.1445 10.319 24.133 9.31811 22.9143 9.31811C21.6956 9.31811 20.6841 10.319 20.5619 11.6461C20.5226 12.0838 20.1348 12.41 19.696 12.3664C19.2571 12.3261 18.9352 11.9382 18.9756 11.5005C19.1732 9.34786 20.8668 7.72436 22.9143 7.72436C24.9617 7.72436 26.6553 9.34786 26.853 11.5005C26.8934 11.9382 26.5704 12.3271 26.1326 12.3664C26.1082 12.3686 26.0837 12.3696 26.0593 12.3696Z" fill="#3E4347"/>
</svg>
