<svg width="34" height="34" viewBox="0 0 34 34" fill="none" xmlns="http://www.w3.org/2000/svg">
<path d="M17 34C26.3888 34 34 26.3888 34 17C34 7.61116 26.3888 0 17 0C7.61116 0 0 7.61116 0 17C0 26.3888 7.61116 34 17 34Z" fill="#FFD93B"/>
<path d="M34 17C34 26.3925 26.3872 34 17 34C11.6557 34 6.88504 31.535 3.7666 27.6728C6.68316 30.0316 10.3966 31.4394 14.4394 31.4394C23.8266 31.4394 31.4394 23.8319 31.4394 14.4394C31.4394 10.3966 30.0316 6.68312 27.6728 3.76656C31.5297 6.88499 34 11.6556 34 17Z" fill="#F4C534"/>
<path d="M23.5469 27.0396C22.7012 27.5496 20.4253 25.2801 17.2888 25.2524C14.198 25.2248 11.8764 27.5506 11.0307 27.0396C10.0181 26.6273 11.75 21.6867 17.2888 21.6569C22.8276 21.6867 24.5595 26.6284 23.5469 27.0396Z" fill="#3E4347"/>
<path d="M25.9204 14.7103C25.9204 16.2074 24.6953 17.4324 23.1919 17.4324C21.6874 17.4324 20.4634 16.2074 20.4634 14.7103C20.4634 13.1994 21.6884 11.9818 23.1919 11.9818C24.6964 11.9818 25.9204 13.1994 25.9204 14.7103Z" fill="#3E4347"/>
<path d="M24.4411 13.1711C24.1057 12.8799 23.6835 12.8169 23.498 13.0305C23.3126 13.244 23.4342 13.6533 23.7696 13.9445C24.105 14.2357 24.5273 14.2987 24.7127 14.0851C24.8981 13.8715 24.7765 13.4623 24.4411 13.1711Z" fill="#5A5F63"/>
<path d="M13.5361 14.7103C13.5361 16.2074 12.311 17.4324 10.8076 17.4324C9.30416 17.4324 8.0791 16.2074 8.0791 14.7103C8.0791 13.1994 9.30416 11.9818 10.8076 11.9818C12.311 11.9818 13.5361 13.1994 13.5361 14.7103Z" fill="#3E4347"/>
<path d="M12.0559 13.172C11.7204 12.8808 11.2982 12.8179 11.1128 13.0314C10.9273 13.245 11.0489 13.6542 11.3844 13.9454C11.7198 14.2367 12.142 14.2996 12.3274 14.086C12.5129 13.8725 12.3913 13.4633 12.0559 13.172Z" fill="#5A5F63"/>
</svg>
