<svg width="34" height="34" viewBox="0 0 34 34" fill="none" xmlns="http://www.w3.org/2000/svg">
<path d="M17 34C26.3888 34 34 26.3888 34 17C34 7.61116 26.3888 0 17 0C7.61116 0 0 7.61116 0 17C0 26.3888 7.61116 34 17 34Z" fill="#FFC10E"/>
<path d="M5.83887 17.0116C5.83887 23.1748 10.8355 28.1715 16.9988 28.1715C23.1623 28.1715 28.1592 23.1748 28.1592 17.0116H5.83887Z" fill="#333333"/>
<path d="M10.7935 21.4292C10.7935 24.8563 13.572 27.6346 16.9988 27.6346C20.4262 27.6346 23.2045 24.856 23.2045 21.4292H10.7935Z" fill="#CA2027"/>
<path d="M11.8325 13.8062C13.307 13.8062 14.5024 12.6108 14.5024 11.1363C14.5024 9.66176 13.307 8.46642 11.8325 8.46642C10.3579 8.46642 9.1626 9.66176 9.1626 11.1363C9.1626 12.6108 10.3579 13.8062 11.8325 13.8062Z" fill="#333333"/>
<path d="M21.9277 13.8062C23.4022 13.8062 24.5976 12.6108 24.5976 11.1363C24.5976 9.66176 23.4022 8.46642 21.9277 8.46642C20.4532 8.46642 19.2578 9.66176 19.2578 11.1363C19.2578 12.6108 20.4532 13.8062 21.9277 13.8062Z" fill="#333333"/>
</svg>
