<svg width="20" height="20" viewBox="0 0 20 20" fill="none" xmlns="http://www.w3.org/2000/svg">
<path d="M19.9113 12.8038L18.0363 9.67875C17.9237 9.49 17.72 9.375 17.5 9.375H13.125C12.78 9.375 12.5 9.655 12.5 10V16.25C12.5 16.595 12.78 16.875 13.125 16.875H19.375C19.72 16.875 20 16.595 20 16.25V13.125C20 13.0113 19.97 12.9 19.9113 12.8038Z" fill="#FFC107"/>
<path d="M15 10.625H17.1463L18.6462 13.125H15V10.625Z" fill="#FAFAFA"/>
<path d="M13.125 6.875H1.875C1.53 6.875 1.25 7.155 1.25 7.5V16.25C1.25 16.595 1.53 16.875 1.875 16.875H13.75V7.5C13.75 7.155 13.47 6.875 13.125 6.875Z" fill="#FFC107"/>
<path d="M16.875 17.5C17.5654 17.5 18.125 16.9404 18.125 16.25C18.125 15.5596 17.5654 15 16.875 15C16.1846 15 15.625 15.5596 15.625 16.25C15.625 16.9404 16.1846 17.5 16.875 17.5Z" fill="#FAFAFA"/>
<path d="M16.875 18.125C15.8412 18.125 15 17.2838 15 16.25C15 15.2162 15.8412 14.375 16.875 14.375C17.9088 14.375 18.75 15.2162 18.75 16.25C18.75 17.2838 17.9088 18.125 16.875 18.125ZM16.875 15.625C16.5312 15.625 16.25 15.9062 16.25 16.25C16.25 16.5938 16.5312 16.875 16.875 16.875C17.2188 16.875 17.5 16.5938 17.5 16.25C17.5 15.9062 17.2188 15.625 16.875 15.625Z" fill="#455A64"/>
<path d="M13.75 16.875H1.875C1.53 16.875 1.25 16.595 1.25 16.25V14.375H13.75V16.875Z" fill="#FC9B28"/>
<path d="M5.625 17.5C6.31536 17.5 6.875 16.9404 6.875 16.25C6.875 15.5596 6.31536 15 5.625 15C4.93464 15 4.375 15.5596 4.375 16.25C4.375 16.9404 4.93464 17.5 5.625 17.5Z" fill="#FAFAFA"/>
<path d="M5.625 18.125C4.59125 18.125 3.75 17.2838 3.75 16.25C3.75 15.2162 4.59125 14.375 5.625 14.375C6.65875 14.375 7.5 15.2162 7.5 16.25C7.5 17.2838 6.65875 18.125 5.625 18.125ZM5.625 15.625C5.28 15.625 5 15.9062 5 16.25C5 16.5938 5.28 16.875 5.625 16.875C5.97 16.875 6.25 16.5938 6.25 16.25C6.25 15.9062 5.97 15.625 5.625 15.625Z" fill="#455A64"/>
<path d="M4.375 11.875C7.2625 11.875 9.62125 9.68 9.93625 6.875H1.875C1.53 6.875 1.25 7.155 1.25 7.5V10.9225C2.145 11.5225 3.21875 11.875 4.375 11.875Z" fill="#494949"/>
<path d="M4.375 10.625C6.79125 10.625 8.75 8.66625 8.75 6.25C8.75 3.83375 6.79125 1.875 4.375 1.875C1.95875 1.875 0 3.83375 0 6.25C0 8.66625 1.95875 10.625 4.375 10.625Z" fill="#FFC107"/>
<path d="M5.62501 8.125C5.46501 8.125 5.305 8.06375 5.1825 7.9425L3.9325 6.6925C3.81625 6.575 3.75 6.41625 3.75 6.25V4.375C3.75 4.03 4.03 3.75 4.375 3.75C4.72 3.75 5 4.03 5 4.375V5.99125L6.06751 7.05875C6.31126 7.3025 6.31126 7.69875 6.06751 7.9425C5.94501 8.06375 5.78501 8.125 5.62501 8.125Z" fill="#FAFAFA"/>
</svg>
