<svg width="14" height="14" viewBox="0 0 14 14" fill="none" xmlns="http://www.w3.org/2000/svg">
<g opacity="0.85">
<path d="M12.25 5.83334C12.25 9.91667 7 13.4167 7 13.4167C7 13.4167 1.75 9.91667 1.75 5.83334C1.75 4.44095 2.30312 3.10559 3.28769 2.12103C4.27226 1.13646 5.60761 0.583336 7 0.583336C8.39239 0.583336 9.72774 1.13646 10.7123 2.12103C11.6969 3.10559 12.25 4.44095 12.25 5.83334Z" fill="#D60000"/>
<path d="M7 8.45833C8.44975 8.45833 9.625 7.28308 9.625 5.83333C9.625 4.38358 8.44975 3.20833 7 3.20833C5.55025 3.20833 4.375 4.38358 4.375 5.83333C4.375 7.28308 5.55025 8.45833 7 8.45833Z" fill="white" stroke="#D60000" stroke-linecap="round" stroke-linejoin="round"/>
</g>
</svg>
