<svg width="34" height="34" viewBox="0 0 34 34" fill="none" xmlns="http://www.w3.org/2000/svg">
<path d="M17 34C26.3888 34 34 26.3888 34 17C34 7.61116 26.3888 0 17 0C7.61116 0 0 7.61116 0 17C0 26.3888 7.61116 34 17 34Z" fill="#FFD93B"/>
<path d="M33.9995 17C33.9995 26.3925 26.3867 34 16.9995 34C11.6552 34 6.88455 31.535 3.76611 27.6729C6.68267 30.0316 10.3961 31.4394 14.4389 31.4394C23.8261 31.4394 31.4389 23.8319 31.4389 14.4394C31.4389 10.3966 30.0311 6.68316 27.6723 3.7666C31.5292 6.88504 33.9995 11.6557 33.9995 17Z" fill="#F4C534"/>
<path d="M23.2539 17.6494C24.7273 17.6494 25.9218 16.4549 25.9218 14.9814C25.9218 13.508 24.7273 12.3135 23.2539 12.3135C21.7804 12.3135 20.5859 13.508 20.5859 14.9814C20.5859 16.4549 21.7804 17.6494 23.2539 17.6494Z" fill="#3E4347"/>
<path d="M24.2218 13.3214C23.8142 13.1407 23.3888 13.208 23.2718 13.4719C23.1548 13.7358 23.3904 14.0963 23.798 14.2771C24.2057 14.4579 24.631 14.3906 24.7481 14.1266C24.8651 13.8627 24.6295 13.5022 24.2218 13.3214Z" fill="#5A5F63"/>
<path d="M10.7461 17.6494C12.2195 17.6494 13.414 16.4549 13.414 14.9814C13.414 13.508 12.2195 12.3135 10.7461 12.3135C9.2726 12.3135 8.07812 13.508 8.07812 14.9814C8.07812 16.4549 9.2726 17.6494 10.7461 17.6494Z" fill="#3E4347"/>
<path d="M11.7135 13.3209C11.3059 13.1402 10.8805 13.2075 10.7635 13.4714C10.6464 13.7353 10.882 14.0958 11.2897 14.2766C11.6974 14.4574 12.1227 14.3901 12.2398 14.1262C12.3568 13.8622 12.1212 13.5017 11.7135 13.3209Z" fill="#5A5F63"/>
<path d="M10.037 23.7107C9.7161 23.4089 9.70123 22.9043 10.003 22.5844C10.3047 22.2646 10.8084 22.2487 11.1292 22.5504C14.4219 25.6498 19.5793 25.6498 22.872 22.5504C23.1929 22.2487 23.6965 22.2646 23.9982 22.5844C24.3 22.9053 24.2851 23.4089 23.9642 23.7107C20.0595 27.387 13.9417 27.387 10.037 23.7107Z" fill="#3E4347"/>
</svg>
