<svg width="14" height="14" viewBox="0 0 14 14" fill="none" xmlns="http://www.w3.org/2000/svg">
<path d="M7 0L3.5 7L7 14C10.866 14 14 10.866 14 7C14 3.134 10.866 0 7 0Z" fill="#28ABFA"/>
<path d="M0 7C0 10.866 3.134 14 7 14V0C3.134 0 0 3.134 0 7Z" fill="#14CFFF"/>
<path d="M7 1.64062L4.32031 7L7 12.3594C9.95991 12.3594 12.3594 9.95991 12.3594 7C12.3594 4.04009 9.95991 1.64062 7 1.64062Z" fill="#C4F3FF"/>
<path d="M1.64062 7C1.64062 9.95991 4.04009 12.3594 7 12.3594V1.64062C4.04009 1.64062 1.64062 4.04009 1.64062 7Z" fill="white"/>
<path d="M8.16009 7.58004L7 6.41995H6.45312L7 7.58004L7.58004 8.16009L8.16009 7.58004Z" fill="#340D66"/>
<path d="M4.67013 4.09009L4.09009 4.67013L6.99998 7.58003V6.41994L4.67013 4.09009Z" fill="#373E9F"/>
<path d="M9.33956 4.08044L7 6.41997L6.45312 7.58006H7L9.91958 4.66046L9.33956 4.08044Z" fill="#373E9F"/>
<path d="M5.8399 7.58004L6.41995 8.16009L6.99999 7.58004V6.41995L5.8399 7.58004Z" fill="#3857BC"/>
<path d="M7.41016 2.46094H7L6.72656 2.87109L7 3.28125H7.41016V2.46094Z" fill="#340D66"/>
<path d="M6.58984 2.46094H7V3.28125H6.58984V2.46094Z" fill="#373E9F"/>
<path d="M7.41016 10.7188H7L6.72656 11.1289L7 11.5391H7.41016V10.7188Z" fill="#340D66"/>
<path d="M6.58984 10.7188H7V11.5391H6.58984V10.7188Z" fill="#373E9F"/>
<path d="M2.46094 7.41016V6.58984H3.28125V7.41016H2.46094Z" fill="#373E9F"/>
<path d="M10.7188 7.41016V6.58984H11.5391V7.41016H10.7188Z" fill="#340D66"/>
</svg>
