<svg width="60" height="62" viewBox="0 0 240 240" fill="none" xmlns="http://www.w3.org/2000/svg">
<g clip-path="url(#clip0)">
<path d="M42.7922 0C30.8635 0 15.042 32.1252 15.042 56.6484C15.042 72.812 20.4555 81.5868 28.5426 85.6961C35.0647 89.015 38.8868 96.0004 38.1758 103.282L26.543 222.087C26.0972 226.673 27.6058 231.234 30.6985 234.642C33.7916 238.055 38.1827 240 42.7927 240C47.4027 240 51.7928 238.055 54.8864 234.642C57.9796 231.234 59.4872 226.673 59.0419 222.087L47.409 103.282C46.6976 96.0004 50.526 89.0155 57.0418 85.6961C65.1289 81.5863 70.5424 72.812 70.5424 56.6484C70.5424 32.1252 55.356 0 42.7922 0Z" fill="#C4C4C4"/>
<path d="M173.216 240C175.411 240 177.193 238.219 177.193 236.015V187C177.193 184.789 178.983 183 181.193 183C183.404 183 185.193 184.789 185.193 187V236.015C185.193 238.219 186.976 240 189.171 240H189.218C191.413 240 193.193 238.219 193.193 236.015V187C193.193 184.789 194.982 183 197.195 183C199.406 183 201.195 184.789 201.195 187V236.015C201.195 238.219 202.975 240 205.171 240H205.219C207.414 240 209.194 238.219 209.194 236.015V187C209.194 184.789 210.984 183 213.194 183C215.405 183 217.194 184.789 217.194 187V236.015C217.194 238.219 218.977 240 221.172 240C223.258 240 224.946 238.314 224.946 236.235C224.946 223.83 224.946 185 224.946 183.352C224.946 167.188 219.53 158.413 211.445 154.304C204.921 150.985 201.101 144 201.812 136.718L213.445 17.9131C213.891 13.3269 212.382 8.76553 209.289 5.3585C206.194 1.94465 201.804 3.8135e-06 197.196 3.8135e-06C192.586 3.8135e-06 188.195 1.94514 185.1 5.3585C182.007 8.76553 180.499 13.3274 180.945 17.9131L192.577 136.718C193.288 144 189.46 150.984 182.944 154.304C174.859 158.414 169.446 167.188 169.446 183.352C169.446 185 169.446 223.83 169.446 236.235C169.444 238.314 171.13 240 173.216 240Z" fill="#C4C4C4"/>
<path d="M43.6357 98.1819H194.181L196.363 120H43.6357V98.1819Z" fill="#C4C4C4"/>
</g>
<defs>
<clipPath id="clip0">
<rect width="240" height="240" fill="white"/>
</clipPath>
</defs>
</svg>
