<svg width="18" height="18" viewBox="0 0 18 18" fill="none" xmlns="http://www.w3.org/2000/svg">
<path d="M14.5664 5.56629V5.97656H13.5117V5.56629C13.5117 3.07863 11.4878 1.05469 9.00013 1.05469C6.51247 1.05469 4.48853 3.07863 4.48853 5.56629V5.97656H3.43384V5.56629C3.43384 2.49715 5.93063 0 9.00013 0C12.0696 0 14.5664 2.49715 14.5664 5.56629Z" fill="#FC9B28"/>
<path d="M14.5663 5.56629V5.97656H13.5116V5.56629C13.5116 3.07863 11.4877 1.05469 9 1.05469V0C12.0695 0 14.5663 2.49715 14.5663 5.56629Z" fill="#FC9B28"/>
<path d="M6.16251 8.73963H4.22989C3.7459 8.73963 3.35352 8.34725 3.35352 7.86325V6.31986C3.35352 5.83586 3.7459 5.44348 4.22989 5.44348H6.16251V8.73963Z" fill="#32393F"/>
<path d="M11.7673 8.73963H13.7703C14.2543 8.73963 14.6467 8.34725 14.6467 7.86325V6.31986C14.6467 5.83586 14.2543 5.44348 13.7703 5.44348H11.7673V8.73963Z" fill="#32393F"/>
<path d="M18 16.509V18H14.3687L13.8414 17.4727L13.314 18H4.68598L4.15863 17.4727L3.63129 18H0V16.509C0 15.8643 0.414141 15.293 1.02656 15.0919L6.42867 13.3214H11.5864V13.3263L16.9734 15.0919C17.5859 15.293 18 15.8643 18 16.509Z" fill="#FFC107"/>
<path d="M18 16.509V18H14.3687L13.8414 17.4727L13.314 18H9V13.3214H11.5864V13.3263L16.9734 15.0919C17.5859 15.293 18 15.8643 18 16.509Z" fill="#FFC107"/>
<path d="M11.5862 10.7694V13.3214C11.5862 13.3214 10.2854 14.6071 8.99979 14.6071C7.71413 14.6071 6.42847 13.3214 6.42847 13.3214V10.7694H11.5862Z" fill="#FFB9AB"/>
<path d="M11.5864 10.7694V13.3214C11.5864 13.3214 10.2857 14.6071 9 14.6071V10.7694H11.5864Z" fill="#E39E8D"/>
<path d="M12.3299 5.36906V6.47578L11.9882 6.84387H6.01164L5.66992 6.47578V5.36906C5.66992 4.44938 6.04258 3.61687 6.64516 3.0143C7.24773 2.41172 8.08023 2.03906 8.99992 2.03906C10.8389 2.03906 12.3299 3.53004 12.3299 5.36906Z" fill="#FFB81F"/>
<path d="M12.33 5.36906V6.47578L11.9883 6.84387H9V2.03906C10.839 2.03906 12.33 3.53004 12.33 5.36906Z" fill="#FC9B28"/>
<path d="M12.3299 6.47792V8.75851C12.3299 8.9937 12.3085 9.22327 12.2673 9.44546C12.2339 9.62652 11.7671 9.97281 11.7671 9.97281C11.7671 9.97281 11.99 10.3325 11.9007 10.5001C11.3294 11.5766 10.2445 12.3033 8.99992 12.3033C8.08023 12.3033 7.24773 11.9067 6.64516 11.2651C6.04258 10.6235 5.66992 9.73761 5.66992 8.75851V6.47792H7.44602C8.04402 6.47792 8.5893 6.25081 8.99992 5.87816C9.46609 5.45488 9.75895 4.84421 9.75895 4.16534C9.75895 5.44257 10.7943 6.47792 12.0715 6.47792H12.3299Z" fill="#FCCBC3"/>
<path d="M12.33 6.47792V8.75851C12.33 8.9937 12.3086 9.22327 12.2674 9.44546C12.234 9.62652 11.7671 9.97281 11.7671 9.97281C11.7671 9.97281 11.99 10.3325 11.9007 10.5001C11.3295 11.5766 10.2445 12.3033 9 12.3033V5.87816C9.46617 5.45488 9.75902 4.84421 9.75902 4.16534C9.75902 5.44257 10.7944 6.47792 12.0716 6.47792H12.33Z" fill="#FCCBC3"/>
<path d="M12.2674 9.44543C12.1981 9.82196 12.0726 10.1767 11.9007 10.5001H9.60498V9.44543H12.2674Z" fill="#FC9B28"/>
<path d="M3.63135 16.3828H4.68603V18H3.63135V16.3828Z" fill="#FC9B28"/>
<path d="M13.3142 16.3828H14.3689V18H13.3142V16.3828Z" fill="#FC9B28"/>
</svg>
