<svg width="22" height="22" viewBox="0 0 22 22" fill="none" xmlns="http://www.w3.org/2000/svg">
<g clip-path="url(#clip0)">
<path d="M3.92274 0C2.82927 0 1.37897 2.94481 1.37897 5.19277C1.37897 6.67444 1.8752 7.47879 2.61652 7.85547C3.21438 8.15971 3.56474 8.80004 3.49957 9.46753L2.43322 20.358C2.39236 20.7784 2.53065 21.1965 2.81415 21.5088C3.09768 21.8217 3.50019 22 3.92278 22C4.34537 22 4.74779 21.8217 5.03137 21.5088C5.31491 21.1965 5.45311 20.7783 5.41229 20.358L4.34595 9.46753C4.28073 8.80004 4.63167 8.15975 5.22895 7.85547C5.97027 7.47875 6.46651 6.67444 6.46651 5.19277C6.46651 2.94481 5.07442 0 3.92274 0Z" fill="#FBAE06"/>
<path d="M15.878 22C16.0793 22 16.2427 21.8368 16.2427 21.6347V17.1417C16.2427 16.939 16.4067 16.775 16.6093 16.775C16.812 16.775 16.9759 16.939 16.9759 17.1417V21.6347C16.9759 21.8368 17.1394 22 17.3406 22H17.3449C17.5461 22 17.7093 21.8368 17.7093 21.6347V17.1417C17.7093 16.939 17.8733 16.775 18.0761 16.775C18.2788 16.775 18.4428 16.939 18.4428 17.1417V21.6347C18.4428 21.8368 18.606 22 18.8072 22H18.8117C19.0129 22 19.1761 21.8368 19.1761 21.6347V17.1417C19.1761 16.939 19.3401 16.775 19.5427 16.775C19.7454 16.775 19.9094 16.939 19.9094 17.1417V21.6347C19.9094 21.8368 20.0728 22 20.274 22C20.4652 22 20.62 21.8455 20.62 21.6549C20.62 20.5178 20.62 16.9584 20.62 16.8072C20.62 15.3256 20.1235 14.5212 19.3824 14.1445C18.7844 13.8403 18.4342 13.2 18.4994 12.5325L19.5657 1.64203C19.6066 1.22163 19.4683 0.803506 19.1848 0.491194C18.9011 0.178258 18.4986 -8.75225e-07 18.0762 -8.75225e-07C17.6536 -8.75225e-07 17.2511 0.178303 16.9674 0.491194C16.6839 0.803506 16.5456 1.22168 16.5865 1.64203L17.6528 12.5325C17.718 13.2 17.3671 13.8402 16.7698 14.1445C16.0287 14.5213 15.5324 15.3256 15.5324 16.8072C15.5324 16.9584 15.5324 20.5177 15.5324 21.6549C15.5323 21.8455 15.6869 22 15.878 22Z" fill="#FBAE06"/>
<path d="M4 9H17.8L18 11H4V9Z" fill="#FBAE06"/>
</g>
<defs>
<clipPath id="clip0">
<rect width="22" height="22" fill="white"/>
</clipPath>
</defs>
</svg>
