<svg width="25" height="24" viewBox="0 0 25 24" fill="none" xmlns="http://www.w3.org/2000/svg">
<path d="M13.0267 0.706081L13.0267 0.706055C12.7252 0.431283 12.2746 0.431373 11.9734 0.705976L11.9733 0.706031L0.756594 10.9267C0.756592 10.9267 0.756591 10.9267 0.756589 10.9267C0.514849 11.147 0.435983 11.4821 0.554084 11.7871L13.0267 0.706081ZM13.0267 0.706081L24.2433 10.9266C24.2433 10.9266 24.2434 10.9267 24.2434 10.9267C24.4851 11.147 24.564 11.482 24.4461 11.7871C24.328 12.0921 24.0439 12.2867 23.7169 12.2867H21.925H21.425V12.7867V23.027C21.425 23.1569 21.3197 23.2622 21.1898 23.2622H15.042C14.9121 23.2622 14.8068 23.1568 14.8068 23.027V16.8094V16.3094H14.3068H10.6934H10.1934V16.8094V23.0269C10.1934 23.1568 10.0881 23.2621 9.95819 23.2621H3.81005C3.68019 23.2621 3.57485 23.1568 3.57485 23.0269V12.7867V12.2867M13.0267 0.706081L3.57485 12.2867M3.57485 12.2867H3.07485M3.57485 12.2867H3.07485M3.07485 12.2867H1.28335C0.956259 12.2867 0.672257 12.0921 0.554099 11.7872L3.07485 12.2867Z" fill="#D24649" stroke="#D24649"/>
<path d="M18.0884 1.96777H21.7327C21.8627 1.96777 21.9679 2.07309 21.9679 2.20293V5.49534L18.0884 1.96777Z" fill="#D24649" stroke="#D24649"/>
</svg>
