<svg width="105" height="130" viewBox="0 0 105 130" fill="none" xmlns="http://www.w3.org/2000/svg">
<path d="M6.85543 123.842L0.25 128.524V10C0.25 4.61523 4.61522 0.25 10 0.25H95C100.385 0.25 104.75 4.61522 104.75 10V128.463L97.663 122.368L97.4673 122.199L97.3054 122.4L91.4688 129.64L83.1647 122.369L83.0066 122.231L82.8431 122.363L74.9953 128.69L66.6511 122.358L66.5 122.243L66.3489 122.358L58.0219 128.677L51.6761 122.38L51.4928 122.198L51.3169 122.387L45.473 128.67L38.6537 123.352L38.4724 123.211L38.3164 123.38L32.9922 129.144L27.6761 123.868L27.5082 123.702L27.3325 123.86L22.0082 128.664L17.1761 123.868L17 123.694L16.8239 123.868L12 128.655L7.1761 123.868L7.02691 123.72L6.85543 123.842Z" stroke="black" stroke-opacity="0.6" stroke-width="0.5"/>
</svg>
