<svg width="22" height="22" viewBox="0 0 22 22" fill="none" xmlns="http://www.w3.org/2000/svg">
<g opacity="0.85">
<path d="M19.25 9.16669C19.25 15.5834 11 21.0834 11 21.0834C11 21.0834 2.75 15.5834 2.75 9.16669C2.75 6.97865 3.61919 4.88023 5.16637 3.33306C6.71354 1.78588 8.81196 0.916687 11 0.916687C13.188 0.916687 15.2865 1.78588 16.8336 3.33306C18.3808 4.88023 19.25 6.97865 19.25 9.16669Z" stroke="black" stroke-linecap="round" stroke-linejoin="round"/>
<path d="M11 13.2917C13.2782 13.2917 15.125 11.4448 15.125 9.16666C15.125 6.88848 13.2782 5.04166 11 5.04166C8.72183 5.04166 6.875 6.88848 6.875 9.16666C6.875 11.4448 8.72183 13.2917 11 13.2917Z" fill="#fac32d"   stroke-linecap="round" stroke-linejoin="round"/>
</g>
</svg>
