<svg width="6" height="6" viewBox="0 0 6 6" fill="none" xmlns="http://www.w3.org/2000/svg">
<path d="M2.08491 0.981656C2.36166 0.0799078 3.63834 0.0799077 3.91509 0.981656V0.981656C4.03845 1.38358 4.40966 1.65801 4.83009 1.65803L4.9417 1.65803C5.85556 1.65807 6.2496 2.81653 5.52528 3.37377L5.34264 3.51429C5.02621 3.75773 4.89413 4.172 5.01123 4.55366L5.06554 4.73067C5.3369 5.61506 4.31216 6.32581 3.57891 5.76178V5.76178C3.23762 5.49925 2.76238 5.49925 2.42109 5.76178V5.76178C1.68784 6.32581 0.6631 5.61506 0.934457 4.73067L0.988768 4.55366C1.10587 4.172 0.973785 3.75773 0.657365 3.51429L0.474715 3.37377C-0.249599 2.81653 0.144438 1.65807 1.0583 1.65803L1.16991 1.65803C1.59034 1.65801 1.96155 1.38358 2.08491 0.981656V0.981656Z" fill="#DDE2FF"/>
</svg>
