<svg width="90" height="90" viewBox="0 0 90 90" fill="none" xmlns="http://www.w3.org/2000/svg">
<g filter="url(#filter0_d)">
<rect x="24" y="16" width="42" height="42" rx="8" fill="#FA5D5D"/>
</g>
<g clip-path="url(#clip0)">
<path d="M54.412 37.6291H53.7965C53.5284 33.5917 50.529 30.2802 46.6289 29.5636C46.7337 29.3387 46.7964 29.0216 46.7964 28.7574C46.7964 27.7884 46.0081 27 45.039 27C44.0699 27 43.2816 27.7884 43.2816 28.7574C43.2816 29.0216 43.3443 29.3387 43.4491 29.5636C39.549 30.2802 36.4715 33.5917 36.2035 37.6291H35.588C35.2642 37.6291 35.0022 37.8755 35.0022 38.1993C35.0022 38.5231 35.2641 38.7851 35.588 38.7851H54.412C54.7357 38.7851 54.9978 38.5231 54.9978 38.1993C54.9978 37.8755 54.7357 37.6291 54.412 37.6291ZM45.039 29.4122C44.7158 29.4122 44.4532 29.0807 44.4532 28.7574C44.4532 28.4342 44.7158 28.1716 45.039 28.1716C45.3622 28.1716 45.6248 28.4342 45.6248 28.7574C45.6248 29.0807 45.3622 29.4122 45.039 29.4122Z" fill="white"/>
<path d="M36.7596 41.1284C36.4315 41.1284 36.1738 41.3862 36.1738 41.7142V46.4098C36.1738 46.7378 36.4315 46.9957 36.7596 46.9957H38.517V41.1284H36.7596Z" fill="white"/>
<path d="M53.1717 40.6268C52.714 40.1691 51.9726 40.1691 51.515 40.6267L48.1603 43.9658C47.74 44.386 47.187 44.6197 46.5968 44.6431H44.9922C44.6709 44.6431 44.4064 44.404 44.4064 44.0573C44.4064 43.7104 44.6709 43.4715 44.9922 43.4715C45.7323 43.4715 45.5952 43.4715 46.7965 43.4715C47.4409 43.4715 47.9681 42.9442 47.9681 42.2999C47.9681 41.6555 47.4409 41.1439 46.7965 41.1439H45.6249C45.4193 41.1439 45.2643 41.1512 45.0977 41.0033C44.8899 40.8214 44.6642 40.5947 44.4533 40.4604C43.2823 39.6339 41.589 39.4332 40.1768 40.1711C39.8768 40.3278 39.6887 40.6387 39.6887 40.9773V46.9955C47.1402 47.0055 46.4584 46.9955 46.503 46.9955C47.7547 46.9955 48.932 46.5082 49.817 45.6226L53.1717 42.2679C53.6294 41.8102 53.6294 41.0845 53.1717 40.6268Z" fill="white"/>
</g>
<defs>
<filter id="filter0_d" x="0" y="0" width="90" height="90" filterUnits="userSpaceOnUse" color-interpolation-filters="sRGB">
<feFlood flood-opacity="0" result="BackgroundImageFix"/>
<feColorMatrix in="SourceAlpha" type="matrix" values="0 0 0 0 0 0 0 0 0 0 0 0 0 0 0 0 0 0 127 0"/>
<feOffset dy="8"/>
<feGaussianBlur stdDeviation="12"/>
<feColorMatrix type="matrix" values="0 0 0 0 1 0 0 0 0 0.442667 0 0 0 0 0.129167 0 0 0 0.12 0"/>
<feBlend mode="normal" in2="BackgroundImageFix" result="effect1_dropShadow"/>
<feBlend mode="normal" in="SourceGraphic" in2="effect1_dropShadow" result="shape"/>
</filter>
<clipPath id="clip0">
<rect width="20" height="20" fill="white" transform="translate(35 27)"/>
</clipPath>
</defs>
</svg>
