<svg width="20" height="20" viewBox="0 0 20 20" fill="none" xmlns="http://www.w3.org/2000/svg">
<g clip-path="url(#clip0)">
<path d="M18.6701 10.2591C18.5896 10.0945 18.5896 9.90565 18.6701 9.74104L19.416 8.21507C19.8314 7.36543 19.5023 6.35274 18.6669 5.9095L17.1665 5.11341C17.0047 5.02755 16.8937 4.87474 16.862 4.69431L16.5686 3.02131C16.4052 2.08983 15.5435 1.46389 14.6073 1.59635L12.9256 1.83424C12.7441 1.85987 12.5646 1.80151 12.4329 1.67413L11.2121 0.493196C10.5324 -0.164379 9.46759 -0.164418 8.7879 0.493196L7.56713 1.67424C7.43541 1.80167 7.25592 1.85991 7.07444 1.83436L5.39269 1.59647C4.45617 1.46393 3.59485 2.08995 3.43145 3.02142L3.13802 4.69435C3.10634 4.87481 2.99536 5.02759 2.83352 5.11348L1.33314 5.90957C0.497757 6.35277 0.168697 7.36554 0.584007 8.21519L1.3299 9.74112C1.41037 9.90576 1.41037 10.0946 1.3299 10.2592L0.583968 11.7851C0.168658 12.6348 0.497718 13.6475 1.3331 14.0907L2.83349 14.8868C2.99536 14.9727 3.10634 15.1255 3.13802 15.3059L3.43145 16.9789C3.5802 17.8269 4.3073 18.4215 5.14296 18.4215C5.22527 18.4215 5.30878 18.4157 5.39273 18.4038L7.07448 18.1659C7.25584 18.1402 7.43545 18.1987 7.56717 18.326L8.7879 19.507C9.12782 19.8358 9.56384 20.0002 10 20.0001C10.4361 20.0001 10.8723 19.8357 11.2121 19.507L12.4329 18.326C12.5646 18.1987 12.7441 18.1404 12.9256 18.1659L14.6073 18.4038C15.544 18.5363 16.4052 17.9103 16.5686 16.9789L16.862 15.3059C16.8937 15.1255 17.0047 14.9727 17.1665 14.8868L18.6669 14.0907C19.5023 13.6475 19.8314 12.6347 19.416 11.7851L18.6701 10.2591ZM18.1262 13.0717L16.6259 13.8678C16.1475 14.1216 15.8194 14.5731 15.7259 15.1066L15.4324 16.7795C15.3772 17.0947 15.0858 17.3064 14.7689 17.2616L13.0871 17.0237C12.5508 16.9478 12.0201 17.1204 11.6309 17.4969L10.4101 18.6778C10.1802 18.9002 9.81989 18.9002 9.58989 18.6778L8.36916 17.4969C8.04017 17.1786 7.6101 17.0062 7.16112 17.0062C7.07885 17.0062 6.99592 17.0119 6.91288 17.0237L5.23113 17.2616C4.91449 17.3064 4.62289 17.0946 4.56758 16.7795L4.2741 15.1065C4.18051 14.573 3.85246 14.1215 3.37407 13.8677L1.87369 13.0716C1.59103 12.9217 1.4797 12.5791 1.62021 12.2916L2.36614 10.7656C2.60396 10.2791 2.60396 9.72104 2.36614 9.23448L1.62021 7.70851C1.4797 7.42105 1.59103 7.07844 1.87369 6.92847L3.37407 6.13239C3.85242 5.87852 4.18051 5.42704 4.27406 4.8936L4.5675 3.22064C4.62281 2.90549 4.91414 2.69377 5.23105 2.73854L6.9128 2.97643C7.44893 3.05232 7.97982 2.87979 8.36908 2.50326L9.58985 1.32233C9.81977 1.09991 10.18 1.09991 10.41 1.32233L11.6308 2.50326C12.02 2.87982 12.5508 3.05232 13.0871 2.97643L14.7688 2.73854C15.0855 2.69373 15.3771 2.90549 15.4324 3.22064L15.7258 4.89364C15.8194 5.42708 16.1474 5.8786 16.6258 6.13239L18.1262 6.92847C18.4089 7.07844 18.5202 7.42105 18.3797 7.70851L17.6337 9.23444C17.3959 9.72096 17.3959 10.2791 17.6337 10.7656L18.3797 12.2915C18.5202 12.5791 18.4089 12.9217 18.1262 13.0717Z" fill="black"/>
<path d="M14.2142 5.78562C13.989 5.56039 13.6238 5.56039 13.3986 5.78562L5.78575 13.3985C5.56051 13.6237 5.56051 13.9889 5.78575 14.2141C5.89836 14.3267 6.04598 14.3831 6.19356 14.3831C6.34113 14.3831 6.48879 14.3268 6.60137 14.2141L14.2142 6.60132C14.4395 6.37605 14.4395 6.0109 14.2142 5.78562Z" fill="black"/>
<path d="M7.69295 4.80908C6.52686 4.80908 5.57816 5.75779 5.57816 6.92387C5.57816 8.08996 6.52686 9.03867 7.69295 9.03867C8.85903 9.03867 9.80774 8.08996 9.80774 6.92387C9.80774 5.75779 8.85903 4.80908 7.69295 4.80908ZM7.69295 7.88512C7.16291 7.88512 6.7317 7.45391 6.7317 6.92383C6.7317 6.3938 7.16291 5.96259 7.69295 5.96259C8.22298 5.96259 8.65423 6.3938 8.65423 6.92383C8.65419 7.45391 8.22298 7.88512 7.69295 7.88512Z" fill="black"/>
<path d="M12.307 10.9614C11.1409 10.9614 10.1922 11.9101 10.1922 13.0762C10.1922 14.2423 11.1409 15.191 12.307 15.191C13.4731 15.191 14.4218 14.2423 14.4218 13.0762C14.4218 11.9101 13.4731 10.9614 12.307 10.9614ZM12.307 14.0375C11.777 14.0375 11.3457 13.6063 11.3457 13.0762C11.3457 12.5462 11.7769 12.115 12.307 12.115C12.837 12.115 13.2682 12.5462 13.2682 13.0762C13.2682 13.6063 12.837 14.0375 12.307 14.0375Z" fill="black"/>
</g>
<defs>
<clipPath id="clip0">
<rect width="20" height="20" fill="white"/>
</clipPath>
</defs>
</svg>
