<svg width="22" height="22" viewBox="0 0 22 22" fill="none" xmlns="http://www.w3.org/2000/svg">
<g opacity="0.8" clip-path="url(#clip0)">
<path d="M21.45 9.52599C21.4493 9.52548 21.4488 9.52481 21.4483 9.52431L12.474 0.55037C12.0915 0.167679 11.5829 -0.0429688 11.0419 -0.0429688C10.501 -0.0429688 9.9924 0.167679 9.60971 0.55037L0.64013 9.51978C0.637109 9.5228 0.63392 9.52599 0.631066 9.52901C-0.154458 10.3191 -0.153115 11.6009 0.634927 12.389C0.994958 12.7492 1.4703 12.9576 1.97871 12.9796C1.99952 12.9816 2.02034 12.9826 2.04132 12.9826H2.39883V19.5867C2.39883 20.8938 3.46231 21.9571 4.76933 21.9571H8.28036C8.63636 21.9571 8.92489 21.6684 8.92489 21.3125V16.1348C8.92489 15.5384 9.41014 15.0534 10.0065 15.0534H12.0774C12.6738 15.0534 13.1588 15.5384 13.1588 16.1348V21.3125C13.1588 21.6684 13.4474 21.9571 13.8034 21.9571H17.3144C18.6216 21.9571 19.6849 20.8938 19.6849 19.5867V12.9826H20.0166C20.5574 12.9826 21.0659 12.772 21.4488 12.3891C22.2377 11.5999 22.238 10.3157 21.45 9.52599V9.52599ZM20.5372 11.4777C20.3981 11.6169 20.2131 11.6936 20.0166 11.6936H19.0404C18.6844 11.6936 18.3958 11.9821 18.3958 12.3381V19.5867C18.3958 20.1829 17.9107 20.668 17.3144 20.668H14.4479V16.1348C14.4479 14.8278 13.3846 13.7643 12.0774 13.7643H10.0065C8.6993 13.7643 7.63582 14.8278 7.63582 16.1348V20.668H4.76933C4.17314 20.668 3.6879 20.1829 3.6879 19.5867V12.3381C3.6879 11.9821 3.39937 11.6936 3.04336 11.6936H2.08395C2.07388 11.6929 2.06398 11.6924 2.05374 11.6922C1.86172 11.6889 1.68162 11.6127 1.54667 11.4775C1.25965 11.1905 1.25965 10.7234 1.54667 10.4362C1.54684 10.4362 1.54684 10.4361 1.54701 10.4359L1.54751 10.4354L10.5215 1.46178C10.6604 1.32263 10.8452 1.2461 11.0419 1.2461C11.2385 1.2461 11.4233 1.32263 11.5624 1.46178L20.5344 10.4335C20.5357 10.4349 20.5372 10.4362 20.5386 10.4376C20.8241 10.7251 20.8236 11.1912 20.5372 11.4777V11.4777Z" fill="black"/>
</g>
<defs>
<clipPath id="clip0">
<rect width="22" height="22" fill="white"/>
</clipPath>
</defs>
</svg>
