<svg width="20" height="20" viewBox="0 0 20 20" fill="none" xmlns="http://www.w3.org/2000/svg">
<g clip-path="url(#clip0)">
<path d="M19.081 10.0007L19.9584 7.71212C20.0547 7.45963 19.9797 7.1734 19.7684 7.00216L17.8661 5.45977L17.4811 3.03868C17.4386 2.7712 17.2286 2.56246 16.9611 2.51997L14.54 2.13499L12.9989 0.231369C12.8289 0.0201335 12.5364 -0.0548615 12.2902 0.041382L10.0004 0.920073L7.71176 0.042632C7.45803 -0.0548615 7.1743 0.0226333 7.00306 0.232619L5.46067 2.13624L3.03958 2.52122C2.77335 2.56371 2.56336 2.7737 2.52087 3.03993L2.13589 5.46102L0.232274 7.00341C0.0222882 7.1734 -0.0539566 7.45963 0.0422869 7.71212L0.919727 10.0007L0.0422869 12.2893C-0.0552065 12.5418 0.0222882 12.828 0.232274 12.998L2.13589 14.5392L2.52087 16.9602C2.56336 17.2277 2.7721 17.4377 3.03958 17.4802L5.46067 17.8652L7.00306 19.7676C7.1743 19.98 7.46053 20.055 7.71301 19.9575L10.0004 19.0814L12.289 19.9588C12.3614 19.9863 12.4364 20 12.5127 20C12.6964 20 12.8777 19.9188 12.9989 19.7676L14.54 17.8652L16.9611 17.4802C17.2286 17.4377 17.4386 17.2277 17.4811 16.9602L17.8661 14.5392L19.7684 12.998C19.9797 12.8268 20.0547 12.5418 19.9584 12.2893L19.081 10.0007Z" fill="#F44336"/>
<path d="M8.1253 8.75121C7.09162 8.75121 6.25043 7.91002 6.25043 6.87634C6.25043 5.84266 7.09162 5.00146 8.1253 5.00146C9.15898 5.00146 10.0002 5.84266 10.0002 6.87634C10.0002 7.91002 9.15898 8.75121 8.1253 8.75121ZM8.1253 6.25138C7.78032 6.25138 7.50034 6.53136 7.50034 6.87634C7.50034 7.22131 7.78032 7.50129 8.1253 7.50129C8.47028 7.50129 8.75026 7.22131 8.75026 6.87634C8.75026 6.53136 8.47028 6.25138 8.1253 6.25138Z" fill="#FAFAFA"/>
<path d="M11.875 15.0007C10.8414 15.0007 10.0002 14.1595 10.0002 13.1258C10.0002 12.0922 10.8414 11.251 11.875 11.251C12.9087 11.251 13.7499 12.0922 13.7499 13.1258C13.7499 14.1595 12.9087 15.0007 11.875 15.0007ZM11.875 12.5009C11.5313 12.5009 11.2501 12.7821 11.2501 13.1258C11.2501 13.4696 11.5313 13.7508 11.875 13.7508C12.2188 13.7508 12.5 13.4696 12.5 13.1258C12.5 12.7821 12.2188 12.5009 11.875 12.5009Z" fill="#FAFAFA"/>
<path d="M6.87565 15.0005C6.74941 15.0005 6.62317 14.963 6.51318 14.8843C6.23195 14.683 6.16695 14.293 6.36819 14.0118L12.6178 5.26241C12.819 4.98118 13.209 4.91619 13.4902 5.11742C13.7714 5.31741 13.8352 5.70863 13.6352 5.98861L7.38562 14.738C7.26187 14.9093 7.07064 15.0005 6.87565 15.0005Z" fill="#FAFAFA"/>
</g>
<defs>
<clipPath id="clip0">
<rect width="20" height="20" fill="white"/>
</clipPath>
</defs>
</svg>
