<svg width="14" height="14" viewBox="0 0 14 14" fill="none" xmlns="http://www.w3.org/2000/svg">
<path d="M10.2702 3.37172C10.2702 4.29831 9.93805 5.10036 9.28275 5.75597C8.62745 6.41147 7.82554 6.74376 6.89923 6.74376H6.89763C5.97249 6.74344 5.17112 6.41115 4.51581 5.75597C3.8604 5.10036 3.52832 4.29831 3.52832 3.37172C3.52832 2.44545 3.8604 1.6433 4.51581 0.987793C5.1708 0.332504 5.97217 0.000320436 6.89763 0H6.89923C7.82522 0 8.62713 0.332291 9.28275 0.987793C9.93805 1.6433 10.2702 2.44545 10.2702 3.37172Z" fill="#FFBB85"/>
<path d="M12.8288 11.5923C12.8288 12.3233 12.5963 12.9151 12.1383 13.351C11.6856 13.7818 11.0869 14 10.359 14H3.61792C2.89 14 2.29132 13.7818 1.83897 13.351C1.38065 12.9148 1.14844 12.3231 1.14844 11.5923C1.14844 11.3112 1.15773 11.033 1.17632 10.7656C1.19522 10.4921 1.23346 10.1946 1.28986 9.88063C1.34668 9.56415 1.41974 9.26497 1.50722 8.99153C1.59801 8.70848 1.72084 8.42928 1.87283 8.16182C2.0307 7.88422 2.21613 7.6424 2.42398 7.4433C2.64188 7.23491 2.90826 7.06754 3.2162 6.94556C3.52307 6.82422 3.86327 6.7627 4.22728 6.7627C4.37009 6.7627 4.50841 6.82112 4.77501 6.9948C4.94185 7.10364 5.13411 7.22754 5.34634 7.36319C5.52963 7.48004 5.77786 7.58963 6.08473 7.68864C6.35443 7.77591 6.62819 7.82462 6.89864 7.83305C6.92844 7.83412 6.95824 7.83466 6.98804 7.83466C7.28839 7.83466 7.59216 7.78542 7.89166 7.68864C8.19853 7.58963 8.44708 7.48004 8.63026 7.36319C8.84474 7.22615 9.037 7.10236 9.20139 6.99512C9.4682 6.82112 9.60631 6.7627 9.74944 6.7627C10.1131 6.7627 10.4533 6.82422 10.7604 6.94556C11.0683 7.06754 11.3347 7.23523 11.5524 7.4433C11.7606 7.6424 11.946 7.88422 12.1038 8.16182C12.2559 8.42949 12.3789 8.70848 12.4694 8.99121C12.557 9.26497 12.6302 9.56415 12.6871 9.88084C12.7431 10.1951 12.7815 10.4927 12.8003 10.7654C12.8192 11.032 12.8285 11.3101 12.8288 11.5923V11.5923Z" fill="#FF9898"/>
<path d="M6.90022 6.74376H6.89862V0H6.90022C7.82649 0 8.62865 0.332291 9.28447 0.987793C9.93997 1.6433 10.2723 2.44545 10.2723 3.37172C10.2723 4.29831 9.93997 5.10036 9.28447 5.75597C8.62897 6.41147 7.82681 6.74376 6.90022 6.74376Z" fill="#F5A86C"/>
<path d="M12.8288 11.5923C12.8288 12.3233 12.5963 12.9151 12.1383 13.351C11.6856 13.7818 11.0869 14 10.359 14H6.89862V7.83305C6.92842 7.83412 6.95822 7.83466 6.98802 7.83466C7.28838 7.83466 7.59215 7.78542 7.89165 7.68864C8.19852 7.58963 8.44707 7.48004 8.63025 7.36319C8.84473 7.22615 9.03699 7.10236 9.20137 6.99512C9.46819 6.82112 9.60629 6.7627 9.74942 6.7627C10.1131 6.7627 10.4533 6.82422 10.7604 6.94556C11.0683 7.06754 11.3347 7.23523 11.5524 7.4433C11.7606 7.6424 11.946 7.88422 12.1038 8.16182C12.2559 8.42949 12.3789 8.70848 12.4694 8.99121C12.557 9.26497 12.6302 9.56415 12.6871 9.88084C12.7431 10.1951 12.7815 10.4927 12.8003 10.7654C12.8192 11.032 12.8285 11.3101 12.8288 11.5923V11.5923Z" fill="#FA5D5D"/>
</svg>
