<svg width="22" height="22" viewBox="0 0 22 22" fill="none" xmlns="http://www.w3.org/2000/svg">
<g opacity="0.85" clip-path="url(#clip0)">
<path d="M17.3417 14.3944C18.7823 12.461 19.5521 10.3654 19.568 8.33405C19.5849 6.16988 18.7347 4.16874 17.1097 2.5471C15.4858 0.906598 13.3162 0.00201953 10.9998 0C8.68356 0.00201953 6.5135 0.907027 4.89139 2.54637C3.2658 4.16814 2.41549 6.16954 2.43238 8.33409C2.44823 10.3654 3.21802 12.461 4.65863 14.3944C5.24614 15.183 6.32264 16.3052 7.87153 17.7449H5.35335C4.17811 17.7449 3.22201 18.6994 3.22201 19.8725C3.22201 21.0456 4.17811 22 5.35335 22H16.647C17.8223 22 18.7784 21.0456 18.7784 19.8725C18.7784 18.6994 17.8223 17.7449 16.647 17.7449H14.1289C15.6777 16.3051 16.7542 15.1829 17.3417 14.3944V14.3944ZM16.647 18.6043C17.3484 18.6043 17.919 19.1732 17.919 19.8724C17.919 20.5717 17.3484 21.1406 16.647 21.1406H5.35335C4.65197 21.1406 4.08139 20.5717 4.08139 19.8724C4.08139 19.1732 4.65197 18.6043 5.35335 18.6043H8.81036C9.31876 19.0632 9.86769 19.5493 10.4568 20.0622C10.5734 20.1636 10.6746 20.2517 10.6984 20.2737C10.7787 20.3529 10.8871 20.3975 11.0002 20.3975C11.1134 20.3975 11.2217 20.3529 11.302 20.2737C11.3259 20.2517 11.427 20.1636 11.5436 20.0622C12.1327 19.5493 12.6817 19.0632 13.1901 18.6043H16.647ZM11.0002 19.3958C8.08333 16.8555 6.18161 15.0001 5.34776 13.8809C2.55965 10.1391 2.6174 6.02903 5.50034 3.15279C6.96193 1.67565 8.91529 0.86118 10.9998 0.859375C13.0851 0.86118 15.0384 1.67565 16.5 3.15279L16.5019 3.15472C19.3829 6.02903 19.4407 10.139 16.6525 13.8809C15.8187 15.0001 13.917 16.8555 11.0002 19.3958V19.3958Z" fill="black"/>
<path d="M11.0001 2.61697C7.7291 2.61697 5.06787 5.2724 5.06787 8.53635C5.06787 11.8003 7.7291 14.4558 11.0001 14.4558C14.2712 14.4558 16.9324 11.8003 16.9324 8.53635C16.9324 5.27236 14.2712 2.61697 11.0001 2.61697V2.61697ZM11.0001 13.5964C8.20296 13.5964 5.92725 11.3265 5.92725 8.53635C5.92725 5.74626 8.20291 3.47635 11.0001 3.47635C13.7974 3.47635 16.073 5.74626 16.073 8.53635C16.073 11.3265 13.7973 13.5964 11.0001 13.5964Z" fill="black"/>
<path d="M12.6953 5.65759C12.4579 5.65759 12.2656 5.84996 12.2656 6.08728V8.02268H9.73535V6.08728C9.73535 5.84996 9.54298 5.65759 9.30566 5.65759C9.06835 5.65759 8.87598 5.84996 8.87598 6.08728V10.9854C8.87598 11.2227 9.06835 11.4151 9.30566 11.4151C9.54298 11.4151 9.73535 11.2227 9.73535 10.9854V8.88206H12.2656V10.9854C12.2656 11.2227 12.4579 11.4151 12.6953 11.4151C12.9326 11.4151 13.1249 11.2227 13.1249 10.9854V6.08728C13.1249 5.84996 12.9326 5.65759 12.6953 5.65759V5.65759Z" fill="black"/>
</g>
<defs>
<clipPath id="clip0">
<rect width="22" height="22" fill="white"/>
</clipPath>
</defs>
</svg>
