<svg width="15" height="15" viewBox="0 0 15 15" fill="none" xmlns="http://www.w3.org/2000/svg">
<rect width="15" height="15" rx="2" fill="#3A3A3A"/>
<rect x="0.5" y="0.5" width="14" height="14" rx="1.5" stroke="white" stroke-opacity="0.5"/>
<path d="M6.59373 10.2595C6.43805 10.2595 6.28931 10.1973 6.1795 10.0858L4.03582 7.90726C3.811 7.67836 3.8139 7.31121 4.04279 7.0858C4.27169 6.86156 4.63942 6.86388 4.86425 7.09278L6.57688 8.83327L10.1201 4.93108C10.3368 4.69348 10.7039 4.67663 10.9404 4.89158C11.178 5.10712 11.1954 5.47427 10.9799 5.71245L7.02363 10.0695C6.91617 10.188 6.76512 10.2566 6.60536 10.2601C6.60129 10.2595 6.5978 10.2595 6.59373 10.2595Z" fill="white" fill-opacity="0.5"/>
</svg>
