<svg width="16" height="16" viewBox="0 0 16 16" fill="none" xmlns="http://www.w3.org/2000/svg">
<path fill-rule="evenodd" clip-rule="evenodd" d="M3.82423 2.26419C3.80216 1.26275 3.08603 0.5 1.92315 0.5C0.760256 0.5 0 1.26275 0 2.26419C0 3.24488 0.737786 4.02959 1.87902 4.02959H1.90074C3.08603 4.02959 3.82423 3.24488 3.82423 2.26419ZM3.59855 5.42383H0.199219V15.6374H3.59855V5.42383ZM11.9442 5.18359C14.1812 5.18359 15.8581 6.64368 15.8581 9.78085L15.858 15.637H12.4588V10.1727C12.4588 8.80023 11.9669 7.86367 10.7363 7.86367C9.79721 7.86367 9.23783 8.49504 8.99215 9.10487C8.90227 9.32341 8.8802 9.62792 8.8802 9.93317V15.6373H5.48047C5.48047 15.6373 5.52527 6.38209 5.48047 5.4237H8.8802V6.87037C9.33138 6.17493 10.1394 5.18359 11.9442 5.18359Z" fill="#FDFDFD"/>
</svg>
