<svg width="16" height="14" viewBox="0 0 16 14" fill="none" xmlns="http://www.w3.org/2000/svg">
<circle cx="4.5" cy="1.5" r="1.25" stroke="white" stroke-width="0.5"/>
<circle cx="11.5" cy="1.5" r="1.25" stroke="white" stroke-width="0.5"/>
<rect x="3.25" y="4.25" width="2.5" height="5.5" stroke="white" stroke-width="0.5"/>
<rect x="3.25" y="4.25" width="2.5" height="5.5" stroke="white" stroke-width="0.5"/>
<rect x="3.25" y="4.25" width="2.5" height="5.5" stroke="white" stroke-width="0.5"/>
<rect x="10.25" y="4.25" width="2.5" height="5.5" stroke="white" stroke-width="0.5"/>
<rect x="10.25" y="4.25" width="2.5" height="5.5" stroke="white" stroke-width="0.5"/>
<rect x="10.25" y="4.25" width="2.5" height="5.5" stroke="white" stroke-width="0.5"/>
<mask id="path-5-inside-1" fill="white">
<path d="M7 4H2V6H2.5V4.5H6.5V6H7V4Z"/>
</mask>
<path d="M2 4V3.5H1.5V4H2ZM7 4H7.5V3.5H7V4ZM7 6V6.5H7.5V6H7ZM2 6H1.5V6.5H2V6ZM2.5 4.5V4H2V4.5H2.5ZM2.5 6V6.5H3V6H2.5ZM6.5 6H6V6.5H6.5V6ZM6.5 4.5H7V4H6.5V4.5ZM2 4.5H7V3.5H2V4.5ZM6.5 4V6H7.5V4H6.5ZM2.5 6V4H1.5V6H2.5ZM2 4.5V6H3V4.5H2ZM2.5 5.5H2V6.5H2.5V5.5ZM7 5.5H6.5V6.5H7V5.5ZM7 6V4.5H6V6H7ZM6.5 4H2.5V5H6.5V4Z" fill="white" mask="url(#path-5-inside-1)"/>
<mask id="path-7-inside-2" fill="white">
<path d="M14 4H9V6H9.5V4.5H13.5V6H14V4Z"/>
</mask>
<path d="M9 4V3.5H8.5V4H9ZM14 4H14.5V3.5H14V4ZM14 6V6.5H14.5V6H14ZM9 6H8.5V6.5H9V6ZM9.5 4.5V4H9V4.5H9.5ZM9.5 6V6.5H10V6H9.5ZM13.5 6H13V6.5H13.5V6ZM13.5 4.5H14V4H13.5V4.5ZM9 4.5H14V3.5H9V4.5ZM13.5 4V6H14.5V4H13.5ZM9.5 6V4H8.5V6H9.5ZM9 4.5V6H10V4.5H9ZM9.5 5.5H9V6.5H9.5V5.5ZM14 5.5H13.5V6.5H14V5.5ZM14 6V4.5H13V6H14ZM13.5 4H9.5V5H13.5V4Z" fill="white" mask="url(#path-7-inside-2)"/>
<path d="M15.194 12.1576C15.2811 12.0505 15.2648 11.893 15.1576 11.806L13.4114 10.3871C13.3042 10.3001 13.1468 10.3164 13.0597 10.4235C12.9726 10.5307 12.9889 10.6881 13.0961 10.7752L14.6483 12.0364L13.3871 13.5886C13.3001 13.6958 13.3164 13.8532 13.4235 13.9403C13.5307 14.0274 13.6881 14.0111 13.7752 13.9039L15.194 12.1576ZM0.25 9.5C0.25 10.0871 0.520122 10.5662 0.959812 10.9452C1.39308 11.3187 1.99611 11.6011 2.69153 11.8169C4.08349 12.2489 5.92295 12.4371 7.74138 12.4999C9.5643 12.5627 11.3851 12.4998 12.7487 12.4215C13.4309 12.3823 13.9995 12.3391 14.3978 12.3058C14.597 12.2891 14.7536 12.2749 14.8606 12.2648C14.9141 12.2597 14.9552 12.2557 14.983 12.253C14.9969 12.2516 15.0075 12.2505 15.0147 12.2498C15.0183 12.2494 15.021 12.2492 15.0228 12.249C15.0237 12.2489 15.0244 12.2488 15.0249 12.2488C15.0252 12.2487 15.0254 12.2487 15.0255 12.2487C15.0256 12.2487 15.0257 12.2487 15 12C14.9743 11.7513 14.9743 11.7513 14.9742 11.7513C14.9741 11.7513 14.9739 11.7514 14.9737 11.7514C14.9734 11.7514 14.9727 11.7515 14.9719 11.7516C14.9702 11.7517 14.9677 11.752 14.9643 11.7523C14.9575 11.753 14.9473 11.7541 14.9338 11.7554C14.9067 11.7581 14.8664 11.762 14.8137 11.767C14.7083 11.7769 14.5534 11.791 14.3561 11.8075C13.9614 11.8406 13.3972 11.8834 12.72 11.9223C11.3649 12.0002 9.5607 12.0623 7.75862 12.0001C5.95205 11.9379 4.16651 11.7511 2.83972 11.3394C2.17576 11.1333 1.64598 10.8766 1.28628 10.5665C0.933003 10.262 0.75 9.91292 0.75 9.5H0.25Z" fill="white"/>
</svg>
