<svg width="81" height="67" viewBox="0 0 81 67" fill="none" xmlns="http://www.w3.org/2000/svg">
<path d="M17.7936 29.2191L20.8163 4.5682L33.1463 4.56815L33.1463 30.1338C29.4984 33.0546 26.9182 34.3135 24.674 34.1608C22.4495 34.0094 20.3807 32.4551 17.7936 29.2191Z" stroke="white"/>
<path d="M2.51177 25.2342L9.36142 4.49971L21.4137 4.49994L17.5443 28.6832C13.4734 30.9717 10.7147 31.7798 8.5162 31.2505C6.33608 30.7256 4.53791 28.8413 2.51177 25.2342Z" stroke="white"/>
<path d="M62.4675 27.7088L59.5679 4.51203L71.7329 4.76667L78.8536 24.5665C76.3357 28.7393 74.0144 30.6057 71.5268 30.9481C69.0098 31.2945 66.1476 30.113 62.4675 27.7088Z" stroke="white"/>
<path d="M47.4747 28.7594L44.5636 4.50008L59.5562 4.5L62.3833 28.1725C59.1268 31.4003 56.8425 32.8 54.7194 32.8348C52.5937 32.8697 50.4559 31.5397 47.4747 28.7594Z" stroke="white"/>
<path d="M33.9303 29.519L33.3845 4.50706L44.5511 4.50706L47.2255 29.2757C45.7934 30.8375 44.5466 31.9891 43.4129 32.7571C42.2422 33.5502 41.2201 33.9155 40.2597 33.9255C38.3662 33.9453 36.4587 32.581 33.9303 29.519Z" stroke="white"/>
<rect x="8.5" y="0.5" width="64" height="4" rx="2" stroke="white"/>
<rect x="26.5" y="47.5" width="29" height="19" stroke="white"/>
<path d="M6.5 30L6.5 67" stroke="white"/>
<line x1="6" y1="66.5" x2="76" y2="66.5" stroke="white"/>
<path d="M75.5 67V29" stroke="white"/>
</svg>
