<svg width="78" height="72" viewBox="0 0 78 72" fill="none" xmlns="http://www.w3.org/2000/svg">
<path d="M43.7227 31.4141C39.9426 31.4141 36.8672 34.4106 36.8672 38.0938C36.8672 41.7769 39.9426 44.7734 43.7227 44.7734C47.5028 44.7734 50.5781 41.7769 50.5781 38.0938C50.5781 34.4106 47.5028 31.4141 43.7227 31.4141ZM43.7227 40.3203C42.4626 40.3203 41.4375 39.3215 41.4375 38.0938C41.4375 36.866 42.4626 35.8672 43.7227 35.8672C44.9827 35.8672 46.0078 36.866 46.0078 38.0938C46.0078 39.3215 44.9827 40.3203 43.7227 40.3203Z" fill="white"/>
<path d="M62.0039 49.2266C58.2238 49.2266 55.1484 52.2231 55.1484 55.9062C55.1484 59.5894 58.2238 62.5859 62.0039 62.5859C65.784 62.5859 68.8594 59.5894 68.8594 55.9062C68.8594 52.2231 65.784 49.2266 62.0039 49.2266ZM62.0039 58.1328C60.7439 58.1328 59.7188 57.134 59.7188 55.9062C59.7188 54.6785 60.7439 53.6797 62.0039 53.6797C63.2639 53.6797 64.2891 54.6785 64.2891 55.9062C64.2891 57.134 63.2639 58.1328 62.0039 58.1328Z" fill="white"/>
<path d="M63.2714 31.7879C62.2216 31.106 60.8025 31.3824 60.1025 32.4055L41.8212 59.1243C41.1212 60.1473 41.405 61.5297 42.4551 62.2119C43.5051 62.8939 44.9239 62.6176 45.624 61.5943L63.9053 34.8755C64.6053 33.8524 64.3215 32.47 63.2714 31.7879Z" fill="white"/>
<path d="M75.7148 22.5078H2.28516C1.02314 22.5078 0 23.5047 0 24.7344V38.0938C0 39.3234 1.02314 40.3203 2.28516 40.3203C6.06526 40.3203 9.14062 43.3168 9.14062 47C9.14062 50.6832 6.06526 53.6797 2.28516 53.6797C1.02314 53.6797 0 54.6766 0 55.9062V69.2656C0 70.4953 1.02314 71.4922 2.28516 71.4922H75.7148C76.9769 71.4922 78 70.4953 78 69.2656V24.7344C78 23.5047 76.9769 22.5078 75.7148 22.5078ZM73.4297 67.0391H22.8516C21 67.0391 22.262 67.0391 21 67.0391C19.738 67.0391 21 67.0391 18.2812 67.0391H4.57031V57.9093C9.7791 56.8748 13.7109 52.3763 13.7109 47C13.7109 41.6237 9.7791 37.1253 4.57031 36.0909V26.9609H18.4717C20 27 19.738 27 21 27C21 27 17.5 26.9609 24 27L73.4297 26.9609V67.0391Z" fill="#FBFBFB"/>
<path d="M12.0679 0L16.678 1.93569L8.61012 21.1504L4.00002 19.2147L12.0679 0Z" fill="white"/>
<path d="M15 6.49996L16.61 2.00464L59.7261 16.5177L58.131 21.2565L15 6.49996Z" fill="white"/>
</svg>
