<svg width="18" height="18" viewBox="0 0 25 25" fill="none" xmlns="http://www.w3.org/2000/svg">
<path d="M15.6248 13.5425C15.0488 13.5425 14.5832 14.0092 14.5832 14.584V18.7508C14.5832 19.3247 14.1165 19.7924 13.5415 19.7924H10.4165V4.16754C10.4165 3.27796 9.84983 2.48318 8.99782 2.18735L8.68941 2.08416H13.5415C14.1165 2.08416 14.5832 2.55184 14.5832 3.12595V6.25092C14.5832 6.82579 15.0488 7.29251 15.6248 7.29251C16.2008 7.29251 16.6664 6.82579 16.6664 6.25092V3.12595C16.6664 1.40306 15.2644 0.000976562 13.5415 0.000976562H2.34373C2.30405 0.000976562 2.27087 0.0187148 2.23234 0.0238645C2.18217 0.0196684 2.1343 0.000976562 2.08338 0.000976562C0.9344 0.000976562 0 0.935187 0 2.08416V20.834C0 21.7236 0.566667 22.5184 1.41867 22.8142L7.68749 24.9039C7.89996 24.9695 8.1113 25.0007 8.33331 25.0007C9.48228 25.0007 10.4165 24.0663 10.4165 22.9174V21.8758H13.5415C15.2644 21.8758 16.6664 20.4737 16.6664 18.7508V14.584C16.6664 14.0092 16.2008 13.5425 15.6248 13.5425V13.5425Z" fill="#ec9900"/>
<path d="M24.6946 9.68103L20.5279 5.51447C20.2301 5.21655 19.7821 5.1269 19.3926 5.28826C19.0041 5.44981 18.7498 5.82994 18.7498 6.25089V9.37586H14.5833C14.0082 9.37586 13.5415 9.84239 13.5415 10.4175C13.5415 10.9925 14.0082 11.459 14.5833 11.459H18.7498V14.584C18.7498 15.005 19.0041 15.3851 19.3926 15.5466C19.7821 15.708 20.2301 15.6184 20.5279 15.3206L24.6946 11.1539C25.1018 10.7467 25.1018 10.0882 24.6946 9.68103V9.68103Z" fill="#ec9900"/>
</svg>
