<svg width="29" height="20" viewBox="0 0 29 20" fill="none" xmlns="http://www.w3.org/2000/svg">
<path d="M0 0H28.6904V19.9997H0V0Z" fill="#F0F0F0"/>
<path d="M0 0H28.6904V2.85718H0V0Z" fill="#D60A2E"/>
<path d="M0 5.71436H28.6904V8.57154H0V5.71436Z" fill="#D60A2E"/>
<path d="M0 11.4284H28.6904V14.2856H0V11.4284Z" fill="#D60A2E"/>
<path d="M0 17.1428H28.6904V20H0V17.1428Z" fill="#D60A2E"/>
<path d="M0 0H13.3336V8.57127H0V0Z" fill="#0B55B1"/>
<path d="M10.2078 4.65146L9.24421 4.07324L9.89334 3.12977L8.83841 3.51543L8.51895 2.49609L8.1995 3.51543L7.14457 3.12977L7.79369 4.07324L6.83008 4.65146L7.91563 4.70195L7.76335 5.83798L8.51895 5.00623L9.27456 5.83798L9.12256 4.70195L10.2078 4.65146Z" fill="#FED953"/>
<path d="M7.10564 6.48929C6.78037 6.48946 6.4591 6.41762 6.16489 6.27892C5.87067 6.14022 5.61082 5.93809 5.40398 5.68707C5.19714 5.43604 5.04844 5.14233 4.96856 4.82702C4.88868 4.51171 4.8796 4.18263 4.94197 3.8634C5.00435 3.54417 5.13663 3.24271 5.32931 2.98066C5.522 2.71861 5.77031 2.50246 6.05643 2.34775C6.34255 2.19304 6.65937 2.10359 6.98415 2.08583C7.30894 2.06807 7.63362 2.12244 7.93491 2.24503C7.53426 1.85788 7.02852 1.59722 6.48073 1.49556C5.93294 1.39389 5.36735 1.45572 4.85446 1.67332C4.34157 1.89093 3.90409 2.25469 3.59654 2.71926C3.289 3.18382 3.125 3.72864 3.125 4.28578C3.125 4.84292 3.289 5.38773 3.59654 5.8523C3.90409 6.31687 4.34157 6.68063 4.85446 6.89823C5.36735 7.11584 5.93294 7.17767 6.48073 7.076C7.02852 6.97434 7.53426 6.71368 7.93491 6.32652C7.67164 6.43398 7.39 6.48926 7.10564 6.48929Z" fill="#FED953"/>
</svg>
