<svg width="15" height="15" viewBox="0 0 15 15" fill="none" xmlns="http://www.w3.org/2000/svg">
<g clip-path="url(#clip0)">
<path d="M15 7.50018C15 11.6426 11.6424 15.0001 7.50012 15C3.3576 15.0001 9.39337e-09 11.6426 9.39337e-09 7.50018C-0.000205069 3.35772 3.3576 0 7.50012 0C11.6424 0 15 3.35783 15 7.50018Z" fill="#4F4F4F"/>
<path d="M0.5 7.50018V7.50015C0.499809 3.63387 3.63373 0.5 7.50012 0.5C11.3662 0.5 14.5 3.63395 14.5 7.50018C14.5 11.3665 11.3663 14.5001 7.50013 14.5H7.5001C3.63373 14.5001 0.5 11.3665 0.5 7.50018Z" stroke="white" stroke-opacity="0.3"/>
<path d="M10.1262 7.28115H7.93479L9.12989 5.3414C9.19314 5.23848 9.1613 5.10375 9.05829 5.04029C8.95549 4.97668 8.82063 5.00897 8.75718 5.11189L7.54285 7.08284L6.32694 5.11075C6.26349 5.00794 6.1286 4.97557 6.02583 5.03938C5.92282 5.10275 5.89098 5.2376 5.95423 5.34049L7.1508 7.28118H4.87388C4.75291 7.28118 4.65503 7.37917 4.65503 7.50002C4.65503 7.6209 4.75291 7.71887 4.87388 7.71887H7.15104L5.95593 9.65862C5.89268 9.76154 5.92452 9.89627 6.02753 9.95973C6.06321 9.98173 6.10297 9.99222 6.14208 9.99222C6.21562 9.99222 6.28722 9.95525 6.32867 9.88813L7.543 7.91718L8.75891 9.88927C8.80036 9.95636 8.87196 9.99325 8.9455 9.99325C8.98461 9.99325 9.02436 9.98279 9.06005 9.96064C9.16306 9.89727 9.1949 9.76242 9.13165 9.65953L7.93505 7.71884H10.1263C10.2473 7.71884 10.3452 7.62084 10.3452 7.49999C10.345 7.37912 10.2472 7.28115 10.1262 7.28115Z" fill="white" fill-opacity="0.7"/>
</g>
<defs>
<clipPath id="clip0">
<rect width="15" height="15" fill="white"/>
</clipPath>
</defs>
</svg>
