<svg width="28" height="26" viewBox="0 0 28 26" fill="none" xmlns="http://www.w3.org/2000/svg">
<path fill-rule="evenodd" clip-rule="evenodd" d="M20.9729 18.3309C19.6002 19.1129 18.2221 19.8895 16.8385 20.6606C16.1385 21.0489 15.4385 21.4317 14.7385 21.8254C14.4486 21.9895 14.1424 22.252 13.8033 22.3122C13.4533 22.3723 13.1307 22.1973 12.8135 22.077C11.9877 21.7543 11.1455 21.4426 10.3197 21.1254C9.82207 20.934 10.0189 20.3434 10.276 20.059C10.6369 19.6598 11.2768 20.0153 11.6541 20.1903C12.2283 20.4583 12.8354 20.6168 13.4369 20.8083C14.7768 21.2403 16.1768 19.0637 14.9189 18.2051C14.4541 17.8934 13.7869 17.7348 13.2619 17.527C12.1135 17.0731 10.9596 16.6247 9.82207 16.1434C9.06738 15.8262 8.30723 15.4106 7.48691 15.3067C6.72676 15.2137 5.84629 15.345 5.11348 15.5583C4.70879 15.6731 4.24941 15.8754 3.92676 16.1489C3.70801 16.3348 3.52207 16.6192 3.43457 16.8926V23.0176C3.43457 23.0176 3.47285 23.3676 3.82285 23.2856C4.85645 23.045 6.08691 23.1161 7.11504 23.3403C8.08301 23.5536 8.96348 24.0786 9.87676 24.445C10.8885 24.8497 11.9275 25.1723 12.9502 25.5333C14.64 26.1293 15.8432 24.6911 17.183 23.9364C18.8182 23.0176 20.4479 22.0879 22.0775 21.1692C22.351 21.0161 22.6189 20.8629 22.8924 20.7098C23.3135 20.4692 23.7182 19.5887 23.6744 19.1348C23.5486 17.7239 21.8916 17.8059 20.9729 18.3309Z" fill="#D24649"/>
<path fill-rule="evenodd" clip-rule="evenodd" d="M2.35703 16.877H0.984375C0.623438 16.877 0.328125 17.1723 0.328125 17.5332V22.6355C0.328125 22.9965 0.623438 23.2918 0.984375 23.2918H2.35703C2.71797 23.2918 3.01328 22.9965 3.01328 22.6355V17.5332C3.01328 17.1723 2.71797 16.877 2.35703 16.877ZM2.02344 18.3809C1.75 18.3809 1.53125 18.1621 1.53125 17.8887C1.53125 17.6152 1.75 17.3965 2.02344 17.3965C2.29688 17.3965 2.51562 17.6152 2.51562 17.8887C2.51562 18.1566 2.29141 18.3809 2.02344 18.3809Z" fill="#D24649"/>
<path d="M27.6719 13.3379H4.73047V14.273H27.6719V13.3379Z" fill="#D24649"/>
<path fill-rule="evenodd" clip-rule="evenodd" d="M6.71025 12.8352C6.72666 12.6875 6.754 12.4578 6.79775 12.2172C6.80869 12.168 6.81416 12.1187 6.8251 12.0641C6.83604 12.0094 6.84697 11.9547 6.86338 11.9C6.89072 11.7852 6.91807 11.6594 6.94541 11.5281C6.96182 11.4625 6.97822 11.3914 6.99463 11.3258C7.0165 11.2547 7.03291 11.1836 7.05479 11.1125C7.09854 10.9648 7.14228 10.8117 7.18603 10.6531C7.29541 10.3359 7.40479 9.99141 7.55244 9.64141C7.59072 9.55391 7.62354 9.46094 7.66182 9.37344C7.70557 9.28594 7.74385 9.19297 7.7876 9.10547C7.83135 9.0125 7.8751 8.925 7.91338 8.83203C7.95713 8.73906 8.00635 8.65156 8.05557 8.55859C8.10479 8.46562 8.154 8.37266 8.20322 8.27969C8.25244 8.18672 8.3126 8.09922 8.36182 8.00625C8.4165 7.91328 8.47119 7.82578 8.52588 7.73281C8.58603 7.63984 8.64619 7.55234 8.70635 7.46484C8.7665 7.37734 8.82666 7.28437 8.88682 7.19687C8.95244 7.10937 9.01807 7.02188 9.08369 6.93438C9.20947 6.75938 9.35166 6.58984 9.48838 6.42578C9.554 6.33828 9.63057 6.26172 9.70166 6.17969C9.77275 6.09766 9.84932 6.02109 9.92041 5.93906C9.99697 5.8625 10.0735 5.78594 10.1446 5.70937C10.2212 5.63281 10.2923 5.55625 10.3743 5.48516C10.4509 5.41406 10.5274 5.34297 10.604 5.26641C10.6806 5.19531 10.7626 5.12969 10.8392 5.05859C10.9923 4.92188 11.1563 4.79609 11.3095 4.67031C11.386 4.60469 11.4681 4.55 11.5446 4.48984C11.6267 4.42969 11.7032 4.36953 11.7798 4.32031C11.9384 4.21094 12.0915 4.10156 12.2446 4.00859C12.5509 3.81172 12.8517 3.64219 13.1306 3.48906C13.4095 3.34141 13.672 3.21562 13.9071 3.11172C14.1423 3.00781 14.3501 2.92578 14.5196 2.86016C14.8642 2.72891 15.0665 2.67969 15.0665 2.67969C15.0665 2.67969 14.8696 2.75078 14.5415 2.91484C14.2134 3.07344 13.754 3.325 13.2345 3.675C12.9774 3.85 12.6985 4.04688 12.4196 4.26562C12.2774 4.375 12.1407 4.49531 11.9931 4.61562C11.922 4.67578 11.8509 4.74141 11.7798 4.80703C11.7087 4.87266 11.6376 4.93281 11.5665 5.00391C11.4298 5.14062 11.2821 5.27734 11.1454 5.425C11.0798 5.49609 11.0032 5.56719 10.9376 5.64375C10.872 5.72031 10.8063 5.79687 10.7353 5.87344C10.6642 5.95 10.604 6.02656 10.5384 6.10859C10.4728 6.19062 10.4071 6.26719 10.347 6.34922C10.2868 6.43125 10.2267 6.51328 10.161 6.59531C10.1009 6.67734 10.0353 6.75937 9.98057 6.84687C9.86572 7.02187 9.74541 7.18594 9.64697 7.36641C9.59228 7.45391 9.54307 7.54141 9.48838 7.62891C9.43916 7.71641 9.38994 7.80937 9.34072 7.89687C9.2915 7.98437 9.24228 8.07188 9.19853 8.16484C9.15478 8.25781 9.11103 8.34531 9.07275 8.43281C9.029 8.52031 8.98525 8.60781 8.94697 8.70078C8.90869 8.78828 8.87041 8.88125 8.8376 8.96875C8.79932 9.05625 8.76104 9.14375 8.72822 9.23125C8.69541 9.31875 8.66807 9.40625 8.63525 9.49375C8.60244 9.58125 8.5751 9.66875 8.54228 9.75078C8.51494 9.83828 8.49307 9.92031 8.46572 10.0078C8.35635 10.3414 8.29072 10.6695 8.21963 10.9648C8.19229 11.118 8.16494 11.2602 8.14307 11.3969C8.13213 11.468 8.11572 11.5336 8.10478 11.5992C8.09385 11.6648 8.08838 11.7305 8.07744 11.7906C8.06103 11.9164 8.04463 12.0312 8.03369 12.1352C8.02822 12.1898 8.02275 12.2391 8.01182 12.2883C8.00635 12.3375 8.00635 12.3867 8.00088 12.4305C7.98447 12.6219 7.97353 12.7641 7.96807 12.8625H26.7806C26.7806 12.8187 26.7806 12.775 26.7806 12.7313C26.7806 6.84688 22.236 2.05078 16.554 1.84844V1.20859C17.1118 1.15391 17.5165 0.978906 17.5165 0.776563C17.5165 0.530469 16.9149 0.328125 16.1767 0.328125C15.4384 0.328125 14.8368 0.530469 14.8368 0.776563C14.8368 0.978906 15.2415 1.15391 15.7993 1.20859V1.82109C10.1173 2.02344 5.57275 6.81953 5.57275 12.7039C5.57275 12.7477 5.57275 12.7914 5.57275 12.8352H6.71025ZM20.4751 3.90469C20.5571 3.93203 20.6556 3.97578 20.7649 4.025C20.8743 4.07422 21.0001 4.13437 21.1313 4.20547C21.2626 4.27656 21.4048 4.35859 21.547 4.45156C21.6181 4.49531 21.6946 4.55 21.7657 4.59922C21.804 4.62656 21.8368 4.65391 21.8751 4.68125C21.9134 4.70859 21.9517 4.73594 21.9845 4.76328C22.0556 4.82344 22.1321 4.88359 22.2087 4.94375C22.247 4.97656 22.2853 5.00937 22.3181 5.04219C22.3563 5.075 22.3892 5.10781 22.4274 5.14609C22.4657 5.17891 22.4985 5.21719 22.5368 5.25C22.5696 5.28828 22.6079 5.32109 22.6407 5.35938C22.6735 5.39766 22.7063 5.43594 22.7446 5.47422C22.7774 5.5125 22.8157 5.55078 22.8431 5.58906C22.9087 5.67109 22.9743 5.74766 23.0345 5.82969C23.0673 5.87344 23.0946 5.91172 23.1274 5.95547C23.1548 5.99922 23.1821 6.0375 23.2149 6.08125C23.2423 6.125 23.2696 6.16328 23.297 6.20703C23.3243 6.25078 23.3462 6.29453 23.3735 6.33828C23.4009 6.38203 23.4282 6.42578 23.4501 6.46953C23.472 6.51328 23.4938 6.55703 23.5212 6.60078C23.5431 6.64453 23.5704 6.68828 23.5868 6.73203C23.6087 6.77578 23.6251 6.81953 23.647 6.86328C23.6688 6.90703 23.6853 6.95078 23.7071 6.98906C23.7235 7.03281 23.7399 7.07656 23.7563 7.11484C23.8274 7.27891 23.8767 7.44297 23.9313 7.59063C23.9532 7.66719 23.9751 7.73828 23.9915 7.80938C24.0024 7.84219 24.0134 7.875 24.0188 7.90781C24.0243 7.94062 24.0353 7.97344 24.0407 8.00625C24.0571 8.06641 24.0681 8.12656 24.079 8.18125C24.0845 8.20859 24.0899 8.23594 24.0954 8.25781C24.1009 8.28516 24.1063 8.30703 24.1063 8.32891C24.1392 8.50938 24.1556 8.68984 24.1556 8.68984L23.5485 8.67891C23.5485 8.67891 23.5431 8.58594 23.5267 8.41641C23.5267 8.39453 23.5212 8.37266 23.5212 8.35078C23.5157 8.32891 23.5157 8.30156 23.5103 8.27969C23.5048 8.23047 23.4993 8.17578 23.4884 8.11562C23.4829 8.08828 23.4829 8.05547 23.4774 8.02813C23.472 7.99531 23.4665 7.96797 23.461 7.93516C23.4501 7.86953 23.4392 7.80391 23.4228 7.73281C23.3899 7.59609 23.3571 7.4375 23.3079 7.28437C23.297 7.24609 23.286 7.20234 23.2696 7.16406C23.2532 7.12578 23.2423 7.08203 23.2259 7.04375C23.2095 7.00547 23.1985 6.96172 23.1821 6.91797C23.1657 6.87422 23.1493 6.83594 23.1329 6.79219C23.1165 6.74844 23.1001 6.71016 23.0782 6.66641C23.0618 6.62266 23.0399 6.58437 23.0181 6.54062C22.9962 6.49687 22.9798 6.45859 22.9579 6.41484C22.936 6.37109 22.9142 6.33281 22.8923 6.28906C22.8704 6.24531 22.8485 6.20703 22.8212 6.16328C22.7938 6.125 22.772 6.08125 22.7446 6.0375C22.6954 5.95547 22.6407 5.87344 22.586 5.79141C22.5587 5.75312 22.5313 5.71484 22.504 5.67109C22.4767 5.63281 22.4438 5.59453 22.4165 5.55625C22.3837 5.51797 22.3563 5.47969 22.3235 5.44141C22.2907 5.40313 22.2634 5.36484 22.2306 5.33203C22.1978 5.29375 22.1649 5.26094 22.1376 5.22266C22.1048 5.18438 22.072 5.15156 22.0392 5.11875C21.9735 5.04766 21.9079 4.9875 21.8423 4.92188C21.8095 4.88906 21.7767 4.86172 21.7438 4.82891C21.711 4.80156 21.6782 4.76875 21.6454 4.74141C21.5798 4.68672 21.5142 4.62656 21.4485 4.57734C21.3173 4.47344 21.186 4.38047 21.0657 4.29844C20.8196 4.13438 20.6063 4.01953 20.4532 3.94297C20.3001 3.86641 20.2071 3.83359 20.2071 3.83359C20.2071 3.83359 20.3165 3.84453 20.4751 3.90469Z" fill="#D24649"/>
</svg>
