<svg width="22" height="22" viewBox="0 0 27 21" fill="#ec9900" xmlns="http://www.w3.org/2000/svg">
<path d="M22.875 13.1719C22.875 12.9844 22.7812 12.8438 22.6875 12.7031L13.875 5.48438C13.7344 5.39062 13.5938 5.34375 13.5 5.34375C13.3594 5.34375 13.2188 5.39062 13.125 5.48438L4.3125 12.7031C4.17188 12.8438 4.125 12.9844 4.125 13.1719V19.875C4.125 20.2031 4.21875 20.4844 4.45312 20.6719C4.64062 20.9062 4.92188 21 5.25 21H10.6875C10.8281 21 10.9688 20.9531 11.0625 20.8594C11.1562 20.7656 11.25 20.625 11.25 20.4375V15.1875C11.25 15.0469 11.2969 14.9062 11.3906 14.8125C11.4844 14.7188 11.625 14.625 11.8125 14.625H15.1875C15.3281 14.625 15.4688 14.7188 15.5625 14.8125C15.6562 14.9062 15.75 15.0469 15.75 15.1875V20.4375C15.75 20.625 15.7969 20.7656 15.8906 20.8594C15.9844 20.9531 16.125 21 16.3125 21H21.75C22.0312 21 22.3125 20.9062 22.5469 20.6719C22.7344 20.4844 22.875 20.2031 22.875 19.875V13.1719ZM26.8125 10.3125C26.9062 10.4062 26.9531 10.5469 26.9531 10.6875C26.9531 10.875 26.9531 11.0156 26.8594 11.1094L25.6875 12.5625C25.5938 12.7031 25.4531 12.75 25.3125 12.75C25.125 12.75 24.9844 12.7031 24.8906 12.6094L13.875 3.5625C13.7344 3.46875 13.5938 3.42188 13.5 3.42188C13.3594 3.42188 13.2188 3.46875 13.125 3.5625L2.10938 12.6094C1.96875 12.7031 1.82812 12.75 1.6875 12.75C1.5 12.75 1.40625 12.7031 1.3125 12.5625L0.140625 11.1094C0.046875 11.0156 0 10.875 0 10.6875C0 10.5469 0.09375 10.4062 0.1875 10.3125L12.0938 0.515625C12.4688 0.1875 12.9375 0 13.5 0C14.0156 0 14.4844 0.1875 14.9531 0.515625L19.125 3.98438V0.5625C19.125 0.421875 19.1719 0.28125 19.2656 0.1875C19.3594 0.09375 19.5 0 19.6875 0H22.3125C22.4531 0 22.5938 0.09375 22.6875 0.1875C22.7812 0.28125 22.875 0.421875 22.875 0.5625V7.07812L26.8125 10.3125Z" fill="#ec9900"/>
</svg>
