<svg width="18" height="21" viewBox="0 0 25 24" fill="none" xmlns="http://www.w3.org/2000/svg">
<path d="M6.5918 0C6.18696 0 5.85938 0.314484 5.85938 0.703125V5.625H4.39453V0.703125C4.39453 0.314484 4.06694 0 3.66211 0C3.25728 0 2.92969 0.314484 2.92969 0.703125V5.625H1.46484V0.703125C1.46484 0.314484 1.13726 0 0.732422 0C0.327588 0 0 0.314484 0 0.703125C0 3.82889 0 4.60669 0 7.73438C0 8.89753 0.985645 9.89062 2.19727 9.89062H5.12695C6.33857 9.89062 7.32422 8.89753 7.32422 7.73438C7.32422 4.60561 7.32422 3.83063 7.32422 0.703125C7.32422 0.314484 6.99663 0 6.5918 0Z" fill="#ec9900"/>
<path d="M17.6758 14.8125V8.031C17.6758 8.02903 17.6761 8.02716 17.6761 8.02519C16.4672 6.57422 14.5816 5.625 12.5 5.625C11.1676 5.625 9.85703 6.00361 8.78906 6.69314V7.73438C8.78906 9.17231 7.88281 10.4548 6.5918 10.9989V14.8383C7.67998 16.8987 9.9333 18.3281 12.5 18.3281C14.6972 18.3281 16.6826 17.2809 17.881 15.6898C17.7523 15.4218 17.6758 15.1264 17.6758 14.8125Z" fill="#ec9900"/>
<path d="M19.873 16.9221C19.5328 16.9221 19.2143 16.8411 18.9265 16.708C17.4521 18.5445 15.0964 19.7346 12.5 19.7346C10.1906 19.7346 8.06211 18.7917 6.5918 17.2923V20.9578C8.28892 21.9886 10.3432 22.594 12.5 22.594C15.6879 22.594 18.5985 21.2357 20.6055 19.1536V16.9221H19.873Z" fill="#ec9900"/>
<path d="M12.5 1.40625C11.2139 1.40625 9.93608 1.62933 8.78906 2.01919V5.06212C9.90381 4.51467 11.1987 4.21875 12.5 4.21875C14.5412 4.21875 16.4506 4.95717 17.8719 6.16266C18.0619 5.16975 18.3815 4.21078 18.846 3.31856C17.062 2.1172 14.8447 1.40625 12.5 1.40625Z" fill="#ec9900"/>
<path d="M24.613 0.082963C24.3763 -0.0392401 24.0866 -0.0255058 23.8613 0.117979C20.5209 2.25585 19.1406 5.01904 19.1406 8.0309V14.8124C19.1406 15.201 19.4682 15.5155 19.873 15.5155H22.0703V22.5937C22.0703 23.3702 22.7261 23.9999 23.5352 23.9999C24.3442 23.9999 25 23.3702 25 22.5937C25 11.3497 25 11.7356 25 0.703026C25 0.443479 24.8512 0.205213 24.613 0.082963Z" fill="#ec9900"/>
<path d="M2.19727 11.2969V22.5938C2.19727 23.3703 2.85308 24 3.66211 24C4.47114 24 5.12695 23.3703 5.12695 22.5938V11.2969H2.19727Z" fill="#ec9900"/>
</svg>
