<svg width="12" height="12" viewBox="0 0 20 16" fill="none" xmlns="http://www.w3.org/2000/svg">
<path d="M19.1667 8.81608H0.833333C0.373332 8.81608 0 8.44275 0 7.98275C0 7.52275 0.373332 7.14941 0.833333 7.14941H19.1667C19.6267 7.14941 20 7.52275 20 7.98275C20 8.44275 19.6267 8.81608 19.1667 8.81608Z" fill="#fff"/>
<path d="M19.1667 2.42704H0.833333C0.373332 2.42704 0 2.05371 0 1.59371C0 1.13371 0.373332 0.760376 0.833333 0.760376H19.1667C19.6267 0.760376 20 1.13371 20 1.59371C20 2.05371 19.6267 2.42704 19.1667 2.42704Z" fill="#fff"/>
<path d="M19.1667 15.2048H0.833333C0.373332 15.2048 0 14.8314 0 14.3714C0 13.9114 0.373332 13.5381 0.833333 13.5381H19.1667C19.6267 13.5381 20 13.9114 20 14.3714C20 14.8314 19.6267 15.2048 19.1667 15.2048Z" fill="#fff"/>
</svg>
