<svg width="20" height="27" viewBox="0 0 20 27" fill="none" xmlns="http://www.w3.org/2000/svg">
<path d="M0.000552197 26.1772C-0.00747282 26.3922 0.0722492 26.6013 0.221609 26.7562C0.370864 26.9113 0.576822 26.9988 0.791966 26.9988H18.7759C18.991 26.9988 19.197 26.9113 19.3462 26.7562C19.4955 26.6013 19.5753 26.3922 19.5673 26.1772L19.4795 23.8311H0.0883519L0.000552197 26.1772Z" fill="#D24649"/>
<path d="M0.147461 22.2476H19.42L19.0988 13.662C19.0826 13.2298 18.7275 12.8877 18.295 12.8877H1.27244C0.839935 12.8877 0.484881 13.2297 0.468673 13.662L0.147461 22.2476Z" fill="#D24649"/>
<path d="M17.8782 8.96336L15.7772 9.59702C15.701 9.62004 15.624 9.63097 15.5482 9.63097C15.2081 9.63097 14.8937 9.41002 14.7903 9.06753C14.664 8.64875 14.9012 8.20695 15.3199 8.08066L17.8782 7.30905V6.32355L15.7772 6.95721C15.701 6.98023 15.624 6.99116 15.5482 6.99116C15.2081 6.99116 14.8937 6.77021 14.7903 6.42772C14.664 6.00894 14.9012 5.56714 15.3199 5.44085L17.8782 4.66924V3.681L15.7773 4.31466C15.701 4.33768 15.624 4.34861 15.5482 4.34861C15.2081 4.34861 14.8937 4.12766 14.7903 3.78517C14.664 3.36644 14.9012 2.92459 15.3198 2.7983L17.6251 2.10298C17.1186 0.870397 15.9056 0 14.4926 0C12.6258 0 11.1071 1.51873 11.1071 3.38555V11.3047H17.8782V8.96336Z" fill="#D24649"/>
<path d="M9.20627 11.1716C9.20627 10.1395 8.72757 9.16245 7.93204 8.52441V7.79883H2.96344V8.52441C2.16796 9.16245 1.68921 10.1395 1.68921 11.1716V11.3048H9.20627V11.1716Z" fill="#D24649"/>
<path d="M8.39012 6.21694V4.78901C8.39012 4.35165 8.03554 3.99707 7.59817 3.99707H3.29756C2.86019 3.99707 2.50562 4.35165 2.50562 4.78901V6.21451H8.34233C8.35849 6.21451 8.37422 6.21599 8.39012 6.21694Z" fill="#D24649"/>
</svg>
