<svg width="34" height="34" viewBox="0 0 34 34" fill="none" xmlns="http://www.w3.org/2000/svg">
<path d="M17 34C26.3888 34 34 26.3888 34 17C34 7.61116 26.3888 0 17 0C7.61116 0 0 7.61116 0 17C0 26.3888 7.61116 34 17 34Z" fill="#FFD93B"/>
<path d="M33.9998 17C33.9998 26.3925 26.387 34 16.9998 34C11.6554 34 6.88479 31.535 3.76636 27.6729C6.68292 30.0316 10.3964 31.4394 14.4392 31.4394C23.8263 31.4394 31.4391 23.8319 31.4391 14.4394C31.4391 10.3966 30.0313 6.68316 27.6726 3.7666C31.5295 6.88504 33.9998 11.6557 33.9998 17Z" fill="#F4C534"/>
<path d="M23.5469 27.0399C22.7012 27.5499 20.4253 25.2804 17.2888 25.2527C14.198 25.2251 11.8764 27.5509 11.0307 27.0399C10.0181 26.6276 11.75 21.687 17.2888 21.6572C22.8276 21.687 24.5595 26.6287 23.5469 27.0399Z" fill="#3E4347"/>
<path d="M25.9206 14.7104C25.9206 16.2075 24.6956 17.4326 23.1921 17.4326C21.6876 17.4326 20.4636 16.2075 20.4636 14.7104C20.4636 13.1996 21.6887 11.9819 23.1921 11.9819C24.6966 11.9819 25.9206 13.1996 25.9206 14.7104Z" fill="#3E4347"/>
<path d="M24.4412 13.171C24.1058 12.8797 23.6836 12.8168 23.4981 13.0304C23.3127 13.2439 23.4343 13.6531 23.7697 13.9444C24.1052 14.2356 24.5274 14.2985 24.7128 14.085C24.8983 13.8714 24.7767 13.4622 24.4412 13.171Z" fill="#5A5F63"/>
<path d="M13.5362 14.7104C13.5362 16.2075 12.3112 17.4326 10.8077 17.4326C9.30429 17.4326 8.07922 16.2075 8.07922 14.7104C8.07922 13.1996 9.30429 11.9819 10.8077 11.9819C12.3112 11.9819 13.5362 13.1996 13.5362 14.7104Z" fill="#3E4347"/>
<path d="M12.0559 13.1719C11.7204 12.8807 11.2982 12.8178 11.1128 13.0313C10.9273 13.2449 11.0489 13.6541 11.3844 13.9453C11.7198 14.2366 12.142 14.2995 12.3274 14.0859C12.5129 13.8724 12.3913 13.4632 12.0559 13.1719Z" fill="#5A5F63"/>
</svg>
