<svg width="25" height="21" viewBox="0 0 21 25" fill="none" xmlns="http://www.w3.org/2000/svg">
<path d="M7.0437 22.7441C7.63056 24.0709 8.95867 24.9995 10.5003 24.9995C12.0419 24.9995 13.3699 24.0709 13.9569 22.7441H7.0437Z" fill="#D24649"/>
<path d="M10.4993 2.38851C11.5166 2.38851 12.4934 2.568 13.3999 2.89662V2.78496C13.3999 1.24933 12.1506 0 10.615 0H10.3842C8.84857 0 7.59924 1.24933 7.59924 2.78496V2.8952C8.50523 2.56756 9.48174 2.38851 10.4993 2.38851V2.38851Z" fill="#D24649"/>
<path d="M19.6546 21.2772H1.34624C0.999865 21.2772 0.682594 21.0436 0.610551 20.7047C0.539242 20.3693 0.692131 20.0381 1.00231 19.8948C1.07592 19.8471 1.62996 19.4597 2.18463 18.2876C3.20335 16.1351 3.41718 13.103 3.41718 10.9384C3.41718 7.03283 6.59464 3.85547 10.5002 3.85547C14.3965 3.85547 17.5681 7.01752 17.5832 10.9103C17.5835 10.9197 17.5837 10.929 17.5837 10.9384C17.5837 13.103 17.7975 16.1351 18.8162 18.2876C19.3709 19.4597 19.9249 19.8472 19.9986 19.8948C20.3087 20.0381 20.4617 20.3692 20.3903 20.7047C20.3183 21.0435 20.0011 21.2772 19.6546 21.2772ZM20.0068 19.9H20.0073H20.0068Z" fill="#D24649"/>
</svg>
