<svg width="105" height="130" viewBox="0 0 105 130" fill="none" xmlns="http://www.w3.org/2000/svg">
<path d="M6.85543 123.842L0.25 128.524V10C0.25 4.61523 4.61522 0.25 10 0.25H95C100.385 0.25 104.75 4.61522 104.75 10V128.463L97.663 122.368L97.4673 122.199L97.3054 122.4L91.4688 129.64L83.1647 122.369L83.0066 122.231L82.8431 122.363L74.9953 128.69L66.6511 122.358L66.5 122.243L66.3489 122.358L58.0219 128.677L51.6761 122.38L51.4928 122.198L51.3169 122.387L45.473 128.67L38.6537 123.352L38.4724 123.211L38.3164 123.38L32.9922 129.144L27.6761 123.868L27.5082 123.702L27.3325 123.86L22.0082 128.664L17.1761 123.868L17 123.694L16.8239 123.868L12 128.655L7.1761 123.868L7.02691 123.72L6.85543 123.842Z" stroke="black" stroke-opacity="0.6" stroke-width="0.5"/>
<path d="M13.0849 17.9817C13.3617 17.0799 14.6383 17.0799 14.9151 17.9817C15.0384 18.3836 15.4097 18.658 15.8301 18.658L15.9417 18.658C16.8556 18.6581 17.2496 19.8165 16.5253 20.3738L16.3426 20.5143C16.0262 20.7577 15.8941 21.172 16.0112 21.5537L16.0655 21.7307C16.3369 22.6151 15.3122 23.3258 14.5789 22.7618C14.2376 22.4992 13.7624 22.4992 13.4211 22.7618C12.6878 23.3258 11.6631 22.6151 11.9345 21.7307L11.9888 21.5537C12.1059 21.172 11.9738 20.7577 11.6574 20.5143L11.4747 20.3738C10.7504 19.8165 11.1444 18.6581 12.0583 18.658L12.1699 18.658C12.5903 18.658 12.9616 18.3836 13.0849 17.9817Z" fill="#CBFFB9"/>
<path d="M88.0849 47.9817C88.3617 47.0799 89.6383 47.0799 89.9151 47.9817C90.0384 48.3836 90.4097 48.658 90.8301 48.658L90.9417 48.658C91.8556 48.6581 92.2496 49.8165 91.5253 50.3738L91.3426 50.5143C91.0262 50.7577 90.8941 51.172 91.0112 51.5537L91.0655 51.7307C91.3369 52.6151 90.3122 53.3258 89.5789 52.7618C89.2376 52.4992 88.7624 52.4992 88.4211 52.7618C87.6878 53.3258 86.6631 52.6151 86.9345 51.7307L86.9888 51.5537C87.1059 51.172 86.9738 50.7577 86.6574 50.5143L86.4747 50.3738C85.7504 49.8165 86.1444 48.6581 87.0583 48.658L87.1699 48.658C87.5903 48.658 87.9616 48.3836 88.0849 47.9817Z" fill="#CBFFB9"/>
<path d="M39.0849 6.98166C39.3617 6.07991 40.6383 6.07991 40.9151 6.98166C41.0384 7.38358 41.4097 7.65801 41.8301 7.65803L41.9417 7.65803C42.8556 7.65807 43.2496 8.81653 42.5253 9.37378L42.3426 9.5143C42.0262 9.75773 41.8941 10.172 42.0112 10.5537L42.0655 10.7307C42.3369 11.6151 41.3122 12.3258 40.5789 11.7618C40.2376 11.4992 39.7624 11.4992 39.4211 11.7618C38.6878 12.3258 37.6631 11.6151 37.9345 10.7307L37.9888 10.5537C38.1059 10.172 37.9738 9.75773 37.6574 9.51429L37.4747 9.37377C36.7504 8.81653 37.1444 7.65807 38.0583 7.65803L38.1699 7.65803C38.5903 7.65801 38.9616 7.38358 39.0849 6.98166Z" fill="#CBFFB9"/>
<path d="M9.08491 55.9817C9.36166 55.0799 10.6383 55.0799 10.9151 55.9817C11.0384 56.3836 11.4097 56.658 11.8301 56.658L11.9417 56.658C12.8556 56.6581 13.2496 57.8165 12.5253 58.3738L12.3426 58.5143C12.0262 58.7577 11.8941 59.172 12.0112 59.5537L12.0655 59.7307C12.3369 60.6151 11.3122 61.3258 10.5789 60.7618C10.2376 60.4992 9.76238 60.4992 9.42109 60.7618C8.68784 61.3258 7.6631 60.6151 7.93446 59.7307L7.98877 59.5537C8.10587 59.172 7.97378 58.7577 7.65736 58.5143L7.47471 58.3738C6.7504 57.8165 7.14444 56.6581 8.0583 56.658L8.16991 56.658C8.59034 56.658 8.96155 56.3836 9.08491 55.9817Z" fill="#CBFFB9"/>
<path d="M98.0849 86.9817C98.3617 86.0799 99.6383 86.0799 99.9151 86.9817C100.038 87.3836 100.41 87.658 100.83 87.658L100.942 87.658C101.856 87.6581 102.25 88.8165 101.525 89.3738L101.343 89.5143C101.026 89.7577 100.894 90.172 101.011 90.5537L101.066 90.7307C101.337 91.6151 100.312 92.3258 99.5789 91.7618C99.2376 91.4992 98.7624 91.4992 98.4211 91.7618C97.6878 92.3258 96.6631 91.6151 96.9345 90.7307L96.9888 90.5537C97.1059 90.172 96.9738 89.7577 96.6574 89.5143L96.4747 89.3738C95.7504 88.8165 96.1444 87.6581 97.0583 87.658L97.1699 87.658C97.5903 87.658 97.9616 87.3836 98.0849 86.9817Z" fill="#CBFFB9"/>
<path d="M49.0849 113.982C49.3617 113.08 50.6383 113.08 50.9151 113.982C51.0384 114.384 51.4097 114.658 51.8301 114.658L51.9417 114.658C52.8556 114.658 53.2496 115.817 52.5253 116.374L52.3426 116.514C52.0262 116.758 51.8941 117.172 52.0112 117.554L52.0655 117.731C52.3369 118.615 51.3122 119.326 50.5789 118.762C50.2376 118.499 49.7624 118.499 49.4211 118.762C48.6878 119.326 47.6631 118.615 47.9345 117.731L47.9888 117.554C48.1059 117.172 47.9738 116.758 47.6574 116.514L47.4747 116.374C46.7504 115.817 47.1444 114.658 48.0583 114.658L48.1699 114.658C48.5903 114.658 48.9616 114.384 49.0849 113.982Z" fill="#CBFFB9"/>
<path d="M18.0849 102.982C18.3617 102.08 19.6383 102.08 19.9151 102.982C20.0384 103.384 20.4097 103.658 20.8301 103.658L20.9417 103.658C21.8556 103.658 22.2496 104.817 21.5253 105.374L21.3426 105.514C21.0262 105.758 20.8941 106.172 21.0112 106.554L21.0655 106.731C21.3369 107.615 20.3122 108.326 19.5789 107.762C19.2376 107.499 18.7624 107.499 18.4211 107.762C17.6878 108.326 16.6631 107.615 16.9345 106.731L16.9888 106.554C17.1059 106.172 16.9738 105.758 16.6574 105.514L16.4747 105.374C15.7504 104.817 16.1444 103.658 17.0583 103.658L17.1699 103.658C17.5903 103.658 17.9616 103.384 18.0849 102.982Z" fill="#CBFFB9"/>
<path d="M78.0849 12.9817C78.3617 12.0799 79.6383 12.0799 79.9151 12.9817C80.0384 13.3836 80.4097 13.658 80.8301 13.658L80.9417 13.658C81.8556 13.6581 82.2496 14.8165 81.5253 15.3738L81.3426 15.5143C81.0262 15.7577 80.8941 16.172 81.0112 16.5537L81.0655 16.7307C81.3369 17.6151 80.3122 18.3258 79.5789 17.7618C79.2376 17.4992 78.7624 17.4992 78.4211 17.7618C77.6878 18.3258 76.6631 17.6151 76.9345 16.7307L76.9888 16.5537C77.1059 16.172 76.9738 15.7577 76.6574 15.5143L76.4747 15.3738C75.7504 14.8165 76.1444 13.6581 77.0583 13.658L77.1699 13.658C77.5903 13.658 77.9616 13.3836 78.0849 12.9817Z" fill="#CBFFB9"/>
<path d="M47.2625 37.3625L45.75 48.75L52 45L58.25 48.75L56.7375 37.35" fill="#265C2B"/>
<path d="M47.2625 37.3625L45.75 48.75L52 45L58.25 48.75L56.7375 37.35" stroke="#265C2B" stroke-width="2" stroke-linecap="round" stroke-linejoin="round"/>
<path d="M52 38.75C56.8325 38.75 60.75 34.8325 60.75 30C60.75 25.1675 56.8325 21.25 52 21.25C47.1675 21.25 43.25 25.1675 43.25 30C43.25 34.8325 47.1675 38.75 52 38.75Z" fill="white" stroke="#265C2B" stroke-width="2" stroke-linecap="round" stroke-linejoin="round"/>
</svg>
