<svg width="150" height="150" viewBox="0 0 150 150" fill="none" xmlns="http://www.w3.org/2000/svg">
<g opacity="0.2">
<path d="M106.227 61.9854H90.6135C89.175 61.9854 88.0113 63.1497 88.0113 64.5885C88.0113 66.0246 86.845 67.1915 85.4092 67.1915C83.9733 67.1915 82.807 66.0249 82.807 64.5885C82.807 63.1497 81.6431 61.9854 80.2049 61.9854H33.3639C31.9254 61.9854 30.7617 63.1497 30.7617 64.5885V75C30.7617 76.4388 31.9257 77.603 33.3639 77.603C37.6688 77.603 41.1706 81.1058 41.1706 85.4118C41.1706 89.7179 37.6688 93.2206 33.3639 93.2206C31.9254 93.2206 30.7617 94.3849 30.7617 95.8236V106.235C30.7617 107.674 31.9257 108.838 33.3639 108.838H80.2043C81.6428 108.838 82.8064 107.674 82.8064 106.235C82.8064 104.799 83.9728 103.632 85.4086 103.632C86.8444 103.632 88.0107 104.799 88.0107 106.235C88.0107 107.674 89.1747 108.838 90.6129 108.838H106.226C107.665 108.838 108.829 107.674 108.829 106.235V64.5885C108.829 63.1497 107.665 61.9854 106.227 61.9854ZM59.3865 77.603C60.8235 77.603 61.9887 78.7682 61.9887 80.2061C61.9887 81.6434 60.8235 82.8091 59.3865 82.8091C57.9495 82.8091 56.7844 81.6436 56.7844 80.2061C56.7844 78.7682 57.9495 77.603 59.3865 77.603ZM57.5467 92.4577C56.5301 91.4411 56.5301 89.7938 57.5467 88.7771L67.9556 78.3656C68.9722 77.3487 70.6189 77.3487 71.6353 78.3656C72.6519 79.3822 72.6519 81.0296 71.6353 82.0462L61.2264 92.4577C60.2098 93.4746 58.5633 93.4746 57.5467 92.4577ZM69.7954 93.2203C68.3584 93.2203 67.1933 92.0549 67.1933 90.6173C67.1933 89.1797 68.3584 88.0143 69.7954 88.0143C71.2324 88.0143 72.3976 89.1794 72.3976 90.6173C72.3979 92.0549 71.2327 93.2203 69.7954 93.2203ZM88.0113 90.6176C88.0113 92.0564 86.8474 93.2206 85.4092 93.2206C83.9707 93.2206 82.807 92.0564 82.807 90.6176V80.2061C82.807 78.7673 83.971 77.603 85.4092 77.603C86.8477 77.603 88.0113 78.7673 88.0113 80.2061V90.6176ZM116.636 41.1621H101.023C99.5842 41.1621 98.4205 42.3264 98.4205 43.7651C98.4205 45.2013 97.2542 46.3682 95.8184 46.3682C94.3825 46.3682 93.2162 45.2013 93.2162 43.7651C93.2162 42.3264 92.0522 41.1621 90.6141 41.1621H43.773C42.3346 41.1621 41.1709 42.3264 41.1709 43.7651V54.177C41.1709 55.6157 42.3349 56.78 43.773 56.78H80.2046C82.2021 56.78 84.0267 57.535 85.4092 58.7728C86.7917 57.535 88.6163 56.78 90.6138 56.78H106.227C110.532 56.78 114.034 60.2827 114.034 64.5888V88.0151H116.636C118.075 88.0151 119.238 86.8509 119.238 85.4121V43.7651C119.238 42.3264 118.074 41.1621 116.636 41.1621V41.1621Z" fill="#161616"/>
</g>
</svg>
