<svg width="100" height="100" viewBox="0 0 100 100" fill="none" xmlns="http://www.w3.org/2000/svg">
<g opacity="0.2" clip-path="url(#clip0)">
<path d="M97.0826 27.93C95.4571 27.9368 94.1336 26.613 94.1407 24.9874C94.1475 23.3825 92.7487 22.0706 91.1438 22.0706H74.8048V31.1675C74.8048 32.745 73.5925 34.1024 72.0167 34.1766C70.3343 34.2559 68.9454 32.9153 68.9454 31.2503V22.0706H46.5012L55.0076 18.2548C60.1834 15.9544 61.2826 9.0609 57.0164 5.26912L53.1547 1.86308C49.3965 -1.47734 43.5778 -0.101565 41.1555 4.20408L32.8126 19.0267L24.47 4.20486C22.0208 -0.14883 16.1853 -1.43925 12.4791 1.85565L8.60036 5.27673C4.35408 9.05113 5.43513 15.9517 10.6084 18.2507L19.1238 22.0706H8.85641C7.25153 22.0706 5.85252 23.3827 5.85935 24.9876C5.86638 26.6132 4.54256 27.937 2.91698 27.93C1.3121 27.9231 0 29.3221 0 30.927V65.9484C0 67.5533 1.3121 68.9523 2.91698 68.9454C4.54256 68.9384 5.86638 70.2624 5.85935 71.8878C5.85252 73.4927 7.25153 74.8048 8.85641 74.8048H29.8827V29.9632L27.2518 32.301C23.7108 35.4475 21.6796 39.9709 21.6796 44.7092V49.9168C21.6796 51.4937 20.4685 52.8512 18.8935 52.9265C17.2111 53.007 15.8203 51.665 15.8203 50.0004V44.7094C15.8203 38.2993 18.5683 32.1801 23.3593 27.9204L27.7921 23.9796C30.6571 21.4325 34.9733 21.4378 37.8327 23.9796L42.2655 27.9204C47.0565 32.1801 49.8045 38.2993 49.8045 44.7094V49.917C49.8045 51.4939 48.5934 52.8514 47.0184 52.9267C45.336 53.0072 43.9451 51.6652 43.9451 50.0006V44.7096C43.9451 39.9713 41.9139 35.4479 38.3729 32.3014L35.742 29.9636V74.8052H66.7732L68.4822 71.8755L58.406 54.6021C57.5916 53.2037 58.0642 51.4107 59.4607 50.5943C60.8591 49.7799 62.6521 50.2525 63.4685 51.649L71.8747 66.0611L80.2809 51.649C81.0973 50.2525 82.8923 49.7799 84.2887 50.5943C85.6852 51.4107 86.1579 53.2037 85.3434 54.6021L75.2673 71.8755L76.9763 74.8052H91.1434C92.7483 74.8052 94.1471 73.4933 94.1403 71.8884C94.1332 70.263 95.4569 68.9392 97.0822 68.9458C98.6873 68.9525 99.9994 67.5533 99.9994 65.9482V30.9276C99.9998 29.3225 98.6877 27.9231 97.0826 27.93V27.93ZM12.9972 12.9005C11.6978 12.323 11.4361 10.5953 12.4845 9.66344L16.3632 6.24236C17.2749 5.43181 18.7527 5.99197 19.3634 7.0781L25.8978 18.6872L12.9972 12.9005ZM39.7274 18.6874L46.2621 7.07751C46.8766 5.98474 48.3543 5.43572 49.2705 6.24997L53.132 9.65582C54.1863 10.5927 53.9371 12.3185 52.6185 12.9046L39.7274 18.6874ZM74.8046 50.0002C74.8046 51.6182 73.4929 52.9299 71.8749 52.9299C70.257 52.9299 68.9452 51.6182 68.9452 50.0002V43.7502C68.9452 42.1323 70.257 40.8205 71.8749 40.8205C73.4929 40.8205 74.8046 42.1323 74.8046 43.7502V50.0002Z" fill="black"/>
<path d="M80.9589 81.6334L76.9756 74.8047H66.7744L62.791 81.6334C57.1199 80.466 51.7578 84.8033 51.7578 90.625C51.7578 95.6904 55.8517 100 60.9375 100C66.023 100 70.1172 95.6906 70.1172 90.625C70.1172 88.3172 69.2593 86.2074 67.8482 84.5928L71.875 77.6897L75.9017 84.5928C74.4906 86.2074 73.6328 88.3172 73.6328 90.625C73.6328 95.6904 77.7267 100 82.8125 100C87.898 100 91.9922 95.6906 91.9922 90.625C91.9922 84.8111 86.6386 80.4643 80.9589 81.6334ZM60.9375 94.1406C59.1687 94.1406 57.6172 92.4979 57.6172 90.625C57.6172 88.7942 59.1066 87.3047 60.9375 87.3047C62.7683 87.3047 64.2578 88.7942 64.2578 90.625C64.2578 92.4979 62.7062 94.1406 60.9375 94.1406ZM82.8125 94.1406C81.0437 94.1406 79.4922 92.4979 79.4922 90.625C79.4922 88.7942 80.9816 87.3047 82.8125 87.3047C84.6433 87.3047 86.1328 88.7942 86.1328 90.625C86.1328 92.4979 84.5812 94.1406 82.8125 94.1406Z" fill="black"/>
</g>
<defs>
<clipPath id="clip0">
<rect width="100" height="100" fill="white"/>
</clipPath>
</defs>
</svg>
