<svg width="22" height="22" viewBox="0 0 22 22" fill="none" xmlns="http://www.w3.org/2000/svg">
<g clip-path="url(#clip0)">
<path d="M12.8333 8.33246L20.9092 9.93662C21.56 10.0741 22 10.6241 22 11.275V20.625C22 21.3858 21.3858 22 20.625 22H12.375C12.6317 22 12.8333 21.7983 12.8333 21.5416V21.0833H20.625C20.8725 21.0833 21.0833 20.8816 21.0833 20.625V11.275C21.0833 11.0641 20.9367 10.8716 20.7258 10.8258L12.8333 9.26746V8.33246Z" fill="black"/>
<path d="M17.8747 12.8334C18.1313 12.8334 18.333 13.035 18.333 13.2917C18.333 13.5484 18.1313 13.75 17.8747 13.75H16.0413C15.7847 13.75 15.583 13.5484 15.583 13.2917C15.583 13.035 15.7847 12.8334 16.0413 12.8334H17.8747Z" fill="black"/>
<path d="M17.8747 15.5834C18.1313 15.5834 18.333 15.785 18.333 16.0417C18.333 16.2984 18.1313 16.5 17.8747 16.5H16.0413C15.7847 16.5 15.583 16.2984 15.583 16.0417C15.583 15.785 15.7847 15.5834 16.0413 15.5834H17.8747Z" fill="black"/>
<path d="M17.8747 18.3333C18.1313 18.3333 18.333 18.5349 18.333 18.7916C18.333 19.0483 18.1313 19.2499 17.8747 19.2499H16.0413C15.7847 19.2499 15.583 19.0483 15.583 18.7916C15.583 18.5349 15.7847 18.3333 16.0413 18.3333H17.8747Z" fill="black"/>
<path d="M12.8336 21.5417C12.8336 21.7984 12.632 22 12.3753 22C12.1187 22 11.917 21.7984 11.917 21.5417V21.0834V8.70838C11.917 8.57088 11.9812 8.44254 12.082 8.35088C12.192 8.26838 12.3295 8.23171 12.467 8.25921L12.8336 8.33254V9.26754V21.0834V21.5417Z" fill="black"/>
<path d="M11.9163 21.0833V21.5416C11.9163 21.7983 12.118 22 12.3747 22H8.70801C8.96467 22 9.16634 21.7983 9.16634 21.5416V21.0833H11.9163Z" fill="black"/>
<path d="M9.62467 4.58337C9.88134 4.58337 10.083 4.78504 10.083 5.04171C10.083 5.29837 9.88134 5.50004 9.62467 5.50004H7.79134C7.53467 5.50004 7.33301 5.29837 7.33301 5.04171C7.33301 4.78504 7.53467 4.58337 7.79134 4.58337H9.62467Z" fill="black"/>
<path d="M10.083 7.79171C10.083 8.04838 9.88134 8.25005 9.62467 8.25005H7.79134C7.53467 8.25005 7.33301 8.04838 7.33301 7.79171C7.33301 7.53504 7.53467 7.33337 7.79134 7.33337H9.62467C9.88134 7.33337 10.083 7.53504 10.083 7.79171Z" fill="black"/>
<path d="M9.62467 10.0834C9.88134 10.0834 10.083 10.285 10.083 10.5417C10.083 10.7984 9.88134 11 9.62467 11H7.79134C7.53467 11 7.33301 10.7984 7.33301 10.5417C7.33301 10.285 7.53467 10.0834 7.79134 10.0834H9.62467Z" fill="black"/>
<path d="M9.62467 12.8334C9.88134 12.8334 10.083 13.035 10.083 13.2917C10.083 13.5484 9.88134 13.75 9.62467 13.75H7.79134C7.53467 13.75 7.33301 13.5484 7.33301 13.2917C7.33301 13.035 7.53467 12.8334 7.79134 12.8334H9.62467Z" fill="black"/>
<path d="M5.5 13.2917C5.5 13.5484 5.29833 13.75 5.04167 13.75H3.20833C2.95167 13.75 2.75 13.5484 2.75 13.2917C2.75 13.035 2.95167 12.8334 3.20833 12.8334H5.04167C5.29833 12.8334 5.5 13.035 5.5 13.2917Z" fill="black"/>
<path d="M5.04167 4.58337C5.29833 4.58337 5.5 4.78504 5.5 5.04171C5.5 5.29837 5.29833 5.50004 5.04167 5.50004H3.20833C2.95167 5.50004 2.75 5.29837 2.75 5.04171C2.75 4.78504 2.95167 4.58337 3.20833 4.58337H5.04167Z" fill="black"/>
<path d="M5.04167 7.33337C5.29833 7.33337 5.5 7.53504 5.5 7.79171C5.5 8.04838 5.29833 8.25005 5.04167 8.25005H3.20833C2.95167 8.25005 2.75 8.04838 2.75 7.79171C2.75 7.53504 2.95167 7.33337 3.20833 7.33337H5.04167Z" fill="black"/>
<path d="M5.04167 10.0834C5.29833 10.0834 5.5 10.285 5.5 10.5417C5.5 10.7984 5.29833 11 5.04167 11H3.20833C2.95167 11 2.75 10.7984 2.75 10.5417C2.75 10.285 2.95167 10.0834 3.20833 10.0834H5.04167Z" fill="black"/>
<path d="M8.25033 16.9584C8.25033 16.7017 8.03949 16.5 7.79199 16.5H5.04199C4.78533 16.5 4.58366 16.7017 4.58366 16.9584V21.0834H3.66699V16.9584C3.66699 16.1975 4.28116 15.5834 5.04199 15.5834H7.79199C8.55283 15.5834 9.16699 16.1975 9.16699 16.9584V21.0834H8.25033V16.9584Z" fill="black"/>
<path d="M4.58366 21.0833H8.25033H9.16699V21.5416C9.16699 21.7983 8.96533 22 8.70866 22H4.12533C3.86866 22 3.66699 21.7983 3.66699 21.5416V21.0833H4.58366Z" fill="black"/>
<path d="M1.60417 0.183343L11.6783 1.71418C12.3475 1.82418 12.8333 2.39251 12.8333 3.07084V8.33251L12.4667 8.25918C12.3292 8.23168 12.1917 8.26834 12.0817 8.35084C11.9808 8.44251 11.9167 8.57084 11.9167 8.70834V3.07084C11.9167 2.84168 11.7517 2.64918 11.5317 2.61251L1.4575 1.09084C1.43 1.08168 1.4025 1.08168 1.375 1.08168C1.265 1.08168 1.16417 1.11834 1.08167 1.19168C0.971667 1.28334 0.916667 1.40251 0.916667 1.54001V20.625C0.916667 20.8817 1.1275 21.0833 1.375 21.0833H3.66667V21.5417C3.66667 21.7983 3.86833 22 4.125 22H1.375C0.614167 22 0 21.3858 0 20.625V1.54001C0 1.13668 0.174167 0.751677 0.485833 0.49501C0.7975 0.229177 1.20083 0.119177 1.60417 0.183343V0.183343Z" fill="black"/>
</g>
<defs>
<clipPath id="clip0">
<rect width="22" height="22" fill="white"/>
</clipPath>
</defs>
</svg>
