<svg width="55" height="55" viewBox="0 0 55 55" fill="none" xmlns="http://www.w3.org/2000/svg">
<rect opacity="0.6" x="0.5" y="5.5" width="49" height="49" rx="1.5" stroke="#161616"/>
<g clip-path="url(#clip0)">
<path d="M26.8333 27.3325L34.9092 28.9366C35.56 29.0741 36 29.6241 36 30.275V39.625C36 40.3858 35.3858 41 34.625 41H26.375C26.6317 41 26.8333 40.7983 26.8333 40.5416V40.0833H34.625C34.8725 40.0833 35.0833 39.8816 35.0833 39.625V30.275C35.0833 30.0641 34.9367 29.8716 34.7258 29.8258L26.8333 28.2675V27.3325Z" fill="black"/>
<path d="M31.8747 31.8334C32.1313 31.8334 32.333 32.035 32.333 32.2917C32.333 32.5484 32.1313 32.75 31.8747 32.75H30.0413C29.7847 32.75 29.583 32.5484 29.583 32.2917C29.583 32.035 29.7847 31.8334 30.0413 31.8334H31.8747Z" fill="black"/>
<path d="M31.8747 34.5834C32.1313 34.5834 32.333 34.785 32.333 35.0417C32.333 35.2984 32.1313 35.5 31.8747 35.5H30.0413C29.7847 35.5 29.583 35.2984 29.583 35.0417C29.583 34.785 29.7847 34.5834 30.0413 34.5834H31.8747Z" fill="black"/>
<path d="M31.8747 37.3333C32.1313 37.3333 32.333 37.5349 32.333 37.7916C32.333 38.0483 32.1313 38.2499 31.8747 38.2499H30.0413C29.7847 38.2499 29.583 38.0483 29.583 37.7916C29.583 37.5349 29.7847 37.3333 30.0413 37.3333H31.8747Z" fill="black"/>
<path d="M26.8336 40.5417C26.8336 40.7984 26.632 41 26.3753 41C26.1187 41 25.917 40.7984 25.917 40.5417V40.0834V27.7084C25.917 27.5709 25.9812 27.4425 26.082 27.3509C26.192 27.2684 26.3295 27.2317 26.467 27.2592L26.8336 27.3325V28.2675V40.0834V40.5417Z" fill="black"/>
<path d="M25.9163 40.0833V40.5416C25.9163 40.7983 26.118 41 26.3747 41H22.708C22.9647 41 23.1663 40.7983 23.1663 40.5416V40.0833H25.9163Z" fill="black"/>
<path d="M23.6247 23.5834C23.8813 23.5834 24.083 23.785 24.083 24.0417C24.083 24.2984 23.8813 24.5 23.6247 24.5H21.7913C21.5347 24.5 21.333 24.2984 21.333 24.0417C21.333 23.785 21.5347 23.5834 21.7913 23.5834H23.6247Z" fill="black"/>
<path d="M24.083 26.7917C24.083 27.0484 23.8813 27.25 23.6247 27.25H21.7913C21.5347 27.25 21.333 27.0484 21.333 26.7917C21.333 26.535 21.5347 26.3334 21.7913 26.3334H23.6247C23.8813 26.3334 24.083 26.535 24.083 26.7917Z" fill="black"/>
<path d="M23.6247 29.0834C23.8813 29.0834 24.083 29.285 24.083 29.5417C24.083 29.7984 23.8813 30 23.6247 30H21.7913C21.5347 30 21.333 29.7984 21.333 29.5417C21.333 29.285 21.5347 29.0834 21.7913 29.0834H23.6247Z" fill="black"/>
<path d="M23.6247 31.8334C23.8813 31.8334 24.083 32.035 24.083 32.2917C24.083 32.5484 23.8813 32.75 23.6247 32.75H21.7913C21.5347 32.75 21.333 32.5484 21.333 32.2917C21.333 32.035 21.5347 31.8334 21.7913 31.8334H23.6247Z" fill="black"/>
<path d="M19.5 32.2917C19.5 32.5484 19.2983 32.75 19.0417 32.75H17.2083C16.9517 32.75 16.75 32.5484 16.75 32.2917C16.75 32.035 16.9517 31.8334 17.2083 31.8334H19.0417C19.2983 31.8334 19.5 32.035 19.5 32.2917Z" fill="black"/>
<path d="M19.0417 23.5834C19.2983 23.5834 19.5 23.785 19.5 24.0417C19.5 24.2984 19.2983 24.5 19.0417 24.5H17.2083C16.9517 24.5 16.75 24.2984 16.75 24.0417C16.75 23.785 16.9517 23.5834 17.2083 23.5834H19.0417Z" fill="black"/>
<path d="M19.0417 26.3334C19.2983 26.3334 19.5 26.535 19.5 26.7917C19.5 27.0484 19.2983 27.25 19.0417 27.25H17.2083C16.9517 27.25 16.75 27.0484 16.75 26.7917C16.75 26.535 16.9517 26.3334 17.2083 26.3334H19.0417Z" fill="black"/>
<path d="M19.0417 29.0834C19.2983 29.0834 19.5 29.285 19.5 29.5417C19.5 29.7984 19.2983 30 19.0417 30H17.2083C16.9517 30 16.75 29.7984 16.75 29.5417C16.75 29.285 16.9517 29.0834 17.2083 29.0834H19.0417Z" fill="black"/>
<path d="M22.2503 35.9584C22.2503 35.7017 22.0395 35.5 21.792 35.5H19.042C18.7853 35.5 18.5837 35.7017 18.5837 35.9584V40.0834H17.667V35.9584C17.667 35.1975 18.2812 34.5834 19.042 34.5834H21.792C22.5528 34.5834 23.167 35.1975 23.167 35.9584V40.0834H22.2503V35.9584Z" fill="black"/>
<path d="M18.5837 40.0833H22.2503H23.167V40.5416C23.167 40.7983 22.9653 41 22.7087 41H18.1253C17.8687 41 17.667 40.7983 17.667 40.5416V40.0833H18.5837Z" fill="black"/>
<path d="M15.6042 19.1833L25.6783 20.7142C26.3475 20.8242 26.8333 21.3925 26.8333 22.0708V27.3325L26.4667 27.2592C26.3292 27.2317 26.1917 27.2683 26.0817 27.3508C25.9808 27.4425 25.9167 27.5708 25.9167 27.7083V22.0708C25.9167 21.8417 25.7517 21.6492 25.5317 21.6125L15.4575 20.0908C15.43 20.0817 15.4025 20.0817 15.375 20.0817C15.265 20.0817 15.1642 20.1183 15.0817 20.1917C14.9717 20.2833 14.9167 20.4025 14.9167 20.54V39.625C14.9167 39.8817 15.1275 40.0833 15.375 40.0833H17.6667V40.5417C17.6667 40.7983 17.8683 41 18.125 41H15.375C14.6142 41 14 40.3858 14 39.625V20.54C14 20.1367 14.1742 19.7517 14.4858 19.495C14.7975 19.2292 15.2008 19.1192 15.6042 19.1833V19.1833Z" fill="black"/>
</g>
<rect x="42.2002" y="4.79999" width="9.6" height="6.4" fill="white"/>
<path d="M46.9999 0C42.5892 0 39 3.58854 39 7.99972C39 12.4109 42.589 16 46.9999 16C51.4115 16 54.9997 12.4111 54.9997 7.99972C54.9997 3.58854 51.4117 0 46.9999 0ZM50.4622 6.36066L46.2724 10.5505C46.1466 10.6761 45.9808 10.7396 45.8165 10.7396C45.651 10.7396 45.4868 10.6762 45.3606 10.5505L43.5384 8.72827C43.2865 8.47611 43.2865 8.06825 43.5384 7.81637C43.7903 7.56448 44.1981 7.56448 44.4501 7.81637L45.8165 9.18332L49.5511 5.44861C49.8024 5.19701 50.2103 5.19701 50.4622 5.44861C50.7141 5.70091 50.7141 6.10877 50.4622 6.36066Z" fill="#FAC32D"/>
<defs>
<clipPath id="clip0">
<rect width="22" height="22" fill="white" transform="translate(14 19)"/>
</clipPath>
</defs>
</svg>
