<svg width="18" height="18" viewBox="0 0 20 20" fill="none" xmlns="http://www.w3.org/2000/svg">
<g clip-path="url(#clip0)">
<rect width="20" height="20" fill="white"/>
<path d="M3.109 6.01306L3.10898 6.01306V6.01491V6.01493V6.01496V6.01498V6.01501V6.01503V6.01506V6.01508V6.01511V6.01513V6.01516V6.01518V6.0152V6.01523V6.01525V6.01528V6.0153V6.01532V6.01535V6.01537V6.0154V6.01542V6.01544V6.01547V6.01549V6.01551V6.01553V6.01556V6.01558V6.0156V6.01562V6.01565V6.01567V6.01569V6.01571V6.01574V6.01576V6.01578V6.0158V6.01582V6.01585V6.01587V6.01589V6.01591V6.01593V6.01595V6.01597V6.016V6.01602V6.01604V6.01606V6.01608V6.0161V6.01612V6.01614V6.01616V6.01618V6.0162V6.01622V6.01624V6.01626V6.01628V6.0163V6.01632V6.01634V6.01636V6.01638V6.0164V6.01642V6.01644V6.01646V6.01648V6.0165V6.01652V6.01654V6.01656V6.01658V6.0166V6.01661V6.01663V6.01665V6.01667V6.01669V6.01671V6.01673V6.01674V6.01676V6.01678V6.0168V6.01682V6.01684V6.01685V6.01687V6.01689V6.01691V6.01692V6.01694V6.01696V6.01698V6.01699V6.01701V6.01703V6.01705V6.01706V6.01708V6.0171V6.01712V6.01713V6.01715V6.01717V6.01718V6.0172V6.01722V6.01723V6.01725V6.01727V6.01728V6.0173V6.01732V6.01733V6.01735V6.01736V6.01738V6.0174V6.01741V6.01743V6.01744V6.01746V6.01748V6.01749V6.01751V6.01752V6.01754V6.01756V6.01757V6.01759V6.0176V6.01762V6.01763V6.01765V6.01766V6.01768V6.01769V6.01771V6.01772V6.01774V6.01775V6.01777V6.01778V6.0178V6.01781V6.01783V6.01784V6.01786V6.01787V6.01789V6.0179V6.01792V6.01793V6.01795V6.01796V6.01797V6.01799V6.018V6.01802V6.01803V6.01805V6.01806V6.01807V6.01809V6.0181V6.01812V6.01813V6.01815V6.01816V6.01817V6.01819V6.0182V6.01821V6.01823V6.01824V6.01826V6.01827V6.01828V6.0183V6.01831V6.01832V6.01834V6.01835V6.01837V6.01838V6.01839V6.01841V6.01842V6.01843V6.01845V6.01846V6.01847V6.01849V6.0185V6.01851V6.01853V6.01854V6.01855V6.01857V6.01858V6.01859V6.01861V6.01862V6.01863V6.01864V6.01866V6.01867V6.01868V6.0187V6.01871V6.01872V6.01874V6.01875V6.01876V6.01877V6.01879V6.0188V6.01881V6.01883V6.01884V6.01885V6.01887V6.01888V6.01889V6.0189V6.01892V6.01893V6.01894V6.01895V6.01897V6.01898V6.01899V6.01901V6.01902V6.01903V6.01904V6.01906V6.01907V6.01908V6.01909V6.01911V6.01912V6.01913V6.01915V6.01916V6.01917V6.01918V6.0192V6.01921V6.01922V6.01923V6.01925V6.01926V6.01927V6.01928V6.0193V6.01931V6.01932V6.01934V6.01935V6.01936V6.01937V6.01939V6.0194V6.01941V6.01942V6.01944V6.01945V6.01946V6.01948V6.01949V6.0195V6.01951V6.01953V6.01954V6.01955V6.01957V6.01958V6.01959V6.0196V6.01962V6.01963V6.01964V6.01965V6.01967V6.01968V6.01969V6.01971V6.01972V6.01973V6.01975V6.01976V6.01977V6.01978V6.0198V6.01981V6.01982V6.01984V6.01985V6.01986V6.01988V6.01989V6.0199V6.01992V6.01993V6.01994V6.01996V6.01997V6.01998V6.02V6.02001V6.02002V6.02004V6.02005V6.02006V6.02008V6.02009V6.0201V6.02012V6.02013V6.02014V6.02016V6.02017V6.02018V6.0202V6.02021V6.02023V6.02024V6.02025V6.02027V6.02028V6.0203V6.02031V6.02032V6.02034V6.02035V6.02037V6.02038V6.02039V6.02041V6.02042V6.02044V6.02045V6.02046V6.02048V6.02049V6.02051V6.02052V6.02054V6.02055V6.02057V6.02058V6.0206V6.02061V6.02063V6.02064V6.02065V6.02067V6.02068V6.0207V6.02071V6.02073V6.02074V6.02076V6.02077V6.02079V6.02081V6.02082V6.02084V6.02085V6.02087V6.02088V6.0209V6.02091V6.02093V6.02094V6.02096V6.02098V6.02099V6.02101V6.02102V6.02104V6.02106V6.02107V6.02109V6.0211V6.02112V6.02114V6.02115V6.02117V6.02119V6.0212V6.02122V6.02124V6.02125V6.02127V6.02129V6.0213V6.02132V6.02134V6.02135V6.02137V6.02139V6.0214V6.02142V6.02144V6.02146V6.02147V6.02149V6.02151V6.02153V6.02154V6.02156V6.02158V6.0216V6.02162V6.02163V6.02165V6.02167V6.02169V6.02171V6.02172V6.02174V6.02176V6.02178V6.0218V6.02182V6.02184V6.02185V6.02187V6.02189V6.02191V6.02193V6.02195V6.02197V6.02199V6.02201V6.02203V6.02205V6.02207V6.02208V6.0221V6.02212V6.02214V6.02216V6.02218V6.0222V6.02222V6.02224V6.02226V6.02229V6.02231V6.02233V6.02235V6.02237V6.02239V6.02241V6.02243V6.02245V6.02247V6.02249V6.02251V6.02254V6.02256V6.02258V6.0226V6.02262V6.02264V6.02267V6.02269V6.02271V6.02273V6.02275V6.02278V6.0228V6.02282V6.02284V6.02287V6.02289V6.02291V6.02293V6.02296V6.02298V6.023V6.02303V6.02305V6.02307V6.0231V6.02312V6.02314V6.02317V6.02319V6.02322V6.02324V6.02326V6.02329V6.02331V6.02334V6.02336V6.02339V6.02341V6.02344V6.02346V6.02349V6.02351V6.02354V6.02356V16.1226C3.10898 17.3724 4.12325 18.3818 5.37246 18.3818H14.3725C15.6217 18.3818 16.636 17.3724 16.636 16.1226V6.02356C16.636 5.73468 16.4008 5.49952 16.1119 5.49952H16.1119H16.1119H16.1119H16.1118H16.1118H16.1118H16.1118H16.1117H16.1117H16.1117H16.1117H16.1116H16.1116H16.1116H16.1116H16.1115H16.1115H16.1115H16.1115H16.1114H16.1114H16.1114H16.1114H16.1114H16.1113H16.1113H16.1113H16.1113H16.1112H16.1112H16.1112H16.1112H16.1111H16.1111H16.1111H16.1111H16.1111H16.111H16.111H16.111H16.111H16.1109H16.1109H16.1109H16.1109H16.1109H16.1108H16.1108H16.1108H16.1108H16.1108H16.1107H16.1107H16.1107H16.1107H16.1107H16.1106H16.1106H16.1106H16.1106H16.1106H16.1105H16.1105H16.1105H16.1105H16.1105H16.1104H16.1104H16.1104H16.1104H16.1104H16.1103H16.1103H16.1103H16.1103H16.1103H16.1102H16.1102H16.1102H16.1102H16.1102H16.1101H16.1101H16.1101H16.1101H16.1101H16.1101H16.11H16.11H16.11H16.11H16.11H16.1099H16.1099H16.1099H16.1099H16.1099H16.1099H16.1098H16.1098H16.1098H16.1098H16.1098H16.1098H16.1097H16.1097H16.1097H16.1097H16.1097H16.1097H16.1096H16.1096H16.1096H16.1096H16.1096H16.1096H16.1095H16.1095H16.1095H16.1095H16.1095H16.1095H16.1094H16.1094H16.1094H16.1094H16.1094H16.1094H16.1093H16.1093H16.1093H16.1093H16.1093H16.1093H16.1093H16.1092H16.1092H16.1092H16.1092H16.1092H16.1092H16.1091H16.1091H16.1091H16.1091H16.1091H16.1091H16.1091H16.109H16.109H16.109H16.109H16.109H16.109H16.109H16.1089H16.1089H16.1089H16.1089H16.1089H16.1089H16.1088H16.1088H16.1088H16.1088H16.1088H16.1088H16.1088H16.1087H16.1087H16.1087H16.1087H16.1087H16.1087H16.1087H16.1087H16.1086H16.1086H16.1086H16.1086H16.1086H16.1086H16.1086H16.1085H16.1085H16.1085H16.1085H16.1085H16.1085H16.1085H16.1084H16.1084H16.1084H16.1084H16.1084H16.1084H16.1084H16.1084H16.1083H16.1083H16.1083H16.1083H16.1083H16.1083H16.1083H16.1082H16.1082H16.1082H16.1082H16.1082H16.1082H16.1082H16.1082H16.1081H16.1081H16.1081H16.1081H16.1081H16.1081H16.1081H16.1081H16.108H16.108H16.108H16.108H16.108H16.108H16.108H16.1079H16.1079H16.1079H16.1079H16.1079H16.1079H16.1079H16.1079H16.1078H16.1078H16.1078H16.1078H16.1078H16.1078H16.1078H16.1078H16.1077H16.1077H16.1077H16.1077H16.1077H16.1077H16.1077H16.1077H16.1076H16.1076H16.1076H16.1076H16.1076H16.1076H16.1076H16.1076H16.1075H16.1075H16.1075H16.1075H16.1075H16.1075H16.1075H16.1075H16.1074H16.1074H16.1074H16.1074H16.1074H16.1074H16.1074H16.1074H16.1073H16.1073H16.1073H16.1073H16.1073H16.1073H16.1073H16.1072H16.1072H16.1072H16.1072H16.1072H16.1072H16.1072H16.1072H16.1071H16.1071H16.1071H16.1071H16.1071H16.1071H16.1071H16.1071H16.107H16.107H16.107H16.107H16.107H16.107H16.107H16.1069H16.1069H16.1069H16.1069H16.1069H16.1069H16.1069H16.1069H16.1068H16.1068H16.1068H16.1068H16.1068H16.1068H16.1068H16.1067H16.1067H16.1067H16.1067H16.1067H16.1067H16.1067H16.1067H16.1066H16.1066H16.1066H16.1066H16.1066H16.1066H16.1066H16.1065H16.1065H16.1065H16.1065H16.1065H16.1065H16.1065H16.1064H16.1064H16.1064H16.1064H16.1064H16.1064H16.1064H16.1063H16.1063H16.1063H16.1063H16.1063H16.1063H16.1063H16.1062H16.1062H16.1062H16.1062H16.1062H16.1062H16.1062H16.1061H16.1061H16.1061H16.1061H16.1061H16.1061H16.106H16.106H16.106H16.106H16.106H16.106H16.106H16.1059H16.1059H16.1059H16.1059H16.1059H16.1059H16.1058H16.1058H16.1058H16.1058H16.1058H16.1058H16.1058H16.1057H16.1057H16.1057H16.1057H16.1057H16.1057H16.1056H16.1056H16.1056H16.1056H16.1056H16.1056H16.1055H16.1055H16.1055H16.1055H16.1055H16.1055H16.1054H16.1054H16.1054H16.1054H16.1054H16.1053H16.1053H16.1053H16.1053H16.1053H16.1053H16.1052H16.1052H16.1052H16.1052H16.1052H16.1052H16.1051H16.1051H16.1051H16.1051H16.1051H16.105H16.105H16.105H16.105H16.105H16.1049H16.1049H16.1049H16.1049H16.1049H16.1049H16.1048H16.1048H16.1048H16.1048H16.1048H16.1047H16.1047H16.1047H16.1047H16.1047H16.1046H16.1046H16.1046H16.1046H16.1046H16.1045H16.1045H16.1045H16.1045H16.1045H16.1044H16.1044H16.1044H16.1044H16.1043H16.1043H16.1043H16.1043H16.1043H16.1042H16.1042H16.1042H16.1042H16.1042H16.1041H16.1041H16.1041H16.1041H16.104H16.104H16.104H16.104H16.1039H16.1039H16.1039H16.1039H16.1039H16.1038H16.1038H16.1038H16.1038H16.1037H16.1037H16.1037H16.1037H16.1036H16.1036H16.1036H16.1036H16.1035H16.1035H16.1035H16.1035H16.1035H16.1034H16.1034H16.1034H16.1034H16.1033H16.1033H16.1033H13.6937V3.69999C13.6937 1.65823 12.0215 -2.44156e-05 9.98065 -2.44156e-05C7.93983 -2.44156e-05 6.26765 1.65823 6.26765 3.69999V5.49952H3.64256C3.35461 5.49471 3.11435 5.72402 3.109 6.01306ZM7.33304 3.69999C7.33304 2.24573 8.52516 1.06536 9.98065 1.06536C11.4361 1.06536 12.6283 2.24573 12.6283 3.69999V5.49952H7.33304V3.69999ZM15.5706 16.1183C15.5706 16.7768 15.0358 17.3121 14.3725 17.3121H5.37246C4.71287 17.3121 4.17437 16.7805 4.17437 16.1226V6.56491H6.26765V8.97886C6.26765 9.27207 6.50714 9.51156 6.80035 9.51156C7.09356 9.51156 7.33304 9.27207 7.33304 8.97886V6.56491H12.6283V8.97886C12.6283 9.27207 12.8677 9.51156 13.161 9.51156C13.4542 9.51156 13.6937 9.27207 13.6937 8.97886V6.56491H15.5706V16.1183Z" fill="#ec9900" stroke="#ec9900" stroke-width="0.2"/>
<path d="M9.52623 11.2112H6.3243C6.03109 11.2112 5.7916 11.4506 5.7916 11.7439C5.7916 12.0371 6.03109 12.2765 6.3243 12.2765H9.52623C9.81944 12.2765 10.0589 12.0371 10.0589 11.7439C10.0589 11.4506 9.81944 11.2112 9.52623 11.2112Z" fill="#ec9900" stroke="#ec9900" stroke-width="0.2"/>
<path d="M13.4205 13.3745H6.3243C6.03109 13.3745 5.7916 13.614 5.7916 13.9072C5.7916 14.2004 6.03109 14.4399 6.3243 14.4399H13.4205C13.7137 14.4399 13.9532 14.2004 13.9532 13.9072C13.9532 13.614 13.7137 13.3745 13.4205 13.3745Z" fill="#ec9900" stroke="#ec9900" stroke-width="0.2"/>
</g>
<defs>
<clipPath id="clip0">
<rect width="20" height="20" fill="white"/>
</clipPath>
</defs>
</svg>
