<svg width="16" height="22" viewBox="0 0 16 22" fill="none" xmlns="http://www.w3.org/2000/svg">
<path d="M0.000449939 21.3297C-0.00608896 21.5048 0.0588697 21.6752 0.180571 21.8015C0.302186 21.9278 0.470003 21.9991 0.645306 21.9991H15.2989C15.4742 21.9991 15.642 21.9278 15.7636 21.8015C15.8852 21.6752 15.9502 21.5048 15.9437 21.3297L15.8722 19.418H0.0719904L0.000449939 21.3297Z" fill="#D24649"/>
<path d="M0.120117 18.1285H15.8237L15.5619 11.1328C15.5488 10.7807 15.2594 10.502 14.907 10.502H1.03677C0.684355 10.502 0.395052 10.7806 0.381845 11.1328L0.120117 18.1285Z" fill="#D24649"/>
<path d="M14.5675 7.30348L12.8556 7.81979C12.7935 7.83855 12.7308 7.84745 12.669 7.84745C12.3919 7.84745 12.1357 7.66742 12.0515 7.38835C11.9486 7.04713 12.1418 6.68714 12.483 6.58424L14.5675 5.95552V5.15252L12.8556 5.66884C12.7935 5.6876 12.7308 5.6965 12.669 5.6965C12.3919 5.6965 12.1357 5.51647 12.0515 5.2374C11.9486 4.89617 12.1418 4.53619 12.483 4.43329L14.5675 3.80456V2.99933L12.8556 3.51565C12.7935 3.5344 12.7308 3.54331 12.669 3.54331C12.3919 3.54331 12.1357 3.36327 12.0515 3.08421C11.9486 2.74303 12.1418 2.383 12.4829 2.2801L14.3613 1.71354C13.9486 0.709213 12.9602 0 11.8089 0C10.2878 0 9.05029 1.23749 9.05029 2.7586V9.2112H14.5675V7.30348Z" fill="#D24649"/>
<path d="M7.50001 9.10268C7.50001 8.26174 7.10996 7.46559 6.46175 6.9457V6.35449H2.41327V6.9457C1.7651 7.46559 1.375 8.26174 1.375 9.10268V9.21122H7.50001V9.10268Z" fill="#D24649"/>
<path d="M6.83775 5.06562V3.90212C6.83775 3.54575 6.54883 3.25684 6.19246 3.25684H2.68825C2.33188 3.25684 2.04297 3.54575 2.04297 3.90212V5.06364H6.79881C6.81198 5.06364 6.8248 5.06484 6.83775 5.06562Z" fill="#D24649"/>
</svg>
