<svg width="14" height="14" viewBox="0 0 14 14" fill="none" xmlns="http://www.w3.org/2000/svg">
<g clip-path="url(#clip0)">
<path d="M13.069 7.18133C13.0127 7.06608 13.0127 6.9339 13.069 6.81868L13.5912 5.7505C13.8819 5.15574 13.6516 4.44686 13.0668 4.13659L12.0165 3.57933C11.9032 3.51923 11.8255 3.41226 11.8034 3.28596L11.598 2.11486C11.4836 1.46282 10.8804 1.02467 10.2251 1.11739L9.04786 1.28391C8.9208 1.30185 8.79515 1.261 8.70298 1.17183L7.84846 0.345176C7.37266 -0.115127 6.62727 -0.115154 6.15149 0.345176L5.29695 1.17191C5.20475 1.26111 5.0791 1.30188 4.95207 1.28399L3.77484 1.11747C3.11928 1.02469 2.51635 1.4629 2.40198 2.11494L2.19657 3.28599C2.1744 3.41231 2.09671 3.51925 1.98343 3.57938L0.93316 4.13665C0.34839 4.44689 0.118048 5.15583 0.408765 5.75058L0.930891 6.81873C0.987219 6.93398 0.987219 7.06616 0.930891 7.18139L0.408738 8.24954C0.118021 8.84429 0.348363 9.55318 0.933133 9.86344L1.9834 10.4207C2.09671 10.4808 2.1744 10.5878 2.19657 10.7141L2.40198 11.8852C2.5061 12.4788 3.01507 12.895 3.60004 12.895C3.65765 12.895 3.71611 12.8909 3.77487 12.8826L4.95209 12.7161C5.07905 12.6981 5.20478 12.739 5.29698 12.8282L6.15149 13.6548C6.38944 13.885 6.69465 14.0001 6.99997 14C7.3052 14 7.6106 13.885 7.84844 13.6548L8.70298 12.8282C8.79518 12.739 8.92085 12.6983 9.04786 12.7161L10.2251 12.8826C10.8807 12.9754 11.4836 12.5372 11.598 11.8852L11.8034 10.7141C11.8256 10.5878 11.9032 10.4808 12.0165 10.4207L13.0668 9.86344C13.6516 9.5532 13.8819 8.84426 13.5912 8.24951L13.069 7.18133ZM5.38503 3.36643C6.20129 3.36643 6.86538 4.03053 6.86538 4.84679C6.86538 5.66305 6.20129 6.32715 5.38503 6.32715C4.56876 6.32715 3.90467 5.66305 3.90467 4.84679C3.90467 4.03053 4.56876 3.36643 5.38503 3.36643ZM4.62094 9.94996C4.5421 10.0288 4.43877 10.0682 4.33547 10.0682C4.23216 10.0682 4.12881 10.0288 4.05 9.94996C3.89234 9.7923 3.89234 9.53666 4.05 9.379L9.37897 4.05002C9.5366 3.89236 9.79226 3.89236 9.94993 4.05002C10.1076 4.20769 10.1076 4.46332 9.94993 4.62098L4.62094 9.94996ZM8.61485 10.6336C7.79859 10.6336 7.1345 9.96951 7.1345 9.15325C7.1345 8.33699 7.79859 7.67289 8.61485 7.67289C9.43111 7.67289 10.0952 8.33699 10.0952 9.15325C10.0952 9.96951 9.43111 10.6336 8.61485 10.6336Z" fill="#18ab41"/>
<path d="M8.61479 8.48035C8.24377 8.48035 7.94189 8.78219 7.94189 9.15322C7.94189 9.52424 8.24374 9.82609 8.61479 9.82609C8.98582 9.82609 9.28766 9.52424 9.28766 9.15322C9.28766 8.78219 8.98582 8.48035 8.61479 8.48035Z" fill="#18ab41"/>
<path d="M5.38527 4.17389C5.01425 4.17389 4.7124 4.47574 4.7124 4.84676C4.7124 5.21779 5.01425 5.51966 5.38527 5.51966C5.7563 5.51966 6.05817 5.21781 6.05817 4.84676C6.05814 4.47576 5.7563 4.17389 5.38527 4.17389Z" fill="#18ab41"/>
</g>
<defs>
<clipPath id="clip0">
<rect width="14" height="14" fill="white"/>
</clipPath>
</defs>
</svg>
