<svg width="16" height="11" viewBox="0 0 16 11" fill="none" xmlns="http://www.w3.org/2000/svg">
<path d="M15.1729 9.10347L8.00054 9.6552L0.828125 9.10347C0.830635 5.41034 3.63511 2.32184 7.31088 1.96416C7.53709 1.9421 7.76881 1.93106 8.00054 1.93106C8.23226 1.93106 8.46398 1.9421 8.69019 1.96416C12.366 2.32184 15.1704 5.41034 15.1729 9.10347Z" fill="#E76A5C"/>
<path d="M2.03112 8.27593C1.9492 8.27604 1.87147 8.23973 1.81897 8.17684C1.76648 8.11396 1.74465 8.03099 1.75939 7.95041C1.99078 6.68593 2.60394 5.52266 3.51636 4.61716C3.8109 4.32212 4.13343 4.05641 4.4794 3.82378C4.60593 3.73884 4.77735 3.77256 4.86229 3.89909C4.94723 4.02562 4.91351 4.19705 4.78698 4.28199C4.47059 4.49443 4.17576 4.73733 3.9067 5.00723C3.07336 5.83347 2.51339 6.89535 2.30229 8.04972C2.27832 8.18068 2.16425 8.27584 2.03112 8.27593Z" fill="white"/>
<path d="M16 9.7931C16.0006 9.97619 15.9281 10.1519 15.7987 10.2814C15.6692 10.4109 15.4934 10.4833 15.3103 10.4828H0.689655C0.308769 10.4828 0 10.174 0 9.7931C0 9.41222 0.308769 9.10345 0.689655 9.10345H15.3103C15.6912 9.10345 16 9.41222 16 9.7931Z" fill="#95A5A5"/>
<path d="M9.09885 1.19725V1.20001C9.07441 1.50026 8.92658 1.77694 8.69057 1.96414H7.31126C7.094 1.79085 6.95096 1.54127 6.91126 1.26621C6.90244 1.2124 6.89783 1.15798 6.89746 1.10346C6.89695 0.810648 7.01304 0.529683 7.22009 0.322636C7.42714 0.115588 7.7081 -0.000501882 8.00091 1.18818e-05C8.35273 -0.00162966 8.68363 0.166905 8.88919 0.452424L9.09885 1.19725Z" fill="#95A5A5"/>
<path d="M5.5161 3.86212C5.66845 3.86212 5.79196 3.73861 5.79196 3.58626C5.79196 3.4339 5.66845 3.31039 5.5161 3.31039C5.36374 3.31039 5.24023 3.4339 5.24023 3.58626C5.24023 3.73861 5.36374 3.86212 5.5161 3.86212Z" fill="white"/>
</svg>
