<svg width="20" height="20" viewBox="0 0 20 20" fill="none" xmlns="http://www.w3.org/2000/svg">
<path d="M5.68125 8.35729C5.68125 9.85231 6.89749 11.0685 8.3925 11.0685C8.74494 11.0685 9.03046 11.3542 9.03046 11.7065C9.03046 12.0589 8.74494 12.3445 8.3925 12.3445C6.19399 12.3445 4.40534 10.5558 4.40534 8.35729C4.40534 6.15865 6.19399 4.37 8.3925 4.37C10.5911 4.37 12.3798 6.15865 12.3798 8.35729C12.3798 8.7096 12.0941 8.99525 11.7418 8.99525C11.3895 8.99525 11.1039 8.7096 11.1039 8.35729C11.1039 6.86228 9.88752 5.64592 8.3925 5.64592C6.89749 5.64592 5.68125 6.86228 5.68125 8.35729ZM6.1825 13.9999C4.54542 12.2073 3.13168 10.6589 3.12943 8.35105C3.1328 5.45241 5.49386 3.09409 8.3925 3.09409C11.2913 3.09409 13.6522 5.45241 13.6556 8.35105C13.6561 8.70324 13.9416 8.98838 14.2935 8.98826H14.2943C14.6466 8.98788 14.932 8.70186 14.9315 8.34955C14.9295 6.60447 14.2485 4.96426 13.0138 3.73092C11.779 2.49746 10.1378 1.81818 8.3925 1.81818C6.6473 1.81818 5.00609 2.49746 3.77125 3.73092C2.53667 4.96426 1.85551 6.60447 1.85352 8.35093C1.85476 9.62222 2.20782 10.815 2.93305 11.9974C3.56089 13.0212 4.37663 13.9145 5.2403 14.8603C6.087 15.7877 6.96266 16.7465 7.66191 17.8528C7.78326 18.0449 7.99013 18.15 8.20174 18.15C8.31835 18.15 8.4362 18.1181 8.54207 18.0512C8.83982 17.863 8.92871 17.469 8.74045 17.1711C7.98089 15.9694 7.06665 14.9682 6.1825 13.9999ZM18.018 14.306C17.8922 14.4437 17.7199 14.5135 17.5471 14.5135C17.3933 14.5135 17.2391 14.4583 17.1168 14.3465L17.0369 14.2734V16.3844C17.0369 17.3756 16.2311 18.1818 15.2409 18.1818H11.6558C10.6656 18.1818 9.8598 17.3756 9.8598 16.3844V14.3026L9.81186 14.3465C9.55181 14.5843 9.14831 14.5662 8.91048 14.3061C8.67278 14.0461 8.69088 13.6425 8.95093 13.4048L12.2437 10.3943C12.9396 9.75817 13.989 9.75817 14.6848 10.3943L16.7945 12.3232C16.8179 12.3417 16.8399 12.3618 16.8603 12.3833L17.9777 13.4048C18.2378 13.6425 18.2559 14.0461 18.018 14.306ZM15.761 13.1069L13.8239 11.336C13.6189 11.1486 13.3098 11.1486 13.1048 11.336L11.1357 13.136V16.3844C11.1357 16.6719 11.3691 16.9059 11.6559 16.9059H15.2409C15.5276 16.9059 15.761 16.6719 15.761 16.3844V13.1069Z" fill="#444749" stroke="#444749" stroke-width="0.3"/>
</svg>
