<svg width="20" height="20" viewBox="0 0 20 20" fill="none" xmlns="http://www.w3.org/2000/svg">
<rect width="20" height="20" fill="white"/>
<mask id="path-1-outside-1" maskUnits="userSpaceOnUse" x="1.01465" y="1.92551" width="17" height="17" fill="black">
<rect fill="white" x="1.01465" y="1.92551" width="17" height="17"/>
<path d="M14.6482 11.9115C14.3206 11.5705 13.9255 11.3881 13.5068 11.3881C13.0914 11.3881 12.6929 11.5671 12.3519 11.9082L11.2847 12.9719C11.1969 12.9246 11.1091 12.8807 11.0247 12.8368C10.9031 12.776 10.7883 12.7186 10.6904 12.6578C9.69083 12.023 8.78243 11.1956 7.91118 10.1251C7.48906 9.59159 7.2054 9.14245 6.9994 8.68657C7.27631 8.4333 7.53296 8.16989 7.78285 7.91662C7.87741 7.82207 7.97196 7.72414 8.06652 7.62958C8.77567 6.92043 8.77567 6.0019 8.06652 5.29274L7.14461 4.37084C7.03993 4.26615 6.93186 4.15809 6.83056 4.05003C6.62794 3.84066 6.41519 3.62453 6.19569 3.42192C5.86813 3.09773 5.4764 2.92551 5.06442 2.92551C4.65243 2.92551 4.25395 3.09773 3.91625 3.42192C3.91288 3.42529 3.91288 3.42529 3.9095 3.42867L2.76134 4.58696C2.32909 5.01921 2.08258 5.54601 2.02854 6.15724C1.9475 7.14331 2.23791 8.06183 2.46079 8.66293C3.00786 10.1387 3.82508 11.5063 5.04415 12.9719C6.52325 14.738 8.3029 16.1327 10.3358 17.1154C11.1125 17.4835 12.1492 17.9191 13.3075 17.9934C13.3784 17.9968 13.4527 18.0002 13.5203 18.0002C14.3004 18.0002 14.9555 17.7199 15.4688 17.1627C15.4722 17.1559 15.4789 17.1526 15.4823 17.1458C15.6579 16.9331 15.8605 16.7406 16.0732 16.5346C16.2185 16.3961 16.367 16.2509 16.5122 16.099C16.8466 15.7511 17.0222 15.3459 17.0222 14.9305C17.0222 14.5118 16.8432 14.1099 16.5021 13.7722L14.6482 11.9115ZM15.8571 15.4675C15.8537 15.4675 15.8537 15.4708 15.8571 15.4675C15.7254 15.6093 15.5903 15.7376 15.4451 15.8795C15.2256 16.0888 15.0028 16.3083 14.7934 16.5548C14.4523 16.9195 14.0505 17.0918 13.5237 17.0918C13.473 17.0918 13.419 17.0918 13.3683 17.0884C12.3654 17.0242 11.4333 16.6325 10.7343 16.2982C8.82295 15.3729 7.14461 14.0593 5.74993 12.3944C4.5984 11.0065 3.82845 9.72329 3.31854 8.3455C3.00448 7.50464 2.88966 6.84951 2.94032 6.23153C2.97409 5.83643 3.12605 5.50887 3.40634 5.22858L4.55787 4.07704C4.72334 3.9217 4.89895 3.83728 5.07117 3.83728C5.28392 3.83728 5.45614 3.9656 5.5642 4.07367C5.56758 4.07704 5.57096 4.08042 5.57433 4.0838C5.78033 4.27628 5.97619 4.47552 6.18218 4.68827C6.28687 4.79633 6.39493 4.90439 6.50299 5.01583L7.4249 5.93774C7.78285 6.29569 7.78285 6.62663 7.4249 6.98459C7.32697 7.08252 7.23241 7.18045 7.13448 7.27501C6.85082 7.56542 6.58066 7.83558 6.28687 8.09898C6.28011 8.10573 6.27336 8.10911 6.26998 8.11586C5.97957 8.40628 6.0336 8.68994 6.09438 8.88243C6.09776 8.89256 6.10114 8.90269 6.10451 8.91282C6.34428 9.49366 6.68197 10.0407 7.19527 10.6925L7.19864 10.6958C8.13068 11.844 9.11337 12.7389 10.1974 13.4244C10.3358 13.5122 10.4777 13.5831 10.6127 13.6507C10.7343 13.7115 10.8491 13.7689 10.947 13.8296C10.9606 13.8364 10.9741 13.8465 10.9876 13.8533C11.1024 13.9107 11.2104 13.9377 11.3219 13.9377C11.6022 13.9377 11.7778 13.7621 11.8352 13.7047L12.9901 12.5498C13.1049 12.435 13.2873 12.2965 13.5 12.2965C13.7094 12.2965 13.8816 12.4282 13.9863 12.543C13.9897 12.5464 13.9897 12.5464 13.9931 12.5498L15.8537 14.4105C16.2016 14.7549 16.2016 15.1095 15.8571 15.4675Z"/>
</mask>
<path d="M14.6482 11.9115C14.3206 11.5705 13.9255 11.3881 13.5068 11.3881C13.0914 11.3881 12.6929 11.5671 12.3519 11.9082L11.2847 12.9719C11.1969 12.9246 11.1091 12.8807 11.0247 12.8368C10.9031 12.776 10.7883 12.7186 10.6904 12.6578C9.69083 12.023 8.78243 11.1956 7.91118 10.1251C7.48906 9.59159 7.2054 9.14245 6.9994 8.68657C7.27631 8.4333 7.53296 8.16989 7.78285 7.91662C7.87741 7.82207 7.97196 7.72414 8.06652 7.62958C8.77567 6.92043 8.77567 6.0019 8.06652 5.29274L7.14461 4.37084C7.03993 4.26615 6.93186 4.15809 6.83056 4.05003C6.62794 3.84066 6.41519 3.62453 6.19569 3.42192C5.86813 3.09773 5.4764 2.92551 5.06442 2.92551C4.65243 2.92551 4.25395 3.09773 3.91625 3.42192C3.91288 3.42529 3.91288 3.42529 3.9095 3.42867L2.76134 4.58696C2.32909 5.01921 2.08258 5.54601 2.02854 6.15724C1.9475 7.14331 2.23791 8.06183 2.46079 8.66293C3.00786 10.1387 3.82508 11.5063 5.04415 12.9719C6.52325 14.738 8.3029 16.1327 10.3358 17.1154C11.1125 17.4835 12.1492 17.9191 13.3075 17.9934C13.3784 17.9968 13.4527 18.0002 13.5203 18.0002C14.3004 18.0002 14.9555 17.7199 15.4688 17.1627C15.4722 17.1559 15.4789 17.1526 15.4823 17.1458C15.6579 16.9331 15.8605 16.7406 16.0732 16.5346C16.2185 16.3961 16.367 16.2509 16.5122 16.099C16.8466 15.7511 17.0222 15.3459 17.0222 14.9305C17.0222 14.5118 16.8432 14.1099 16.5021 13.7722L14.6482 11.9115ZM15.8571 15.4675C15.8537 15.4675 15.8537 15.4708 15.8571 15.4675C15.7254 15.6093 15.5903 15.7376 15.4451 15.8795C15.2256 16.0888 15.0028 16.3083 14.7934 16.5548C14.4523 16.9195 14.0505 17.0918 13.5237 17.0918C13.473 17.0918 13.419 17.0918 13.3683 17.0884C12.3654 17.0242 11.4333 16.6325 10.7343 16.2982C8.82295 15.3729 7.14461 14.0593 5.74993 12.3944C4.5984 11.0065 3.82845 9.72329 3.31854 8.3455C3.00448 7.50464 2.88966 6.84951 2.94032 6.23153C2.97409 5.83643 3.12605 5.50887 3.40634 5.22858L4.55787 4.07704C4.72334 3.9217 4.89895 3.83728 5.07117 3.83728C5.28392 3.83728 5.45614 3.9656 5.5642 4.07367C5.56758 4.07704 5.57096 4.08042 5.57433 4.0838C5.78033 4.27628 5.97619 4.47552 6.18218 4.68827C6.28687 4.79633 6.39493 4.90439 6.50299 5.01583L7.4249 5.93774C7.78285 6.29569 7.78285 6.62663 7.4249 6.98459C7.32697 7.08252 7.23241 7.18045 7.13448 7.27501C6.85082 7.56542 6.58066 7.83558 6.28687 8.09898C6.28011 8.10573 6.27336 8.10911 6.26998 8.11586C5.97957 8.40628 6.0336 8.68994 6.09438 8.88243C6.09776 8.89256 6.10114 8.90269 6.10451 8.91282C6.34428 9.49366 6.68197 10.0407 7.19527 10.6925L7.19864 10.6958C8.13068 11.844 9.11337 12.7389 10.1974 13.4244C10.3358 13.5122 10.4777 13.5831 10.6127 13.6507C10.7343 13.7115 10.8491 13.7689 10.947 13.8296C10.9606 13.8364 10.9741 13.8465 10.9876 13.8533C11.1024 13.9107 11.2104 13.9377 11.3219 13.9377C11.6022 13.9377 11.7778 13.7621 11.8352 13.7047L12.9901 12.5498C13.1049 12.435 13.2873 12.2965 13.5 12.2965C13.7094 12.2965 13.8816 12.4282 13.9863 12.543C13.9897 12.5464 13.9897 12.5464 13.9931 12.5498L15.8537 14.4105C16.2016 14.7549 16.2016 15.1095 15.8571 15.4675Z" fill="#444749"/>
<path d="M14.6482 11.9115L14.5039 12.0501L14.5065 12.0527L14.6482 11.9115ZM12.3519 11.9082L12.4931 12.0498L12.4933 12.0496L12.3519 11.9082ZM11.2847 12.9719L11.1899 13.148L11.3207 13.2184L11.4259 13.1136L11.2847 12.9719ZM11.0247 12.8368L11.117 12.6594L11.1142 12.6579L11.0247 12.8368ZM10.6904 12.6578L10.5832 12.8267L10.5849 12.8278L10.6904 12.6578ZM7.91118 10.1251L7.75431 10.2492L7.75606 10.2514L7.91118 10.1251ZM6.9994 8.68657L6.86442 8.53899L6.75746 8.63682L6.81714 8.76892L6.9994 8.68657ZM7.78285 7.91662L7.64143 7.7752L7.64049 7.77616L7.78285 7.91662ZM8.06652 5.29274L8.20794 5.15132L8.20794 5.15132L8.06652 5.29274ZM7.14461 4.37084L7.00319 4.51226L7.00319 4.51226L7.14461 4.37084ZM6.83056 4.05003L6.97648 3.91322L6.97428 3.91094L6.83056 4.05003ZM6.19569 3.42192L6.05492 3.56416L6.06003 3.56888L6.19569 3.42192ZM3.91625 3.42192L3.77772 3.27761L3.77483 3.2805L3.91625 3.42192ZM3.9095 3.42867L3.76808 3.28725L3.76746 3.28787L3.9095 3.42867ZM2.76134 4.58696L2.90276 4.72838L2.90338 4.72776L2.76134 4.58696ZM2.02854 6.15724L1.82932 6.13963L1.82922 6.14086L2.02854 6.15724ZM2.46079 8.66293L2.64832 8.59341L2.64832 8.5934L2.46079 8.66293ZM5.04415 12.9719L4.89039 13.0998L4.89082 13.1003L5.04415 12.9719ZM10.3358 17.1154L10.2488 17.2955L10.2502 17.2961L10.3358 17.1154ZM13.3075 17.9934L13.2947 18.193L13.298 18.1932L13.3075 17.9934ZM15.4688 17.1627L15.6159 17.2982L15.635 17.2774L15.6477 17.2521L15.4688 17.1627ZM15.4823 17.1458L15.328 17.0185L15.3136 17.036L15.3034 17.0564L15.4823 17.1458ZM16.0732 16.5346L15.9352 16.3898L15.9341 16.3909L16.0732 16.5346ZM16.5122 16.099L16.3681 15.9604L16.3677 15.9608L16.5122 16.099ZM16.5021 13.7722L16.3604 13.9134L16.3614 13.9144L16.5021 13.7722ZM15.8571 15.4675V15.6675H15.9422L16.0012 15.6061L15.8571 15.4675ZM15.8571 15.4675L16.0037 15.6036L15.7157 15.326L15.8571 15.4675ZM15.4451 15.8795L15.5832 16.0242L15.5849 16.0225L15.4451 15.8795ZM14.7934 16.5548L14.9396 16.6916L14.9458 16.6843L14.7934 16.5548ZM13.3683 17.0884L13.3816 16.8888L13.3811 16.8888L13.3683 17.0884ZM10.7343 16.2982L10.6472 16.4782L10.648 16.4786L10.7343 16.2982ZM5.74993 12.3944L5.59601 12.5222L5.59662 12.5229L5.74993 12.3944ZM3.31854 8.3455L3.5061 8.27608L3.50589 8.27552L3.31854 8.3455ZM2.94032 6.23153L2.74104 6.2145L2.74099 6.21519L2.94032 6.23153ZM3.40634 5.22858L3.54776 5.37L3.54776 5.37L3.40634 5.22858ZM4.55787 4.07704L4.42092 3.93116L4.41645 3.93562L4.55787 4.07704ZM5.5642 4.07367L5.70562 3.93225L5.5642 4.07367ZM5.57433 4.0838L5.43283 4.2253L5.43778 4.22993L5.57433 4.0838ZM6.18218 4.68827L6.0385 4.82739L6.03853 4.82743L6.18218 4.68827ZM6.50299 5.01583L6.3594 5.15508L6.36157 5.15725L6.50299 5.01583ZM7.13448 7.27501L6.9955 7.13106L6.99141 7.13526L7.13448 7.27501ZM6.28687 8.09898L6.15316 7.94984L6.14545 7.95756L6.28687 8.09898ZM6.26998 8.11586L6.4114 8.25729L6.43435 8.23434L6.44887 8.20531L6.26998 8.11586ZM6.09438 8.88243L5.90364 8.94266L5.90465 8.94568L6.09438 8.88243ZM6.10451 8.91282L5.91431 8.97622L5.91964 8.98913L6.10451 8.91282ZM7.19527 10.6925L7.03814 10.8162L7.04547 10.8255L7.05384 10.8339L7.19527 10.6925ZM7.19864 10.6958L7.35392 10.5698L7.34739 10.5618L7.34006 10.5544L7.19864 10.6958ZM10.1974 13.4244L10.3045 13.2555L10.3043 13.2554L10.1974 13.4244ZM10.947 13.8296L10.8416 13.9996L10.8494 14.0044L10.8576 14.0085L10.947 13.8296ZM10.9876 13.8533L10.8981 14.0322L10.9876 13.8533ZM13.9863 12.543L13.8383 12.6779L13.8449 12.6845L13.9863 12.543ZM13.9931 12.5498L14.1345 12.4084L13.9931 12.5498ZM15.8537 14.4105L15.7123 14.5519L15.713 14.5526L15.8537 14.4105ZM14.7924 11.773C14.4329 11.3987 13.9877 11.1881 13.5068 11.1881V11.5881C13.8633 11.5881 14.2083 11.7423 14.5039 12.0501L14.7924 11.773ZM13.5068 11.1881C13.03 11.1881 12.5826 11.3945 12.2104 11.7667L12.4933 12.0496C12.8032 11.7396 13.1528 11.5881 13.5068 11.5881V11.1881ZM12.2107 11.7665L11.1435 12.8303L11.4259 13.1136L12.4931 12.0498L12.2107 11.7665ZM11.3796 12.7958C11.2904 12.7478 11.1974 12.7012 11.117 12.6594L10.9324 13.0143C11.0209 13.0603 11.1035 13.1015 11.1899 13.148L11.3796 12.7958ZM11.1142 12.6579C10.9904 12.5961 10.8845 12.5429 10.7959 12.4879L10.5849 12.8278C10.6922 12.8944 10.8159 12.956 10.9353 13.0157L11.1142 12.6579ZM10.7976 12.489C9.81888 11.8674 8.92613 11.0554 8.0663 9.9989L7.75606 10.2514C8.63872 11.3359 9.56277 12.1786 10.5832 12.8267L10.7976 12.489ZM8.06803 10.0011C7.65289 9.47633 7.37911 9.04119 7.18166 8.60421L6.81714 8.76892C7.03168 9.24372 7.32522 9.70685 7.75433 10.2492L8.06803 10.0011ZM7.13438 8.83415C7.41596 8.57661 7.67676 8.30891 7.92522 8.05709L7.64049 7.77616C7.38916 8.03088 7.13667 8.28998 6.86442 8.53899L7.13438 8.83415ZM7.92428 8.05805C7.97228 8.01004 8.02018 7.96128 8.06735 7.91327C8.11474 7.86504 8.16139 7.81755 8.20794 7.77101L7.9251 7.48816C7.87709 7.53617 7.82919 7.58493 7.78202 7.63294C7.73463 7.68117 7.68798 7.72866 7.64143 7.7752L7.92428 8.05805ZM8.20794 7.77101C8.59362 7.38533 8.79839 6.92955 8.79839 6.46116C8.79839 5.99278 8.59362 5.537 8.20794 5.15132L7.9251 5.43416C8.24857 5.75764 8.39839 6.11571 8.39839 6.46116C8.39839 6.80662 8.24857 7.16468 7.9251 7.48816L8.20794 7.77101ZM8.20794 5.15132L7.28603 4.22942L7.00319 4.51226L7.9251 5.43416L8.20794 5.15132ZM7.28603 4.22942C7.18093 4.12431 7.07519 4.01854 6.97646 3.91324L6.68465 4.18682C6.78854 4.29764 6.89892 4.40799 7.00319 4.51226L7.28603 4.22942ZM6.97428 3.91094C6.77118 3.70108 6.5552 3.48159 6.33135 3.27496L6.06003 3.56888C6.27519 3.76748 6.4847 3.98024 6.68684 4.18911L6.97428 3.91094ZM6.33638 3.27976C5.97634 2.92344 5.53569 2.72551 5.06442 2.72551V3.12551C5.41711 3.12551 5.75992 3.27202 6.055 3.56407L6.33638 3.27976ZM5.06442 2.72551C4.59369 2.72551 4.14722 2.92294 3.77775 3.27764L4.05476 3.56619C4.36068 3.27252 4.71117 3.12551 5.06442 3.12551V2.72551ZM3.77483 3.2805C3.77314 3.28219 3.7723 3.28303 3.77145 3.28388C3.77061 3.28472 3.76977 3.28556 3.76808 3.28725L4.05092 3.57009C4.05261 3.5684 4.05346 3.56756 4.0543 3.56671C4.05515 3.56587 4.05599 3.56503 4.05768 3.56334L3.77483 3.2805ZM3.76746 3.28787L2.6193 4.44616L2.90338 4.72776L4.05154 3.56947L3.76746 3.28787ZM2.61992 4.44554C2.15449 4.91097 1.88749 5.4816 1.82932 6.13963L2.22777 6.17485C2.27766 5.61043 2.5037 5.12745 2.90276 4.72838L2.61992 4.44554ZM1.82922 6.14086C1.74443 7.17239 2.04809 8.12517 2.27327 8.73246L2.64832 8.5934C2.42774 7.9985 2.15056 7.11422 2.22787 6.17362L1.82922 6.14086ZM2.27326 8.73245C2.82957 10.2331 3.6596 11.6201 4.89039 13.0998L5.19791 12.844C3.99055 11.3925 3.18614 10.0442 2.64832 8.59341L2.27326 8.73245ZM4.89082 13.1003C6.38768 14.8877 8.18975 16.3002 10.2488 17.2955L10.4229 16.9353C8.41605 15.9653 6.65883 14.5884 5.19748 12.8435L4.89082 13.1003ZM10.2502 17.2961C11.0316 17.6665 12.0969 18.1162 13.2947 18.193L13.3203 17.7938C12.2016 17.7221 11.1934 17.3005 10.4215 16.9347L10.2502 17.2961ZM13.298 18.1932C13.3683 18.1965 13.4472 18.2002 13.5203 18.2002V17.8002C13.4582 17.8002 13.3886 17.797 13.317 17.7936L13.298 18.1932ZM13.5203 18.2002C14.354 18.2002 15.0632 17.8981 15.6159 17.2982L15.3217 17.0272C14.8478 17.5416 14.2467 17.8002 13.5203 17.8002V18.2002ZM15.6477 17.2521C15.6395 17.2685 15.6305 17.2803 15.6245 17.2873C15.6216 17.2908 15.6192 17.2933 15.618 17.2946C15.6169 17.2957 15.6161 17.2965 15.617 17.2957C15.6173 17.2953 15.6194 17.2932 15.6218 17.2908C15.6242 17.2882 15.6278 17.2843 15.6319 17.2795C15.6402 17.2698 15.6513 17.255 15.6612 17.2352L15.3034 17.0564C15.3116 17.04 15.3206 17.0282 15.3265 17.0212C15.3295 17.0177 15.3318 17.0152 15.3331 17.0139C15.3341 17.0128 15.335 17.0119 15.3341 17.0128C15.3337 17.0132 15.3316 17.0153 15.3293 17.0177C15.3268 17.0203 15.3232 17.0241 15.3192 17.029C15.3109 17.0387 15.2998 17.0535 15.2899 17.0732L15.6477 17.2521ZM15.6365 17.2731C15.8034 17.0709 15.9967 16.8871 16.2124 16.6783L15.9341 16.3909C15.7243 16.594 15.5123 16.7952 15.328 17.0185L15.6365 17.2731ZM16.2113 16.6793C16.3576 16.5398 16.5086 16.3922 16.6568 16.2371L16.3677 15.9608C16.2254 16.1096 16.0793 16.2524 15.9352 16.3898L16.2113 16.6793ZM16.6564 16.2375C17.0208 15.8585 17.2222 15.4053 17.2222 14.9305H16.8222C16.8222 15.2864 16.6723 15.6438 16.3681 15.9604L16.6564 16.2375ZM17.2222 14.9305C17.2222 14.4511 17.0163 13.9999 16.6428 13.6301L16.3614 13.9144C16.67 14.22 16.8222 14.5725 16.8222 14.9305H17.2222ZM16.6438 13.6311L14.7899 11.7704L14.5065 12.0527L16.3604 13.9134L16.6438 13.6311ZM15.8571 15.2675C15.823 15.2675 15.7848 15.2761 15.7492 15.2983C15.732 15.3091 15.7127 15.3248 15.6957 15.3471C15.6818 15.3653 15.6546 15.4076 15.6546 15.4687C15.6546 15.5024 15.6633 15.5449 15.6916 15.5848C15.7205 15.6253 15.7594 15.6487 15.7951 15.6598C15.8579 15.6795 15.9091 15.6623 15.9254 15.6562C15.9654 15.6412 15.9902 15.6172 15.9985 15.6089L15.7157 15.326C15.7224 15.3194 15.7459 15.2963 15.785 15.2816C15.8009 15.2757 15.8518 15.2585 15.9144 15.2781C15.95 15.2892 15.9889 15.3125 16.0176 15.353C16.0459 15.3927 16.0546 15.4352 16.0546 15.4687C16.0546 15.5297 16.0274 15.5717 16.0138 15.5896C15.997 15.6116 15.978 15.627 15.9612 15.6375C15.9265 15.6593 15.8895 15.6675 15.8571 15.6675V15.2675ZM15.7106 15.3314C15.5832 15.4686 15.4533 15.592 15.3054 15.7364L15.5849 16.0225C15.7274 15.8833 15.8677 15.75 16.0037 15.6036L15.7106 15.3314ZM15.3071 15.7347C15.0864 15.9452 14.8574 16.1706 14.6409 16.4254L14.9458 16.6843C15.1482 16.4461 15.3648 16.2325 15.5832 16.0242L15.3071 15.7347ZM14.6473 16.4182C14.3457 16.7408 13.9975 16.8918 13.5237 16.8918V17.2918C14.1034 17.2918 14.559 17.0983 14.9395 16.6914L14.6473 16.4182ZM13.5237 16.8918C13.4717 16.8918 13.4245 16.8917 13.3816 16.8888L13.355 17.288C13.4135 17.2919 13.4743 17.2918 13.5237 17.2918V16.8918ZM13.3811 16.8888C12.4183 16.8272 11.5152 16.45 10.8206 16.1178L10.648 16.4786C11.3515 16.8151 12.3124 17.2213 13.3555 17.288L13.3811 16.8888ZM10.8214 16.1182C8.93608 15.2055 7.28015 13.9096 5.90325 12.266L5.59662 12.5229C7.00908 14.2089 8.70982 15.5403 10.6472 16.4782L10.8214 16.1182ZM5.90385 12.2667C4.76363 10.8925 4.00665 9.62854 3.5061 8.27608L3.13097 8.41491C3.65026 9.81803 4.43317 11.1206 5.59601 12.5222L5.90385 12.2667ZM3.50589 8.27552C3.19814 7.45154 3.09218 6.827 3.13965 6.24787L2.74099 6.21519C2.68715 6.87202 2.81082 7.55774 3.13118 8.41547L3.50589 8.27552ZM3.13959 6.24856C3.16936 5.9003 3.30092 5.61684 3.54776 5.37L3.26492 5.08716C2.95118 5.40089 2.77882 5.77256 2.74104 6.2145L3.13959 6.24856ZM3.54776 5.37L4.6993 4.21846L4.41645 3.93562L3.26492 5.08716L3.54776 5.37ZM4.69476 4.22286C4.83735 4.089 4.96641 4.03728 5.07117 4.03728V3.63728C4.83148 3.63728 4.60934 3.75441 4.42099 3.93123L4.69476 4.22286ZM5.07117 4.03728C5.20366 4.03728 5.32716 4.11946 5.42278 4.21509L5.70562 3.93225C5.58512 3.81175 5.36418 3.63728 5.07117 3.63728V4.03728ZM5.42278 4.21509C5.42447 4.21677 5.42616 4.21846 5.42784 4.22015C5.42953 4.22184 5.43122 4.22353 5.43291 4.22522L5.71575 3.94238C5.71407 3.94069 5.71238 3.939 5.71069 3.93731C5.709 3.93562 5.70731 3.93394 5.70562 3.93225L5.42278 4.21509ZM5.43778 4.22993C5.63992 4.41881 5.83289 4.61504 6.0385 4.82739L6.32587 4.54915C6.11949 4.33601 5.92074 4.13376 5.71088 3.93767L5.43778 4.22993ZM6.03853 4.82743C6.09153 4.88213 6.14528 4.93674 6.1988 4.9911C6.2525 5.04564 6.306 5.09998 6.35941 5.15506L6.64657 4.8766C6.59192 4.82025 6.53736 4.76483 6.48384 4.71047C6.43014 4.65593 6.37752 4.60247 6.32583 4.54911L6.03853 4.82743ZM6.36157 5.15725L7.28348 6.07916L7.56632 5.79632L6.64441 4.87441L6.36157 5.15725ZM7.28348 6.07916C7.44345 6.23913 7.49336 6.36341 7.49336 6.46116C7.49336 6.55892 7.44345 6.68319 7.28348 6.84317L7.56632 7.12601C7.7643 6.92803 7.89336 6.70785 7.89336 6.46116C7.89336 6.21447 7.7643 5.9943 7.56632 5.79632L7.28348 6.07916ZM7.28348 6.84317C7.18204 6.9446 7.09202 7.03799 6.99556 7.13113L7.2734 7.41889C7.3728 7.32291 7.47189 7.22044 7.56632 7.12601L7.28348 6.84317ZM6.99141 7.13526C6.70852 7.42488 6.44208 7.69121 6.15336 7.95007L6.42038 8.24789C6.71924 7.97995 6.99312 7.70596 7.27756 7.41475L6.99141 7.13526ZM6.14545 7.95756C6.14958 7.95343 6.15281 7.95071 6.15333 7.95028C6.1534 7.95022 6.15357 7.95008 6.15231 7.95112C6.15145 7.95183 6.14936 7.95355 6.147 7.95557C6.13839 7.96295 6.11103 7.98655 6.0911 8.02642L6.44887 8.20531C6.43231 8.23842 6.41002 8.25696 6.40732 8.25927C6.40644 8.26003 6.40588 8.26048 6.40659 8.2599C6.40689 8.25964 6.40867 8.25819 6.41038 8.25676C6.41417 8.25358 6.42078 8.24791 6.42829 8.2404L6.14545 7.95756ZM6.12856 7.97444C5.95325 8.14976 5.87247 8.33435 5.85181 8.51287C5.83177 8.68598 5.87034 8.83712 5.90367 8.94266L6.2851 8.8222C6.25764 8.73526 6.2388 8.64831 6.24916 8.55887C6.25888 8.47483 6.2963 8.37239 6.4114 8.25729L6.12856 7.97444ZM5.90465 8.94568C5.90633 8.95074 5.90802 8.95581 5.90971 8.96087C5.9114 8.96594 5.91309 8.971 5.91478 8.97607L6.29425 8.84958C6.29256 8.84451 6.29087 8.83944 6.28918 8.83438C6.2875 8.82931 6.28581 8.82425 6.28412 8.81918L5.90465 8.94568ZM5.91964 8.98913C6.16845 9.59187 6.51728 10.1549 7.03814 10.8162L7.35239 10.5687C6.84666 9.92658 6.5201 9.39544 6.28938 8.83651L5.91964 8.98913ZM7.05384 10.8339L7.05722 10.8373L7.34006 10.5544L7.33669 10.551L7.05384 10.8339ZM7.04336 10.8219C7.98698 11.9843 8.98549 12.8947 10.0905 13.5935L10.3043 13.2554C9.24125 12.5831 8.27438 11.7037 7.35392 10.5698L7.04336 10.8219ZM10.0903 13.5933C10.2386 13.6874 10.3894 13.7626 10.5233 13.8296L10.7022 13.4718C10.5659 13.4037 10.433 13.337 10.3045 13.2555L10.0903 13.5933ZM10.5233 13.8296C10.647 13.8914 10.753 13.9446 10.8416 13.9996L11.0525 13.6597C10.9452 13.5931 10.8216 13.5315 10.7022 13.4718L10.5233 13.8296ZM10.8576 14.0085C10.8552 14.0073 10.8541 14.0067 10.8551 14.0072C10.8562 14.0079 10.8576 14.0087 10.8613 14.0111C10.8643 14.013 10.8697 14.0163 10.8753 14.0197C10.8812 14.0231 10.889 14.0276 10.8981 14.0322L11.077 13.6744C11.0794 13.6756 11.0805 13.6763 11.0795 13.6757C11.0785 13.6751 11.077 13.6742 11.0733 13.6719C11.0703 13.67 11.065 13.6666 11.0593 13.6633C11.0535 13.6598 11.0456 13.6553 11.0365 13.6508L10.8576 14.0085ZM10.8981 14.0322C11.0369 14.1016 11.1754 14.1377 11.3219 14.1377V13.7377C11.2455 13.7377 11.1678 13.7198 11.077 13.6744L10.8981 14.0322ZM11.3219 14.1377C11.6892 14.1377 11.9157 13.907 11.9766 13.8461L11.6938 13.5633C11.6398 13.6172 11.5152 13.7377 11.3219 13.7377V14.1377ZM11.9766 13.8461L13.1315 12.6912L12.8487 12.4084L11.6938 13.5633L11.9766 13.8461ZM13.1315 12.6912C13.2374 12.5853 13.3703 12.4965 13.5 12.4965V12.0965C13.2042 12.0965 12.9724 12.2846 12.8487 12.4084L13.1315 12.6912ZM13.5 12.4965C13.6261 12.4965 13.7485 12.5791 13.8385 12.6778L14.1341 12.4083C14.0147 12.2773 13.7927 12.0965 13.5 12.0965V12.4965ZM13.8449 12.6845C13.848 12.6875 13.8441 12.6837 13.8469 12.6865C13.8469 12.6865 13.8476 12.6872 13.8476 12.6872C13.848 12.6876 13.8476 12.6871 13.8479 12.6875C13.8481 12.6877 13.8479 12.6875 13.8481 12.6877C13.8482 12.6878 13.8482 12.6877 13.8483 12.6878C13.8491 12.6887 13.848 12.6876 13.8489 12.6885C13.8489 12.6885 13.8496 12.6891 13.8496 12.6892C13.8554 12.695 13.8447 12.6842 13.8505 12.6901C13.8512 12.6907 13.8509 12.6905 13.8516 12.6912L14.1345 12.4084C14.1314 12.4053 14.1352 12.4091 14.1325 12.4064C14.1324 12.4063 14.1318 12.4057 14.1317 12.4056C14.1314 12.4052 14.1318 12.4057 14.1314 12.4053C14.1313 12.4052 14.1314 12.4053 14.1313 12.4051C14.1312 12.4051 14.1312 12.4051 14.1311 12.405C14.1302 12.4041 14.1313 12.4052 14.1304 12.4043C14.1304 12.4043 14.1298 12.4037 14.1297 12.4036C14.1239 12.3978 14.1347 12.4086 14.1288 12.4027C14.1282 12.4021 14.1285 12.4024 14.1277 12.4016L13.8449 12.6845ZM13.8516 12.6912L15.7123 14.5519L15.9952 14.2691L14.1345 12.4084L13.8516 12.6912ZM15.713 14.5526C15.8638 14.7019 15.9148 14.8288 15.915 14.9344C15.9153 15.041 15.864 15.1718 15.713 15.3288L16.0012 15.6061C16.1947 15.4051 16.3156 15.1797 16.315 14.9334C16.3144 14.6862 16.1915 14.4635 15.9945 14.2684L15.713 14.5526Z" fill="#444749" mask="url(#path-1-outside-1)"/>
<mask id="path-3-outside-2" maskUnits="userSpaceOnUse" x="9.27441" y="3.90167" width="7" height="7" fill="black">
<rect fill="white" x="9.27441" y="3.90167" width="7" height="7"/>
<path d="M10.6497 5.80604C11.5344 5.95463 12.3381 6.37337 12.9797 7.01499C13.6214 7.65661 14.0367 8.46032 14.1887 9.34508C14.2258 9.56796 14.4183 9.72329 14.6378 9.72329C14.6648 9.72329 14.6885 9.71992 14.7155 9.71654C14.9654 9.67602 15.1309 9.43963 15.0903 9.18974C14.908 8.11925 14.4014 7.14331 13.6281 6.36999C12.8548 5.59667 11.8789 5.09013 10.8084 4.90778C10.5585 4.86725 10.3255 5.03272 10.2816 5.27924C10.2377 5.52576 10.3998 5.76552 10.6497 5.80604Z"/>
</mask>
<path d="M10.6497 5.80604C11.5344 5.95463 12.3381 6.37337 12.9797 7.01499C13.6214 7.65661 14.0367 8.46032 14.1887 9.34508C14.2258 9.56796 14.4183 9.72329 14.6378 9.72329C14.6648 9.72329 14.6885 9.71992 14.7155 9.71654C14.9654 9.67602 15.1309 9.43963 15.0903 9.18974C14.908 8.11925 14.4014 7.14331 13.6281 6.36999C12.8548 5.59667 11.8789 5.09013 10.8084 4.90778C10.5585 4.86725 10.3255 5.03272 10.2816 5.27924C10.2377 5.52576 10.3998 5.76552 10.6497 5.80604Z" fill="#444749"/>
<path d="M10.6497 5.80604L10.6828 5.6088L10.6817 5.60862L10.6497 5.80604ZM14.1887 9.34508L14.386 9.3122L14.3858 9.31122L14.1887 9.34508ZM14.7155 9.71654L14.7403 9.91513L14.7475 9.91396L14.7155 9.71654ZM15.0903 9.18974L15.2878 9.15772L15.2875 9.15615L15.0903 9.18974ZM10.8084 4.90778L10.842 4.71061L10.8404 4.71035L10.8084 4.90778ZM10.6165 6.00328C11.4594 6.14483 12.2255 6.54358 12.8383 7.15641L13.1212 6.87357C12.4508 6.20316 11.6094 5.76443 10.6828 5.6088L10.6165 6.00328ZM12.8383 7.15641C13.4508 7.76888 13.8466 8.53505 13.9916 9.37893L14.3858 9.31122C14.2268 8.38559 13.7919 7.54433 13.1212 6.87357L12.8383 7.15641ZM13.9914 9.37796C14.0452 9.7004 14.3238 9.92329 14.6378 9.92329V9.52329C14.5129 9.52329 14.4065 9.43551 14.386 9.3122L13.9914 9.37796ZM14.6378 9.92329C14.6801 9.92329 14.718 9.91779 14.7403 9.915L14.6907 9.51809C14.659 9.52205 14.6495 9.52329 14.6378 9.52329V9.92329ZM14.7475 9.91396C15.1096 9.85524 15.3454 9.51344 15.2878 9.15772L14.8929 9.22175C14.9163 9.36582 14.8212 9.49679 14.6835 9.51912L14.7475 9.91396ZM15.2875 9.15615C15.0981 8.04442 14.5719 7.03091 13.7695 6.22857L13.4867 6.51141C14.231 7.25571 14.7178 8.19408 14.8932 9.22332L15.2875 9.15615ZM13.7695 6.22857C12.9672 5.42623 11.9537 4.9 10.842 4.71062L10.7748 5.10494C11.804 5.28026 12.7424 5.76711 13.4867 6.51141L13.7695 6.22857ZM10.8404 4.71035C10.4833 4.65245 10.1478 4.88947 10.0847 5.24417L10.4785 5.3143C10.5031 5.17598 10.6337 5.08206 10.7764 5.1052L10.8404 4.71035ZM10.0847 5.24417C10.022 5.59618 10.2531 5.94435 10.6177 6.00346L10.6817 5.60862C10.5464 5.58669 10.4534 5.45533 10.4785 5.3143L10.0847 5.24417Z" fill="#444749" mask="url(#path-3-outside-2)"/>
<path d="M10.3119 2.36106L10.3119 2.36106L10.3117 2.36259C10.2624 2.66651 10.4642 2.95053 10.7679 3.00389L10.7685 3.00399C12.3214 3.26725 13.7378 4.00362 14.8648 5.12725C15.9916 6.25408 16.7247 7.67041 16.988 9.22335C17.0335 9.49594 17.269 9.68499 17.5357 9.68499C17.5667 9.68499 17.5946 9.68144 17.6178 9.67848C17.6205 9.67813 17.6232 9.67779 17.6258 9.67746L17.6258 9.6775L17.6283 9.67712C17.9307 9.63156 18.1367 9.34261 18.0835 9.04138C17.7794 7.25804 16.9389 5.6352 15.6478 4.34418C14.3569 3.05325 12.7342 2.21273 10.951 1.90862C10.6482 1.8549 10.3651 2.06236 10.3119 2.36106Z" fill="#444749" stroke="#444749" stroke-width="0.2"/>
</svg>
