<svg width="18" height="18" viewBox="0 0 18 18" fill="none" xmlns="http://www.w3.org/2000/svg">
<path d="M17.1927 0.606635L17.1711 0.586875C16.7568 0.208437 16.2197 0 15.6589 0C15.0301 0 14.4264 0.26617 14.0025 0.730201L5.98742 9.50511C5.91436 9.58508 5.85895 9.67944 5.8247 9.78216L4.88224 12.6075C4.77327 12.9342 4.82796 13.2954 5.02851 13.5738C5.23065 13.8544 5.55631 14.0219 5.89971 14.0219H5.89976C6.0483 14.0219 6.19349 13.9914 6.33119 13.9311L9.05997 12.7373C9.15918 12.6939 9.24818 12.6302 9.32118 12.5503L17.3363 3.7754C18.1704 2.86235 18.1061 1.44095 17.1927 0.606635ZM6.68796 12.0856L7.24099 10.4277L7.28763 10.3766L8.3358 11.334L8.28916 11.3851L6.68796 12.0856ZM16.1935 2.73151L9.37969 10.1912L8.33152 9.23388L15.1454 1.77409C15.2786 1.62818 15.461 1.5478 15.6589 1.5478C15.8325 1.5478 15.9988 1.6124 16.1275 1.72993L16.1491 1.74969C16.4321 2.00812 16.452 2.44857 16.1935 2.73151Z" fill="#FBAE06"/>
<path d="M15.6376 7.1399C15.2102 7.1399 14.8637 7.4864 14.8637 7.9138V14.4841C14.8637 15.5693 13.9808 16.4522 12.8956 16.4522H3.51594C2.43067 16.4522 1.5478 15.5693 1.5478 14.4841V5.18064C1.5478 4.09542 2.43072 3.21251 3.51594 3.21251H10.305C10.7324 3.21251 11.0789 2.866 11.0789 2.4386C11.0789 2.0112 10.7324 1.6647 10.305 1.6647H3.51594C1.57721 1.6647 0 3.24197 0 5.18064V14.484C0 16.4227 1.57726 18 3.51594 18H12.8955C14.8342 18 16.4115 16.4227 16.4115 14.484V7.9138C16.4115 7.4864 16.065 7.1399 15.6376 7.1399Z" fill="#FBAE06"/>
</svg>
