<svg width="20" height="20" viewBox="0 0 20 20" fill="none" xmlns="http://www.w3.org/2000/svg">
<path d="M10 2.00001C5.5888 2.00001 2 5.58886 2 10.0001C2 14.4113 5.5888 18 10 18C14.4112 18 18 14.4113 18 10.0001C18 5.58886 14.4112 2.00001 10 2.00001ZM10 16.5455C6.39079 16.5455 3.45455 13.6092 3.45455 10.0001C3.45455 6.39089 6.39079 3.45455 10 3.45455C13.6092 3.45455 16.5455 6.39089 16.5455 10.0001C16.5455 13.6092 13.6092 16.5455 10 16.5455Z" fill="#444749" stroke="#444749" stroke-width="0.3"/>
<path d="M9.99978 5.39395C9.46518 5.39395 9.03027 5.82915 9.03027 6.36408C9.03027 6.89853 9.46518 7.33334 9.99978 7.33334C10.5344 7.33334 10.9693 6.89853 10.9693 6.36408C10.9693 5.82915 10.5344 5.39395 9.99978 5.39395Z" fill="#444749" stroke="#444749" stroke-width="0.3"/>
<path d="M9.99973 8.78788C9.59808 8.78788 9.27246 9.1135 9.27246 9.51515V13.8788C9.27246 14.2804 9.59808 14.6061 9.99973 14.6061C10.4014 14.6061 10.727 14.2804 10.727 13.8788V9.51515C10.727 9.1135 10.4014 8.78788 9.99973 8.78788Z" fill="#444749" stroke="#444749" stroke-width="0.3"/>
</svg>
