<svg width="20" height="20" viewBox="0 0 20 20" fill="none" xmlns="http://www.w3.org/2000/svg">
<path d="M16.288 7.42079L17.6875 8.82032C18.3553 9.48816 18.3553 10.5743 17.6875 11.2422L16.288 12.6417C16.1366 12.793 15.9381 12.8687 15.7399 12.8687C15.5418 12.8687 15.3432 12.793 15.1919 12.6417L16.288 7.42079ZM16.288 7.42079C15.9852 7.11808 15.4945 7.11805 15.1919 7.42082M16.288 7.42079L15.1919 7.42082M15.1919 7.42082C14.8892 7.72341 14.8892 8.21412 15.1919 8.5167M15.1919 7.42082L15.1919 8.5167M15.1919 8.5167C15.1919 8.51671 15.1919 8.51673 15.1919 8.51674M15.1919 8.5167L15.1919 8.51674M15.1919 8.51674L15.9314 9.25625H8.78906C8.36101 9.25625 8.01406 9.60319 8.01406 10.0312C8.01406 10.4593 8.36101 10.8062 8.78906 10.8062H15.9314L15.1919 11.5458C15.1919 11.5458 15.1919 11.5458 15.1919 11.5458C14.8892 11.8484 14.8892 12.3391 15.1919 12.6417L15.1919 8.51674ZM13.4703 15.5V14.25C13.4703 13.8219 13.1234 13.475 12.6953 13.475C12.2673 13.475 11.9203 13.8219 11.9203 14.25V15.5C11.9203 16.1064 11.4267 16.6 10.8203 16.6H4.53906C3.9327 16.6 3.43906 16.1064 3.43906 15.5V4.5C3.43906 3.89363 3.9327 3.4 4.53906 3.4H10.8203C11.4267 3.4 11.9203 3.89363 11.9203 4.5V5.75C11.9203 6.17806 12.2673 6.525 12.6953 6.525C13.1234 6.525 13.4703 6.17806 13.4703 5.75V4.5C13.4703 3.03862 12.2817 1.85 10.8203 1.85H4.53906C3.07768 1.85 1.88906 3.03862 1.88906 4.5V15.5C1.88906 16.9614 3.07768 18.15 4.53906 18.15H10.8203C12.2817 18.15 13.4703 16.9614 13.4703 15.5Z" fill="#CE0F0F" stroke="#CE0F0F" stroke-width="0.3"/>
</svg>
