<svg width="20" height="20" viewBox="0 0 20 20" fill="none" xmlns="http://www.w3.org/2000/svg">
<g clip-path="url(#clip0)">
<path d="M3.05901 6.01214L3.05898 6.01214V6.01491V6.01494V6.01497V6.01499V6.01502V6.01504V6.01507V6.01509V6.01511V6.01514V6.01516V6.01519V6.01521V6.01524V6.01526V6.01528V6.01531V6.01533V6.01536V6.01538V6.0154V6.01543V6.01545V6.01547V6.0155V6.01552V6.01554V6.01556V6.01559V6.01561V6.01563V6.01566V6.01568V6.0157V6.01572V6.01574V6.01577V6.01579V6.01581V6.01583V6.01585V6.01588V6.0159V6.01592V6.01594V6.01596V6.01598V6.016V6.01603V6.01605V6.01607V6.01609V6.01611V6.01613V6.01615V6.01617V6.01619V6.01621V6.01623V6.01625V6.01627V6.01629V6.01631V6.01633V6.01635V6.01637V6.01639V6.01641V6.01643V6.01645V6.01647V6.01649V6.01651V6.01653V6.01655V6.01657V6.01658V6.0166V6.01662V6.01664V6.01666V6.01668V6.0167V6.01672V6.01673V6.01675V6.01677V6.01679V6.01681V6.01682V6.01684V6.01686V6.01688V6.0169V6.01691V6.01693V6.01695V6.01697V6.01698V6.017V6.01702V6.01704V6.01705V6.01707V6.01709V6.01711V6.01712V6.01714V6.01716V6.01717V6.01719V6.01721V6.01722V6.01724V6.01726V6.01727V6.01729V6.01731V6.01732V6.01734V6.01736V6.01737V6.01739V6.0174V6.01742V6.01744V6.01745V6.01747V6.01748V6.0175V6.01752V6.01753V6.01755V6.01756V6.01758V6.01759V6.01761V6.01762V6.01764V6.01766V6.01767V6.01769V6.0177V6.01772V6.01773V6.01775V6.01776V6.01778V6.01779V6.01781V6.01782V6.01784V6.01785V6.01787V6.01788V6.0179V6.01791V6.01792V6.01794V6.01795V6.01797V6.01798V6.018V6.01801V6.01803V6.01804V6.01805V6.01807V6.01808V6.0181V6.01811V6.01812V6.01814V6.01815V6.01817V6.01818V6.01819V6.01821V6.01822V6.01824V6.01825V6.01826V6.01828V6.01829V6.0183V6.01832V6.01833V6.01835V6.01836V6.01837V6.01839V6.0184V6.01841V6.01843V6.01844V6.01845V6.01847V6.01848V6.01849V6.01851V6.01852V6.01853V6.01855V6.01856V6.01857V6.01859V6.0186V6.01861V6.01863V6.01864V6.01865V6.01867V6.01868V6.01869V6.0187V6.01872V6.01873V6.01874V6.01876V6.01877V6.01878V6.0188V6.01881V6.01882V6.01883V6.01885V6.01886V6.01887V6.01889V6.0189V6.01891V6.01892V6.01894V6.01895V6.01896V6.01897V6.01899V6.019V6.01901V6.01903V6.01904V6.01905V6.01906V6.01908V6.01909V6.0191V6.01911V6.01913V6.01914V6.01915V6.01917V6.01918V6.01919V6.0192V6.01922V6.01923V6.01924V6.01925V6.01927V6.01928V6.01929V6.01931V6.01932V6.01933V6.01934V6.01936V6.01937V6.01938V6.01939V6.01941V6.01942V6.01943V6.01944V6.01946V6.01947V6.01948V6.0195V6.01951V6.01952V6.01953V6.01955V6.01956V6.01957V6.01959V6.0196V6.01961V6.01962V6.01964V6.01965V6.01966V6.01968V6.01969V6.0197V6.01971V6.01973V6.01974V6.01975V6.01977V6.01978V6.01979V6.0198V6.01982V6.01983V6.01984V6.01986V6.01987V6.01988V6.0199V6.01991V6.01992V6.01994V6.01995V6.01996V6.01998V6.01999V6.02V6.02002V6.02003V6.02004V6.02006V6.02007V6.02008V6.0201V6.02011V6.02012V6.02014V6.02015V6.02016V6.02018V6.02019V6.02021V6.02022V6.02023V6.02025V6.02026V6.02028V6.02029V6.0203V6.02032V6.02033V6.02034V6.02036V6.02037V6.02039V6.0204V6.02042V6.02043V6.02044V6.02046V6.02047V6.02049V6.0205V6.02052V6.02053V6.02054V6.02056V6.02057V6.02059V6.0206V6.02062V6.02063V6.02065V6.02066V6.02068V6.02069V6.02071V6.02072V6.02074V6.02075V6.02077V6.02078V6.0208V6.02081V6.02083V6.02084V6.02086V6.02087V6.02089V6.02091V6.02092V6.02094V6.02095V6.02097V6.02098V6.021V6.02102V6.02103V6.02105V6.02106V6.02108V6.0211V6.02111V6.02113V6.02114V6.02116V6.02118V6.02119V6.02121V6.02123V6.02124V6.02126V6.02128V6.02129V6.02131V6.02133V6.02134V6.02136V6.02138V6.0214V6.02141V6.02143V6.02145V6.02146V6.02148V6.0215V6.02152V6.02153V6.02155V6.02157V6.02159V6.02161V6.02162V6.02164V6.02166V6.02168V6.0217V6.02171V6.02173V6.02175V6.02177V6.02179V6.02181V6.02182V6.02184V6.02186V6.02188V6.0219V6.02192V6.02194V6.02196V6.02198V6.022V6.02201V6.02203V6.02205V6.02207V6.02209V6.02211V6.02213V6.02215V6.02217V6.02219V6.02221V6.02223V6.02225V6.02227V6.02229V6.02231V6.02233V6.02235V6.02238V6.0224V6.02242V6.02244V6.02246V6.02248V6.0225V6.02252V6.02254V6.02256V6.02259V6.02261V6.02263V6.02265V6.02267V6.0227V6.02272V6.02274V6.02276V6.02278V6.02281V6.02283V6.02285V6.02287V6.0229V6.02292V6.02294V6.02296V6.02299V6.02301V6.02303V6.02306V6.02308V6.0231V6.02313V6.02315V6.02318V6.0232V6.02322V6.02325V6.02327V6.0233V6.02332V6.02334V6.02337V6.02339V6.02342V6.02344V6.02347V6.02349V6.02352V6.02354V6.02357V16.1227C3.05898 17.4001 4.09577 18.4318 5.37246 18.4318H14.3725C15.6492 18.4318 16.686 17.4001 16.686 16.1227V6.02357C16.686 5.70707 16.4284 5.44953 16.1119 5.44953H16.1119H16.1119H16.1119H16.1118H16.1118H16.1118H16.1118H16.1117H16.1117H16.1117H16.1117H16.1116H16.1116H16.1116H16.1116H16.1115H16.1115H16.1115H16.1115H16.1114H16.1114H16.1114H16.1114H16.1114H16.1113H16.1113H16.1113H16.1113H16.1112H16.1112H16.1112H16.1112H16.1111H16.1111H16.1111H16.1111H16.1111H16.111H16.111H16.111H16.111H16.1109H16.1109H16.1109H16.1109H16.1109H16.1108H16.1108H16.1108H16.1108H16.1108H16.1107H16.1107H16.1107H16.1107H16.1107H16.1106H16.1106H16.1106H16.1106H16.1106H16.1105H16.1105H16.1105H16.1105H16.1105H16.1104H16.1104H16.1104H16.1104H16.1104H16.1103H16.1103H16.1103H16.1103H16.1103H16.1102H16.1102H16.1102H16.1102H16.1102H16.1101H16.1101H16.1101H16.1101H16.1101H16.1101H16.11H16.11H16.11H16.11H16.11H16.1099H16.1099H16.1099H16.1099H16.1099H16.1099H16.1098H16.1098H16.1098H16.1098H16.1098H16.1098H16.1097H16.1097H16.1097H16.1097H16.1097H16.1097H16.1096H16.1096H16.1096H16.1096H16.1096H16.1096H16.1095H16.1095H16.1095H16.1095H16.1095H16.1095H16.1094H16.1094H16.1094H16.1094H16.1094H16.1094H16.1093H16.1093H16.1093H16.1093H16.1093H16.1093H16.1093H16.1092H16.1092H16.1092H16.1092H16.1092H16.1092H16.1091H16.1091H16.1091H16.1091H16.1091H16.1091H16.1091H16.109H16.109H16.109H16.109H16.109H16.109H16.109H16.1089H16.1089H16.1089H16.1089H16.1089H16.1089H16.1088H16.1088H16.1088H16.1088H16.1088H16.1088H16.1088H16.1087H16.1087H16.1087H16.1087H16.1087H16.1087H16.1087H16.1087H16.1086H16.1086H16.1086H16.1086H16.1086H16.1086H16.1086H16.1085H16.1085H16.1085H16.1085H16.1085H16.1085H16.1085H16.1084H16.1084H16.1084H16.1084H16.1084H16.1084H16.1084H16.1084H16.1083H16.1083H16.1083H16.1083H16.1083H16.1083H16.1083H16.1082H16.1082H16.1082H16.1082H16.1082H16.1082H16.1082H16.1082H16.1081H16.1081H16.1081H16.1081H16.1081H16.1081H16.1081H16.1081H16.108H16.108H16.108H16.108H16.108H16.108H16.108H16.1079H16.1079H16.1079H16.1079H16.1079H16.1079H16.1079H16.1079H16.1078H16.1078H16.1078H16.1078H16.1078H16.1078H16.1078H16.1078H16.1077H16.1077H16.1077H16.1077H16.1077H16.1077H16.1077H16.1077H16.1076H16.1076H16.1076H16.1076H16.1076H16.1076H16.1076H16.1076H16.1075H16.1075H16.1075H16.1075H16.1075H16.1075H16.1075H16.1075H16.1074H16.1074H16.1074H16.1074H16.1074H16.1074H16.1074H16.1074H16.1073H16.1073H16.1073H16.1073H16.1073H16.1073H16.1073H16.1072H16.1072H16.1072H16.1072H16.1072H16.1072H16.1072H16.1072H16.1071H16.1071H16.1071H16.1071H16.1071H16.1071H16.1071H16.1071H16.107H16.107H16.107H16.107H16.107H16.107H16.107H16.1069H16.1069H16.1069H16.1069H16.1069H16.1069H16.1069H16.1069H16.1068H16.1068H16.1068H16.1068H16.1068H16.1068H16.1068H16.1067H16.1067H16.1067H16.1067H16.1067H16.1067H16.1067H16.1067H16.1066H16.1066H16.1066H16.1066H16.1066H16.1066H16.1066H16.1065H16.1065H16.1065H16.1065H16.1065H16.1065H16.1065H16.1064H16.1064H16.1064H16.1064H16.1064H16.1064H16.1064H16.1063H16.1063H16.1063H16.1063H16.1063H16.1063H16.1063H16.1062H16.1062H16.1062H16.1062H16.1062H16.1062H16.1062H16.1061H16.1061H16.1061H16.1061H16.1061H16.1061H16.106H16.106H16.106H16.106H16.106H16.106H16.106H16.1059H16.1059H16.1059H16.1059H16.1059H16.1059H16.1058H16.1058H16.1058H16.1058H16.1058H16.1058H16.1058H16.1057H16.1057H16.1057H16.1057H16.1057H16.1057H16.1056H16.1056H16.1056H16.1056H16.1056H16.1056H16.1055H16.1055H16.1055H16.1055H16.1055H16.1055H16.1054H16.1054H16.1054H16.1054H16.1054H16.1053H16.1053H16.1053H16.1053H16.1053H16.1053H16.1052H16.1052H16.1052H16.1052H16.1052H16.1052H16.1051H16.1051H16.1051H16.1051H16.1051H16.105H16.105H16.105H16.105H16.105H16.1049H16.1049H16.1049H16.1049H16.1049H16.1049H16.1048H16.1048H16.1048H16.1048H16.1048H16.1047H16.1047H16.1047H16.1047H16.1047H16.1046H16.1046H16.1046H16.1046H16.1046H16.1045H16.1045H16.1045H16.1045H16.1045H16.1044H16.1044H16.1044H16.1044H16.1043H16.1043H16.1043H16.1043H16.1043H16.1042H16.1042H16.1042H16.1042H16.1042H16.1041H16.1041H16.1041H16.1041H16.104H16.104H16.104H16.104H16.1039H16.1039H16.1039H16.1039H16.1039H16.1038H16.1038H16.1038H16.1038H16.1037H16.1037H16.1037H16.1037H16.1036H16.1036H16.1036H16.1036H16.1035H16.1035H16.1035H16.1035H16.1035H16.1034H16.1034H16.1034H16.1034H16.1033H16.1033H16.1033H13.7436V3.7C13.7436 1.63039 12.0489 -0.0500168 9.98065 -0.0500168C7.91245 -0.0500168 6.21765 1.63039 6.21765 3.7V5.44953H3.64296C3.32788 5.4445 3.06488 5.69542 3.05901 6.01214ZM7.38304 3.7C7.38304 2.27366 8.55246 1.11537 9.98065 1.11537C11.4088 1.11537 12.5783 2.27366 12.5783 3.7V5.44953H7.38304V3.7ZM15.5206 16.1183C15.5206 16.7491 15.0083 17.2621 14.3725 17.2621H5.37246C4.74004 17.2621 4.22437 16.7525 4.22437 16.1227V6.61492H6.21765V8.97887C6.21765 9.2997 6.47952 9.56157 6.80035 9.56157C7.12117 9.56157 7.38304 9.2997 7.38304 8.97887V6.61492H12.5783V8.97887C12.5783 9.2997 12.8401 9.56157 13.161 9.56157C13.4818 9.56157 13.7436 9.2997 13.7436 8.97887V6.61492H15.5206V16.1183Z" fill="#444749" stroke="#444749" stroke-width="0.3"/>
<path d="M9.52623 11.1611H6.3243C6.00347 11.1611 5.7416 11.423 5.7416 11.7438C5.7416 12.0646 6.00347 12.3265 6.3243 12.3265H9.52623C9.84705 12.3265 10.1089 12.0646 10.1089 11.7438C10.1089 11.423 9.84705 11.1611 9.52623 11.1611Z" fill="#444749" stroke="#444749" stroke-width="0.3"/>
<path d="M13.4205 13.3245H6.3243C6.00347 13.3245 5.7416 13.5864 5.7416 13.9072C5.7416 14.228 6.00347 14.4899 6.3243 14.4899H13.4205C13.7413 14.4899 14.0032 14.228 14.0032 13.9072C14.0032 13.5864 13.7413 13.3245 13.4205 13.3245Z" fill="#444749" stroke="#444749" stroke-width="0.3"/>
</g>
<defs>
<clipPath id="clip0">
<rect width="20" height="20" fill="white"/>
</clipPath>
</defs>
</svg>
