<svg width="20" height="20" viewBox="0 0 20 20" fill="none" xmlns="http://www.w3.org/2000/svg">
<path d="M15.6388 5.29234C15.3599 4.65413 14.823 4.15837 14.164 3.93098C14.1527 3.92711 14.1208 3.91909 14.0814 3.90935C14.0383 3.8987 13.9779 3.88406 13.9029 3.866C13.7528 3.82989 13.5432 3.77997 13.294 3.72084C12.9205 3.63219 12.4575 3.52275 11.9714 3.40785C11.8089 3.36943 11.6438 3.33041 11.4786 3.29134C10.8193 3.13542 10.1582 2.9789 9.65267 2.85813C9.39988 2.79775 9.18615 2.74634 9.03101 2.70843C8.95342 2.68947 8.8907 2.67394 8.84518 2.66238C8.82239 2.65659 8.80418 2.65187 8.7907 2.64824L8.77466 2.64382C8.77124 2.64283 8.76961 2.64232 8.7692 2.64219C8.76912 2.64217 8.76909 2.64216 8.76911 2.64216C8.27894 2.47242 7.60528 2.56759 7.13144 3.00339L7.13142 3.00341L2.7138 7.06835C2.19648 7.54415 1.9 8.22115 1.9 8.92609V16.1245C1.9 17.0275 2.63072 17.7629 3.53023 17.7629H12.9814C13.8809 17.7629 14.6116 17.0275 14.6116 16.1245V15.4947L17.1853 14.3932L17.1856 14.3931C18.001 14.0402 18.3804 13.0944 18.0405 12.2755C17.4059 10.4284 16.9395 9.07051 16.5967 8.07242C16.248 7.05751 16.0272 6.41462 15.8874 6.00769C15.7487 5.60409 15.6896 5.43241 15.6645 5.36007C15.6526 5.3259 15.6473 5.31096 15.6448 5.30474L15.6448 5.30467C15.6444 5.30372 15.643 5.3003 15.641 5.2963C15.6407 5.29573 15.64 5.29431 15.6388 5.29234ZM3.4865 7.90831L3.48652 7.90829C5.37889 6.16703 5.73996 5.8397 6.00128 5.60338L6.02343 5.58335C6.27363 5.35711 6.46809 5.18127 7.9193 3.84295C8.05055 3.722 8.22928 3.67471 8.40686 3.72825L8.40711 3.72832C8.42062 3.73236 8.43229 3.73514 8.44058 3.73711C8.44157 3.73734 8.4425 3.73757 8.44339 3.73778C8.45219 3.73989 8.45618 3.74098 8.45993 3.74232C8.46585 3.74444 8.47837 3.74971 8.50945 3.77241C8.57448 3.81992 8.69598 3.92492 8.96744 4.17172C9.25464 4.43284 9.70492 4.8482 10.4252 5.51264C11.0587 6.09703 11.9011 6.87409 13.0251 7.90836L13.0251 7.90837C13.3078 8.16839 13.4703 8.53942 13.4703 8.92609V16.1245C13.4702 16.3998 13.2495 16.6216 12.9814 16.6216H3.53023C3.26203 16.6216 3.04133 16.3998 3.04133 16.1245V8.92609C3.04133 8.53942 3.20376 8.16836 3.4865 7.90831ZM16.7341 13.3448L14.6116 14.2532V8.92609C14.6116 8.22116 14.3151 7.54417 13.7978 7.06842C13.7978 7.06842 13.7978 7.06841 13.7978 7.06841L10.7897 4.30049L13.8161 5.01859C14.1584 5.14412 14.4377 5.40394 14.5872 5.73621L16.7375 11.9961C16.8764 12.4002 16.9358 12.5729 16.9613 12.6462C16.9733 12.681 16.9786 12.696 16.9812 12.7024C16.9814 12.7029 16.9819 12.704 16.9824 12.7053C16.9829 12.7065 16.9836 12.7079 16.9843 12.7093C16.9845 12.7099 16.9849 12.7107 16.9855 12.7117C16.9858 12.7125 16.9863 12.7133 16.9869 12.7143C17.0878 12.9594 16.9741 13.2409 16.7342 13.3448C16.7341 13.3448 16.7341 13.3448 16.7341 13.3448Z" fill="#444749" stroke="#444749" stroke-width="0.2"/>
<path d="M9.59396 8.47345C9.35178 8.37178 9.07295 8.48582 8.97129 8.72802L6.67999 14.189C6.54788 14.5039 6.78125 14.8488 7.1184 14.8488C7.30424 14.8488 7.48082 14.7392 7.55724 14.5571L9.84854 9.09613L9.84425 9.09433L9.84854 9.09613C9.95017 8.85385 9.8362 8.57508 9.59396 8.47345Z" fill="#444749" stroke="#444749" stroke-width="0.01"/>
<path d="M7.3911 9.8343C7.3911 8.92366 6.72404 8.18187 5.90299 8.18187C5.08195 8.18187 4.41492 8.92366 4.41492 9.8343C4.41492 10.7449 5.08198 11.4867 5.90302 11.4867C6.72407 11.4867 7.3911 10.7449 7.3911 9.8343ZM5.90302 10.5354C5.75813 10.5354 5.62403 10.4556 5.52598 10.3278C5.42795 10.2001 5.36626 10.0246 5.36626 9.8343C5.36626 9.64397 5.42794 9.46853 5.52597 9.34077C5.62401 9.21298 5.75811 9.1332 5.90302 9.1332C6.04794 9.1332 6.18204 9.21298 6.28008 9.34077C6.37811 9.46853 6.43979 9.64397 6.43979 9.8343C6.43978 10.0246 6.37808 10.2001 6.28006 10.3278C6.18201 10.4556 6.04792 10.5354 5.90302 10.5354Z" fill="#444749" stroke="#444749" stroke-width="0.01"/>
<path d="M10.652 11.9156C9.831 11.9156 9.16395 12.6574 9.16395 13.5681C9.16395 14.4787 9.831 15.2205 10.652 15.2205C11.4731 15.2205 12.1401 14.4787 12.1401 13.5681C12.1401 12.6574 11.4731 11.9156 10.652 11.9156ZM10.652 14.2691C10.5071 14.2691 10.373 14.1894 10.275 14.0616C10.177 13.9338 10.1153 13.7584 10.1153 13.5681C10.1153 13.3777 10.177 13.2023 10.275 13.0745C10.373 12.9467 10.5071 12.867 10.652 12.867C10.797 12.867 10.9311 12.9467 11.0291 13.0745C11.1271 13.2023 11.1888 13.3777 11.1888 13.5681C11.1888 13.7584 11.1271 13.9338 11.0291 14.0616C10.931 14.1894 10.7969 14.2691 10.652 14.2691Z" fill="#444749" stroke="#444749" stroke-width="0.01"/>
</svg>
