<svg width="16" height="16" viewBox="0 0 16 16" fill="none" xmlns="http://www.w3.org/2000/svg">
<path d="M13.6487 15.165C13.1573 15.6954 12.4607 16 11.7375 16H4.26134C3.53815 16 2.84153 15.6954 2.35012 15.165C1.85875 14.6345 1.6085 13.9167 1.66381 13.1953L2.37856 4.18943C2.4229 3.61059 2.91368 3.15637 3.49534 3.15637H12.5034C13.0851 3.15637 13.5759 3.61059 13.6202 4.19068L14.3347 13.1941C14.3903 13.9167 14.1401 14.6345 13.6487 15.165Z" fill="#B4DEB2"/>
<path d="M13.6494 15.165C13.158 15.6954 12.4614 16 11.7382 16H7.99609V3.15637H12.5042C13.0858 3.15637 13.5766 3.61059 13.621 4.19068L14.3354 13.1941C14.391 13.9167 14.1408 14.6345 13.6494 15.165Z" fill="#86C983"/>
<path d="M11.0926 3.09297V5.24753C11.0926 5.5065 10.883 5.71613 10.624 5.71613C10.3653 5.71613 10.1554 5.5065 10.1554 5.24753V3.09297C10.1554 1.90431 9.18856 0.937156 7.99991 0.937156H7.99584C6.80907 0.939344 5.84441 1.90556 5.84441 3.09297V5.24753C5.84441 5.5065 5.63447 5.71613 5.37582 5.71613C5.11685 5.71613 4.90723 5.5065 4.90723 5.24753V3.09297C4.90723 1.38888 6.29235 0.0021875 7.99581 0H7.99988C9.70528 0 11.0926 1.38762 11.0926 3.09297Z" fill="#B5B51F"/>
<path d="M10.1115 8.60916L7.99631 10.7243L7.68797 11.0327C7.59644 11.1242 7.47647 11.1701 7.35653 11.1701C7.23656 11.1701 7.11663 11.1242 7.02509 11.0327L5.88925 9.89685C5.70619 9.71378 5.70619 9.41731 5.88925 9.23425C6.07231 9.05119 6.36909 9.05119 6.55184 9.23425L7.35656 10.0387L7.99634 9.39888L9.44897 7.94625C9.63172 7.7635 9.9285 7.7635 10.1116 7.94625C10.2946 8.12935 10.2946 8.4261 10.1115 8.60916Z" fill="#FFFCE5"/>
<path d="M10.1113 7.94628C10.2944 8.12934 10.2944 8.42613 10.1113 8.60919L7.99609 10.7244V9.39891L9.44872 7.94628C9.63144 7.76353 9.92823 7.76353 10.1113 7.94628Z" fill="#FFE89C"/>
<path d="M11.0928 3.09297V5.24753C11.0928 5.5065 10.8832 5.71613 10.6242 5.71613C10.3656 5.71613 10.1556 5.5065 10.1556 5.24753V3.09297C10.1556 1.90431 9.18881 0.937156 8.00016 0.937156H7.99609V0H8.00016C9.70552 0 11.0928 1.38762 11.0928 3.09297Z" fill="#98981A"/>
</svg>
