<svg width="14" height="14" viewBox="0 0 14 14" fill="none" xmlns="http://www.w3.org/2000/svg">
<path d="M8.77868 2.91668C9.34844 3.02784 9.87207 3.30649 10.2826 3.71697C10.693 4.12745 10.9717 4.65108 11.0828 5.22084L8.77868 2.91668ZM8.77868 0.583344C9.96242 0.714848 11.0663 1.24495 11.909 2.0866C12.7517 2.92825 13.2832 4.03143 13.4162 5.21501L8.77868 0.583344ZM12.8328 9.87001V11.62C12.8335 11.7825 12.8002 11.9433 12.7351 12.0921C12.6701 12.241 12.5746 12.3746 12.4549 12.4844C12.3352 12.5943 12.1938 12.6779 12.04 12.7299C11.8861 12.782 11.723 12.8013 11.5612 12.7867C9.76617 12.5916 8.04193 11.9783 6.52701 10.9958C5.11758 10.1002 3.92263 8.90528 3.02701 7.49584C2.04117 5.97405 1.42766 4.24142 1.23618 2.43834C1.2216 2.27703 1.24077 2.11445 1.29247 1.96096C1.34417 1.80746 1.42726 1.66641 1.53646 1.54679C1.64566 1.42717 1.77857 1.33159 1.92672 1.26615C2.07488 1.20071 2.23505 1.16683 2.39701 1.16668H4.14701C4.43011 1.16389 4.70456 1.26414 4.91921 1.44874C5.13386 1.63334 5.27406 1.88969 5.31368 2.17001C5.38754 2.73005 5.52453 3.27993 5.72201 3.80918C5.8005 4.01797 5.81748 4.24488 5.77096 4.46302C5.72443 4.68117 5.61635 4.88141 5.45951 5.04001L4.71868 5.78084C5.54909 7.24124 6.75828 8.45044 8.21868 9.28084L8.95951 8.54001C9.11812 8.38317 9.31835 8.27509 9.5365 8.22856C9.75465 8.18204 9.98156 8.19903 10.1903 8.27751C10.7196 8.475 11.2695 8.61198 11.8295 8.68584C12.1129 8.72582 12.3717 8.86855 12.5567 9.08688C12.7417 9.30522 12.8399 9.58393 12.8328 9.87001Z" stroke="#848484" stroke-linecap="round" stroke-linejoin="round"/>
</svg>
