<svg width="16" height="16" viewBox="0 0 16 16" fill="none" xmlns="http://www.w3.org/2000/svg">
<g clip-path="url(#clip0)">
<path d="M16 8C16 12.4183 12.4183 16 8 16C5.67086 16 3.5742 15.0047 2.11233 13.4162C1.72833 12.9992 1.38841 12.5411 1.0991 12.0496C0.400653 10.8617 0 9.47755 0 8C0 3.58171 3.58171 0 8 0C9.47788 0 10.862 0.400653 12.0496 1.09943C12.5411 1.38841 12.9989 1.72833 13.4158 2.11265C15.0044 3.57388 16 5.67086 16 8Z" fill="#F0CD00"/>
<path d="M16.0001 8C16.0001 12.3187 12.5784 15.838 8.29791 15.9944C4.01742 15.838 0.595703 12.3187 0.595703 8C0.595703 3.68131 4.01742 0.161962 8.29791 0.0055542C12.5784 0.161962 16.0001 3.68131 16.0001 8Z" fill="#FFDE50"/>
<path d="M13.4163 2.11265L2.11283 13.4162C1.72883 12.9992 1.38892 12.5411 1.09961 12.0496L12.0501 1.09943C12.5416 1.38841 12.9994 1.72832 13.4163 2.11265Z" fill="#FFEA94"/>
<path d="M15.4485 5.07528L5.07527 15.4485C4.34091 15.1598 3.65944 14.7657 3.0498 14.2847L14.2851 3.04948C14.766 3.65912 15.1602 4.34059 15.4485 5.07528Z" fill="#FFEA94"/>
<path d="M14.2162 8C14.2162 11.4331 11.4328 14.2165 7.99969 14.2165C6.80394 14.2165 5.6872 13.8789 4.73928 13.2937C4.32622 13.039 3.94549 12.737 3.60394 12.3954C3.35284 12.1447 3.12296 11.872 2.91757 11.5811C2.63479 11.1804 2.39806 10.7448 2.21553 10.2821C1.94516 9.59804 1.793 8.8542 1.78386 8.07641C1.7832 8.05094 1.7832 8.02547 1.7832 8C1.7832 4.56686 4.56622 1.78351 7.99969 1.78351C8.02516 1.78351 8.05096 1.78351 8.07643 1.78416C8.85422 1.7933 9.59773 1.94579 10.2818 2.21583C10.7445 2.39869 11.1801 2.6351 11.5808 2.91788C11.8717 3.12359 12.144 3.35314 12.3951 3.60424C12.7367 3.94547 13.0387 4.32653 13.2934 4.73959C13.8785 5.68751 14.2162 6.80424 14.2162 8Z" fill="#FAA300"/>
<path d="M12.3951 3.60424L3.60394 12.3954C3.35284 12.1446 3.12296 11.872 2.91757 11.5811C2.63479 11.1804 2.39806 10.7448 2.21553 10.2821C1.94516 9.59804 1.793 8.8542 1.78386 8.07641C1.7832 8.05094 1.7832 8.02547 1.7832 8C1.7832 4.56685 4.56622 1.78351 7.99969 1.78351C8.02516 1.78351 8.05096 1.78351 8.07643 1.78416C8.85422 1.7933 9.59773 1.94579 10.2818 2.21583C10.7445 2.39869 11.1801 2.6351 11.5808 2.91788C11.8717 3.12359 12.144 3.35314 12.3951 3.60424Z" fill="#FFBD00"/>
<path d="M14.2159 8C14.2159 11.4331 11.4326 14.2165 7.99946 14.2165C7.88158 14.2165 7.76468 14.2132 7.64844 14.2067C10.9183 14.0248 13.5136 11.3153 13.5136 8C13.5136 4.68473 10.9183 1.97518 7.64844 1.7933C7.76468 1.78677 7.88158 1.78351 7.99946 1.78351C11.4326 1.78351 14.2159 4.56686 14.2159 8Z" fill="#F68E00"/>
<path d="M10.4695 6.09633H9.38084C9.31884 5.8533 9.22264 5.62388 9.09839 5.41287H10.4695C10.8301 5.41287 11.1225 5.1205 11.1225 4.75981C11.1225 4.39913 10.8301 4.10675 10.4695 4.10675H6.82003H4.29954C3.93886 4.10675 3.64648 4.39913 3.64648 4.75981C3.64648 5.1205 3.93886 5.41287 4.29954 5.41287H6.82003C7.31988 5.41287 7.75626 5.68889 7.98548 6.09633H4.29954C3.93886 6.09633 3.64648 6.38871 3.64648 6.7494C3.64648 7.11008 3.93886 7.40246 4.29954 7.40246H7.98548C7.75626 7.8099 7.31988 8.08589 6.82006 8.08589H4.29958C4.03897 8.08589 3.80332 8.24082 3.70004 8.48007C3.59672 8.71932 3.64557 8.9971 3.82425 9.18678L7.37588 12.9566C7.50437 13.093 7.67766 13.1618 7.85134 13.1618C8.01196 13.1618 8.17291 13.1029 8.29905 12.9841C8.56158 12.7368 8.57386 12.3235 8.32654 12.0609L5.81203 9.39201H6.82003C8.05183 9.39201 9.08935 8.54476 9.38084 7.40246H10.4695C10.8301 7.40246 11.1225 7.11008 11.1225 6.7494C11.1225 6.38871 10.8301 6.09633 10.4695 6.09633Z" fill="#F68E00"/>
<path d="M11.2868 6.09633H10.1982C10.1362 5.8533 10.04 5.62388 9.91574 5.41287H11.2868C11.6475 5.41287 11.9399 5.1205 11.9399 4.75981C11.9399 4.39913 11.6475 4.10675 11.2868 4.10675H7.63741H5.11693C4.75624 4.10675 4.46387 4.39913 4.46387 4.75981C4.46387 5.1205 4.75624 5.41287 5.11693 5.41287H7.63741C8.13726 5.41287 8.57364 5.68889 8.80286 6.09633H5.11693C4.75624 6.09633 4.46387 6.38871 4.46387 6.7494C4.46387 7.11008 4.75624 7.40246 5.11693 7.40246H8.80286C8.57364 7.8099 8.13727 8.08589 7.63745 8.08589H5.11696C4.85636 8.08589 4.6207 8.24082 4.51742 8.48007C4.4141 8.71932 4.46295 8.9971 4.64163 9.18678L8.19327 12.9566C8.32175 13.093 8.49504 13.1618 8.66873 13.1618C8.82935 13.1618 8.99029 13.1029 9.11643 12.9841C9.37896 12.7368 9.39127 12.3235 9.14392 12.0609L6.62948 9.39201H7.63748C8.86928 9.39201 9.9068 8.54476 10.1983 7.40246H11.2869C11.6476 7.40246 11.94 7.11008 11.94 6.7494C11.94 6.38871 11.6475 6.09633 11.2868 6.09633Z" fill="#FFEA94"/>
</g>
<defs>
<clipPath id="clip0">
<rect width="16" height="16" fill="white"/>
</clipPath>
</defs>
</svg>
