<svg width="20" height="20" viewBox="0 0 20 20" fill="none" xmlns="http://www.w3.org/2000/svg">
<path d="M13.333 3.33333H14.9997C15.4417 3.33333 15.8656 3.50892 16.1782 3.82148C16.4907 4.13404 16.6663 4.55797 16.6663 4.99999V16.6667C16.6663 17.1087 16.4907 17.5326 16.1782 17.8452C15.8656 18.1577 15.4417 18.3333 14.9997 18.3333H4.99967C4.55765 18.3333 4.13372 18.1577 3.82116 17.8452C3.5086 17.5326 3.33301 17.1087 3.33301 16.6667V4.99999C3.33301 4.55797 3.5086 4.13404 3.82116 3.82148C4.13372 3.50892 4.55765 3.33333 4.99967 3.33333H6.66634" stroke="#444749" stroke-width="1.3" stroke-linecap="round" stroke-linejoin="round"/>
<path d="M12.5003 1.66667H7.50033C7.04009 1.66667 6.66699 2.03977 6.66699 2.50001V4.16667C6.66699 4.62691 7.04009 5 7.50033 5H12.5003C12.9606 5 13.3337 4.62691 13.3337 4.16667V2.50001C13.3337 2.03977 12.9606 1.66667 12.5003 1.66667Z" stroke="#444749" stroke-width="1.3" stroke-linecap="round" stroke-linejoin="round"/>
</svg>
