<svg width="20" height="20" viewBox="0 0 20 20" fill="none" xmlns="http://www.w3.org/2000/svg">
<path d="M16.6663 10V18.3333H3.33301V10" stroke="#444749" stroke-width="1.3" stroke-linecap="round" stroke-linejoin="round"/>
<path d="M18.3337 5.83334H1.66699V10H18.3337V5.83334Z" stroke="#444749" stroke-width="1.3" stroke-linecap="round" stroke-linejoin="round"/>
<path d="M10 18.3333V5.83334" stroke="#444749" stroke-width="1.3" stroke-linecap="round" stroke-linejoin="round"/>
<path d="M10.0003 5.83333H6.25033C5.69779 5.83333 5.16789 5.61384 4.77719 5.22314C4.38649 4.83244 4.16699 4.30253 4.16699 3.75C4.16699 3.19746 4.38649 2.66756 4.77719 2.27686C5.16789 1.88616 5.69779 1.66666 6.25033 1.66666C9.16699 1.66666 10.0003 5.83333 10.0003 5.83333Z" stroke="#444749" stroke-width="1.3" stroke-linecap="round" stroke-linejoin="round"/>
<path d="M10 5.83333H13.75C14.3025 5.83333 14.8324 5.61384 15.2231 5.22314C15.6138 4.83244 15.8333 4.30253 15.8333 3.75C15.8333 3.19746 15.6138 2.66756 15.2231 2.27686C14.8324 1.88616 14.3025 1.66666 13.75 1.66666C10.8333 1.66666 10 5.83333 10 5.83333Z" stroke="#444749" stroke-width="1.3" stroke-linecap="round" stroke-linejoin="round"/>
</svg>
