<svg width="15" height="15" viewBox="0 0 15 15" fill="none" xmlns="http://www.w3.org/2000/svg">
<path d="M7.5 15C11.6421 15 15 11.6421 15 7.5C15 3.35786 11.6421 0 7.5 0C3.35786 0 0 3.35786 0 7.5C0 11.6421 3.35786 15 7.5 15Z" fill="#32BA7C"/>
<path d="M7.6891 9.17981C8.02034 9.51104 8.02034 10.0789 7.6891 10.4101L7.00298 11.0962C6.67175 11.4274 6.10393 11.4274 5.77269 11.0962L2.76795 8.06782C2.43672 7.73659 2.43672 7.16876 2.76795 6.83753L3.45408 6.15141C3.78531 5.82018 4.35313 5.82018 4.68436 6.15141L7.6891 9.17981Z" fill="white"/>
<path d="M10.3151 3.95109C10.6463 3.61986 11.2141 3.61986 11.5454 3.95109L12.2315 4.63721C12.5627 4.96844 12.5627 5.53626 12.2315 5.86749L7.02644 11.0489C6.69521 11.3801 6.12739 11.3801 5.79616 11.0489L5.11004 10.3628C4.77881 10.0315 4.77881 9.46371 5.11004 9.13248L10.3151 3.95109Z" fill="white"/>
</svg>
