<svg width="20" height="20" viewBox="0 0 20 20" fill="none" xmlns="http://www.w3.org/2000/svg">
<rect width="20" height="20" fill="white"/>
<path d="M10.2165 8.875C10.2165 8.5022 9.91431 8.2 9.5415 8.2H6.19775C5.82495 8.2 5.52275 8.5022 5.52275 8.875C5.52275 9.2478 5.82495 9.55 6.19775 9.55H9.5415C9.91431 9.55 10.2165 9.2478 10.2165 8.875Z" fill="#ec9900" stroke="#ec9900" stroke-width="0.1"/>
<path d="M6.19775 10.7C5.82495 10.7 5.52275 11.0022 5.52275 11.375C5.52275 11.7478 5.82495 12.05 6.19775 12.05H7.5415C7.91431 12.05 8.2165 11.7478 8.2165 11.375C8.2165 11.0022 7.91431 10.7 7.5415 10.7H6.19775Z" fill="#ec9900" stroke="#ec9900" stroke-width="0.1"/>
<path d="M8.97895 16.7H5.57617C4.91454 16.7 4.37617 16.1616 4.37617 15.5V4.5C4.37617 3.83836 4.91454 3.3 5.57617 3.3H13.2602C13.9218 3.3 14.4602 3.83836 14.4602 4.5V8C14.4602 8.3728 14.7624 8.675 15.1352 8.675C15.508 8.675 15.8102 8.3728 15.8102 8V4.5C15.8102 3.09389 14.6663 1.95 13.2602 1.95H5.57617C4.17006 1.95 3.02617 3.09389 3.02617 4.5V15.5C3.02617 16.9061 4.17006 18.05 5.57617 18.05H8.97892C9.35172 18.05 9.65392 17.7478 9.65392 17.375C9.65392 17.0022 9.35172 16.7 8.97895 16.7Z" fill="#ec9900" stroke="#ec9900" stroke-width="0.1"/>
<path d="M13.9367 9.63379C13.8285 9.58543 13.7143 9.56786 13.604 9.57736C13.4937 9.56789 13.3795 9.58549 13.2714 9.63378L13.2714 9.63378L10.2036 11.0045L10.2036 11.0045C9.96054 11.1132 9.804 11.3545 9.804 11.6208V14.0008C9.804 14.9911 10.195 16.0005 10.8761 16.7713C11.6035 17.5946 12.5572 18.0501 13.5618 18.0501H13.6462C14.6508 18.0501 15.6045 17.5946 16.3319 16.7713C17.013 16.0005 17.404 14.9911 17.404 14.0008V11.6208C17.404 11.3546 17.2475 11.1132 17.0044 11.0045L16.984 11.0502L17.0044 11.0045L13.9367 9.63379ZM13.9367 9.63379L13.9163 9.67943L13.9367 9.63378L13.9367 9.63379ZM13.604 10.9638L16.0539 12.0585V14.0008C16.0539 14.6371 15.7959 15.3132 15.3642 15.8301C14.9327 16.3466 14.3313 16.7001 13.6461 16.7001H13.5618C12.8766 16.7001 12.2752 16.3466 11.8437 15.8301C11.412 15.3132 11.154 14.637 11.154 14.0008V12.0585L13.604 10.9638Z" fill="#ec9900" stroke="#ec9900" stroke-width="0.1"/>
<path d="M13.3103 6.375C13.3103 6.0022 13.0081 5.7 12.6353 5.7H6.19775C5.82495 5.7 5.52275 6.0022 5.52275 6.375C5.52275 6.7478 5.82495 7.05 6.19775 7.05H12.6353C13.0081 7.05 13.3103 6.7478 13.3103 6.375Z" fill="#ec9900" stroke="#ec9900" stroke-width="0.1"/>
</svg>
