<svg width="22" height="24" viewBox="0 0 22 24" fill="none" xmlns="http://www.w3.org/2000/svg">
<path d="M7.59107 1.29236L7.58284 1.29689L7.57478 1.30172C6.64871 1.85737 5.94024 2.56175 5.42189 3.50083C4.8573 4.44523 4.625 5.43621 4.625 6.5C4.625 7.60457 4.85637 8.59619 5.42189 9.54215C5.93835 10.4778 6.64721 11.1867 7.58286 11.7031C8.52882 12.2686 9.52044 12.5 10.625 12.5C11.6888 12.5 12.6798 12.2677 13.6242 11.7031C14.5632 11.1848 15.2676 10.4763 15.8233 9.55022L15.8281 9.54216L15.8326 9.53393C16.3425 8.60682 16.625 7.62219 16.625 6.5C16.625 5.41885 16.3415 4.4343 15.8326 3.50904L15.8281 3.50081L15.8233 3.49275C15.2654 2.563 14.562 1.85957 13.6322 1.30172L13.6242 1.29689L13.616 1.29236C12.6907 0.783467 11.7061 0.5 10.625 0.5C9.50281 0.5 8.51818 0.782451 7.59107 1.29236ZM17.6283 13.7197L17.6284 13.7196L17.6192 13.7143C16.6436 13.1568 15.6131 12.875 14.4922 12.875H13.7617H13.6526L13.5534 12.9205C12.5885 13.3627 11.6285 13.5625 10.625 13.5625C9.57559 13.5625 8.61899 13.3615 7.70401 12.9239L7.6017 12.875H7.48828H6.75781C5.6445 12.875 4.56782 13.1532 3.62622 13.717C2.64123 14.281 1.89683 15.0764 1.34469 15.9967L1.34459 15.9966L1.33932 16.0058C0.781838 16.9814 0.5 18.0119 0.5 19.1328V20.9375C0.5 21.6431 0.707098 22.256 1.24761 22.7524C1.74402 23.2929 2.35689 23.5 3.0625 23.5H18.1875C18.8698 23.5 19.4724 23.2816 20.002 22.752C20.479 22.275 20.75 21.6765 20.75 20.9375V19.1328C20.75 18.0119 20.4682 16.9814 19.9107 16.0058L19.9108 16.0058L19.9053 15.9967C19.3475 15.0669 18.5581 14.2775 17.6283 13.7197Z" stroke="#ACACAC"/>
</svg>
