<svg width="31" height="24" viewBox="0 0 27 26" fill="none" xmlns="http://www.w3.org/2000/svg">
<path d="M13.5001 14.7869C17.5251 14.7869 20.788 11.4768 20.788 7.39347C20.788 3.31017 17.5251 0 13.5001 0C9.47517 0 6.21228 3.31017 6.21228 7.39347C6.21228 11.4768 9.47517 14.7869 13.5001 14.7869Z" fill="#FBAE06"/>
<path d="M13.5001 13.5184C16.8249 13.5184 19.5202 10.784 19.5202 7.41105C19.5202 4.03806 16.8249 1.30371 13.5001 1.30371C10.1753 1.30371 7.47998 4.03806 7.47998 7.41105C7.47998 10.784 10.1753 13.5184 13.5001 13.5184Z" fill="#FBAE06"/>
<path d="M13.5002 12.5012C16.2708 12.5012 18.5169 10.2225 18.5169 7.41171C18.5169 4.60089 16.2708 2.32227 13.5002 2.32227C10.7295 2.32227 8.4834 4.60089 8.4834 7.41171C8.4834 10.2225 10.7295 12.5012 13.5002 12.5012Z" fill="#FBAE06"/>
<path d="M26 24.6596C26 20.7003 22.8069 17.4609 18.9041 17.4609H8.09583C4.19312 17.4609 1 20.7003 1 24.6596V25H26V24.6596Z" fill="#FBAE06"/>
<path d="M23.5558 24.6686C23.5558 20.8118 20.6748 17.6562 17.1537 17.6562H7.40208C3.88093 17.6562 1 20.8118 1 24.6686V25.0002H23.5558V24.6686Z" fill="#FBAE06"/>
<path d="M20.2949 24.7045C20.2949 21.2776 16.4802 17.6377 13.4681 17.6377L6.22266 17.7243C3.21056 17.7243 1 21.2776 1 24.7045V24.9991H20.2949V24.7045Z" fill="#FBAE06"/>
<path d="M1 24.6596C1 20.7003 4.19312 17.4609 8.09583 17.4609H18.9042C22.8069 17.4609 26 20.7003 26 24.6596H1Z" stroke="#FBAE06" stroke-width="0.7" stroke-miterlimit="10" stroke-linecap="round" stroke-linejoin="round"/>
</svg>
