<svg width="15" height="15" viewBox="0 0 30 30" fill="none" xmlns="http://www.w3.org/2000/svg">
<path d="M13.6816 0.5625C7.66406 1.37109 3.65625 7.07227 4.93359 13.002C5.61914 16.207 7.86328 18.9258 10.9102 20.2441C11.2441 20.3906 11.543 20.5078 11.584 20.5078C11.6191 20.5078 12.2461 22.2949 12.9961 24.5508L14.3437 28.5938H9.98437H5.625V29.0625V29.5312H15H24.375V29.0625V28.5938H20.0156H15.6562L16.998 24.5684L18.3398 20.5371L18.8789 20.332C20.7012 19.6406 22.4824 18.1758 23.6309 16.4355C26.3379 12.3223 25.7109 6.81445 22.1367 3.36328C19.8809 1.18359 16.7461 0.146484 13.6816 0.5625ZM16.7578 1.57617C20.5371 2.32031 23.4551 5.23828 24.2109 9.04102C24.3984 9.99023 24.3984 11.584 24.2109 12.5273C23.7129 14.9941 22.4355 16.9805 20.4082 18.4395C19.834 18.8496 18.6973 19.4355 18.0879 19.6289C17.8594 19.7051 17.6602 19.8105 17.6074 19.8809C17.5605 19.9512 16.9629 21.6855 16.2773 23.7422C15.5918 25.7988 15.0176 27.4805 15 27.4805C14.9824 27.4805 14.4082 25.7988 13.7227 23.7422C13.0371 21.6855 12.4395 19.9512 12.3926 19.8809C12.3398 19.8105 12.1348 19.6992 11.9121 19.6289C11.3145 19.4355 10.4004 18.9785 9.80859 18.5859C7.69336 17.168 6.29883 15.0703 5.78906 12.5273C5.60156 11.584 5.60156 9.99023 5.78906 9.04102C6.3164 6.38672 7.83398 4.21289 10.166 2.75391C11.1738 2.12695 12.6152 1.62891 13.9102 1.46484C14.5781 1.38281 16.0547 1.44141 16.7578 1.57617Z" fill="black"/>
<path d="M13.8984 4.3125C11.7188 4.67578 9.83789 6.16406 8.9707 8.19727C8.87109 8.43164 8.78906 8.66016 8.78906 8.70703C8.78906 8.77734 9.5918 9.06445 9.63867 9.01172C9.64453 9 9.73242 8.80078 9.83203 8.57227C10.3711 7.27148 11.5723 6.09961 12.8965 5.57227C13.6699 5.26172 14.0625 5.19141 15 5.19141C15.9141 5.19141 16.3242 5.26172 17.0449 5.54297C18.75 6.2168 20.0684 7.75195 20.4727 9.5332C20.5723 9.9668 20.666 9.98438 19.6523 9.375L18.9902 8.9707L18.7734 9.33398C18.6504 9.5332 18.5449 9.71484 18.5332 9.73828C18.4922 9.81445 20.959 11.25 21.1289 11.25C21.2578 11.25 21.4746 11.0684 22.2773 10.2715C22.8164 9.73242 23.2617 9.26367 23.2617 9.22852C23.2617 9.15234 22.7227 8.61328 22.6406 8.61328C22.6113 8.61328 22.3359 8.86523 22.0371 9.16406L21.4805 9.7207L21.3516 9.19336C20.8828 7.35352 19.6641 5.8125 17.9824 4.95703C16.6934 4.30078 15.293 4.07812 13.8984 4.3125Z" fill="black"/>
<path d="M7.71094 11.3086L6.70898 12.3047L7.04297 12.6387L7.38281 12.9785L7.96875 12.3926C8.41992 11.9414 8.55469 11.8359 8.55469 11.9356C8.55469 12 8.625 12.293 8.70703 12.5742C9.90234 16.7109 14.6484 18.6035 18.3457 16.4238C19.2363 15.8965 20.0977 15.0469 20.6016 14.1914C20.8652 13.752 21.2109 12.9902 21.2109 12.8613C21.2109 12.8086 21.0645 12.7324 20.7949 12.6563C20.5664 12.5859 20.373 12.5391 20.3613 12.5508C20.3555 12.5625 20.2676 12.7617 20.168 12.9902C19.7695 13.957 18.8906 14.9766 17.9883 15.5391C17.4902 15.8496 16.8398 16.125 16.2539 16.2715C15.6973 16.4121 14.3027 16.4121 13.7461 16.2715C11.625 15.7383 9.99609 14.1035 9.52734 12.0293C9.42773 11.5957 9.33398 11.5781 10.3477 12.1934L11.0098 12.5918L11.2441 12.2051C11.373 11.9883 11.4668 11.7949 11.4551 11.7715C11.4375 11.7539 10.8926 11.4141 10.2363 11.0215C9.45703 10.5645 8.98242 10.3125 8.87695 10.3125C8.73633 10.3125 8.53125 10.4883 7.71094 11.3086Z" fill="black"/>
</svg>
