 <svg version="1.0" xmlns="http://www.w3.org/2000/svg"  width="18" height="18" viewBox="0 0 300.000000 300.000000"  preserveAspectRatio="xMidYMid meet">  <g transform="translate(0.000000,300.000000) scale(0.100000,-0.100000)" fill="#000000" stroke="none"> <path d="M168 2843 c-33 -38 -33 -716 -1 -749 11 -11 50 -14 174 -14 l159 0 0 -153 c0 -173 8 -197 62 -197 25 0 47 16 122 90 l92 90 112 0 111 0 142 -177 c78 -98 148 -185 156 -193 7 -8 108 -133 223 -278 l210 -263 0 -85 0 -85 90 -93 90 -93 0 -126 0 -127 -158 0 c-197 0 -192 3 -192 -127 0 -74 3 -93 18 -106 16 -15 79 -16 629 -16 602 0 611 1 630 21 17 19 18 43 16 370 -1 417 7 390 -118 388 -44 -1 -115 -1 -157 -1 l-78 1 0 155 c0 142 -2 157 -20 175 -38 38 -64 27 -164 -70 l-93 -90 -109 0 c-60 0 -114 4 -120 8 -6 4 -171 208 -368 454 l-357 447 -1 78 c0 44 -6 89 -13 103 -8 14 -48 59 -89 100 l-76 74 0 128 0 128 159 0 c198 0 191 -4 191 125 0 86 -2 95 -22 109 -20 14 -96 16 -629 16 -565 0 -607 -1 -621 -17z m1242 -110 l0 -93 -175 0 -175 0 0 -148 0 -147 90 -90 90 -90 0 -86 0 -86 373 -467 372 -466 126 0 126 0 89 90 c69 71 94 90 116 90 l28 0 0 -181 0 -180 175 2 176 2 0 -351 0 -352 -616 -3 -615 -2 0 93 0 92 175 0 175 0 0 148 0 147 -90 90 -90 90 0 86 0 86 -372 467 -373 466 -126 0 -126 0 -89 -90 c-69 -71 -94 -90 -116 -90 l-28 0 0 181 0 180 -175 -2 -176 -2 1 351 c0 194 0 353 0 355 0 1 277 2 615 2 l615 0 0 -92z"></path> <path d="M1582 2844 c-20 -14 -22 -24 -22 -103 0 -48 -3 -122 -6 -164 l-7 -77 -152 0 c-134 0 -154 -2 -168 -18 -36 -40 -23 -71 69 -163 l86 -87 -1 -87 c-1 -89 6 -110 58 -167 9 -10 24 -28 33 -40 13 -18 305 -383 365 -458 7 -8 43 -53 80 -100 144 -181 143 -180 204 -180 l53 0 89 90 90 90 128 0 129 0 0 -158 c0 -197 -3 -192 127 -192 72 0 93 3 104 17 12 13 14 165 14 893 0 849 -1 879 -19 899 -19 21 -22 21 -625 21 -533 0 -609 -2 -629 -16z m1241 -904 l2 -880 -92 0 -93 0 0 175 0 175 -149 0 -149 0 -84 -84 c-81 -83 -84 -84 -136 -87 l-53 -3 -329 412 -330 412 0 93 0 92 -85 85 c-66 66 -85 91 -85 112 l0 28 175 0 175 0 0 178 0 177 615 -2 615 -3 3 -880z"></path> <path d="M1922 2398 l-282 -283 150 3 150 4 0 -181 0 -181 265 0 265 0 0 181 0 181 150 -4 150 -3 -282 283 c-156 155 -283 282 -283 282 0 0 -127 -127 -283 -282z m533 -8 l240 -240 -109 0 c-144 0 -146 -2 -146 -124 0 -50 -3 -121 -7 -158 l-6 -68 -228 0 -229 0 0 153 c0 203 5 197 -143 197 l-112 0 240 240 c132 132 244 240 250 240 6 0 118 -108 250 -240z"></path> <path d="M2117 2381 c-79 -79 -80 -81 -62 -101 16 -18 30 -20 150 -20 182 0 192 13 93 117 -95 98 -87 98 -181 4z m158 -21 l69 -70 -141 0 -141 0 72 70 c39 38 71 70 71 70 0 0 32 -31 70 -70z"></path> <path d="M2107 2132 c-21 -23 -25 -190 -5 -210 19 -19 183 -16 202 4 25 24 23 185 -2 207 -28 25 -172 24 -195 -1z m183 -102 l0 -90 -87 0 -88 0 0 90 0 90 88 0 87 0 0 -90z"></path> <path d="M164 1956 c-19 -14 -19 -35 -19 -894 0 -846 1 -881 19 -901 18 -20 25 -20 629 -21 553 0 612 2 629 17 16 14 18 34 18 180 l0 163 165 0 c152 0 165 1 175 19 25 48 13 73 -75 161 l-85 85 0 85 c0 64 -4 92 -18 113 -44 70 -650 816 -670 826 -63 30 -112 8 -216 -98 l-69 -71 -129 0 -128 0 -1 98 c0 53 0 121 1 150 1 34 -4 62 -14 78 -15 22 -22 24 -104 24 -60 0 -94 -4 -108 -14z m196 -191 l0 -175 148 0 149 0 85 84 c82 82 86 84 137 87 l52 3 329 -412 330 -412 0 -93 0 -92 84 -84 c58 -57 85 -93 88 -112 l5 -29 -179 0 -178 0 0 -177 0 -178 -615 2 -615 3 -3 880 -2 880 93 0 92 0 0 -175z"></path> <path d="M515 990 l-280 -280 150 0 150 0 -3 -175 -3 -175 266 0 265 0 0 175 0 175 149 0 150 0 -281 280 c-154 154 -281 280 -281 280 -1 0 -128 -126 -282 -280z m525 -5 l241 -240 -108 -3 c-149 -4 -143 4 -143 -194 l0 -158 -229 0 -228 0 -6 68 c-4 37 -7 108 -7 159 0 123 0 123 -143 123 l-112 0 245 245 c134 134 245 243 247 242 1 -1 111 -110 243 -242z"></path> <path d="M712 977 c-112 -112 -102 -127 83 -127 118 0 134 2 149 19 17 19 17 21 -7 53 -35 45 -126 128 -141 128 -6 0 -44 -33 -84 -73z m163 -27 l69 -70 -142 0 c-78 0 -142 2 -142 4 0 6 134 136 140 136 3 0 37 -31 75 -70z"></path> <path d="M697 722 c-26 -28 -24 -182 1 -205 23 -21 181 -24 200 -5 8 8 12 47 12 110 0 117 -1 118 -118 118 -64 0 -82 -4 -95 -18z m188 -102 l0 -90 -87 0 -88 0 0 90 0 90 88 0 87 0 0 -90z"></path> </g> </svg> 