<svg width="100%" height="140" viewBox="0 0 375 120" fill="none" xmlns="http://www.w3.org/2000/svg">
					<path d="M115.5 120C260.475 120 378 4.71332 378 -137.5C378 -279.713 260.475 -395 115.5 -395C-29.4747 -395 -147 -279.713 -147 -137.5C-147 4.71332 -29.4747 120 115.5 120Z" fill="#fac32d60" />
					<path d="M262.5 101C407.475 101 525 -14.2867 525 -156.5C525 -298.713 407.475 -414 262.5 -414C117.525 -414 0 -298.713 0 -156.5C0 -14.2867 117.525 101 262.5 101Z" fill="#fac32d70" />
					<path d="M176.5 51C321.475 51 439 -64.2867 439 -206.5C439 -348.713 321.475 -464 176.5 -464C31.5253 -464 -86 -348.713 -86 -206.5C-86 -64.2867 31.5253 51 176.5 51Z" fill="#fac32d" />
				</svg>