<svg width="100%" height="74" viewBox="0 0 375 64" fill="none" xmlns="http://www.w3.org/2000/svg">
					<path d="M252.5 515C397.475 515 515 399.713 515 257.5C515 115.287 397.475 0 252.5 0C107.525 0 -10 115.287 -10 257.5C-10 399.713 107.525 515 252.5 515Z" fill="#fac32d50" />
					<path d="M102.5 515C247.475 515 365 399.713 365 257.5C365 115.287 247.475 0 102.5 0C-42.4747 0 -160 115.287 -160 257.5C-160 399.713 -42.4747 515 102.5 515Z" fill="#fac32d80" />
					<path d="M73.5 530C218.475 530 336 414.713 336 272.5C336 130.287 218.475 15 73.5 15C-71.4747 15 -189 130.287 -189 272.5C-189 414.713 -71.4747 530 73.5 530Z" fill="#fac32d" />
				</svg>