<svg width="42" height="42" viewBox="0 0 42 42" fill="none" xmlns="http://www.w3.org/2000/svg">
<rect width="42" height="42" rx="8" fill="#FA5D5D"/>
<g clip-path="url(#clip0)">
<path d="M30.4119 21.6291H29.7965C29.5283 17.5917 26.529 14.2802 22.6289 13.5636C22.7337 13.3387 22.7964 13.0216 22.7964 12.7574C22.7964 11.7884 22.0081 11 21.039 11C20.0699 11 19.2816 11.7884 19.2816 12.7574C19.2816 13.0216 19.3443 13.3387 19.4491 13.5636C15.549 14.2802 12.4715 17.5917 12.2035 21.6291H11.588C11.2642 21.6291 11.0021 21.8755 11.0021 22.1993C11.0021 22.5231 11.2641 22.7851 11.588 22.7851H30.4119C30.7357 22.7851 30.9978 22.5231 30.9978 22.1993C30.9978 21.8755 30.7357 21.6291 30.4119 21.6291ZM21.039 13.4122C20.7158 13.4122 20.4532 13.0807 20.4532 12.7574C20.4532 12.4342 20.7158 12.1716 21.039 12.1716C21.3622 12.1716 21.6248 12.4342 21.6248 12.7574C21.6248 13.0807 21.3622 13.4122 21.039 13.4122Z" fill="white"/>
<path d="M12.7596 25.1284C12.4315 25.1284 12.1738 25.3861 12.1738 25.7142V30.4098C12.1738 30.7378 12.4315 30.9956 12.7596 30.9956H14.517V25.1284H12.7596Z" fill="white"/>
<path d="M29.1717 24.6268C28.714 24.1692 27.9727 24.1692 27.515 24.6268L24.1603 27.9658C23.7401 28.3861 23.1871 28.6198 22.5968 28.6432H20.9922C20.671 28.6432 20.4064 28.4041 20.4064 28.0573C20.4064 27.7105 20.6709 27.4715 20.9922 27.4715C21.7323 27.4715 21.5952 27.4715 22.7965 27.4715C23.4409 27.4715 23.9681 26.9443 23.9681 26.2999C23.9681 25.6555 23.4409 25.1439 22.7965 25.1439H21.6249C21.4193 25.1439 21.2643 25.1513 21.0977 25.0033C20.8899 24.8215 20.6642 24.5947 20.4533 24.4605C19.2823 23.6339 17.589 23.4333 16.1768 24.1711C15.8768 24.3279 15.6887 24.6388 15.6887 24.9773V30.9956C23.1402 31.0056 22.4584 30.9955 22.503 30.9956C23.7548 30.9956 24.9321 30.5082 25.8171 29.6226L29.1717 26.268C29.6294 25.8103 29.6294 25.0845 29.1717 24.6268Z" fill="white"/>
</g>
<defs>
<clipPath id="clip0">
<rect width="20" height="20" fill="white" transform="translate(11 11)"/>
</clipPath>
</defs>
</svg>
