<svg width="23" height="22" viewBox="0 0 23 22" fill="none" xmlns="http://www.w3.org/2000/svg">
<path d="M5.37109 5.65625H5.87109V5.15625V0.644531C5.87109 0.58346 5.92809 0.5 6.04248 0.5C6.15687 0.5 6.21387 0.58346 6.21387 0.644531V0.661305V0.678029V0.694704V0.711331V0.727909V0.744438V0.76092V0.777353V0.793738V0.810076V0.826367V0.84261V0.858806V0.874956V0.891058V0.907115V0.923125V0.939088V0.955006V0.970879V0.986705V1.00249V1.01822V1.03391V1.04956V1.06516V1.08072V1.09624V1.1117V1.12713V1.14251V1.15785V1.17315V1.1884V1.20361V1.21878V1.2339V1.24899V1.26403V1.27903V1.29398V1.3089V1.32377V1.33861V1.3534V1.36815V1.38286V1.39753V1.41217V1.42676V1.44131V1.45582V1.47029V1.48473V1.49912V1.51348V1.52779V1.54207V1.55631V1.57052V1.58468V1.59881V1.6129V1.62695V1.64097V1.65495V1.66889V1.68279V1.69666V1.7105V1.72429V1.73806V1.75178V1.76547V1.77913V1.79275V1.80634V1.81989V1.83341V1.84689V1.86034V1.87376V1.88714V1.90049V1.9138V1.92709V1.94034V1.95355V1.96674V1.97989V1.99301V2.0061V2.01916V2.03219V2.04518V2.05815V2.07108V2.08398V2.09685V2.10969V2.12251V2.13529V2.14804V2.16076V2.17346V2.18612V2.19876V2.21136V2.22394V2.23649V2.24901V2.2615V2.27397V2.28641V2.29882V2.3112V2.32356V2.33589V2.34819V2.36047V2.37272V2.38494V2.39714V2.40932V2.42146V2.43359V2.44568V2.45776V2.4698V2.48183V2.49383V2.5058V2.51775V2.52968V2.54158V2.55346V2.56532V2.57716V2.58897V2.60076V2.61252V2.62427V2.63599V2.64769V2.65937V2.67103V2.68267V2.69428V2.70588V2.71745V2.72901V2.74054V2.75205V2.76355V2.77502V2.78648V2.79791V2.80933V2.82072V2.8321V2.84346V2.85481V2.86613V2.87743V2.88872V2.89999V2.91125V2.92248V2.9337V2.9449V2.95609V2.96726V2.97841V2.98955V3.00067V3.01178V3.02287V3.03394V3.045V3.05605V3.06708V3.0781V3.0891V3.10009V3.11106V3.12202V3.13297V3.1439V3.15482V3.16573V3.17662V3.18751V3.19837V3.20923V3.22008V3.23091V3.24174V3.25255V3.26335V3.27414V3.28491V3.29568V3.30644V3.31719V3.32792V3.33865V3.34937V3.36008V3.37078V3.38147V3.39215V3.40282V3.41348V3.42414V3.43479V3.44543V3.45606V3.46668V3.4773V3.48791V3.49851V3.50911V3.5197V3.53028V3.54086V3.55143V3.562V3.57256V3.58311V3.59366V3.6042V3.61474V3.62528V3.63581V3.64634V3.65686V3.66738V3.67789V3.6884V3.69891V3.70941V3.71992V3.73042V3.74091V3.75141V3.7619V3.77239V3.78288V3.79337V3.80385V3.81434V3.82482V3.83531V3.84579V3.85627V3.86675V3.87723V3.88772V3.8982V3.90868V3.91917V3.92965V3.94014V3.95062V3.96111V3.9716V3.9821V3.99259V4.00309V4.01359V4.02409V4.0346V4.04511V4.05562V4.06613V4.07665V4.08717V4.0977V4.10823V4.11877V4.12931V4.13985V4.1504V4.16096V4.17152V4.18209V4.19266V4.20324V4.21382V4.22441V4.23501V4.24561V4.25622V4.26684V4.27747V4.2881V4.29874V4.30939V4.32005V4.33071V4.34138V4.35207V4.36276V4.37346V4.38417V4.39489V4.40562V4.41635V4.4271V4.43786V4.44863V4.45941V4.4702V4.481V4.49181V4.50264V4.51347V4.52432V4.53518V4.54605V4.55694V4.56783V4.57874V4.58967V4.6006V4.61155V4.62251V4.63349V4.64448V4.65548V4.6665V4.67753V4.68858V4.69964V4.71072V4.72181V4.73292V4.74404V4.75518V4.76634V4.77751V4.7887V4.7999V4.81112V4.82236V4.83362V4.84489V4.85618V4.86749V4.87882V4.89016V4.90152V4.9129V4.9243V4.93572V4.94716V4.95862V4.9701V4.98159V4.99311V5.00464V5.0162V5.02778V5.03938V5.05099V5.06263V5.0743V5.08598V5.09768V5.10941V5.12116V5.13293V5.14472V5.15653V5.16837V5.18023V5.19211V5.20402V5.21595V5.22791V5.23988V5.25189V5.26391V5.27597V5.28804V5.30014V5.31227V5.32442V5.3366V5.3488V5.36103V5.37328V5.38556V5.39787V5.4102V5.42256V5.43495V5.44736V5.45981V5.47228V5.48477V5.4973V5.50985V5.52243V5.53504V5.54768V5.56035V5.57305V5.58577V5.59853V5.61132V5.62413V5.63698V5.64985V5.66276V5.6757V5.68867V5.70167V5.7147V5.72776V5.74085V5.75398V5.76713V5.78032V5.79355V5.8068V5.82009V5.83341V5.84676V5.86015V5.87357V5.88702V5.90051V5.91404V5.92759V5.94118V5.95481V5.96847V5.98217V5.9959V6.00966V6.02347V6.03731V6.05118V6.06509V6.07904V6.09302V6.10704V6.1211V6.1352V6.14933V6.1635V6.17771V6.19195V6.20624V6.22056V6.23492V6.24932V6.26376V6.27824V6.29275V6.30731V6.32191V6.33654V6.35122V6.36594V6.3807V6.39549V6.41033V6.42521V6.44013V6.4551V6.4701V6.48515V6.50024V6.51537V6.53054V6.54576V6.56102V6.57632V6.59166V6.60705V6.62248V6.63796V6.65348V6.66904V6.68465V6.7003V6.716V6.73174V6.74753V6.76336V6.77924V6.79517V6.81114V6.82715V6.84322V6.85933V6.87548V6.89168V6.90793V6.92423V6.94058V6.95697V6.97341V6.9899V7.00643V7.02302V7.03965V7.05633V7.07306V7.08984C6.21387 7.87494 5.53923 8.56641 4.69971 8.56641H2.01416C1.17464 8.56641 0.5 7.87494 0.5 7.08984V7.07307V7.05634V7.03967V7.02304V7.00646V6.98993V6.97345V6.95701V6.94062V6.92428V6.90799V6.89175V6.87555V6.8594V6.8433V6.82724V6.81122V6.79526V6.77934V6.76346V6.74764V6.73185V6.71611V6.70042V6.68477V6.66917V6.65361V6.63809V6.62262V6.60719V6.5918V6.57646V6.56116V6.54591V6.5307V6.51553V6.5004V6.48531V6.47027V6.45527V6.44031V6.42539V6.41051V6.39567V6.38088V6.36612V6.35141V6.33673V6.3221V6.30751V6.29295V6.27844V6.26396V6.24952V6.23512V6.22077V6.20644V6.19216V6.17792V6.16371V6.14954V6.13541V6.12132V6.10726V6.09324V6.07926V6.06531V6.0514V6.03753V6.02369V6.00989V5.99612V5.98239V5.9687V5.95504V5.94141V5.92782V5.91427V5.90074V5.88726V5.8738V5.86038V5.84699V5.83364V5.82032V5.80703V5.79378V5.78056V5.76737V5.75421V5.74108V5.72799V5.71493V5.7019V5.6889V5.67593V5.66299V5.65008V5.63721V5.62436V5.61155V5.59876V5.586V5.57327V5.56058V5.54791V5.53527V5.52266V5.51007V5.49752V5.48499V5.47249V5.46002V5.44758V5.43516V5.42277V5.41041V5.39808V5.38577V5.37349V5.36123V5.349V5.3368V5.32462V5.31247V5.30034V5.28824V5.27616V5.26411V5.25208V5.24007V5.22809V5.21614V5.2042V5.19229V5.18041V5.16855V5.15671V5.14489V5.13309V5.12132V5.10957V5.09784V5.08614V5.07445V5.06279V5.05115V5.03953V5.02793V5.01635V5.00479V4.99325V4.98173V4.97023V4.95875V4.94729V4.93585V4.92443V4.91302V4.90164V4.89028V4.87893V4.8676V4.85629V4.84499V4.83372V4.82246V4.81122V4.79999V4.78879V4.7776V4.76642V4.75526V4.74412V4.73299V4.72188V4.71079V4.6997V4.68864V4.67759V4.66655V4.65553V4.64452V4.63353V4.62255V4.61159V4.60063V4.58969V4.57877V4.56786V4.55696V4.54607V4.53519V4.52433V4.51348V4.50264V4.49181V4.481V4.47019V4.4594V4.44861V4.43784V4.42708V4.41633V4.40558V4.39485V4.38413V4.37342V4.36271V4.35202V4.34133V4.33065V4.31998V4.30932V4.29867V4.28803V4.27739V4.26676V4.25614V4.24552V4.23492V4.22432V4.21372V4.20313V4.19255V4.18198V4.17141V4.16084V4.15028V4.13973V4.12918V4.11863V4.1081V4.09756V4.08703V4.0765V4.06598V4.05546V4.04495V4.03443V4.02392V4.01342V4.00291V3.99241V3.98191V3.97142V3.96092V3.95043V3.93994V3.92945V3.91896V3.90847V3.89798V3.8875V3.87701V3.86653V3.85604V3.84555V3.83507V3.82458V3.81409V3.80361V3.79312V3.78262V3.77213V3.76164V3.75114V3.74064V3.73014V3.71964V3.70913V3.69863V3.68811V3.6776V3.66708V3.65656V3.64603V3.6355V3.62497V3.61443V3.60389V3.59334V3.58279V3.57223V3.56166V3.5511V3.54052V3.52994V3.51935V3.50876V3.49816V3.48755V3.47694V3.46632V3.45569V3.44506V3.43442V3.42376V3.41311V3.40244V3.39176V3.38108V3.37039V3.35968V3.34897V3.33825V3.32752V3.31678V3.30603V3.29527V3.2845V3.27372V3.26293V3.25213V3.24131V3.23049V3.21965V3.2088V3.19794V3.18707V3.17618V3.16528V3.15437V3.14345V3.13252V3.12157V3.1106V3.09963V3.08864V3.07763V3.06661V3.05558V3.04453V3.03347V3.02239V3.0113V3.00019V2.98907V2.97793V2.96678V2.9556V2.94442V2.93321V2.92199V2.91075V2.8995V2.88823V2.87694V2.86563V2.8543V2.84296V2.8316V2.82022V2.80882V2.7974V2.78596V2.77451V2.76303V2.75154V2.74002V2.72849V2.71693V2.70536V2.69376V2.68215V2.67051V2.65885V2.64717V2.63547V2.62374V2.612V2.60023V2.58844V2.57663V2.56479V2.55294V2.54105V2.52915V2.51722V2.50527V2.4933V2.4813V2.46927V2.45722V2.44515V2.43305V2.42093V2.40878V2.39661V2.38441V2.37219V2.35994V2.34766V2.33536V2.32303V2.31067V2.29829V2.28588V2.27344V2.26098V2.24849V2.23596V2.22342V2.21084V2.19823V2.1856V2.17294V2.16024V2.14752V2.13477V2.12199V2.10918V2.09634V2.08347V2.07057V2.05764V2.04468V2.03168V2.01866V2.0056V1.99252V1.9794V1.96625V1.95306V1.93985V1.9266V1.91332V1.90001V1.88666V1.87328V1.85987V1.84642V1.83294V1.81943V1.80588V1.79229V1.77868V1.76502V1.75133V1.73761V1.72385V1.71006V1.69623V1.68236V1.66846V1.65452V1.64055V1.62653V1.61249V1.5984V1.58428V1.57012V1.55592V1.54168V1.52741V1.51309V1.49874V1.48435V1.46992V1.45546V1.44095V1.4264V1.41182V1.39719V1.38252V1.36782V1.35307V1.33828V1.32346V1.30859V1.29368V1.27873V1.26373V1.2487V1.23362V1.2185V1.20334V1.18814V1.17289V1.1576V1.14227V1.12689V1.11147V1.09601V1.0805V1.06495V1.04936V1.03372V1.01803V1.0023V0.98653V0.970711V0.954846V0.938936V0.92298V0.906977V0.890929V0.874834V0.858693V0.842505V0.82627V0.809988V0.793658V0.777281V0.760857V0.744384V0.727863V0.711294V0.694677V0.67801V0.661295V0.644531C0.5 0.58346 0.556998 0.5 0.671387 0.5C0.785775 0.5 0.842773 0.58346 0.842773 0.644531V5.15625V5.65625H1.34277H2.68555H3.18555V5.15625V0.644531C3.18555 0.58346 3.24254 0.5 3.35693 0.5C3.47132 0.5 3.52832 0.58346 3.52832 0.644531V5.15625V5.65625H4.02832H5.37109Z" stroke="#ACACAC"/>
<path d="M11.4583 18.5898C13.8572 18.5898 16.0502 17.5486 17.5041 15.9072C17.7276 15.9735 17.9663 16.0117 18.217 16.0117H18.3883V17.3525C16.6443 19.0874 14.1651 20.2109 11.4583 20.2109C9.67487 20.2109 7.97293 19.7369 6.54248 18.925V16.9538C7.89745 17.9778 9.62047 18.5898 11.4583 18.5898Z" stroke="#ACACAC"/>
<path d="M8.55664 3.8826V2.21598C9.46781 1.94301 10.4608 1.78906 11.4583 1.78906C13.3496 1.78906 15.144 2.31861 16.6305 3.22261C16.3989 3.7264 16.2128 4.24832 16.069 4.78219C14.768 3.89249 13.159 3.36719 11.4583 3.36719C10.462 3.36719 9.46777 3.54517 8.55664 3.8826Z" stroke="#ACACAC"/>
<path d="M22.3326 0.52036L22.3337 0.520879C22.392 0.550818 22.4167 0.601528 22.4167 0.64444V0.703578V0.762476V0.821137V0.879562V0.937751V0.995704V1.05342V1.11091V1.16817V1.22519V1.28198V1.33855V1.39488V1.45099V1.50688V1.56253V1.61797V1.67318V1.72816V1.78293V1.83747V1.8918V1.9459V1.99979V2.05346V2.10692V2.16016V2.21318V2.266V2.3186V2.37099V2.42317V2.47514V2.5269V2.57845V2.6298V2.68094V2.73188V2.78261V2.83314V2.88347V2.9336V2.98353V3.03326V3.08279V3.13212V3.18126V3.23021V3.27895V3.32751V3.37587V3.42405V3.47203V3.51982V3.56742V3.61484V3.66207V3.70911V3.75597V3.80264V3.84913V3.89544V3.94157V3.98752V4.03329V4.07888V4.1243V4.16953V4.2146V4.25949V4.3042V4.34874V4.39311V4.43731V4.48134V4.5252V4.5689V4.61242V4.65579V4.69898V4.74201V4.78488V4.82759V4.87014V4.91252V4.95475V4.99682V5.03873V5.08048V5.12208V5.16352V5.20481V5.24595V5.28694V5.32777V5.36846V5.40899V5.44938V5.48962V5.52972V5.56967V5.60947V5.64914V5.68866V5.72804V5.76727V5.80637V5.84533V5.88416V5.92284V5.9614V5.99981V6.03809V6.07624V6.11426V6.15215V6.1899V6.22753V6.26503V6.3024V6.33965V6.37677V6.41377V6.45064V6.48739V6.52402V6.56053V6.59692V6.63319V6.66934V6.70538V6.7413V6.7771V6.81279V6.84837V6.88384V6.91919V6.95443V6.98957V7.0246V7.05952V7.09433V7.12904V7.16364V7.19814V7.23254V7.26683V7.30103V7.33512V7.36912V7.40302V7.43682V7.47053V7.50414V7.53765V7.57107V7.60441V7.63765V7.67079V7.70385V7.73682V7.76971V7.80251V7.83522V7.86784V7.90039V7.93285V7.96523V7.99752V8.02974V8.06188V8.09394V8.12593V8.15783V8.18966V8.22142V8.25311V8.28472V8.31626V8.34773V8.37913V8.41046V8.44173V8.47292V8.50406V8.53512V8.56613V8.59707V8.62794V8.65876V8.68952V8.72021V8.75085V8.78144V8.81196V8.84243V8.87285V8.90321V8.93352V8.96378V8.99399V9.02415V9.05425V9.08432V9.11433V9.1443V9.17422V9.2041V9.23394V9.26373V9.29348V9.3232V9.35287V9.3825V9.4121V9.44166V9.47119V9.50068V9.53014V9.55956V9.58895V9.61831V9.64765V9.67695V9.70622V9.73547V9.76469V9.79389V9.82306V9.85221V9.88134V9.91044V9.93953V9.96859V9.99764V10.0267V10.0557V10.0847V10.1137V10.1426V10.1716V10.2005V10.2295V10.2584V10.2873V10.3162V10.3451V10.374V10.4029V10.4318V10.4606V10.4895V10.5184V10.5473V10.5761V10.605V10.6339V10.6628V10.6916V10.7205V10.7494V10.7783V10.8072V10.8362V10.8651V10.894V10.923V10.9519V10.9809V11.0099V11.0389V11.0679V11.097V11.126V11.1551V11.1842V11.2133V11.2425V11.2717V11.3008V11.3301V11.3593V11.3886V11.4179V11.4472V11.4765V11.5059V11.5353V11.5648V11.5943V11.6238V11.6533V11.6829V11.7125V11.7422V11.7719V11.8016V11.8314V11.8612V11.8911V11.921V11.951V11.981V12.011V12.0411V12.0713V12.1014V12.1317V12.162V12.1923V12.2227V12.2532V12.2837V12.3143V12.3449V12.3756V12.4063V12.4371V12.468V12.4989V12.5299V12.5609V12.592V12.6232V12.6544V12.6857V12.7171V12.7486V12.7801V12.8117V12.8433V12.8751V12.9069V12.9388V12.9707V13.0028V13.0349V13.0671V13.0994V13.1317V13.1641V13.1967V13.2293V13.2619V13.2947V13.3276V13.3605V13.3936V13.4267V13.4599V13.4932V13.5266V13.5601V13.5937V13.6273V13.6611V13.695V13.7289V13.763V13.7972V13.8314V13.8658V13.9003V13.9348V13.9695V14.0043V14.0392V14.0742V14.1093V14.1445V14.1798V14.2152V14.2508V14.2864V14.3222V14.3581V14.3941V14.4302V14.4664V14.5028V14.5393V14.5759V14.6126V14.6494V14.6864V14.7235V14.7607V14.798V14.8355V14.873V14.9108V14.9486V14.9866V15.0247V15.0629V15.1013V15.1398V15.1785V15.2172V15.2562V15.2952V15.3344V15.3738V15.4132V15.4528V15.4926V15.5325V15.5726V15.6128V15.6531V15.6936V15.7342V15.775V15.816V15.8571V15.8983V15.9397V15.9812V16.023V16.0648V16.1068V16.149V16.1914V16.2338V16.2765V16.3193V16.3623V16.4055V16.4488V16.4922V16.5359V16.5797V16.6237V16.6678V16.7121V16.7566V16.8013V16.8461V16.8911V16.9363V16.9817V17.0272V17.0729V17.1188V17.1649V17.2112V17.2576V17.3042V17.351V17.398V17.4452V17.4925V17.5401V17.5878V17.6357V17.6838V17.7321V17.7806V17.8293V17.8782V17.9273V17.9766V18.026V18.0757V18.1256V18.1756V18.2259V18.2764V18.3271V18.3779V18.429V18.4803V18.5318V18.5835V18.6354V18.6875V18.7398V18.7924V18.8451V18.8981V18.9512V19.0046V19.0582V19.1121V19.1661V19.2204V19.2748V19.3295V19.3845V19.4396V19.495V19.5505V19.6064V19.6624V19.7187V19.7752V19.8319V19.8888V19.946V20.0034V20.0611V20.119V20.1771V20.2354V20.294V20.3529V20.4119V20.4712V20.5308V20.5905V20.6506V20.7108C22.4167 21.1275 22.0588 21.4999 21.5739 21.4999C21.089 21.4999 20.7311 21.1275 20.7311 20.7108V14.2226V13.7226H20.2311H18.217C18.1026 13.7226 18.0456 13.6391 18.0456 13.578V7.36166C18.0456 4.78522 19.2118 2.4051 22.1418 0.52967C22.1992 0.493327 22.2749 0.49056 22.3326 0.52036Z" stroke="#ACACAC"/>
<path d="M2.51416 20.7109V10.8555H4.19971V20.7109C4.19971 21.1276 3.84182 21.5 3.35693 21.5C2.87205 21.5 2.51416 21.1276 2.51416 20.7109Z" stroke="#ACACAC"/>
</svg>
