<svg width="14" height="14" viewBox="0 0 14 14" fill="none" xmlns="http://www.w3.org/2000/svg">
<g opacity="0.85">
<path d="M12.25 5.8335C12.25 9.91683 7 13.4168 7 13.4168C7 13.4168 1.75 9.91683 1.75 5.8335C1.75 4.44111 2.30312 3.10575 3.28769 2.12119C4.27226 1.13662 5.60761 0.583496 7 0.583496C8.39239 0.583496 9.72774 1.13662 10.7123 2.12119C11.6969 3.10575 12.25 4.44111 12.25 5.8335Z" fill="#D60000"/>
<path d="M7 8.4585C8.44975 8.4585 9.625 7.28324 9.625 5.8335C9.625 4.38375 8.44975 3.2085 7 3.2085C5.55025 3.2085 4.375 4.38375 4.375 5.8335C4.375 7.28324 5.55025 8.4585 7 8.4585Z" fill="white" stroke="#D60000" stroke-linecap="round" stroke-linejoin="round"/>
</g>
</svg>
