<svg width="14" height="14" viewBox="0 0 14 14" fill="none" xmlns="http://www.w3.org/2000/svg">
<g clip-path="url(#clip0)">
<path d="M13.0692 7.18139C13.0129 7.06614 13.0129 6.93396 13.0692 6.81874L13.5913 5.75056C13.8821 5.15581 13.6517 4.44692 13.0669 4.13665L12.0167 3.57939C11.9034 3.51929 11.8257 3.41232 11.8035 3.28602L11.5981 2.11492C11.4837 1.46288 10.8806 1.02473 10.2252 1.11745L9.04802 1.28397C8.92095 1.30191 8.79531 1.26106 8.70313 1.17189L7.84862 0.345237C7.37281 -0.115065 6.62742 -0.115093 6.15165 0.345237L5.2971 1.17197C5.2049 1.26117 5.07926 1.30194 4.95222 1.28405L3.775 1.11753C3.11943 1.02475 2.51651 1.46296 2.40213 2.115L2.19672 3.28605C2.17455 3.41237 2.09686 3.51932 1.98358 3.57944L0.933313 4.13671C0.348543 4.44695 0.118201 5.15589 0.408918 5.75064L0.931044 6.81879C0.987371 6.93404 0.987371 7.06622 0.931044 7.18145L0.40889 8.2496C0.118173 8.84435 0.348516 9.55324 0.933286 9.86351L1.98355 10.4208C2.09686 10.4809 2.17455 10.5878 2.19672 10.7141L2.40213 11.8852C2.50625 12.4788 3.01523 12.8951 3.60019 12.895C3.6578 12.895 3.71626 12.891 3.77502 12.8827L4.95225 12.7162C5.0792 12.6981 5.20493 12.7391 5.29713 12.8282L6.15165 13.6549C6.38959 13.8851 6.6948 14.0001 7.00012 14.0001C7.30535 14.0001 7.61075 13.885 7.84859 13.6549L8.70313 12.8282C8.79533 12.7391 8.921 12.6983 9.04802 12.7162L10.2252 12.8827C10.8809 12.9754 11.4837 12.5372 11.5981 11.8852L11.8035 10.7142C11.8257 10.5878 11.9034 10.4809 12.0167 10.4208L13.0669 9.86351C13.6517 9.55326 13.8821 8.84433 13.5913 8.24957L13.0692 7.18139ZM5.38518 3.36649C6.20144 3.36649 6.86553 4.03059 6.86553 4.84685C6.86553 5.66311 6.20144 6.32721 5.38518 6.32721C4.56892 6.32721 3.90482 5.66311 3.90482 4.84685C3.90482 4.03059 4.56892 3.36649 5.38518 3.36649ZM4.62109 9.95002C4.54226 10.0289 4.43893 10.0683 4.33562 10.0683C4.23232 10.0683 4.12896 10.0289 4.05015 9.95002C3.89249 9.79236 3.89249 9.53672 4.05015 9.37906L9.37912 4.05008C9.53675 3.89242 9.79242 3.89242 9.95008 4.05008C10.1077 4.20775 10.1077 4.46338 9.95008 4.62105L4.62109 9.95002ZM8.615 10.6337C7.79874 10.6337 7.13465 9.96957 7.13465 9.15331C7.13465 8.33705 7.79874 7.67295 8.615 7.67295C9.43126 7.67295 10.0954 8.33705 10.0954 9.15331C10.0954 9.96957 9.43126 10.6337 8.615 10.6337Z" fill="#FAC32D"/>
<path d="M8.61476 8.48047C8.24374 8.48047 7.94186 8.78231 7.94186 9.15334C7.94186 9.52436 8.24371 9.82621 8.61476 9.82621C8.98579 9.82621 9.28763 9.52436 9.28763 9.15334C9.28763 8.78231 8.98579 8.48047 8.61476 8.48047Z" fill="#FAC32D"/>
<path d="M5.38506 4.17383C5.01403 4.17383 4.71219 4.47567 4.71219 4.8467C4.71219 5.21772 5.01403 5.5196 5.38506 5.5196C5.75609 5.5196 6.05796 5.21775 6.05796 4.8467C6.05793 4.4757 5.75609 4.17383 5.38506 4.17383Z" fill="#FAC32D"/>
</g>
<defs>
<clipPath id="clip0">
<rect width="14" height="14" fill="white"/>
</clipPath>
</defs>
</svg>
