<svg width="10" height="10" viewBox="0 0 10 10" fill="none" xmlns="http://www.w3.org/2000/svg">
<path d="M9.47864 3.79575L9.47891 3.79577C9.52226 3.79985 9.57167 3.83218 9.59183 3.89725L9.97379 3.77892L9.59196 3.89768C9.61287 3.9649 9.59139 4.03371 9.54834 4.07302L9.54802 4.07331L7.36635 6.06947L7.19659 6.22479L7.24551 6.44962L7.88879 9.40651C7.90401 9.47666 7.876 9.54175 7.83173 9.57523L7.83169 9.57526C7.79071 9.60626 7.74179 9.60739 7.70148 9.58208L7.70054 9.58149L5.21177 8.02878L5.00008 7.89671L4.78837 8.02875L2.29869 9.58146L2.29851 9.58157C2.27696 9.59503 2.25643 9.6 2.23791 9.6C2.21615 9.6 2.1918 9.59323 2.1675 9.57493C2.12391 9.54206 2.09555 9.47739 2.11084 9.40648C2.11085 9.40643 2.11086 9.40638 2.11088 9.40633L2.75412 6.44962L2.80302 6.22482L2.63331 6.0695L0.45163 4.07294L0.450882 4.07226C0.40885 4.03399 0.387031 3.96535 0.408056 3.89788C0.428473 3.83236 0.477834 3.8 0.52145 3.7957C0.521521 3.79569 0.521593 3.79569 0.521664 3.79568L3.40771 3.52227L3.64849 3.49946L3.74015 3.27564L4.88126 0.489056C4.88129 0.488987 4.88132 0.488919 4.88135 0.48885C4.90716 0.426258 4.9578 0.4 5.00004 0.4C5.04243 0.4 5.0931 0.426427 5.11883 0.488616C5.11887 0.488705 5.11891 0.488794 5.11894 0.488883L6.25992 3.27562L6.35157 3.49946L6.59237 3.52227L9.47864 3.79575Z" stroke="black" stroke-opacity="0.4" stroke-width="0.8"/>
</svg>
