<svg width="14" height="14" viewBox="0 0 14 14" fill="none" xmlns="http://www.w3.org/2000/svg">
<g opacity="0.85">
<path d="M12.8334 9.86988V11.6199C12.834 11.7823 12.8008 11.9431 12.7357 12.092C12.6706 12.2408 12.5751 12.3745 12.4554 12.4843C12.3357 12.5941 12.1944 12.6777 12.0405 12.7298C11.8866 12.7818 11.7235 12.8012 11.5617 12.7865C9.76671 12.5915 8.04247 11.9781 6.52756 10.9957C5.11813 10.1001 3.92317 8.90515 3.02756 7.49571C2.04172 5.97392 1.4282 4.2413 1.23673 2.43822C1.22215 2.27691 1.24132 2.11434 1.29302 1.96084C1.34472 1.80734 1.42781 1.66629 1.53701 1.54667C1.64621 1.42705 1.77912 1.33147 1.92727 1.26603C2.07543 1.20059 2.23559 1.16671 2.39756 1.16656H4.14756C4.43066 1.16377 4.70511 1.26402 4.91975 1.44862C5.1344 1.63322 5.27461 1.88957 5.31423 2.16989C5.38809 2.72993 5.52507 3.27981 5.72256 3.80906C5.80104 4.01784 5.81803 4.24475 5.77151 4.4629C5.72498 4.68105 5.6169 4.88128 5.46006 5.03989L4.71923 5.78072C5.54963 7.24112 6.75882 8.4503 8.21923 9.28071L8.96006 8.53988C9.11866 8.38304 9.3189 8.27496 9.53704 8.22843C9.75519 8.18191 9.9821 8.1989 10.1909 8.27738C10.7201 8.47487 11.27 8.61185 11.8301 8.68571C12.1134 8.72569 12.3722 8.86841 12.5572 9.08675C12.7422 9.30508 12.8405 9.5838 12.8334 9.86988Z" fill="#2767C8"/>
</g>
</svg>
