<svg width="20" height="20" viewBox="0 0 20 20" fill="none" xmlns="http://www.w3.org/2000/svg">
<g clip-path="url(#clip0)">
<path d="M19.4119 10.6291H18.7965C18.5283 6.59169 15.529 3.28024 11.6289 2.56364C11.7337 2.33868 11.7964 2.02157 11.7964 1.75743C11.7964 0.788361 11.0081 0 10.039 0C9.06993 0 8.28157 0.788361 8.28157 1.75743C8.28157 2.02157 8.3443 2.33868 8.44911 2.56364C4.54898 3.28024 1.47151 6.59165 1.20347 10.6291H0.587958C0.264168 10.6291 0.00213623 10.8755 0.00213623 11.1993C0.00213623 11.5231 0.264129 11.7851 0.587958 11.7851H19.4119C19.7357 11.7851 19.9978 11.5231 19.9978 11.1993C19.9978 10.8755 19.7357 10.6291 19.4119 10.6291ZM10.039 2.41219C9.71579 2.41219 9.45317 2.08067 9.45317 1.75743C9.45317 1.43418 9.71579 1.1716 10.039 1.1716C10.3622 1.1716 10.6248 1.43418 10.6248 1.75743C10.6248 2.08067 10.3622 2.41219 10.039 2.41219Z" fill="white"/>
<path d="M1.75959 14.1284C1.4315 14.1284 1.17377 14.3861 1.17377 14.7142V19.4098C1.17377 19.7378 1.4315 19.9956 1.75959 19.9956H3.51701V14.1284H1.75959Z" fill="white"/>
<path d="M18.1717 13.6268C17.714 13.1692 16.9727 13.1692 16.515 13.6268L13.1603 16.9658C12.7401 17.3861 12.1871 17.6198 11.5968 17.6432H9.99225C9.67096 17.6432 9.40643 17.4041 9.40643 17.0573C9.40643 16.7105 9.67092 16.4715 9.99225 16.4715C10.7323 16.4715 10.5952 16.4715 11.7965 16.4715C12.4409 16.4715 12.9681 15.9443 12.9681 15.2999C12.9681 14.6555 12.4409 14.1439 11.7965 14.1439H10.6249C10.4193 14.1439 10.2643 14.1513 10.0977 14.0033C9.88994 13.8215 9.66424 13.5947 9.4533 13.4605C8.28232 12.6339 6.589 12.4333 5.17685 13.1711C4.87681 13.3279 4.68872 13.6388 4.68872 13.9773V19.9956C12.1402 20.0056 11.4584 19.9955 11.503 19.9956C12.7548 19.9956 13.9321 19.5082 14.8171 18.6226L18.1717 15.268C18.6294 14.8103 18.6294 14.0845 18.1717 13.6268Z" fill="white"/>
</g>
<defs>
<clipPath id="clip0">
<rect width="20" height="20" fill="white"/>
</clipPath>
</defs>
</svg>
