<svg width="18" height="18" viewBox="0 0 18 18" fill="none" xmlns="http://www.w3.org/2000/svg">
<path d="M12.6493 15.0926L9 14.0379L5.35075 15.0926C5.31914 15.1559 5.30859 15.2192 5.30859 15.293V17.4727H12.6914V15.293C12.6914 15.2192 12.6809 15.1559 12.6493 15.0926Z" fill="#646D73"/>
<path d="M12.6914 17.4727V15.293C12.6914 15.2192 12.6809 15.1559 12.6493 15.0926L9 14.0379V17.4727H12.6914Z" fill="#474F54"/>
<path d="M17.4727 1.05469H14.7781C14.7827 0.876551 14.8008 0.70875 14.8008 0.527344C14.8008 0.231996 14.5688 0 14.2734 0H3.72656C3.43121 0 3.19922 0.231996 3.19922 0.527344C3.19922 0.70875 3.21725 0.876551 3.22182 1.05469H0.527344C0.235863 1.05469 0 1.29055 0 1.58203V2.9179C0 5.86237 2.3587 8.2543 5.26546 8.40829C5.87102 9.24205 6.58972 9.8608 7.40742 10.2094C7.28086 12.7723 5.81484 14.5547 5.46683 14.9239C5.41406 14.966 5.37187 15.0293 5.35078 15.0926H12.6493C12.6281 15.0293 12.586 14.966 12.5332 14.9239C12.1746 14.5547 10.7191 12.7828 10.5926 10.2094C11.4105 9.86073 12.1335 9.24184 12.7395 8.40776C15.6438 8.25128 18 5.86072 18 2.9179V1.58203C18 1.29055 17.7641 1.05469 17.4727 1.05469ZM1.05469 2.9179V2.10938H3.26707C3.40393 3.85235 3.7819 5.69834 4.57629 7.26708C2.58504 6.81866 1.05469 5.04292 1.05469 2.9179ZM16.9453 2.9179C16.9453 5.04183 15.4163 6.81673 13.4266 7.26616C14.2147 5.69746 14.5947 3.86933 14.7329 2.10938H16.9453V2.9179Z" fill="#FFC107"/>
<path d="M17.4727 1.05469H14.7781C14.7827 0.876551 14.8008 0.70875 14.8008 0.527344C14.8008 0.231996 14.5688 0 14.2734 0H9V15.0926H12.6493C12.6281 15.0293 12.586 14.966 12.5332 14.9239C12.1746 14.5547 10.7191 12.7828 10.5926 10.2094C11.4105 9.86073 12.1335 9.24184 12.7395 8.40776C15.6438 8.25128 18 5.86072 18 2.9179V1.58203C18 1.29055 17.7641 1.05469 17.4727 1.05469ZM16.9453 2.9179C16.9453 5.04183 15.4163 6.81673 13.4266 7.26616C14.2147 5.69746 14.5948 3.86933 14.7329 2.10938H16.9453V2.9179Z" fill="#FFC107"/>
<path d="M9.84142 6.70768L8.99992 6.27044L8.15842 6.70768C7.98229 6.79831 7.76703 6.78337 7.60535 6.66648C7.44363 6.54905 7.36227 6.35028 7.39522 6.15355L7.54973 5.21677L6.87511 4.55091C6.72827 4.40776 6.68337 4.19552 6.74328 4.01225C6.80508 3.82272 6.96884 3.68368 7.1666 3.65383L8.10386 3.51271L8.5282 2.66453C8.70742 2.30713 9.29242 2.30713 9.47165 2.66453L9.89599 3.51271L10.8333 3.65383C11.031 3.68371 11.1948 3.82276 11.2566 4.01225C11.3184 4.20227 11.2679 4.41085 11.1247 4.55091L10.4501 5.21677L10.6046 6.15355C10.6376 6.35028 10.5562 6.54905 10.3945 6.66648C10.2339 6.78288 10.019 6.80007 9.84142 6.70768Z" fill="#FC9B28"/>
<path d="M9.8415 6.70763C10.0191 6.80002 10.234 6.78283 10.3946 6.66643C10.5563 6.54901 10.6376 6.35024 10.6047 6.1535L10.4502 5.21673L11.1248 4.55087C11.268 4.41081 11.3184 4.20222 11.2566 4.0122C11.1948 3.82268 11.0311 3.68363 10.8333 3.65379L9.89606 3.51267L9.47173 2.66449C9.38211 2.48579 9.19107 2.39642 9 2.39642V6.2704L9.8415 6.70763Z" fill="#FC9B28"/>
<path d="M13.2188 18H4.78125C4.48977 18 4.25391 17.7641 4.25391 17.4727C4.25391 17.1812 4.48977 16.9453 4.78125 16.9453H13.2188C13.5102 16.9453 13.7461 17.1812 13.7461 17.4727C13.7461 17.7641 13.5102 18 13.2188 18Z" fill="#474F54"/>
<path d="M13.2188 16.9453H9V18H13.2188C13.5102 18 13.7461 17.7641 13.7461 17.4727C13.7461 17.1812 13.5102 16.9453 13.2188 16.9453Z" fill="#32393F"/>
</svg>
