<svg width="14" height="14" viewBox="0 0 14 14" fill="none" xmlns="http://www.w3.org/2000/svg">
<g clip-path="url(#clip0)">
<path d="M14 7C14 10.866 10.866 14 7 14C4.962 14 3.12743 13.1291 1.84829 11.7391C1.51229 11.3743 1.21486 10.9734 0.961714 10.5434C0.350571 9.504 0 8.29286 0 7C0 3.134 3.134 0 7 0C8.29314 0 9.50428 0.350571 10.5434 0.962C10.9734 1.21486 11.374 1.51229 11.7389 1.84857C13.1289 3.12714 14 4.962 14 7Z" fill="#F0CD00"/>
<path d="M14.0003 6.99999C14.0003 10.7789 11.0063 13.8583 7.26091 13.9951C3.51548 13.8583 0.521484 10.7789 0.521484 6.99999C0.521484 3.22114 3.51548 0.141709 7.26091 0.00485229C11.0063 0.141709 14.0003 3.22114 14.0003 6.99999Z" fill="#FFDE50"/>
<path d="M11.7391 1.84856L1.84849 11.7391C1.51249 11.3743 1.21506 10.9734 0.961914 10.5434L10.5436 0.96199C10.9736 1.21485 11.3742 1.51228 11.7391 1.84856Z" fill="#FFEA94"/>
<path d="M13.5168 4.44086L4.44025 13.5174C3.79768 13.2649 3.2014 12.92 2.66797 12.4991L12.4988 2.66829C12.9197 3.20172 13.2645 3.798 13.5168 4.44086Z" fill="#FFEA94"/>
<path d="M12.4394 7.00001C12.4394 10.004 10.004 12.4394 6.99998 12.4394C5.95369 12.4394 4.97655 12.144 4.14712 11.632C3.78569 11.4092 3.45255 11.1449 3.15369 10.846C2.93398 10.6266 2.73283 10.388 2.55312 10.1334C2.30569 9.78286 2.09855 9.40172 1.93883 8.99686C1.70226 8.39829 1.56912 7.74744 1.56112 7.06686C1.56055 7.04458 1.56055 7.02229 1.56055 7.00001C1.56055 3.99601 3.99569 1.56058 6.99998 1.56058C7.02226 1.56058 7.04483 1.56058 7.06712 1.56115C7.74769 1.56915 8.39826 1.70258 8.99683 1.93886C9.40169 2.09886 9.78283 2.30572 10.1334 2.55315C10.388 2.73315 10.6263 2.93401 10.846 3.15372C11.1448 3.45229 11.4091 3.78572 11.632 4.14715C12.144 4.97658 12.4394 5.95372 12.4394 7.00001Z" fill="#FAA300"/>
<path d="M10.846 3.15372L3.15369 10.846C2.93398 10.6266 2.73283 10.388 2.55312 10.1334C2.30569 9.78286 2.09855 9.40172 1.93883 8.99686C1.70226 8.39829 1.56912 7.74743 1.56112 7.06686C1.56055 7.04458 1.56055 7.02229 1.56055 7.00001C1.56055 3.99601 3.99569 1.56058 6.99998 1.56058C7.02226 1.56058 7.04483 1.56058 7.06712 1.56115C7.74769 1.56915 8.39826 1.70258 8.99683 1.93886C9.40169 2.09886 9.78283 2.30572 10.1334 2.55315C10.388 2.73315 10.6263 2.93401 10.846 3.15372Z" fill="#FFBD00"/>
<path d="M12.4399 7.00001C12.4399 10.004 10.0045 12.4394 7.0005 12.4394C6.89736 12.4394 6.79507 12.4366 6.69336 12.4309C9.5545 12.2717 11.8254 9.90086 11.8254 7.00001C11.8254 4.09915 9.5545 1.72829 6.69336 1.56915C6.79507 1.56343 6.89736 1.56058 7.0005 1.56058C10.0045 1.56058 12.4399 3.99601 12.4399 7.00001Z" fill="#F68E00"/>
<path d="M9.16054 5.33428H8.20799C8.15374 5.12163 8.06957 4.92088 7.96085 4.73626H9.16054C9.47613 4.73626 9.73196 4.48043 9.73196 4.16483C9.73196 3.84923 9.47613 3.5934 9.16054 3.5934H5.96728H3.76186C3.44626 3.5934 3.19043 3.84923 3.19043 4.16483C3.19043 4.48043 3.44626 4.73626 3.76186 4.73626H5.96728C6.40465 4.73626 6.78648 4.97777 6.98705 5.33428H3.76186C3.44626 5.33428 3.19043 5.59011 3.19043 5.90571C3.19043 6.22131 3.44626 6.47714 3.76186 6.47714H6.98705C6.78648 6.83366 6.40465 7.07514 5.96731 7.07514H3.76189C3.53386 7.07514 3.32766 7.21071 3.23729 7.42006C3.14689 7.6294 3.18963 7.87246 3.34597 8.03843L6.45365 11.337C6.56608 11.4564 6.71771 11.5166 6.86968 11.5166C7.01022 11.5166 7.15105 11.4651 7.26142 11.3611C7.49114 11.1447 7.50188 10.783 7.28548 10.5533L5.08528 8.218H5.96728C7.04511 8.218 7.95294 7.47666 8.20799 6.47714H9.16054C9.47613 6.47714 9.73196 6.22131 9.73196 5.90571C9.73196 5.59011 9.47613 5.33428 9.16054 5.33428Z" fill="#F68E00"/>
<path d="M9.87535 5.33428H8.92281C8.86855 5.12163 8.78438 4.92088 8.67566 4.73626H9.87535C10.1909 4.73626 10.4468 4.48043 10.4468 4.16483C10.4468 3.84923 10.1909 3.5934 9.87535 3.5934H6.68213H4.4767C4.1611 3.5934 3.90527 3.84923 3.90527 4.16483C3.90527 4.48043 4.1611 4.73626 4.4767 4.73626H6.68213C7.1195 4.73626 7.50132 4.97777 7.7019 5.33428H4.4767C4.1611 5.33428 3.90527 5.59011 3.90527 5.90571C3.90527 6.22131 4.1611 6.47714 4.4767 6.47714H7.7019C7.50132 6.83366 7.1195 7.07514 6.68215 7.07514H4.47673C4.2487 7.07514 4.0425 7.21071 3.95213 7.42006C3.86173 7.6294 3.90447 7.87246 4.06082 8.03843L7.1685 11.337C7.28092 11.4564 7.43255 11.5166 7.58452 11.5166C7.72507 11.5166 7.86589 11.4651 7.97627 11.3611C8.20598 11.1447 8.21675 10.783 8.00032 10.5533L5.80018 8.218H6.68218C7.76001 8.218 8.66784 7.47666 8.92289 6.47714H9.87543C10.191 6.47714 10.4469 6.22131 10.4469 5.90571C10.4469 5.59011 10.1909 5.33428 9.87535 5.33428Z" fill="#FFEA94"/>
</g>
<defs>
<clipPath id="clip0">
<rect width="14" height="14" fill="white"/>
</clipPath>
</defs>
</svg>
