<svg width="18" height="18" viewBox="0 0 25 25" fill="none" xmlns="http://www.w3.org/2000/svg">
<path d="M24.6582 21.6309C24.8535 21.875 25 22.168 25 22.4609C25 22.8027 24.8535 23.0957 24.6582 23.291L23.291 24.6582C23.0469 24.9023 22.7539 25 22.4609 25C22.1191 25 21.8262 24.9023 21.6309 24.6582L16.748 19.7754C16.5039 19.5801 16.4062 19.2871 16.4062 18.9453V18.1641C14.5508 19.6289 12.5 20.3125 10.1562 20.3125C8.30078 20.3125 6.5918 19.873 5.0293 18.9453C3.4668 18.0664 2.24609 16.8457 1.36719 15.2832C0.439453 13.7207 0 12.0117 0 10.1562C0 8.30078 0.439453 6.64062 1.36719 5.07812C2.24609 3.51562 3.4668 2.29492 5.0293 1.36719C6.5918 0.488281 8.30078 0 10.1562 0C12.0117 0 13.6719 0.488281 15.2344 1.36719C16.7969 2.29492 18.0176 3.51562 18.9453 5.07812C19.8242 6.64062 20.3125 8.30078 20.3125 10.1562C20.3125 12.5 19.5801 14.5996 18.1641 16.4062H18.9453C19.2383 16.4062 19.5312 16.5527 19.7754 16.748L24.6582 21.6309ZM10.1562 16.4062C11.2793 16.4062 12.3047 16.1621 13.2812 15.5762C14.2578 15.0391 14.9902 14.3066 15.5762 13.3301C16.1133 12.3535 16.4062 11.3281 16.4062 10.1562C16.4062 9.0332 16.1133 8.00781 15.5762 7.03125C14.9902 6.05469 14.2578 5.32227 13.2812 4.73633C12.3047 4.19922 11.2793 3.90625 10.1562 3.90625C8.98437 3.90625 7.95898 4.19922 6.98242 4.73633C6.00586 5.32227 5.27344 6.05469 4.73633 7.03125C4.15039 8.00781 3.90625 9.0332 3.90625 10.1562C3.90625 11.3281 4.15039 12.3535 4.73633 13.3301C5.27344 14.3066 6.00586 15.0391 6.98242 15.5762C7.95898 16.1621 8.98437 16.4062 10.1562 16.4062Z" fill="#444444"/>
</svg>
