<svg width="31" height="20" viewBox="0 0 31 20" fill="none" xmlns="http://www.w3.org/2000/svg">
<path d="M30.1875 0H0.1875V19.9996H30.1875V0Z" fill="#F0F0F0"/>
<path d="M30.1875 0H0.1875V9.99978H30.1875V0Z" fill="#D80027"/>
<path d="M5.0792 4.99978C5.0792 3.54284 6.10318 2.32573 7.47052 2.02708C7.26035 1.98114 7.04232 1.9563 6.81838 1.9563C5.13744 1.9563 3.7749 3.31884 3.7749 4.99972C3.7749 6.6806 5.1375 8.04319 6.81838 8.04319C7.04232 8.04319 7.26035 8.01829 7.47052 7.97241C6.10318 7.67388 5.0792 6.45677 5.0792 4.99978Z" fill="#F0F0F0"/>
<path d="M8.99248 2.17371L9.20834 2.83798H9.90684L9.3417 3.24855L9.55756 3.91283L8.99248 3.50232L8.42734 3.91283L8.64326 3.24855L8.07812 2.83798H8.77662L8.99248 2.17371Z" fill="#F0F0F0"/>
<path d="M7.29814 3.47815L7.51395 4.14243H8.21244L7.6473 4.55299L7.86316 5.21727L7.29814 4.80676L6.73301 5.21727L6.94893 4.55299L6.38379 4.14243H7.08229L7.29814 3.47815Z" fill="#F0F0F0"/>
<path d="M10.6868 3.47815L10.9026 4.14243H11.6011L11.036 4.55299L11.2518 5.21727L10.6868 4.80676L10.1217 5.21727L10.3376 4.55299L9.77246 4.14243H10.471L10.6868 3.47815Z" fill="#F0F0F0"/>
<path d="M10.0344 5.43457L10.2502 6.09885H10.9487L10.3836 6.50941L10.5995 7.17369L10.0344 6.76318L9.46934 7.17369L9.6852 6.50941L9.12012 6.09885H9.81855L10.0344 5.43457Z" fill="#F0F0F0"/>
<path d="M7.95043 5.43457L8.16623 6.09885H8.86472L8.29964 6.50941L8.5155 7.17369L7.95043 6.76318L7.38535 7.17369L7.60121 6.50941L7.03613 6.09885H7.73457L7.95043 5.43457Z" fill="#F0F0F0"/>
</svg>
