<svg width="12" height="12" viewBox="0 0 25 25" fill="none" xmlns="http://www.w3.org/2000/svg">
<path d="M20.0834 14.8945C19.771 15.2069 19.6149 15.6754 19.6929 16.1439L20.7861 22.3906C20.9423 23.4838 19.771 24.3427 18.7559 23.8742L13.1339 20.907C12.7435 20.6728 12.275 20.6728 11.8845 20.907L6.26248 23.7961C5.24739 24.3427 4.07615 23.4838 4.23229 22.3126L5.32546 16.0658C5.40353 15.5973 5.24739 15.1288 4.93505 14.8165L0.406232 10.4437C-0.374594 9.66292 0.0158189 8.25741 1.18706 8.10121L7.43378 7.16418C7.90226 7.08611 8.29268 6.85184 8.44887 6.38336L11.2599 0.761322C11.7284 -0.253774 13.212 -0.253774 13.7586 0.761322L16.5696 6.38336C16.8039 6.77377 17.1943 7.08611 17.5847 7.16418L23.8314 8.10121C24.9246 8.25735 25.3931 9.66286 24.6122 10.4437L20.0834 14.8945Z" fill="#D24649"/>
</svg>
