<svg width="14" height="14" viewBox="0 0 14 14" fill="none" xmlns="http://www.w3.org/2000/svg">
<g clip-path="url(#clip0)">
<path d="M13.0692 7.18139C13.0129 7.06614 13.0129 6.93396 13.0692 6.81874L13.5914 5.75056C13.8821 5.1558 13.6517 4.44692 13.067 4.13665L12.0167 3.57939C11.9034 3.51929 11.8257 3.41232 11.8035 3.28602L11.5981 2.11492C11.4838 1.46288 10.8806 1.02473 10.2253 1.11745L9.04805 1.28397C8.92098 1.30191 8.79534 1.26106 8.70316 1.17189L7.84865 0.345237C7.37284 -0.115065 6.62745 -0.115093 6.15168 0.345237L5.29713 1.17197C5.20493 1.26117 5.07929 1.30194 4.95225 1.28405L3.77503 1.11753C3.11946 1.02475 2.51654 1.46296 2.40216 2.115L2.19675 3.28605C2.17458 3.41237 2.0969 3.51932 1.98361 3.57944L0.933344 4.13671C0.348574 4.44695 0.118231 5.15589 0.408948 5.75064L0.931074 6.81879C0.987402 6.93404 0.987402 7.06622 0.931074 7.18145L0.408921 8.2496C0.118204 8.84435 0.348546 9.55324 0.933316 9.86351L1.98358 10.4208C2.0969 10.4809 2.17458 10.5878 2.19675 10.7141L2.40216 11.8852C2.50628 12.4788 3.01526 12.8951 3.60022 12.895C3.65783 12.895 3.71629 12.891 3.77505 12.8827L4.95228 12.7162C5.07923 12.6981 5.20496 12.7391 5.29716 12.8282L6.15168 13.6549C6.38962 13.8851 6.69483 14.0001 7.00015 14.0001C7.30538 14.0001 7.61078 13.885 7.84862 13.6549L8.70316 12.8282C8.79536 12.7391 8.92103 12.6983 9.04805 12.7162L10.2253 12.8827C10.8809 12.9754 11.4838 12.5372 11.5981 11.8852L11.8036 10.7142C11.8257 10.5878 11.9034 10.4809 12.0167 10.4208L13.067 9.86351C13.6517 9.55326 13.8821 8.84433 13.5914 8.24957L13.0692 7.18139ZM5.38521 3.36649C6.20147 3.36649 6.86556 4.03059 6.86556 4.84685C6.86556 5.66311 6.20147 6.32721 5.38521 6.32721C4.56895 6.32721 3.90485 5.66311 3.90485 4.84685C3.90485 4.03059 4.56895 3.36649 5.38521 3.36649ZM4.62112 9.95002C4.54229 10.0289 4.43896 10.0683 4.33565 10.0683C4.23235 10.0683 4.12899 10.0289 4.05018 9.95002C3.89252 9.79236 3.89252 9.53672 4.05018 9.37906L9.37915 4.05008C9.53678 3.89242 9.79245 3.89242 9.95011 4.05008C10.1078 4.20775 10.1078 4.46338 9.95011 4.62105L4.62112 9.95002ZM8.61503 10.6337C7.79877 10.6337 7.13468 9.96957 7.13468 9.15331C7.13468 8.33705 7.79877 7.67295 8.61503 7.67295C9.43129 7.67295 10.0954 8.33705 10.0954 9.15331C10.0954 9.96957 9.43129 10.6337 8.61503 10.6337Z" fill="#18AB41"/>
<path d="M8.61476 8.48047C8.24374 8.48047 7.94186 8.78231 7.94186 9.15334C7.94186 9.52436 8.24371 9.82621 8.61476 9.82621C8.98579 9.82621 9.28763 9.52436 9.28763 9.15334C9.28763 8.78231 8.98579 8.48047 8.61476 8.48047Z" fill="#18AB41"/>
<path d="M5.38506 4.17383C5.01403 4.17383 4.71219 4.47567 4.71219 4.8467C4.71219 5.21772 5.01403 5.5196 5.38506 5.5196C5.75609 5.5196 6.05796 5.21775 6.05796 4.8467C6.05793 4.4757 5.75609 4.17383 5.38506 4.17383Z" fill="#18AB41"/>
</g>
<defs>
<clipPath id="clip0">
<rect width="14" height="14" fill="white"/>
</clipPath>
</defs>
</svg>
