<svg width="12" height="12" viewBox="0 0 12 12" fill="none" xmlns="http://www.w3.org/2000/svg">
<path d="M9.64002 7.44571C9.4901 7.60185 9.41515 7.83605 9.45263 8.07027L9.97735 11.193C10.0523 11.7394 9.4901 12.1688 9.00285 11.9346L6.30427 10.4513C6.11687 10.3342 5.892 10.3342 5.70458 10.4513L3.006 11.8956C2.51875 12.1688 1.95655 11.7394 2.0315 11.1539L2.55622 8.03124C2.5937 7.79705 2.51875 7.56282 2.36882 7.40669L0.194992 5.22078C-0.179805 4.83045 0.00759308 4.12784 0.569789 4.04976L3.56822 3.58134C3.79309 3.54232 3.98049 3.42521 4.05546 3.19101L5.40475 0.380582C5.62963 -0.12686 6.34177 -0.12686 6.60412 0.380582L7.95341 3.19101C8.06586 3.38618 8.25326 3.54232 8.44066 3.58134L11.4391 4.04976C11.9638 4.12781 12.1887 4.83042 11.8139 5.22078L9.64002 7.44571Z" fill="#8a8a8a"/>
<path d="M9.20544 8.10941L9.20543 8.10941L9.20576 8.11134L9.72979 11.23C9.7767 11.5902 9.4085 11.8467 9.11626 11.7115L6.42998 10.235C6.16531 10.0728 5.84437 10.0726 5.57952 10.2342L2.88771 11.6748L2.88768 11.6748L2.88339 11.6772C2.73394 11.761 2.57875 11.7388 2.45913 11.6476C2.33833 11.5555 2.25436 11.3912 2.2786 11.1898L2.61738 9.17866H2.61746H2.61812H2.61878H2.61944H2.6201H2.62075H2.62141H2.62207H2.62273H2.62339H2.62405H2.62471H2.62537H2.62602H2.62668H2.62734H2.628H2.62866H2.62932H2.62998H2.63064H2.63129H2.63195H2.63261H2.63327H2.63393H2.63459H2.63525H2.63591H2.63657H2.63722H2.63788H2.63854H2.6392H2.63986H2.64052H2.64118H2.64184H2.64249H2.64315H2.64381H2.64447H2.64513H2.64579H2.64645H2.64711H2.64777H2.64842H2.64908H2.64974H2.6504H2.65106H2.65172H2.65238H2.65304H2.65369H2.65435H2.65501H2.65567H2.65633H2.65699H2.65765H2.65831H2.65897H2.65962H2.66028H2.66094H2.6616H2.66226H2.66292H2.66358H2.66424H2.66489H2.66555H2.66621H2.66687H2.66753H2.66819H2.66885H2.66951H2.67017H2.67082H2.67148H2.67214H2.6728H2.67346H2.67412H2.67478H2.67544H2.67609H2.67675H2.67741H2.67807H2.67873H2.67939H2.68005H2.68071H2.68137H2.68202H2.68268H2.68334H2.684H2.68466H2.68532H2.68598H2.68664H2.6873H2.68795H2.68861H2.68927H2.68993H2.69059H2.69125H2.69191H2.69257H2.69322H2.69388H2.69454H2.6952H2.69586H2.69652H2.69718H2.69784H2.6985H2.69915H2.69981H2.70047H2.70113H2.70179H2.70245H2.70311H2.70377H2.70443H2.70508H2.70574H2.7064H2.70706H2.70772H2.70838H2.70904H2.7097H2.71035H2.71101H2.71167H2.71233H2.71299H2.71365H2.71431H2.71497H2.71563H2.71628H2.71694H2.7176H2.71826H2.71892H2.71958H2.72024H2.7209H2.72156H2.72221H2.72287H2.72353H2.72419H2.72485H2.72551H2.72617H2.72683H2.72749H2.72814H2.7288H2.72946H2.73012H2.73078H2.73144H2.7321H2.73276H2.73342H2.73407H2.73473H2.73539H2.73605H2.73671H2.73737H2.73803H2.73869H2.73935H2.74H2.74066H2.74132H2.74198H2.74264H2.7433C5.71401 9.17866 8.15238 6.83653 8.47778 3.84576L11.3627 4.29644L11.3645 4.29671C11.5155 4.31918 11.6363 4.43282 11.6879 4.59404C11.7395 4.75528 11.7097 4.92861 11.5957 5.0473C11.5957 5.04731 11.5957 5.04731 11.5957 5.04731L9.45937 7.27221C9.25344 7.48668 9.15598 7.80029 9.20544 8.10941Z" fill="#ec9900" stroke="#8a8a8a" stroke-width="0.5"/>
</svg>
