<svg width="18" height="18" viewBox="0 0 20 20" fill="none" xmlns="http://www.w3.org/2000/svg">
<rect width="18" height="18" fill="white"/>
<path d="M16.8887 8.32585L16.8887 8.32583C17.053 8.16151 17.0522 7.89683 16.8889 7.73348C16.7257 7.57027 16.4601 7.57022 16.2967 7.73346L16.2967 7.73349M16.8887 8.32585L16.2613 7.69812L16.2967 7.73349M16.8887 8.32585L16.4408 8.77409L15.8487 8.18189M16.8887 8.32585L15.8487 8.18189M16.2967 7.73349L15.8487 8.18189M16.2967 7.73349L15.8487 8.18189M15.5629 6.99999L15.5629 7L14.238 8.326V4.73206C14.238 4.34318 14.0864 3.97733 13.8114 3.70236L12.4857 2.37652C12.2107 2.10152 11.8448 1.95 11.4559 1.95H3.40674C2.60372 1.95 1.95049 2.60323 1.95049 3.40625V16.5937C1.95049 17.3968 2.60372 18.05 3.40674 18.05H12.7817C13.5848 18.05 14.238 17.3968 14.238 16.5937V12.4467L17.6225 9.05932C18.1916 8.49024 18.1917 7.56902 17.6225 6.99986C17.0547 6.43202 16.1309 6.43206 15.5629 6.99999ZM11.8324 10.7336L11.8322 10.7338L11.0216 14.1968L11.0375 14.2442L11.0375 14.2442L13.0262 13.5813C13.0903 13.56 13.1495 13.5263 13.2005 13.4824V16.5937C13.2005 16.8246 13.0126 17.0125 12.7817 17.0125H3.40674C3.17588 17.0125 2.98799 16.8246 2.98799 16.5937V3.40625C2.98799 3.1754 3.17588 2.9875 3.40674 2.9875H10.388V5.28125C10.388 5.56774 10.6202 5.8 10.9067 5.8H13.2005V9.3644L13.1996 9.3653L13.1557 9.40923L12.999 9.56602L12.5236 10.0418L12.0482 10.5176L11.8916 10.6744L11.8477 10.7184L11.8381 10.7279L11.8361 10.7299L11.8331 10.7329L11.8324 10.7336ZM11.4255 2.98714C11.5162 2.98719 11.6386 2.99675 11.752 3.11014L13.0779 4.43598C13.1897 4.54789 13.2001 4.66667 13.2007 4.7625H11.4255V2.98714ZM11.9897 12.0435L12.1992 11.8341L12.7914 12.4262L12.5819 12.6358L11.6936 12.9319L11.9897 12.0435ZM15.7075 9.50801L13.5249 11.6925L12.9327 11.1003L15.1153 8.91582L15.7075 9.50801Z" fill="#ec9900" stroke="#ec9900" stroke-width="0.1"/>
<path d="M10.9067 6.6375H4.34424C4.05775 6.6375 3.82549 6.86976 3.82549 7.15625C3.82549 7.44274 4.05775 7.675 4.34424 7.675H10.9067C11.1932 7.675 11.4255 7.44274 11.4255 7.15625C11.4255 6.86976 11.1932 6.6375 10.9067 6.6375Z" fill="#ec9900" stroke="#ec9900" stroke-width="0.1"/>
<path d="M9.03174 8.5125H4.34424C4.05775 8.5125 3.82549 8.74476 3.82549 9.03125C3.82549 9.31774 4.05775 9.55 4.34424 9.55H9.03174C9.31823 9.55 9.55049 9.31774 9.55049 9.03125C9.55049 8.74476 9.31823 8.5125 9.03174 8.5125Z" fill="#ec9900" stroke="#ec9900" stroke-width="0.1"/>
<path d="M9.03174 10.3875H4.34424C4.05775 10.3875 3.82549 10.6198 3.82549 10.9062C3.82549 11.1927 4.05775 11.425 4.34424 11.425H9.03174C9.31823 11.425 9.55049 11.1927 9.55049 10.9062C9.55049 10.6198 9.31823 10.3875 9.03174 10.3875Z" fill="#ec9900" stroke="#ec9900" stroke-width="0.1"/>
<path d="M9.03174 12.2625H4.34424C4.05775 12.2625 3.82549 12.4948 3.82549 12.7812C3.82549 13.0677 4.05775 13.3 4.34424 13.3H9.03174C9.31823 13.3 9.55049 13.0677 9.55049 12.7812C9.55049 12.4948 9.31823 12.2625 9.03174 12.2625Z" fill="#ec9900" stroke="#ec9900" stroke-width="0.1"/>
<path d="M10.9067 15.1375H8.09424C7.80775 15.1375 7.57549 15.3698 7.57549 15.6562C7.57549 15.9427 7.80775 16.175 8.09424 16.175H10.9067C11.1932 16.175 11.4255 15.9427 11.4255 15.6562C11.4255 15.3698 11.1932 15.1375 10.9067 15.1375Z" fill="#ec9900" stroke="#ec9900" stroke-width="0.1"/>
</svg>
