<svg width="15" height="15" viewBox="0 0 15 15" fill="none" xmlns="http://www.w3.org/2000/svg">
<path d="M7.5 15C11.6421 15 15 11.6421 15 7.5C15 3.35786 11.6421 0 7.5 0C3.35786 0 0 3.35786 0 7.5C0 11.6421 3.35786 15 7.5 15Z" fill="#32ba7c" fill-opacity="0.4"/>
<path d="M7.6891 9.17965C8.02034 9.51089 8.02034 10.0787 7.6891 10.4099L7.00298 11.0961C6.67175 11.4273 6.10393 11.4273 5.77269 11.0961L2.76795 8.06766C2.43672 7.73643 2.43672 7.16861 2.76795 6.83738L3.45408 6.15126C3.78531 5.82002 4.35313 5.82002 4.68436 6.15126L7.6891 9.17965Z" fill="white"/>
<path d="M10.3151 3.95106C10.6463 3.61983 11.2142 3.61983 11.5454 3.95106L12.2315 4.63718C12.5627 4.96841 12.5627 5.53623 12.2315 5.86746L7.02646 11.0489C6.69523 11.3801 6.12741 11.3801 5.79618 11.0489L5.11006 10.3627C4.77883 10.0315 4.77883 9.46368 5.11006 9.13245L10.3151 3.95106Z" fill="white"/>
</svg>
