<svg width="23" height="20" viewBox="0 0 23 20" fill="#d24649" xmlns="http://www.w3.org/2000/svg">
<path d="M11.1102 14.6678C13.0739 14.6678 14.6658 13.0759 14.6658 11.1122C14.6658 9.14852 13.0739 7.55664 11.1102 7.55664C9.14656 7.55664 7.55469 9.14852 7.55469 11.1122C7.55469 13.0759 9.14656 14.6678 11.1102 14.6678Z" fill="#d24649"/>
<path d="M7.77778 0L5.74444 2.22222H2.22222C1 2.22222 0 3.22222 0 4.44444V17.7778C0 19 1 20 2.22222 20H20C21.2222 20 22.2222 19 22.2222 17.7778V4.44444C22.2222 3.22222 21.2222 2.22222 20 2.22222H16.4778L14.4444 0H7.77778ZM11.1111 16.6667C8.04444 16.6667 5.55556 14.1778 5.55556 11.1111C5.55556 8.04444 8.04444 5.55556 11.1111 5.55556C14.1778 5.55556 16.6667 8.04444 16.6667 11.1111C16.6667 14.1778 14.1778 16.6667 11.1111 16.6667Z" fill="#d24649"/>
</svg>
