<svg width="34" height="34" viewBox="0 0 34 34" fill="none" xmlns="http://www.w3.org/2000/svg">
<path d="M17 34C26.3888 34 34 26.3888 34 17C34 7.61116 26.3888 0 17 0C7.61116 0 0 7.61116 0 17C0 26.3888 7.61116 34 17 34Z" fill="#FFC10E"/>
<path d="M5.83875 17.0117C5.83875 23.175 10.8354 28.1716 16.9987 28.1716C23.1622 28.1716 28.1591 23.175 28.1591 17.0117H5.83875Z" fill="#333333"/>
<path d="M10.7935 21.4292C10.7935 24.8563 13.572 27.6346 16.9988 27.6346C20.4262 27.6346 23.2045 24.856 23.2045 21.4292H10.7935Z" fill="#CA2027"/>
<path d="M11.8322 13.8061C13.3068 13.8061 14.5021 12.6107 14.5021 11.1362C14.5021 9.66166 13.3068 8.46631 11.8322 8.46631C10.3577 8.46631 9.16235 9.66166 9.16235 11.1362C9.16235 12.6107 10.3577 13.8061 11.8322 13.8061Z" fill="#333333"/>
<path d="M21.9274 13.8061C23.4019 13.8061 24.5973 12.6107 24.5973 11.1362C24.5973 9.66166 23.4019 8.46631 21.9274 8.46631C20.4529 8.46631 19.2575 9.66166 19.2575 11.1362C19.2575 12.6107 20.4529 13.8061 21.9274 13.8061Z" fill="#333333"/>
</svg>
