<svg width="31" height="24" viewBox="0 0 20 20" fill="none" xmlns="http://www.w3.org/2000/svg">
<path d="M17.1484 9.49395V9.80288H18.4763V5.74461C18.4763 5.01037 17.8791 4.41321 17.1449 4.41321H15.5862V7.17444C16.5016 7.54703 17.1484 8.44648 17.1484 9.49395Z" fill="#ec9900"/>
<path d="M19.4136 10.9746C18.1856 10.9746 14.6237 10.9746 13.3932 10.9746C12.7606 10.9746 12.1884 11.3054 11.8663 11.8278C11.5353 12.3664 11.6025 12.6684 11.6025 14.1116C11.6025 15.0951 12.4061 15.8956 13.3931 15.8956H19.4136C19.7372 15.8956 19.9995 15.6333 19.9995 15.3098V11.5604C19.9995 11.2369 19.7372 10.9746 19.4136 10.9746Z" fill="#ec9900"/>
<path d="M10.7432 6.99095V3.43689H6.91577V6.99095H8.24366V5.9755C8.24366 5.65212 8.50611 5.38967 8.82949 5.38967C9.15287 5.38967 9.41533 5.65212 9.41533 5.9755V6.99095H10.7432Z" fill="#ec9900"/>
<path d="M10.4308 14.1116V12.7587C10.4308 11.1289 11.7598 9.80295 13.3932 9.80295H15.9767C15.9767 9.39583 16.0071 8.97344 15.5861 8.55317C15.3433 8.30997 15.0106 8.16261 14.6433 8.16261C14.0321 8.16261 3.86656 8.16261 3.24457 8.16261C2.59562 8.16261 2.04048 8.24889 1.55076 7.76229C1.04539 7.25984 1.04804 6.46795 1.56518 5.96999C2.04611 5.50633 2.56777 5.58495 3.24457 5.58495V6.99095H5.74412V2.85106C5.74412 2.52768 6.00657 2.26522 6.32995 2.26522H11.3291C11.6524 2.26522 11.9149 2.52768 11.9149 2.85106V6.99095H14.4145V0.585833C14.4145 0.262453 14.152 0 13.8286 0H3.8304C3.50702 0 3.24457 0.262453 3.24457 0.585833V4.41328H2.53418C1.14369 4.41328 0.00291456 5.50566 0.00291456 6.87378C0.00291456 18.8942 -0.0163789 18.1511 0.0443134 18.437C0.257635 19.4066 1.08514 19.9964 1.92839 19.9964C15.3855 19.9964 14.7376 20.0175 14.9647 19.957C15.5522 19.814 15.9767 19.2818 15.9767 18.665V17.0673H13.3932C11.7598 17.0673 10.4308 15.7413 10.4308 14.1116Z" fill="#ec9900"/>
<path d="M17.1484 18.3951C17.8799 18.3932 18.4744 17.7988 18.4763 17.0673H17.1484V18.3951Z" fill="#ec9900"/>
</svg>
