<svg width="22" height="22" viewBox="0 0 22 22" fill="none" xmlns="http://www.w3.org/2000/svg">
<path d="M19.8238 10.2833H19.3593C19.3022 9.11045 18.6218 8.10019 17.6447 7.57541V5.35461H18.8593C19.3908 5.35461 19.8238 5.78763 19.8238 6.31916V10.2833Z" stroke="#ACACAC"/>
<path d="M14.7325 12.5721H14.7404H14.7484H14.7565H14.7647H14.7728H14.7811H14.7894H14.7978H14.8062H14.8147H14.8232H14.8318H14.8404H14.8491H14.8579H14.8667H14.8756H14.8845H14.8935H14.9025H14.9116H14.9207H14.9299H14.9392H14.9485H14.9578H14.9672H14.9767H14.9862H14.9958H15.0054H15.015H15.0248H15.0345H15.0444H15.0542H15.0641H15.0741H15.0841H15.0942H15.1043H15.1145H15.1247H15.135H15.1453H15.1557H15.1661H15.1765H15.187H15.1976H15.2082H15.2188H15.2295H15.2403H15.2511H15.2619H15.2728H15.2837H15.2947H15.3057H15.3168H15.3279H15.339H15.3502H15.3615H15.3727H15.3841H15.3954H15.4069H15.4183H15.4298H15.4414H15.4529H15.4646H15.4762H15.4879H15.4997H15.5115H15.5233H15.5352H15.5471H15.5591H15.571H15.5831H15.5951H15.6073H15.6194H15.6316H15.6438H15.6561H15.6684H15.6807H15.6931H15.7055H15.718H15.7305H15.743H15.7556H15.7682H15.7808H15.7935H15.8062H15.8189H15.8317H15.8445H15.8574H15.8702H15.8832H15.8961H15.9091H15.9221H15.9352H15.9482H15.9614H15.9745H15.9877H16.0009H16.0141H16.0274H16.0407H16.0541H16.0674H16.0808H16.0943H16.1077H16.1212H16.1347H16.1483H16.1619H16.1755H16.1891H16.2028H16.2165H16.2302H16.2439H16.2577H16.2715H16.2854H16.2992H16.3131H16.327H16.341H16.3549H16.3689H16.3829H16.397H16.411H16.4251H16.4393H16.4534H16.4676H16.4818H16.496H16.5102H16.5245H16.5388H16.5531H16.5674H16.5817H16.5961H16.6105H16.6249H16.6394H16.6538H16.6683H16.6828H16.6974H16.7119H16.7265H16.741H16.7557H16.7703H16.7849H16.7996H16.8143H16.829H16.8437H16.8584H16.8732H16.8879H16.9027H16.9175H16.9324H16.9472H16.9621H16.9769H16.9918H17.0067H17.0216H17.0366H17.0515H17.0665H17.0815H17.0965H17.1115H17.1265H17.1415H17.1566H17.1716H17.1867H17.2018H17.2169H17.232H17.2471H17.2623H17.2774H17.2926H17.3078H17.3229H17.3381H17.3533H17.3686H17.3838H17.399H17.4143H17.4295H17.4448H17.46H17.4753H17.4906H17.5059H17.5212H17.5365H17.5519H17.5672H17.5825H17.5979H17.6132H17.6286H17.6439H17.6593H17.6747H17.69H17.7054H17.7208H17.7362H17.7516H17.767H17.7824H17.7978H17.8132H17.8286H17.8441H17.8595H17.8749H17.8903H17.9058H17.9212H17.9366H17.9521H17.9675H17.9829H17.9984H18.0138H18.0293H18.0447H18.0601H18.0756H18.091H18.1065H18.1219H18.1373H18.1528H18.1682H18.1836H18.1991H18.2145H18.2299H18.2453H18.2608H18.2762H18.2916H18.307H18.3224H18.3378H18.3532H18.3686H18.384H18.3994H18.4147H18.4301H18.4455H18.4608H18.4762H18.4915H18.5069H18.5222H18.5375H18.5528H18.5682H18.5835H18.5987H18.614H18.6293H18.6446H18.6598H18.6751H18.6903H18.7056H18.7208H18.736H18.7512H18.7664H18.7816H18.7967H18.8119H18.827H18.8422H18.8573H18.8724H18.8875H18.9026H18.9177H18.9327H18.9478H18.9628H18.9778H18.9928H19.0078H19.0228H19.0378H19.0527H19.0676H19.0825H19.0974H19.1123H19.1272H19.1421H19.1569H19.1717H19.1865H19.2013H19.2161H19.2308H19.2455H19.2602H19.2749H19.2896H19.3043H19.3189H19.3335H19.3481H19.3627H19.3773H19.3918H19.4063H19.4208H19.4353H19.4498H19.4642H19.4786H19.493H19.5074H19.5217H19.536H19.5503H19.5646H19.5789H19.5931H19.6073H19.6215H19.6357H19.6498H19.6639H19.678H19.6921H19.7061H19.7201H19.7341H19.748H19.762H19.7759H19.7898H19.8036H19.8174H19.8312H19.845H19.8588H19.8725H19.8862H19.8998H19.9134H19.927H19.9406H19.9542H19.9677H19.9812H19.9946H20.008H20.0214H20.0348H20.0481H20.0614H20.0747H20.0879H20.1011H20.1143H20.1274H20.1405H20.1536H20.1667H20.1797H20.1926H20.2056H20.2185H20.2314H20.2442H20.257H20.2698H20.2825H20.2952H20.3079H20.3205H20.3331H20.3456H20.3581H20.3706H20.3831H20.3955H20.4078H20.4202H20.4325H20.4447H20.4569H20.4691H20.4813H20.4934H20.5054H20.5174H20.5294H20.5414H20.5533H20.5651H20.5769H20.5887H20.6005H20.6122H20.6238H20.6354H20.647H20.6585H20.67H20.6815H20.6929H20.7042H20.7155H20.7268H20.738H20.7492H20.7604H20.7715H20.7825H20.7935H20.8045H20.8154H20.8263H20.8371H20.8479H20.8586H20.8693H20.8799H20.8905H20.901H20.9115H20.922H20.9324H20.9427H20.953H20.9633H20.9735H20.9837H20.9938H21.0038H21.0138H21.0238H21.0337H21.0435H21.0533H21.0631H21.0728H21.0825H21.0921H21.1016H21.1111H21.1205H21.1299H21.1393H21.1486H21.1578H21.167H21.1761H21.1852H21.1942H21.2032H21.2121H21.2209H21.2297H21.2385H21.2471H21.2558H21.2643H21.2729H21.2813H21.2897H21.2981H21.3064H21.3146H21.3228H21.3309H21.339H21.347H21.3549C21.4347 12.5721 21.4993 12.6368 21.4993 12.7165V16.8408C21.4993 16.9205 21.4347 16.9852 21.3549 16.9852H14.7324C13.921 16.9852 13.2627 16.3267 13.2627 15.5227C13.2627 15.2449 13.2607 15.0114 13.2589 14.8111C13.2555 14.4162 13.2531 14.1508 13.2698 13.9315C13.2911 13.6515 13.3404 13.4977 13.4787 13.2727C13.7437 12.843 14.2135 12.5721 14.7325 12.5721Z" stroke="#ACACAC"/>
<path d="M16.7915 9.76232C16.9635 9.93404 17.0311 10.0903 17.0576 10.2832H14.7325C12.6608 10.2832 10.9739 11.9646 10.9739 14.0345V15.5227C10.9739 17.5927 12.6608 19.274 14.7325 19.274H17.0743V20.5316C17.0743 20.9785 16.7659 21.3639 16.343 21.4669L16.3429 21.4668L16.3325 21.4696C16.3239 21.4718 16.3162 21.474 16.3095 21.476C16.3051 21.4772 16.3013 21.4783 16.2979 21.4793L16.2906 21.4815C16.2795 21.4827 16.2485 21.4854 16.1788 21.4879C15.9899 21.4947 15.603 21.4981 14.7479 21.4994C13.934 21.5006 12.705 21.4999 10.8356 21.4988C8.79323 21.4977 5.98637 21.4961 2.12123 21.4961C1.42295 21.4961 0.720932 21.0055 0.537422 20.1748C0.52405 20.112 0.523147 20.113 0.522767 20.1134C0.522546 20.1136 0.522501 20.1137 0.520295 20.1009C0.519943 20.0989 0.516394 20.0784 0.513014 19.9988C0.506142 19.837 0.502466 19.5081 0.500939 18.7604C0.499386 18.0005 0.500012 16.8198 0.500996 14.9644C0.501937 13.1887 0.503206 10.7951 0.503206 7.56116C0.503206 6.34779 1.51852 5.35461 2.7876 5.35461H3.56902H4.06902V4.85461V0.644417C4.06902 0.564841 4.13386 0.5 4.21344 0.5H15.2115C15.2911 0.5 15.3559 0.564841 15.3559 0.644417V7.19004H13.6064V3.13616C13.6064 2.5043 13.0938 1.99175 12.462 1.99175H6.96295C6.33109 1.99175 5.81853 2.5043 5.81853 3.13616V7.19004H4.06902V6.14344V5.64344H3.56902C3.48731 5.64344 3.40251 5.64152 3.31529 5.63953C2.71284 5.62585 1.99442 5.60953 1.37466 6.20704C0.603092 6.95023 0.599556 8.14371 1.35332 8.89311L1.35342 8.89321C1.9821 9.51787 2.7352 9.49841 3.32246 9.48323C3.40851 9.48101 3.491 9.47888 3.56902 9.47888H3.57315H3.57752H3.58212H3.58697H3.59205H3.59737H3.60292H3.6087H3.61472H3.62097H3.62745H3.63416H3.6411H3.64826H3.65566H3.66328H3.67112H3.67919H3.68749H3.696H3.70474H3.7137H3.72288H3.73227H3.74189H3.75172H3.76176H3.77202H3.7825H3.79319H3.80409H3.8152H3.82652H3.83805H3.84979H3.86174H3.87389H3.88625H3.89882H3.91158H3.92455H3.93773H3.9511H3.96467H3.97844H3.99241H4.00658H4.02094H4.0355H4.05025H4.0652H4.08033H4.09566H4.11118H4.12689H4.14279H4.15888H4.17515H4.19161H4.20825H4.22508H4.24209H4.25928H4.27665H4.2942H4.31194H4.32985H4.34794H4.3662H4.38464H4.40326H4.42204H4.441H4.46014H4.47944H4.49891H4.51856H4.53837H4.55834H4.57849H4.59879H4.61927H4.6399H4.6607H4.68166H4.70278H4.72406H4.7455H4.76709H4.78885H4.81076H4.83282H4.85503H4.8774H4.89993H4.9226H4.94542H4.96839H4.99152H5.01478H5.0382H5.06176H5.08546H5.10931H5.1333H5.15743H5.1817H5.20612H5.23067H5.25536H5.28018H5.30514H5.33024H5.35547H5.38084H5.40633H5.43196H5.45772H5.48361H5.50963H5.53577H5.56204H5.58844H5.61496H5.6416H5.66837H5.69526H5.72227H5.7494H5.77665H5.80402H5.83151H5.85911H5.88683H5.91466H5.9426H5.97066H5.99883H6.02711H6.0555H6.084H6.11261H6.14132H6.17014H6.19906H6.22809H6.25722H6.28646H6.31579H6.34523H6.37476H6.4044H6.43413H6.46396H6.49388H6.5239H6.55401H6.58421H6.61451H6.6449H6.67538H6.70594H6.7366H6.76734H6.79817H6.82908H6.86008H6.89116H6.92232H6.95357H6.98489H7.0163H7.04778H7.07935H7.11099H7.1427H7.17449H7.20636H7.23829H7.2703H7.30238H7.33453H7.36675H7.39904H7.4314H7.46382H7.49631H7.52886H7.56148H7.59416H7.6269H7.6597H7.69256H7.72549H7.75847H7.7915H7.82459H7.85774H7.89094H7.9242H7.95751H7.99087H8.02428H8.05774H8.09125H8.1248H8.15841H8.19206H8.22575H8.25949H8.29327H8.32709H8.36096H8.39486H8.42881H8.46279H8.49681H8.53086H8.56495H8.59908H8.63324H8.66743H8.70166H8.73591H8.7702H8.80451H8.83886H8.87323H8.90762H8.94204H8.97649H9.01096H9.04545H9.07996H9.11449H9.14904H9.18361H9.2182H9.25281H9.28743H9.32207H9.35672H9.39138H9.42606H9.46074H9.49544H9.53014H9.56486H9.59958H9.63431H9.66904H9.70378H9.73852H9.77327H9.80801H9.84276H9.87751H9.91225H9.947H9.98174H10.0165H10.0512H10.0859H10.1207H10.1554H10.1901H10.2248H10.2594H10.2941H10.3288H10.3634H10.3981H10.4327H10.4673H10.5019H10.5364H10.571H10.6055H10.64H10.6745H10.7089H10.7434H10.7778H10.8122H10.8465H10.8809H10.9152H10.9495H10.9837H11.0179H11.0521H11.0863H11.1204H11.1545H11.1885H11.2225H11.2565H11.2904H11.3243H11.3582H11.392H11.4257H11.4595H11.4931H11.5268H11.5604H11.5939H11.6274H11.6609H11.6943H11.7276H11.7609H11.7941H11.8273H11.8605H11.8935H11.9265H11.9595H11.9924H12.0253H12.058H12.0908H12.1234H12.156H12.1886H12.221H12.2534H12.2858H12.318H12.3502H12.3824H12.4144H12.4464H12.4783H12.5102H12.5419H12.5736H12.6053H12.6368H12.6683H12.6996H12.7309H12.7622H12.7933H12.8244H12.8553H12.8862H12.917H12.9477H12.9784H13.0089H13.0394H13.0697H13.1H13.1302H13.1603H13.1903H13.2201H13.25H13.2797H13.3093H13.3388H13.3682H13.3975H13.4267H13.4558H13.4848H13.5137H13.5425H13.5711H13.5997H13.6282H13.6565H13.6848H13.7129H13.741H13.7689H13.7967H13.8244H13.8519H13.8794H13.9067H13.9339H13.961H13.988H14.0149H14.0416H14.0682H14.0947H14.121H14.1473H14.1734H14.1994H14.2252H14.2509H14.2765H14.302H14.3273H14.3525H14.3776H14.4025H14.4273H14.4519H14.4764H14.5008H14.525H14.5491H14.5731H14.5969H14.6205H14.6441H14.6674H14.6907H14.7137H14.7367H14.7594H14.7821H14.8046H14.8269H14.8491H14.8711H14.8929H14.9146H14.9362H14.9576H14.9788H14.9999H15.0208H15.0416H15.0621H15.0826H15.1028H15.1229H15.1429H15.1626H15.1822H15.2016H15.2209H15.24H15.2589H15.2776H15.2962H15.3146H15.3328H15.3508H15.3687H15.3864H15.4039H15.4212H15.4383H15.4553H15.4721H15.4886H15.5051H15.5213H15.5373H15.5531H15.5688H15.5843H15.5995H15.6146H15.6295H15.6442H15.6587H15.673H15.6871H15.701H15.7147H15.7283H15.7416H15.7547H15.7676H15.7803H15.7928H15.8051H15.8172H15.8291H15.8408H15.8522H15.8635H15.8746H15.8854H15.896H15.9064H15.9166H15.9266H15.9364H15.9459H15.9553H15.9644H15.9733H15.982H15.9904H15.9986H16.0066H16.0144H16.022H16.0293H16.0364H16.0433H16.0499H16.0563H16.0625H16.0685H16.0742H16.0797H16.0849H16.0899H16.0947H16.0992H16.1035H16.1076C16.3746 9.47888 16.6145 9.58511 16.7909 9.76176L16.7915 9.76232Z" stroke="#ACACAC"/>
<path d="M19.3632 19.274H19.6813C19.6017 19.4033 19.4925 19.5126 19.3632 19.5922V19.274Z" stroke="#ACACAC"/>
</svg>
