<svg width="9" height="9" viewBox="0 0 33 33" fill ="#444444" xmlns="http://www.w3.org/2000/svg">
<g filter="url(#filter0_d)">
<path d="M20.625 12.5008L28.3591 4.7667C29.2136 3.91217 29.2136 2.52675 28.3591 1.67355L27.328 0.642504C26.4732 -0.212299 25.0878 -0.212299 24.2346 0.642504L16.5008 8.37631L8.7667 0.640901C7.91217 -0.213634 6.52675 -0.213634 5.67355 0.640901L4.6409 1.67195C3.78637 2.52675 3.78637 3.91217 4.6409 4.76537L12.3763 12.5008L4.6425 20.2346C3.7877 21.0894 3.7877 22.4748 4.6425 23.328L5.67355 24.3591C6.52809 25.2136 7.9135 25.2136 8.7667 24.3591L16.5008 16.625L24.2346 24.3591C25.0894 25.2136 26.4748 25.2136 27.328 24.3591L28.3591 23.328C29.2136 22.4732 29.2136 21.0878 28.3591 20.2346L20.625 12.5008Z" fill="#444444"/>
<path d="M19.5643 11.4401C19.283 11.7214 19.125 12.103 19.125 12.5008C19.125 12.8986 19.283 13.2802 19.5643 13.5615L27.2984 21.2953L27.2992 21.2961C27.5663 21.5627 27.5677 21.9977 27.2984 22.2673C27.2983 22.2674 27.2983 22.2675 27.2982 22.2675L26.2673 23.2984L26.2665 23.2992C25.9999 23.5663 25.5649 23.5677 25.2953 23.2984C25.2952 23.2983 25.2951 23.2983 25.2951 23.2982L17.5615 15.5643C17.2802 15.283 16.8986 15.125 16.5008 15.125C16.103 15.125 15.7214 15.283 15.4401 15.5643L7.70604 23.2984L7.70521 23.2992C7.43845 23.5664 7.00342 23.5676 6.73421 23.2984L5.70316 22.2673L5.70217 22.2663C5.43503 21.9997 5.4336 21.5648 5.70316 21.2952L13.437 13.5614C14.0228 12.9757 14.0228 12.0259 13.437 11.4401L5.70156 3.70471L5.70073 3.70388C5.43376 3.43732 5.43221 3.00244 5.70136 2.73281C5.70149 2.73269 5.70161 2.73257 5.70173 2.73245L6.73339 1.70239L6.73504 1.70073C7.00178 1.43358 7.43674 1.43235 7.70595 1.70147C7.70598 1.7015 7.70601 1.70153 7.70604 1.70156L15.44 9.43688C15.7213 9.71822 16.1029 9.87629 16.5007 9.87631C16.8986 9.87633 17.2801 9.71829 17.5614 9.43697L25.2952 1.70316L25.2962 1.70217C25.5629 1.43503 25.9978 1.4336 26.2673 1.70316L27.2984 2.73421L27.2992 2.73504C27.5664 3.00181 27.5676 3.43684 27.2984 3.70604L19.5643 11.4401Z" stroke="#444444" stroke-width="0" stroke-linecap="round" stroke-linejoin="round"/>
</g>
<defs>
<filter id="filter0_d" x="0" y="0" width="30" height="30" filterUnits="userSpaceOnUse" color-interpolation-filters="sRGB">
<feFlood flood-opacity="0" result="BackgroundImageFix"/>
<feColorMatrix in="SourceAlpha" type="matrix" values="0 0 0 0 0 0 0 0 0 0 0 0 0 0 0 0 0 0 127 0"/>
<feOffset dy="4"/>
<feGaussianBlur stdDeviation="2"/>
<feColorMatrix type="matrix" values="0 0 0 0 0 0 0 0 0 0 0 0 0 0 0 0 0 0 0.25 0"/>
<feBlend mode="normal" in2="BackgroundImageFix" result="effect1_dropShadow"/>
<feBlend mode="normal" in="SourceGraphic" in2="effect1_dropShadow" result="shape"/>
</filter>
</defs>
</svg>
