<svg width="12" height="12" viewBox="0 0 10 10" fill="none" xmlns="http://www.w3.org/2000/svg">
<path d="M9.53125 0C9.64844 0 9.76562 0.0585037 9.86328 0.136509C9.94141 0.234015 10 0.351022 10 0.46803C10 0.604539 9.94141 0.721546 9.86328 0.799551L6.25 4.40728V9.51661C6.25 9.71162 6.15234 9.86763 5.99609 9.94563C5.82031 10.0236 5.66406 10.0236 5.50781 9.90663L3.94531 8.81456C3.80859 8.71706 3.75 8.58055 3.75 8.42454V4.40728L0.136719 0.799551C0.0390625 0.721546 0 0.604539 0 0.46803C0 0.351022 0.0390625 0.234015 0.136719 0.136509C0.214844 0.0585037 0.332031 0 0.46875 0H9.53125Z" fill="#d24649"/>
</svg>
