<svg width="8" height="10" viewBox="0 0 8 12" fill="#d24649" xmlns="http://www.w3.org/2000/svg">
<path d="M7.91972 2.61803C7.86633 2.56879 7.79799 2.54421 7.71493 2.54421H6.19161C6.09057 2.09024 5.90052 1.69616 5.62141 1.36243H7.69702C7.7803 1.36243 7.84845 1.33782 7.90202 1.28869C7.95519 1.23948 7.9819 1.1765 7.9819 1.09992V0.26262C7.9819 0.185984 7.95522 0.123117 7.90202 0.0738474C7.84839 0.0246925 7.78024 0 7.69696 0H0.285038C0.201851 0 0.133611 0.0246925 0.0801289 0.0738187C0.0268033 0.123089 0 0.185955 0 0.262591V1.35412C0 1.42524 0.0282073 1.48678 0.084622 1.53875C0.141037 1.59072 0.207842 1.61671 0.285038 1.61671H1.5768C2.82988 1.61671 3.62574 1.92575 3.96423 2.54407H0.285038C0.201851 2.54407 0.133517 2.56865 0.0801289 2.61789C0.0268033 2.66719 0 2.73003 0 2.80666V3.64385C0 3.72043 0.0266784 3.78338 0.0801289 3.83251C0.133611 3.8818 0.201976 3.90632 0.285038 3.90632H4.08913C3.95845 4.3551 3.65404 4.697 3.17589 4.93228C2.6977 5.16759 2.06681 5.28525 1.28281 5.28525H0.285038C0.207842 5.28525 0.141037 5.31127 0.084622 5.36321C0.0281761 5.41521 0 5.47678 0 5.54784V6.59024C0 6.66147 0.0266784 6.72164 0.0801289 6.77082C1.22037 7.88696 2.69926 9.44891 4.51661 11.4571C4.57012 11.5228 4.64432 11.5556 4.73937 11.5556H6.47649C6.60133 11.5556 6.68752 11.5065 6.73488 11.4078C6.79426 11.3093 6.78262 11.2163 6.69922 11.1287C4.96521 9.1699 3.60209 7.70359 2.61024 6.72972C3.6199 6.62031 4.43951 6.31932 5.06909 5.82699C5.69857 5.33461 6.08159 4.69433 6.21829 3.90647H7.71493C7.79799 3.90647 7.86636 3.88192 7.91972 3.83265C7.97323 3.78352 8 3.72057 8 3.64399V2.80689C8 2.73017 7.97323 2.6673 7.91972 2.61803Z" fill="#6e798c"/>
</svg>
