<svg width="14" height="14" viewBox="0 0 14 14" fill="none" xmlns="http://www.w3.org/2000/svg">
<path d="M10.2702 3.37172C10.2702 4.29831 9.93805 5.10036 9.28275 5.75597C8.62745 6.41147 7.82554 6.74376 6.89923 6.74376H6.89763C5.97249 6.74344 5.17112 6.41115 4.51581 5.75597C3.8604 5.10036 3.52832 4.29831 3.52832 3.37172C3.52832 2.44545 3.8604 1.6433 4.51581 0.987793C5.1708 0.332504 5.97217 0.000320436 6.89763 0H6.89923C7.82522 0 8.62713 0.332291 9.28275 0.987793C9.93805 1.6433 10.2702 2.44545 10.2702 3.37172Z" fill="#C6C6C6"/>
<path d="M12.8288 11.5923C12.8288 12.3233 12.5963 12.9151 12.1383 13.351C11.6856 13.7818 11.0869 14 10.359 14H3.61792C2.89 14 2.29132 13.7818 1.83897 13.351C1.38065 12.9148 1.14844 12.3231 1.14844 11.5923C1.14844 11.3111 1.15773 11.033 1.17632 10.7655C1.19522 10.4921 1.23346 10.1945 1.28986 9.8806C1.34668 9.56412 1.41974 9.26494 1.50722 8.9915C1.59801 8.70845 1.72084 8.42925 1.87283 8.16179C2.0307 7.88419 2.21613 7.64236 2.42398 7.44327C2.64188 7.23488 2.90826 7.0675 3.2162 6.94553C3.52307 6.82419 3.86327 6.76266 4.22728 6.76266C4.37009 6.76266 4.50841 6.82109 4.77501 6.99477C4.94185 7.10361 5.13411 7.22751 5.34634 7.36316C5.52963 7.48001 5.77786 7.5896 6.08473 7.68861C6.35443 7.77588 6.62819 7.82459 6.89864 7.83302C6.92844 7.83409 6.95824 7.83463 6.98804 7.83463C7.28839 7.83463 7.59216 7.78539 7.89166 7.68861C8.19853 7.5896 8.44708 7.48001 8.63026 7.36316C8.84474 7.22612 9.037 7.10233 9.20139 6.99509C9.4682 6.82109 9.60631 6.76266 9.74944 6.76266C10.1131 6.76266 10.4533 6.82419 10.7604 6.94553C11.0683 7.0675 11.3347 7.2352 11.5524 7.44327C11.7606 7.64236 11.946 7.88419 12.1038 8.16179C12.2559 8.42946 12.3789 8.70845 12.4694 8.99118C12.557 9.26494 12.6302 9.56412 12.6871 9.88081C12.7431 10.1951 12.7815 10.4926 12.8003 10.7653C12.8192 11.0319 12.8285 11.3101 12.8288 11.5923Z" fill="#C6C6C6"/>
<path d="M6.90028 6.74376H6.89868V0H6.90028C7.82655 0 8.62871 0.332291 9.28453 0.987793C9.94003 1.6433 10.2723 2.44545 10.2723 3.37172C10.2723 4.29831 9.94003 5.10036 9.28453 5.75597C8.62903 6.41147 7.82687 6.74376 6.90028 6.74376Z" fill="#C6C6C6"/>
<path d="M12.8289 11.5923C12.8289 12.3233 12.5963 12.9151 12.1383 13.351C11.6857 13.7818 11.087 14 10.3591 14H6.89868V7.83302C6.92848 7.83409 6.95828 7.83463 6.98808 7.83463C7.28844 7.83463 7.59221 7.78539 7.89171 7.68861C8.19858 7.5896 8.44713 7.48001 8.63031 7.36316C8.84479 7.22612 9.03705 7.10233 9.20143 6.99509C9.46825 6.82109 9.60635 6.76266 9.74948 6.76266C10.1132 6.76266 10.4534 6.82419 10.7605 6.94553C11.0684 7.0675 11.3348 7.2352 11.5525 7.44327C11.7606 7.64236 11.9461 7.88419 12.1038 8.16179C12.2559 8.42946 12.379 8.70845 12.4694 8.99118C12.557 9.26494 12.6303 9.56412 12.6871 9.88081C12.7432 10.1951 12.7815 10.4926 12.8003 10.7653C12.8192 11.0319 12.8285 11.3101 12.8289 11.5923Z" fill="#C6C6C6"/>
</svg>
